<svg width="428" height="286" viewBox="0 0 428 286" fill="none" xmlns="http://www.w3.org/2000/svg">
  <path d="M86.25 87.2433L36.2539 87.1691C36.2539 87.1691 38.742 83.9335 41.4869 83.534C41.4869 83.534 46.8398 67.6752 55.7536 67.5553C64.0511 67.464 67.3609 77.3365 67.3609 77.3365C67.3609 77.3365 71.2129 72.9139 74.8823 74.9455C78.5517 76.977 80.6232 82.7693 80.6232 82.7693C80.6232 82.7693 84.7549 85.0291 86.25 87.2433Z" fill="#EBEBEB"/>
  <path d="M317.404 126.534L380.634 126.631C380.634 126.631 380.634 122.591 371.931 121.786C371.931 121.786 364.005 104.095 351.861 106.469C344.3 107.936 340.419 118.311 340.419 118.311C340.419 118.311 334.713 110.133 330.147 111.708C325.582 113.283 322.848 121.98 322.848 121.98C322.848 121.98 318.123 124.251 317.404 126.534Z" fill="#EBEBEB"/>
  <path d="M101.27 53.3174L144.264 53.3859C144.264 53.3859 140.212 49.6024 138.409 49.6024C136.605 49.6024 131.361 36.9108 124.638 37.4415C117.916 37.9722 114.326 47.4053 114.326 47.4053C114.326 47.4053 106.143 44.8316 101.27 53.3174Z" fill="#EBEBEB"/>
  <path d="M354.982 82.5239L391.745 82.581C391.745 82.581 389.924 80.1956 387.91 79.8989C387.91 79.8989 384.007 68.223 377.444 68.1317C371.343 68.0404 368.884 75.2936 368.884 75.2936C368.884 75.2936 366.059 72.0351 363.36 73.5188C360.661 75.0025 359.12 79.2597 359.12 79.2597C359.12 79.2597 356.095 80.8918 354.982 82.5239Z" fill="#EBEBEB"/>
  <path d="M224.922 75.3281L261.684 75.3852C261.684 75.3852 259.864 72.9998 257.844 72.7031C257.844 72.7031 253.946 61.0272 247.383 60.9359C241.283 60.8446 238.823 68.0978 238.823 68.0978C238.823 68.0978 235.999 64.8393 233.299 66.323C230.6 67.8067 229.059 72.0639 229.059 72.0639C229.059 72.0639 226.029 73.6618 224.922 75.3281Z" fill="#EBEBEB"/>
  <path d="M25.9707 203.831L72.8396 203.688L119.703 203.637L213.429 203.545L307.155 203.637L354.024 203.688L400.887 203.831L354.024 203.968L307.155 204.019L213.429 204.11L119.703 204.019L72.8396 203.968L25.9707 203.831Z" fill="#263238"/>
  <path d="M186.898 258.666C272.48 258.666 341.857 252.412 341.857 244.696C341.857 236.981 272.48 230.727 186.898 230.727C101.317 230.727 31.9395 236.981 31.9395 244.696C31.9395 252.412 101.317 258.666 186.898 258.666Z" fill="#EBEBEB"/>
  <path d="M295.274 228.586C355.329 228.586 404.014 223.109 404.014 216.351C404.014 209.594 355.329 204.116 295.274 204.116C235.218 204.116 186.533 209.594 186.533 216.351C186.533 223.109 235.218 228.586 295.274 228.586Z" fill="#EBEBEB"/>
  <path d="M253.946 213.384C255.264 213.778 292.551 212.545 293.944 211.598C294.475 211.244 294.612 205.8 294.589 199.22V199.015C294.589 197.657 290.349 174.95 290.349 174.95L265.399 175.697L270.535 199.54V199.945C270.535 199.945 256.474 206.793 255.053 208.008C253.632 209.224 252.656 212.99 253.946 213.384Z" fill="#F7A9A0"/>
  <path d="M293.961 211.598C292.58 212.545 255.287 213.784 253.974 213.384C252.662 212.985 253.683 209.207 255.087 208.008C255.886 207.329 260.685 204.864 264.731 202.838C262.009 204.276 256.417 209.207 273.394 206.325C284.882 204.373 291.484 202.73 294.611 201.845C294.589 207.192 294.423 211.295 293.961 211.598Z" fill="#263238"/>
  <path d="M265.502 199.043L297.351 196.389C297.351 196.389 287.707 157.972 289.441 155.375C290.2 154.234 319.401 159.633 330.489 147.626C340.63 136.64 330.489 114.464 330.489 114.464H303.097C303.097 114.464 303.388 124.097 301.716 127.624C300.997 129.136 268.047 126.249 262.597 136.184C255.35 149.452 265.502 199.043 265.502 199.043Z" fill="#37474F"/>
  <path d="M293.579 190.255C290.069 190.42 286.542 190.557 283.033 190.825C279.523 191.093 276.002 191.396 272.498 191.812L269.531 192.161C269.057 192.218 268.589 192.275 268.115 192.343C267.638 192.389 267.163 192.463 266.695 192.566C266.643 192.566 266.66 192.646 266.695 192.651C267.593 192.686 268.493 192.657 269.388 192.566L271.933 192.423C273.679 192.32 275.426 192.206 277.172 192.081C280.67 191.83 284.151 191.47 287.638 191.093L293.573 190.437C293.698 190.42 293.698 190.249 293.579 190.255Z" fill="#263238"/>
  <path d="M327.413 120.051C327.316 119.132 327.242 118.208 327.202 117.283C327.198 117.272 327.191 117.262 327.181 117.255C327.171 117.248 327.16 117.244 327.148 117.244C327.136 117.244 327.124 117.248 327.114 117.255C327.105 117.262 327.097 117.272 327.094 117.283C327.094 124.297 329.53 131.379 327.624 138.335C326.812 141.383 324.958 144.05 322.386 145.874C319.68 147.685 316.585 148.833 313.352 149.224C309.682 149.754 305.933 149.652 302.252 149.629L290.731 149.572H287.877C286.98 149.517 286.081 149.517 285.184 149.572C284.863 149.584 284.555 149.702 284.309 149.909C284.063 150.116 283.893 150.399 283.826 150.713C283.711 151.53 283.7 152.358 283.791 153.178C283.902 156.884 284.164 160.576 284.579 164.255C285.409 171.587 286.837 178.84 288.847 185.94C289.099 186.819 289.361 187.698 289.629 188.571C289.636 188.593 289.651 188.611 289.672 188.622C289.692 188.633 289.716 188.635 289.738 188.628C289.76 188.621 289.778 188.606 289.789 188.586C289.799 188.565 289.802 188.542 289.795 188.52C287.778 181.358 286.286 174.059 285.332 166.68C284.864 163.011 284.545 159.319 284.345 155.621C284.295 154.708 284.255 153.795 284.225 152.882C284.225 152.436 284.191 151.986 284.185 151.541C284.147 151.16 284.217 150.777 284.385 150.433C284.522 150.269 284.699 150.142 284.898 150.063C285.098 149.984 285.313 149.957 285.526 149.983C286.028 149.983 286.531 149.983 287.033 149.983H289.886L301.408 150.057C305.1 150.057 308.827 150.199 312.49 149.771C315.701 149.477 318.813 148.505 321.621 146.918C324.242 145.41 326.304 143.093 327.499 140.316C330.215 133.804 328.132 126.762 327.413 120.051Z" fill="#263238"/>
  <path d="M330.49 147.626C323.642 155.045 309.803 155.821 300.102 155.615L311.201 114.487H330.49C330.49 114.487 340.63 136.641 330.49 147.626Z" fill="#263238"/>
  <path d="M386.871 211.792C386.722 210.428 371.017 176.582 369.602 175.674C369.071 175.321 364.004 177.324 357.955 179.914L357.767 180C356.517 180.531 333.496 186.717 333.496 186.717L343.7 208.864L367.668 201.948L368.033 201.765C368.033 201.765 379.834 212.037 381.501 212.865C383.167 213.692 387.03 213.156 386.871 211.792Z" fill="#F7A9A0"/>
  <path d="M360.969 178.619C365.614 176.684 369.164 175.361 369.603 175.657C371.024 176.565 386.723 210.405 386.871 211.769C387.02 213.133 383.145 213.669 381.49 212.842C380.48 212.334 375.698 208.322 372.114 205.269C374.676 207.278 380.269 209.737 371.897 195.631C366.732 186.945 363.103 181.598 360.969 178.619Z" fill="#263238"/>
  <path d="M303.286 114.464C303.286 114.464 303.708 127.732 305.7 134.266C305.7 134.266 307.868 135.408 308.519 135.813C308.519 135.813 292.038 175.275 292.974 190.46C293.282 195.436 298.92 203.614 304.616 207.158C314.694 213.435 363.874 207.928 363.874 207.928L356.74 178.356C356.74 178.356 325.645 180.068 324.857 178.408C323.858 176.273 330.05 159.673 334.998 146.188C335.494 144.824 340.471 139.802 339.888 130.706C339.445 125.079 337.996 119.578 335.608 114.464H303.286Z" fill="#37474F"/>
  <path d="M308.462 131.173C308.399 130.232 308.33 129.29 308.245 128.354C308.056 126.214 307.834 124.069 307.457 121.951C307.457 121.786 307.195 121.849 307.212 122.009C307.354 123.669 307.543 125.33 307.703 126.99C307.862 128.651 308.056 130.306 308.085 131.961C308.085 132.457 308.085 133.302 307.446 133.439C306.624 133.627 306.236 132.543 306.042 131.955C305.569 130.477 305.224 128.961 305.009 127.424C304.735 125.712 304.592 123.915 304.438 122.157C304.438 122.094 304.324 122.106 304.324 122.157C304.324 125.644 304.364 129.29 305.665 132.583C305.759 132.921 305.943 133.228 306.197 133.47C306.451 133.713 306.766 133.881 307.109 133.958C307.109 133.958 307.109 133.958 307.143 133.958C307.178 133.958 307.143 133.998 307.143 134.021C307.143 134.044 307.183 134.215 307.2 134.312C307.211 134.395 307.229 134.477 307.252 134.558C307.286 134.729 307.309 134.9 307.349 135.065C307.355 135.095 307.371 135.121 307.395 135.14C307.418 135.159 307.447 135.169 307.477 135.169C307.507 135.169 307.536 135.159 307.56 135.14C307.583 135.121 307.599 135.095 307.606 135.065C307.627 135.058 307.645 135.044 307.657 135.025C307.669 135.007 307.675 134.985 307.674 134.963C307.659 134.623 307.584 134.289 307.451 133.975C307.652 133.934 307.84 133.843 307.996 133.71C308.153 133.577 308.273 133.408 308.347 133.216C308.548 132.554 308.587 131.854 308.462 131.173Z" fill="#263238"/>
  <path d="M305.951 134.278C308.619 135.386 311.188 136.722 313.626 138.273C313.723 138.33 313.626 138.484 313.546 138.432C310.955 137.171 308.307 135.961 305.791 134.558C305.768 134.531 305.754 134.498 305.751 134.462C305.747 134.427 305.755 134.392 305.773 134.362C305.79 134.331 305.817 134.307 305.848 134.292C305.88 134.277 305.916 134.272 305.951 134.278Z" fill="#263238"/>
  <path d="M327.94 128.212C327.267 128.213 326.595 128.159 325.931 128.052C325.36 127.944 324.755 127.778 324.185 127.613C323.106 127.293 321.793 126.916 321.006 126.06C320.244 125.128 319.635 124.08 319.203 122.956C318.662 121.781 318.305 120.53 318.141 119.247C318.144 119.24 318.145 119.232 318.144 119.225C318.143 119.218 318.14 119.211 318.136 119.205C318.132 119.199 318.126 119.194 318.12 119.19C318.113 119.187 318.106 119.185 318.098 119.185C318.091 119.185 318.084 119.187 318.077 119.19C318.071 119.194 318.065 119.199 318.061 119.205C318.057 119.211 318.054 119.218 318.053 119.225C318.052 119.232 318.053 119.24 318.056 119.247C318.137 120.573 318.357 121.887 318.712 123.167C318.911 123.805 319.157 124.427 319.448 125.027C319.712 125.63 320.064 126.189 320.492 126.688C321.36 127.63 322.775 128.086 324.002 128.332C325.311 128.571 326.653 128.571 327.962 128.332C328.048 128.343 328.019 128.212 327.94 128.212Z" fill="#263238"/>
  <path d="M348.677 181.803C341.897 181.677 338.741 182.094 331.956 182.1H324.281C323.687 182.115 323.093 182.061 322.512 181.94C321.972 181.848 321.487 181.559 321.148 181.13C320.697 180.456 320.936 179.6 321.096 178.847C321.433 177.255 321.821 175.668 322.238 174.093C323.95 167.685 326.175 161.425 328.275 155.136L331.517 145.434C331.785 144.647 332.047 143.859 332.378 143.095C332.692 142.396 333.048 141.718 333.445 141.063C334.209 139.806 334.825 138.466 335.283 137.068C337.121 131.037 335.357 124.793 333.212 119.104C332.92 118.339 332.641 117.58 332.31 116.821C332.31 116.77 332.207 116.821 332.23 116.85C334.182 122.859 336.516 129.108 335.203 135.516C334.898 137.024 334.369 138.478 333.634 139.83C333.257 140.521 332.846 141.189 332.492 141.879C332.126 142.584 331.809 143.315 331.545 144.065C330.404 147.249 329.377 150.485 328.304 153.698C326.158 160.078 323.904 166.446 322.118 172.941C321.673 174.556 321.262 176.182 320.897 177.82C320.628 179.03 320.023 180.673 321.073 181.672C321.844 182.402 323.059 182.494 324.064 182.499C325.776 182.499 327.448 182.499 329.137 182.499C336.019 182.499 347.849 182.066 348.699 182.048C348.732 182.045 348.762 182.03 348.783 182.004C348.804 181.979 348.814 181.947 348.811 181.914C348.808 181.882 348.792 181.852 348.767 181.831C348.742 181.81 348.709 181.8 348.677 181.803Z" fill="#263238"/>
  <path d="M358.652 206.582C357.985 203.129 357.351 199.659 356.586 196.224C355.822 192.789 354.989 189.347 354.098 185.952C353.847 184.988 353.585 184.029 353.328 183.064C353.21 182.608 353.084 182.151 352.951 181.695C352.836 181.227 352.696 180.766 352.529 180.314C352.529 180.268 352.443 180.314 352.443 180.342C352.54 181.234 352.696 182.119 352.911 182.99C353.083 183.829 353.242 184.662 353.413 185.495C353.767 187.207 354.131 188.919 354.503 190.631C355.251 194.055 356.107 197.479 356.974 200.852C357.473 202.781 357.973 204.708 358.475 206.633C358.504 206.69 358.675 206.667 358.652 206.582Z" fill="#263238"/>
  <path d="M286.046 100.181L290.72 100.301C292.093 97.6708 292.617 94.6804 292.221 91.7406C292.141 91.0615 293.733 94.942 293.094 100.38C298.03 100.506 304.742 100.671 310.608 100.757C310.722 98.4744 310.933 96.3515 310.933 96.3515C311.119 97.8526 311.436 99.3344 311.881 100.78L314.226 100.814C314.194 97.5577 314.34 94.3019 314.665 91.0615C315.088 94.4582 316.066 97.7625 317.559 100.843C321.279 100.843 323.733 100.803 323.574 100.626C317.947 94.1602 322.073 90.4451 320.481 84.7556C318.563 77.9418 312.691 76.8519 312.868 71.733C313.005 67.5671 313.53 60.0115 308.268 58.3908C306.846 56.9964 305.045 56.052 303.089 55.6755C301.133 55.2989 299.11 55.507 297.271 56.2736C288.951 59.4465 292.233 72.2979 291.662 74.9116C290.851 78.6381 289.071 79.9563 287.741 84.2078C286.412 88.4592 288.312 91.3753 288.563 94.2971C288.814 97.219 285.111 100.175 286.046 100.181Z" fill="#263238"/>
  <path d="M323.739 99.6784C322.971 98.5526 322.364 97.3252 321.936 96.0318C321.513 94.765 321.696 93.4638 321.936 92.1228C322.234 90.7639 322.463 89.3906 322.62 88.0083C322.776 86.5651 322.638 85.1054 322.215 83.7169C321.763 82.329 320.998 81.0638 319.978 80.0189C318.99 79.0267 317.921 78.1182 316.782 77.3026C315.681 76.5211 314.687 75.5982 313.826 74.5577C313.001 73.4757 312.486 72.1894 312.337 70.8369C312.284 72.2462 312.658 73.6386 313.41 74.8316C314.203 75.9975 315.165 77.0398 316.263 77.9246C317.313 78.7801 318.306 79.7027 319.236 80.6866C320.117 81.6504 320.779 82.7931 321.177 84.0364C321.541 85.2955 321.673 86.6106 321.565 87.917C321.485 89.2466 321.234 90.5877 321.057 91.9687C320.956 92.6717 320.911 93.3815 320.92 94.0916C320.948 94.8197 321.106 95.5368 321.388 96.2088C321.957 97.4969 322.753 98.6722 323.739 99.6784Z" fill="#263238"/>
  <path d="M292.563 61.0215C291.98 62.6254 291.597 64.2947 291.421 65.992C291.21 67.704 291.079 69.376 290.965 71.0652L290.782 73.5876C290.732 74.4007 290.604 75.2072 290.4 75.9958C289.904 77.5555 289.13 79.0131 288.117 80.2986C287.615 81.007 287.161 81.7487 286.759 82.5185C286.356 83.3101 286.044 84.1448 285.829 85.0066C285.64 85.8614 285.518 86.7295 285.464 87.6031C285.401 88.4824 285.447 89.366 285.601 90.2339C285.755 91.107 285.994 91.9459 286.2 92.7334C286.408 93.5331 286.538 94.3511 286.588 95.1759C286.612 96.0034 286.439 96.8248 286.083 97.5721C285.727 98.3194 285.197 98.971 284.539 99.473C285.291 99.0254 285.92 98.3978 286.369 97.6467C286.819 96.8956 287.074 96.0445 287.113 95.1702C287.131 94.3035 287.061 93.4372 286.902 92.5851C286.753 91.7348 286.542 90.9187 286.451 90.1084C286.283 88.4832 286.414 86.8411 286.839 85.2634C287.055 84.486 287.349 83.7326 287.718 83.015C288.106 82.2875 288.545 81.5877 289.03 80.9206C289.504 80.2244 289.995 79.5111 290.417 78.735C290.848 77.9558 291.18 77.1257 291.404 76.264C291.602 75.406 291.715 74.5305 291.741 73.6503C291.787 72.8 291.804 71.9383 291.821 71.1052C291.855 69.3932 291.872 67.7211 291.952 66.0376C291.984 64.3492 292.189 62.6684 292.563 61.0215Z" fill="#263238"/>
  <path d="M308.502 85.7084C308.588 95.0788 307.018 110.487 303.018 117.095C299.828 122.391 285.082 130.791 277.138 132.982C274.336 133.753 272.938 122.088 274.285 119.229C275.112 117.517 291.588 110.789 293.117 108.501C295.44 105.031 298.607 93.6064 302.082 85.172C303.943 80.7493 308.451 79.8933 308.502 85.7084Z" fill="#F7A9A0"/>
  <path d="M279.215 116.582C279.215 116.582 274.815 116.051 272.829 116.245C270.843 116.439 263.698 119.88 264.377 121.461C265.222 123.504 269.73 122.328 271.859 121.461C271.859 121.461 273.816 126.186 277.234 126.026C280.653 125.866 279.215 116.582 279.215 116.582Z" fill="#F7A9A0"/>
  <path d="M279.746 132.007C278.194 132.703 270.809 135.26 268.589 135.511C266.37 135.762 259.95 136.019 259.584 134.369C259.219 132.72 261.097 132.463 261.097 132.463C261.097 132.463 258.363 132.144 258.152 130.42C257.941 128.697 260.868 128.446 260.868 128.446C260.868 128.446 258.089 127.909 258.015 126.163C257.941 124.417 260.914 124.668 260.914 124.668C260.914 124.668 258.346 124.297 258.877 122.836C259.51 121.084 264.161 122.3 266.586 121.837C267.157 121.735 277.595 118.921 277.595 118.921L279.746 132.007Z" fill="#F7A9A0"/>
  <path d="M285.139 129.838C282.571 131.115 279.898 132.171 277.15 132.994C274.297 134.004 270.165 135.328 268.59 135.505C266.376 135.756 259.95 136.013 259.585 134.363C259.22 132.714 261.097 132.457 261.097 132.457C261.097 132.457 258.364 132.138 258.152 130.414C257.987 129.079 259.716 128.628 260.498 128.491C260.452 128.44 260.469 128.371 260.555 128.36C259.83 128.166 258.073 127.544 257.998 126.174C257.924 124.805 259.71 124.668 260.526 124.668C260.542 124.66 260.56 124.656 260.578 124.656C260.596 124.656 260.613 124.66 260.629 124.668H260.663H260.886C260.886 124.668 258.318 124.297 258.849 122.836C259.339 121.472 262.273 121.906 264.687 121.946C264.55 121.808 264.442 121.645 264.367 121.466C263.711 119.886 270.838 116.445 272.819 116.25C274.755 116.193 276.694 116.284 278.617 116.524C279.187 116.228 279.786 115.925 280.408 115.611L285.139 129.838Z" fill="#DBDBDB"/>
  <path d="M260.641 124.645C264.065 125.53 265.714 125.324 269.029 124.263C269.092 124.263 269.138 124.331 269.075 124.36C265.925 125.695 263.888 126.254 260.589 124.811C260.429 124.736 260.475 124.605 260.641 124.645Z" fill="#263238"/>
  <path d="M260.6 128.349C264.235 128.954 266.027 128.748 269.576 127.892C269.628 127.892 269.656 127.961 269.605 127.978C266.181 129.119 264.149 129.621 260.594 128.548C260.434 128.486 260.428 128.32 260.6 128.349Z" fill="#263238"/>
  <path d="M261.273 132.395C264.84 132.731 266.814 132.589 270.159 131.31C270.174 131.304 270.192 131.303 270.208 131.31C270.225 131.316 270.237 131.329 270.244 131.345C270.251 131.361 270.251 131.379 270.245 131.395C270.238 131.411 270.226 131.423 270.21 131.43C266.929 133.068 264.463 133.262 261.279 132.503C261.062 132.446 261.051 132.395 261.273 132.395Z" fill="#263238"/>
  <path d="M264.789 121.946C266.906 123.253 269.628 121.946 271.757 121.25C271.788 121.239 271.821 121.236 271.854 121.24C271.887 121.245 271.918 121.257 271.946 121.276C271.973 121.295 271.995 121.32 272.011 121.349C272.027 121.378 272.035 121.411 272.036 121.444C272.989 123.373 274.89 125.809 277.132 126.146C277.146 126.146 277.159 126.151 277.169 126.161C277.178 126.171 277.184 126.184 277.184 126.197C277.184 126.211 277.178 126.224 277.169 126.234C277.159 126.243 277.146 126.249 277.132 126.249C274.678 126.215 272.613 123.966 271.705 121.792C269.531 122.528 266.74 123.732 264.777 121.969C264.789 121.957 264.789 121.94 264.789 121.946Z" fill="#263238"/>
  <path d="M295.098 100.227L308.685 102.104C308.685 102.104 309.461 91.6951 309.09 86.2224C308.719 80.7497 305.529 77.6624 301.449 84.9897C297.985 91.1929 295.098 100.227 295.098 100.227Z" fill="#37474F"/>
  <path d="M300.169 109.14L300.614 128.434C300.614 128.434 331.373 123.703 338.9 121.877C338.9 121.877 326.739 87.7285 317.044 80.2186C312.153 76.4693 307.417 77.6106 304.877 81.2343C304.232 82.1531 297.048 95.9518 296.888 100.785C296.705 105.054 300.169 109.14 300.169 109.14Z" fill="#15803D"/>
  <path d="M312.256 79.3231C312.256 79.9508 310.162 84.4191 307.394 84.8471C306.493 84.9841 305.528 80.0935 305.528 80.0935L305.374 79.7511L303.223 74.929L308.359 69.9242L309.118 69.2451C309.118 69.2451 309.62 70.6033 310.225 72.3039C310.253 72.3838 310.282 72.458 310.31 72.5436C310.339 72.6292 310.385 72.7262 310.413 72.8175C310.51 73.0686 310.601 73.3311 310.693 73.5879C310.784 73.8447 310.83 73.9759 310.892 74.1871C310.955 74.3982 311.029 74.598 311.098 74.8091C311.587 76.2856 311.974 77.7938 312.256 79.3231Z" fill="#F7A9A0"/>
  <path d="M310.248 72.3036C310.02 73.8189 309.466 75.2668 308.624 76.5475C307.783 77.8282 306.674 78.9113 305.374 79.7223L303.223 74.9001L308.359 69.8954L309.118 69.2163C309.118 69.2163 309.643 70.603 310.248 72.3036Z" fill="#263238"/>
  <path d="M293.807 70.1924C296.694 78.9921 302.292 78.2559 304.193 77.6111C305.905 77.0404 311.708 74.889 309.745 65.8325C307.782 56.776 302.772 55.3551 298.766 56.4622C294.76 57.5693 290.913 61.3984 293.807 70.1924Z" fill="#F7A9A0"/>
  <path d="M294.807 67.5957C295.006 67.5044 295.172 67.3845 295.377 67.2761C295.588 67.1903 295.764 67.038 295.879 66.8424C295.903 66.7737 295.904 66.6991 295.881 66.63C295.859 66.5608 295.814 66.5011 295.754 66.4601C295.622 66.3964 295.476 66.3692 295.331 66.3812C295.185 66.3932 295.046 66.4441 294.926 66.5285C294.664 66.6644 294.461 66.8919 294.356 67.1677C294.339 67.2292 294.34 67.2939 294.357 67.3552C294.374 67.4164 294.408 67.4719 294.454 67.5157C294.5 67.5595 294.557 67.5901 294.619 67.6041C294.681 67.6182 294.746 67.6153 294.807 67.5957Z" fill="#263238"/>
  <path d="M300.627 65.7523C300.417 65.7886 300.206 65.8134 299.994 65.8265C299.773 65.8827 299.54 65.8626 299.332 65.7694C299.272 65.7283 299.227 65.6686 299.204 65.5995C299.181 65.5304 299.182 65.4558 299.206 65.3871C299.275 65.2588 299.377 65.1513 299.501 65.076C299.626 65.0007 299.768 64.9603 299.914 64.9591C300.206 64.9066 300.507 64.9657 300.758 65.1246C300.815 65.1635 300.858 65.2182 300.883 65.2818C300.909 65.3454 300.915 65.415 300.901 65.482C300.887 65.5489 300.853 65.6103 300.805 65.6584C300.756 65.7065 300.694 65.7391 300.627 65.7523Z" fill="#263238"/>
  <path d="M300.17 68.3604C300.17 68.3604 300.227 68.3604 300.233 68.4003C300.398 69.0109 300.689 69.6786 301.294 69.7185V69.7528C300.615 69.8612 300.238 68.9653 300.17 68.3604Z" fill="#263238"/>
  <path d="M300.53 67.5669C301.483 67.2017 302.145 69.1248 301.266 69.4672C300.387 69.8096 299.736 67.8751 300.53 67.5669Z" fill="#263238"/>
  <path d="M300.947 67.5387C301.152 67.59 301.381 67.727 301.592 67.6756C301.803 67.6243 301.94 67.3561 302.031 67.105C302.031 67.105 302.031 67.105 302.071 67.105C302.161 67.2715 302.185 67.466 302.137 67.6492C302.09 67.8325 301.974 67.9908 301.814 68.0922C301.472 68.2691 301.101 68.0295 300.878 67.6928C300.838 67.6414 300.861 67.5159 300.947 67.5387Z" fill="#263238"/>
  <path d="M296.684 69.4102C296.684 69.4102 296.649 69.4558 296.684 69.4786C296.918 70.0493 297.077 70.7798 296.609 71.1906C296.609 71.1906 296.609 71.2306 296.609 71.2192C297.22 70.8768 296.997 69.9295 296.684 69.4102Z" fill="#263238"/>
  <path d="M295.935 68.9768C294.948 69.245 295.553 71.191 296.466 70.9399C297.379 70.6888 296.745 68.7542 295.935 68.9768Z" fill="#263238"/>
  <path d="M295.57 69.2336C295.444 69.382 295.353 69.616 295.17 69.6845C294.988 69.7529 294.742 69.6046 294.543 69.4448C294.645 69.8214 294.891 70.1695 295.267 70.1296C295.644 70.0896 295.752 69.7016 295.73 69.3021C295.701 69.2565 295.604 69.1709 295.57 69.2336Z" fill="#263238"/>
  <path d="M298.413 71.9041C298.495 72.3618 298.599 72.8151 298.727 73.2623C298.727 73.3023 298.846 73.2623 298.989 73.2623C299.376 73.2102 299.74 73.052 300.043 72.8052C300.345 72.5584 300.573 72.2327 300.701 71.8642C300.701 71.8128 300.65 71.79 300.621 71.8242C300.206 72.375 299.623 72.7757 298.961 72.9656C298.892 72.8572 298.721 71.3506 298.652 71.3677C298.334 71.5051 298.037 71.6856 297.768 71.9041C297.346 69.9696 297.243 67.9779 296.803 66.0548C296.799 66.042 296.791 66.0309 296.781 66.0229C296.77 66.015 296.757 66.0107 296.744 66.0107C296.73 66.0107 296.717 66.015 296.706 66.0229C296.696 66.0309 296.688 66.042 296.684 66.0548C296.727 68.1905 296.985 70.3165 297.454 72.4006C297.505 72.6118 298.264 72.0069 298.413 71.9041Z" fill="#263238"/>
  <path d="M309.032 66.2547C306.926 67.0993 303.496 60.9817 303.086 60.2284C303.32 60.7192 304.558 63.3157 304.404 63.5041C304.18 63.6004 303.94 63.6564 303.696 63.6696C303.557 63.3545 303.393 63.051 303.205 62.7622C303.126 62.6195 303.291 63.0989 303.462 63.7038L303.029 63.7666C302.754 63.0848 302.392 62.442 301.95 61.8548C301.779 61.638 302.207 62.7793 302.401 63.8636C300.4 64.1261 298.434 64.6103 296.54 65.3074C296.009 65.5185 295.564 65.7183 295.182 65.9123C295.005 65.423 294.803 64.9431 294.577 64.4742C294.632 65.0116 294.738 65.5426 294.891 66.0607L294.32 66.3688C293.784 65.296 293.533 63.3158 293.476 63.6582C293.319 64.7127 293.364 65.7873 293.607 66.8253C292.928 67.3047 292.785 67.5387 292.677 67.3561C291.949 65.0983 292.046 62.6553 292.951 60.4624C294.469 56.8672 299.376 53.9625 303.959 56.4677C303.959 56.4677 307.057 56.9756 308.524 59.3211C309.991 61.6665 310.253 65.7639 309.032 66.2547Z" fill="#263238"/>
  <path d="M306.852 67.1104C306.852 67.1104 307.422 63.6236 308.9 63.6864C310.378 63.7492 310.858 68.2004 309.722 69.3931C309.588 69.5607 309.42 69.6987 309.229 69.7984C309.039 69.898 308.83 69.9572 308.616 69.9722C308.401 69.9873 308.186 69.9577 307.984 69.8856C307.781 69.8134 307.596 69.7001 307.439 69.5528L306.852 67.1104Z" fill="#F7A9A0"/>
  <path d="M309.003 64.9761C309.003 64.9761 309.043 64.9761 309.003 65.0103C308.221 65.872 308.147 67.0248 308.238 68.1319C308.247 68.007 308.283 67.8857 308.344 67.7762C308.405 67.6667 308.488 67.5717 308.589 67.4979C308.69 67.424 308.806 67.373 308.929 67.3485C309.052 67.3239 309.178 67.3264 309.3 67.3558C309.334 67.3558 309.328 67.4128 309.3 67.4185C309.103 67.4468 308.92 67.5356 308.776 67.6726C308.632 67.8096 308.534 67.988 308.495 68.1832C308.43 68.51 308.401 68.843 308.41 69.1762C308.41 69.2846 308.227 69.3188 308.21 69.1762C307.588 67.9492 307.736 65.7465 309.003 64.9761Z" fill="#263238"/>
  <path d="M299.302 103.04H261.906V144.447H299.302V103.04Z" fill="#15803D"/>
  <path opacity="0.1" d="M299.302 103.04H261.906V144.447H299.302V103.04Z" fill="black"/>
  <path d="M242.601 144.453H261.906V103.046H242.601V144.453Z" fill="#15803D"/>
  <path d="M277.43 111.988H278.223H278.816L279.159 111.297L279.632 111.988L280.277 110.572L280.888 111.988H282.64H283.439L283.73 111.04L283.998 111.988H284.517V103.04H277.43V111.988Z" fill="white"/>
  <g opacity="0.1">
  <path d="M243.932 141.6C245.358 138.655 246.775 135.701 248.183 132.737L252.372 123.835L256.503 114.893C257.877 111.902 259.235 108.904 260.578 105.899C259.148 108.844 257.73 111.798 256.327 114.761L252.138 123.669L248 132.612C246.638 135.598 245.282 138.594 243.932 141.6Z" fill="black"/>
  <path d="M243.932 105.893C245.275 108.902 246.631 111.898 248 114.881L252.138 123.835L256.327 132.743C257.73 135.703 259.148 138.657 260.578 141.605C259.231 138.6 257.873 135.602 256.503 132.612L252.372 123.669L248.183 114.761C246.779 111.798 245.362 108.842 243.932 105.893Z" fill="black"/>
  </g>
  <path d="M305.505 111.993H268.115L261.912 103.04H299.302L305.505 111.993Z" fill="#15803D"/>
  <g opacity="0.2">
  <path d="M305.505 111.993H268.115L261.912 103.04H299.302L305.505 111.993Z" fill="black"/>
  </g>
  <path d="M255.704 111.999H236.455L242.658 103.04H261.913L255.704 111.999Z" fill="#15803D"/>
  <path opacity="0.1" d="M255.704 111.999H236.455L242.658 103.04H261.913L255.704 111.999Z" fill="black"/>
  <path d="M320.144 85.9255C323.967 94.4456 330.576 112.439 328.407 119.024C325.554 127.647 312.469 136.595 308.605 139.26C306.893 140.401 298.544 129.684 299.058 127.556C299.571 125.427 313.279 116.764 314.123 115.366C314.968 113.968 313.41 96.0435 312.805 88.1397C312.018 78.1816 316.88 78.718 320.144 85.9255Z" fill="#F7A9A0"/>
  <path d="M295.16 133.297C295.616 132.355 295.125 132.11 293.448 132.92C291.77 133.73 285.869 138.358 284.431 136.156C282.993 133.953 291.428 127.556 294.304 126.42C297.18 125.284 302.242 124.451 302.242 124.451C300.861 126.026 297.848 130.169 295.16 133.297Z" fill="#F7A9A0"/>
  <path d="M312.657 135.904C308.576 140.202 303.754 145.794 297.328 147.632C296.621 147.853 295.859 147.831 295.166 147.569C292.312 148.442 291.023 147.352 291.023 147.352C288.106 147.352 286.959 146.057 286.959 146.057C286.959 146.057 283.581 147.05 282.645 145.109C281.584 142.935 286.531 141.971 288.923 139.774C294.412 134.746 300.81 126.078 302.248 124.451L312.657 135.904Z" fill="#F7A9A0"/>
  <path d="M298.383 138.547C296.792 140.035 295.101 141.411 293.321 142.667C291.293 143.924 289.174 145.029 286.981 145.971C286.967 145.976 286.955 145.987 286.949 146.001C286.942 146.015 286.942 146.031 286.947 146.045C286.952 146.06 286.963 146.071 286.977 146.078C286.991 146.084 287.007 146.085 287.021 146.08C291.437 144.679 295.384 142.096 298.434 138.61C298.52 138.541 298.457 138.473 298.383 138.547Z" fill="#263238"/>
  <path d="M301.882 141.417C300.204 142.735 297.237 145.041 290.977 147.289C290.977 147.289 290.977 147.335 290.977 147.329C295.107 146.451 298.913 144.441 301.968 141.525C302.065 141.405 302.013 141.331 301.882 141.417Z" fill="#263238"/>
  <path d="M303.766 142.998C300.827 145.132 298.699 146.108 295.172 147.563C295.172 147.563 295.172 147.609 295.172 147.598C299.355 146.382 300.736 145.463 303.84 143.101C303.96 143.004 303.88 142.912 303.766 142.998Z" fill="#263238"/>
  <path d="M326.272 99.2621L312.69 101.191C312.69 101.191 311.874 90.7877 312.228 85.315C312.581 79.8423 315.76 76.755 319.863 84.0481C323.35 90.2456 326.272 99.2621 326.272 99.2621Z" fill="#37474F"/>
  <path d="M234.624 190.375H187.504V234.961H234.624V190.375Z" fill="#15803D"/>
  <path d="M256.006 190.375H234.623V234.966H256.006V190.375Z" fill="#15803D"/>
  <path opacity="0.1" d="M256.006 190.375H234.623V234.966H256.006V190.375Z" fill="black"/>
  <path d="M254.517 231.896C252.93 228.723 251.361 225.543 249.809 222.355L245.169 212.762L240.604 203.129C239.082 199.918 237.577 196.684 236.09 193.428C237.676 196.597 239.246 199.777 240.798 202.969L245.437 212.556L250.003 222.189C251.536 225.423 253.041 228.659 254.517 231.896Z" fill="#15803D"/>
  <path d="M254.517 193.456C253.03 196.69 251.527 199.924 250.009 203.157L245.444 212.79L240.821 222.355C239.269 225.547 237.7 228.727 236.113 231.896C237.601 228.655 239.105 225.421 240.627 222.195L245.193 212.562L249.832 202.975C251.381 199.79 252.942 196.618 254.517 193.456Z" fill="#15803D"/>
  <path d="M203.447 221.276V229.836H218.678V221.276C218.678 218.691 218.165 212.454 213.542 210.833C212.749 210.564 211.915 210.43 211.077 210.439C204.138 210.439 203.447 218.286 203.447 221.276Z" fill="white"/>
  <g style="mix-blend-mode:multiply">
  <path d="M203.447 228.038V229.83H218.678V221.27C218.678 218.685 218.165 212.448 213.542 210.827C216.202 215.495 216.658 221.276 212.355 225.299C209.685 227.793 206.58 228.381 203.447 228.038Z" fill="#EBEBEB"/>
  </g>
  <path d="M203.014 230.932H219.136C219.238 230.932 219.339 230.912 219.434 230.872C219.528 230.833 219.614 230.775 219.686 230.703C219.759 230.63 219.816 230.544 219.854 230.449C219.893 230.354 219.912 230.253 219.912 230.15C219.912 229.944 219.83 229.747 219.684 229.601C219.539 229.456 219.341 229.374 219.136 229.374H203.014C202.912 229.373 202.81 229.393 202.715 229.431C202.621 229.47 202.534 229.527 202.462 229.599C202.389 229.671 202.331 229.757 202.292 229.852C202.253 229.946 202.232 230.048 202.232 230.15C202.232 230.253 202.253 230.354 202.292 230.449C202.331 230.544 202.389 230.63 202.461 230.703C202.534 230.776 202.62 230.833 202.715 230.872C202.81 230.912 202.912 230.932 203.014 230.932Z" fill="white"/>
  <path d="M208.664 212.379H213.469V208.699H208.664V212.379Z" fill="white"/>
  <path d="M208.104 209.304H214.033V206.924H208.104V209.304Z" fill="#455A64"/>
  <path d="M209.988 207.323H212.15V204.584H209.988V207.323Z" fill="#455A64"/>
  <path d="M213.349 203.608C213.506 203.703 213.635 203.838 213.722 204C213.81 204.162 213.852 204.344 213.845 204.527C213.838 204.711 213.782 204.889 213.683 205.044C213.583 205.198 213.444 205.323 213.28 205.406C212.544 205.84 208.652 204.887 208.241 204.926C207.83 204.966 206.854 205.406 206.723 205.406C206.592 205.406 206.152 205.189 206.181 204.995C206.21 204.801 207.522 203.825 208.544 203.585C209.565 203.346 212.515 202.969 213.349 203.608Z" fill="#455A64"/>
  <path d="M214.884 200.013H214.028H213.388L213.023 199.271L212.51 200.013L211.813 198.484L211.157 200.013H209.268H208.412L208.098 198.992L207.807 200.013H207.248V190.375H214.884V200.013Z" fill="white"/>
  <path d="M290.069 190.375H249.809V234.961H290.069V190.375Z" fill="#15803D"/>
  <path d="M310.858 190.375H290.068V234.961H310.858V190.375Z" fill="#15803D"/>
  <path opacity="0.1" d="M310.858 190.375H290.068V234.961H310.858V190.375Z" fill="black"/>
  <path d="M273.354 200.013H272.504H271.859L271.494 199.271L270.986 200.013L270.29 198.484L269.628 200.013H267.745H266.883L266.575 198.992L266.284 200.013H265.719V190.375H273.354V200.013Z" fill="white"/>
  <path d="M309.427 231.89C307.886 228.721 306.364 225.541 304.861 222.349L300.353 212.762L295.885 203.157C294.412 199.939 292.951 196.705 291.502 193.456C293.043 196.625 294.565 199.806 296.067 202.998L300.576 212.585L305.032 222.218C306.512 225.432 307.977 228.657 309.427 231.89Z" fill="#15803D"/>
  <path d="M309.427 193.456C307.977 196.69 306.516 199.924 305.044 203.157L300.587 212.79L296.079 222.377C294.557 225.573 293.035 228.754 291.514 231.919C292.963 228.685 294.424 225.451 295.896 222.218L300.353 212.585L304.862 202.998C306.364 199.798 307.886 196.618 309.427 193.456Z" fill="#15803D"/>
  <path d="M265.417 145.789H225.156V190.375H265.417V145.789Z" fill="#15803D"/>
  <path d="M286.205 145.789H265.416V190.375H286.205V145.789Z" fill="#15803D"/>
  <path opacity="0.1" d="M286.205 145.789H265.416V190.375H286.205V145.789Z" fill="black"/>
  <path d="M248.702 155.427H247.852H247.207L246.842 154.685L246.334 155.427L245.638 153.898L244.976 155.427H243.092H242.231L241.923 154.406L241.632 155.427H241.072V145.789H248.702V155.427Z" fill="white"/>
  <path d="M284.761 187.304C283.239 184.135 281.717 180.955 280.196 177.763L275.687 168.176L271.23 158.543C269.758 155.324 268.297 152.09 266.848 148.841C268.369 152.01 269.891 155.191 271.413 158.383L275.921 167.97L280.378 177.603C281.858 180.837 283.319 184.07 284.761 187.304Z" fill="#15803D"/>
  <path d="M284.761 148.864C283.311 152.098 281.85 155.332 280.378 158.566L275.921 168.198L271.413 177.786C269.891 180.981 268.369 184.162 266.848 187.327C268.297 184.093 269.758 180.86 271.23 177.626L275.687 167.993L280.196 158.406C281.717 155.21 283.239 152.03 284.761 148.864Z" fill="#15803D"/>
  <path d="M218.467 155.433H258.727L265.41 145.789H225.155L218.467 155.433Z" fill="#15803D"/>
  <path opacity="0.1" d="M218.467 155.433H258.727L265.41 145.789H225.155L218.467 155.433Z" fill="black"/>
  <path d="M272.093 155.433H292.825L286.142 145.789H265.41L272.093 155.433Z" fill="#15803D"/>
  <path d="M145.981 190.38H105.721V234.967H145.981V190.38Z" fill="#DBDBDB"/>
  <path d="M166.77 190.38H145.98V234.967H166.77V190.38Z" fill="#C7C7C7"/>
  <path d="M129.267 200.013H128.416H127.777L127.412 199.271L126.898 200.013L126.202 198.484L125.546 200.013H123.657H122.801L122.487 198.992L122.196 200.013H121.637V190.38H129.267V200.013Z" fill="white"/>
  <path d="M165.339 231.896C163.817 228.723 162.295 225.543 160.773 222.355L156.265 212.762L151.797 203.157C150.321 199.946 148.858 196.713 147.408 193.456C148.949 196.625 150.471 199.806 151.974 202.998L156.488 212.585L160.939 222.218C162.426 225.432 163.893 228.659 165.339 231.896Z" fill="#DBDBDB"/>
  <path d="M165.339 193.456C163.893 196.69 162.432 199.924 160.956 203.157L156.505 212.79L151.991 222.383C150.469 225.575 148.948 228.756 147.426 231.925C148.875 228.683 150.338 225.45 151.814 222.223L156.265 212.591L160.774 203.003C162.28 199.808 163.802 196.625 165.339 193.456Z" fill="#DBDBDB"/>
  <path d="M138.511 145.783H98.25V190.369H138.511V145.783Z" fill="#DBDBDB"/>
  <path d="M159.301 145.789H138.512V190.375H159.301V145.789Z" fill="#C7C7C7"/>
  <path d="M121.796 155.421H120.946H120.306L119.941 154.68L119.428 155.421L118.731 153.898L118.075 155.421H116.186H115.33L115.016 154.406L114.725 155.421H114.166V145.789H121.796V155.421Z" fill="white"/>
  <path d="M157.874 187.305C156.352 184.132 154.831 180.951 153.309 177.763L148.801 168.17L144.349 158.537C142.873 155.326 141.41 152.093 139.961 148.836C141.502 152.009 143.024 155.189 144.526 158.377L149.035 167.97L153.486 177.603C154.966 180.833 156.428 184.067 157.874 187.305Z" fill="#DBDBDB"/>
  <path d="M157.874 148.858C156.425 152.092 154.962 155.326 153.486 158.56L149.035 168.193L144.526 177.785C143.004 180.974 141.483 184.154 139.961 187.327C141.41 184.093 142.873 180.859 144.349 177.626L148.801 167.993L153.309 158.4C154.808 155.212 156.33 152.031 157.874 148.858Z" fill="#DBDBDB"/>
  <path d="M91.5684 155.427H131.823L138.511 145.783H98.2509L91.5684 155.427Z" fill="#C7C7C7"/>
  <path d="M145.194 155.433H165.921L159.238 145.789H138.512L145.194 155.433Z" fill="#DBDBDB"/>
  <path d="M194.135 223.702V228.752C194.135 233.449 194.095 237.569 193.861 239.697V239.68C193.802 240.177 193.687 240.665 193.519 241.136L193.49 241.164C192.098 242.117 154.548 243.407 153.224 243.007C151.9 242.608 152.922 238.807 154.337 237.592C155.752 236.376 169.922 229.46 169.922 229.46L169.848 224.324L194.135 223.702Z" fill="#C7C7C7"/>
  <path d="M153.217 243.03C154.547 243.429 192.097 242.145 193.495 241.187C194.031 240.833 194.162 235.349 194.128 228.723V228.512L169.892 229.083V229.494C169.892 229.494 155.74 236.416 154.313 237.631C152.886 238.847 151.893 242.642 153.217 243.03Z" fill="#37474F"/>
  <path d="M153.594 241.564C159.917 241.187 185.46 240.285 191.743 240.422C191.794 240.422 191.794 240.456 191.743 240.462C185.466 240.964 159.934 241.666 153.6 241.689C153.463 241.666 153.463 241.569 153.594 241.564Z" fill="#263238"/>
  <path d="M167.884 229.625C170.361 229.054 173.42 229.351 175.383 231.063C175.457 231.132 175.383 231.234 175.28 231.211C172.875 230.525 170.403 230.099 167.907 229.939C167.87 229.935 167.835 229.918 167.809 229.891C167.783 229.864 167.767 229.829 167.764 229.791C167.761 229.754 167.772 229.717 167.794 229.686C167.816 229.656 167.848 229.634 167.884 229.625Z" fill="#263238"/>
  <path d="M166.126 230.772C168.597 230.201 171.656 230.498 173.625 232.21C173.699 232.273 173.625 232.381 173.522 232.358C171.115 231.672 168.641 231.245 166.143 231.086C166.106 231.081 166.072 231.063 166.047 231.036C166.021 231.009 166.006 230.973 166.004 230.936C166.002 230.899 166.013 230.862 166.036 230.832C166.058 230.802 166.09 230.781 166.126 230.772Z" fill="#263238"/>
  <path d="M164.351 231.913C166.828 231.343 169.887 231.645 171.85 233.352C171.924 233.42 171.85 233.528 171.747 233.506C169.342 232.818 166.87 232.389 164.374 232.227C164.337 232.223 164.302 232.207 164.276 232.18C164.249 232.153 164.234 232.117 164.231 232.08C164.228 232.042 164.239 232.005 164.261 231.975C164.283 231.944 164.315 231.923 164.351 231.913Z" fill="#263238"/>
  <path d="M196.292 113.009L196.269 114.636L195.35 186.46L195.345 186.734L194.802 229.756L168.518 229.231L173.591 113.095L173.659 111.543L173.916 98.0693H196.115L196.292 113.009Z" fill="#455A64"/>
  <path d="M169.612 224.843C173.715 224.803 172.54 224.757 176.643 224.769C178.652 224.769 191.851 224.82 193.723 225.151C193.763 225.151 193.763 225.231 193.723 225.237C191.84 225.522 178.646 225.237 176.637 225.203C172.534 225.117 173.715 225.094 169.612 224.963C169.538 224.963 169.538 224.843 169.612 224.843Z" fill="#263238"/>
  <path d="M181.392 120.565C181.392 120.553 181.387 120.541 181.378 120.533C181.37 120.524 181.358 120.52 181.346 120.52C181.334 120.52 181.322 120.524 181.314 120.533C181.305 120.541 181.3 120.553 181.3 120.565C181.3 127.413 181.021 131.294 180.855 138.165C180.69 145.035 180.484 151.906 180.285 158.771C179.914 172.507 179.36 186.232 178.852 199.962C178.567 207.662 178.211 215.359 177.785 223.051C177.785 223.062 177.789 223.072 177.797 223.079C177.804 223.087 177.814 223.091 177.825 223.091C177.836 223.091 177.846 223.087 177.853 223.079C177.861 223.072 177.865 223.062 177.865 223.051C178.864 209.355 179.817 195.614 180.359 181.878C180.901 168.142 181.3 154.411 181.363 140.675C181.415 132.966 181.375 128.275 181.392 120.565Z" fill="#263238"/>
  <path d="M196.287 113.009L195.351 186.46L177.734 98.0693H196.11L196.287 113.009Z" fill="#263238"/>
  <path d="M226.251 222.167C226.251 222.167 226.93 227.148 226.93 227.166C227.587 231.822 228.072 235.914 228.14 238.054C228.14 238.054 228.14 238.054 228.14 238.088C228.154 238.587 228.106 239.085 227.998 239.572C227.998 239.572 227.998 239.6 227.998 239.606C226.748 240.747 189.712 247.082 188.348 246.865C186.984 246.648 187.48 242.745 188.724 241.347C189.968 239.948 203.065 231.189 203.065 231.189L202.306 226.121L226.251 222.167Z" fill="#C7C7C7"/>
  <path d="M188.32 246.865C189.684 247.082 226.72 240.742 227.976 239.606C228.461 239.178 227.85 233.728 226.926 227.165L226.892 226.96L202.958 230.783L203.038 231.189C203.038 231.189 189.947 239.954 188.697 241.352C187.447 242.75 186.956 246.659 188.32 246.865Z" fill="#37474F"/>
  <path d="M188.497 245.387C194.711 244.165 219.883 239.823 226.161 239.109C226.212 239.109 226.218 239.109 226.161 239.149C220.026 240.496 194.808 244.633 188.531 245.512C188.383 245.478 188.366 245.387 188.497 245.387Z" fill="#263238"/>
  <path d="M201.046 231.606C203.426 230.727 206.49 230.59 208.67 232.016C208.756 232.073 208.67 232.193 208.59 232.182C206.113 231.822 203.605 231.732 201.109 231.914C201.071 231.915 201.035 231.902 201.005 231.879C200.976 231.855 200.956 231.823 200.949 231.786C200.941 231.749 200.947 231.711 200.964 231.678C200.982 231.645 201.011 231.619 201.046 231.606Z" fill="#263238"/>
  <path d="M199.454 232.975C201.834 232.096 204.904 231.959 207.078 233.392C207.164 233.443 207.078 233.563 206.998 233.551C204.521 233.197 202.013 233.107 199.517 233.283C199.479 233.284 199.443 233.272 199.414 233.248C199.384 233.225 199.364 233.192 199.357 233.155C199.349 233.119 199.355 233.081 199.373 233.048C199.39 233.015 199.419 232.989 199.454 232.975Z" fill="#263238"/>
  <path d="M197.866 234.35C200.24 233.471 203.31 233.334 205.49 234.761C205.57 234.818 205.49 234.938 205.41 234.927C202.934 234.566 200.425 234.476 197.929 234.658C197.892 234.659 197.855 234.647 197.826 234.623C197.796 234.6 197.776 234.567 197.769 234.53C197.761 234.494 197.767 234.456 197.785 234.423C197.803 234.39 197.831 234.364 197.866 234.35Z" fill="#263238"/>
  <path d="M176.17 98.0464C176.267 98.5029 177.819 105.705 179.428 111.891C180.598 116.41 181.802 120.382 182.493 120.793C183.275 121.255 187.087 122.945 188.365 123.475L194.197 179.258L202.095 230.949L227.901 226.954L209.537 113.871L206.547 98.0464H176.17Z" fill="#455A64"/>
  <path d="M202.255 225.807C206.306 225.157 205.108 225.282 209.194 224.666C211.18 224.369 224.231 222.435 226.137 222.486C226.177 222.486 226.188 222.554 226.137 222.566C224.317 223.136 211.231 224.848 209.24 225.1C205.171 225.625 206.335 225.431 202.26 225.91C202.252 225.915 202.242 225.917 202.233 225.917C202.223 225.917 202.214 225.914 202.205 225.91C202.197 225.905 202.19 225.898 202.185 225.89C202.179 225.882 202.176 225.873 202.176 225.863C202.175 225.853 202.177 225.844 202.181 225.835C202.186 225.826 202.192 225.819 202.2 225.813C202.208 225.808 202.217 225.804 202.226 225.803C202.236 225.802 202.246 225.803 202.255 225.807Z" fill="#263238"/>
  <path d="M217.19 210.371C216.551 206.787 215.912 203.203 215.25 199.619C213.933 192.452 212.602 185.286 211.255 178.122C208.561 163.783 205.898 149.433 203.266 135.071C201.793 126.968 201.833 127.727 200.544 119.583C200.544 119.532 200.447 119.538 200.458 119.583C201.691 126.819 201.109 125.233 202.273 132.48C203.437 139.728 204.658 146.821 205.942 153.972C208.521 168.349 211.194 182.707 213.96 197.046C214.721 201.067 215.499 205.086 216.294 209.104C217.093 213.201 218.006 217.276 218.851 221.362C218.851 221.453 219.01 221.447 218.999 221.362C218.383 217.704 217.846 214.029 217.19 210.371Z" fill="#263238"/>
  <path d="M210.086 120.12C209.401 119.943 208.665 119.886 207.968 119.777C207.398 119.686 206.827 119.583 206.256 119.463C205.182 119.271 204.165 118.842 203.277 118.208C202.307 117.455 201.811 116.308 201.343 115.206C201.061 114.556 200.776 113.905 200.487 113.255L200.059 112.313C199.86 111.943 199.682 111.562 199.528 111.172C199.528 111.115 199.42 111.143 199.443 111.172C199.537 111.439 199.617 111.712 199.682 111.988C199.774 112.302 199.865 112.615 199.962 112.929C200.139 113.5 200.31 114.071 200.493 114.613C200.77 115.642 201.171 116.635 201.685 117.569C202.724 119.212 204.573 119.851 206.422 120.114C206.953 120.177 207.489 120.217 208.02 120.245C208.694 120.305 209.372 120.305 210.046 120.245C210.057 120.24 210.066 120.232 210.075 120.223C210.083 120.214 210.089 120.203 210.092 120.191C210.096 120.179 210.097 120.167 210.096 120.155C210.095 120.142 210.091 120.13 210.086 120.12Z" fill="#263238"/>
  <path d="M180.473 119.806C183.191 120.795 185.817 122.021 188.32 123.47C188.341 123.48 188.357 123.498 188.365 123.519C188.373 123.541 188.372 123.566 188.363 123.587C188.353 123.608 188.335 123.624 188.313 123.632C188.291 123.64 188.267 123.639 188.246 123.63C185.598 122.488 182.899 121.404 180.319 120.126C180.298 120.116 180.279 120.101 180.264 120.084C180.248 120.067 180.236 120.046 180.229 120.024C180.221 120.002 180.218 119.979 180.219 119.956C180.22 119.933 180.226 119.91 180.236 119.889C180.246 119.868 180.261 119.849 180.278 119.834C180.295 119.818 180.316 119.806 180.338 119.798C180.36 119.791 180.383 119.788 180.406 119.789C180.429 119.79 180.452 119.796 180.473 119.806Z" fill="#263238"/>
  <path d="M179.675 101.676C179.675 101.585 179.846 101.562 179.846 101.676C179.846 104.815 180.023 107.582 180.285 110.521C180.411 111.885 181.507 119.418 183.869 118.87C184.269 118.779 184.468 118.385 184.531 117.792C184.52 117.021 184.415 116.254 184.217 115.509C183.955 113.928 183.744 112.347 183.612 110.755C183.334 107.789 183.365 104.802 183.704 101.841C183.708 101.825 183.718 101.81 183.732 101.799C183.746 101.788 183.763 101.783 183.781 101.783C183.798 101.783 183.815 101.788 183.829 101.799C183.843 101.81 183.853 101.825 183.858 101.841C183.787 105.951 184.027 110.06 184.577 114.134C184.874 116.091 185.861 119.041 183.812 119.344C181.763 119.646 180.388 114.71 180.12 113.357C179.465 109.499 179.316 105.573 179.675 101.676Z" fill="#263238"/>
  <path d="M183.805 119.058C184.017 119.567 184.197 120.089 184.341 120.622C184.495 121.032 184.569 121.468 184.558 121.906C184.558 121.991 184.438 121.997 184.398 121.94C184.147 121.554 183.955 121.133 183.828 120.69C183.651 120.211 183.462 119.726 183.291 119.241C183.267 119.173 183.271 119.098 183.302 119.032C183.333 118.967 183.389 118.917 183.457 118.893C183.525 118.868 183.6 118.872 183.665 118.903C183.73 118.934 183.781 118.99 183.805 119.058Z" fill="#263238"/>
  <path d="M184.028 71.8128C180.604 83.7512 174.589 96.146 172.815 98.5999C168.055 105.208 153.36 112.022 148.847 112.981C146.895 113.397 141.787 100.854 142.957 99.0679C144.127 97.2817 162.411 89.6462 163.29 88.676C163.901 88.0026 172.529 77.9988 177.42 71.6131C183.754 63.3441 184.924 68.6741 184.028 71.8128Z" fill="#EB9481"/>
  <path d="M150.507 112.513C148.755 113.557 140.235 117.723 137.622 118.328C135.008 118.933 127.395 120.12 126.728 118.174C126.06 116.228 128.268 115.697 128.268 115.697C128.268 115.697 124.97 115.697 124.479 113.672C123.988 111.646 127.447 110.944 127.447 110.944C127.447 110.944 124.057 110.687 123.714 108.661C123.372 106.635 126.962 106.475 126.962 106.475C126.962 106.475 123.851 106.39 124.279 104.581C124.793 102.407 130.505 103.211 133.33 102.332C133.975 102.133 146.05 97.3447 146.05 97.3447L150.507 112.513Z" fill="#EB9481"/>
  <path d="M126.654 106.469C130.854 107.04 132.794 106.583 136.595 104.866C136.669 104.832 136.737 104.934 136.663 104.974C133.091 107 130.745 107.942 126.614 106.686C126.414 106.612 126.454 106.447 126.654 106.469Z" fill="#263238"/>
  <path d="M127.11 110.886C131.526 111.115 133.632 110.624 137.752 109.112C137.765 109.11 137.778 109.113 137.788 109.12C137.799 109.126 137.807 109.136 137.812 109.148C137.816 109.159 137.817 109.172 137.813 109.184C137.81 109.196 137.803 109.207 137.792 109.214C133.878 111.035 131.515 111.919 127.132 111.115C126.938 111.075 126.91 110.881 127.11 110.886Z" fill="#263238"/>
  <path d="M128.474 115.617C132.765 115.526 135.099 115.087 138.906 113.107C138.924 113.095 138.946 113.091 138.967 113.096C138.988 113.101 139.006 113.114 139.017 113.132C139.028 113.15 139.032 113.172 139.027 113.193C139.023 113.214 139.01 113.232 138.991 113.243C135.305 115.64 132.395 116.211 128.491 115.749C128.223 115.714 128.206 115.623 128.474 115.617Z" fill="#263238"/>
  <path d="M148.459 96.1803C148.459 96.1803 143.42 94.4684 141.04 94.2344C138.66 94.0004 129.455 96.2831 129.838 98.3032C130.334 100.905 135.915 100.62 138.632 100.124C138.632 100.124 139.773 106.15 143.825 106.812C147.877 107.474 148.459 96.1803 148.459 96.1803Z" fill="#EB9481"/>
  <path d="M130.214 98.971C132.383 101.02 135.921 100.112 138.575 99.8555C138.614 99.8488 138.654 99.8519 138.691 99.8644C138.729 99.877 138.763 99.8986 138.79 99.9275C138.817 99.9563 138.836 99.9914 138.847 100.03C138.857 100.068 138.857 100.108 138.848 100.147C139.499 102.64 141.131 105.967 143.693 106.909C143.708 106.915 143.719 106.926 143.726 106.94C143.732 106.954 143.734 106.969 143.729 106.984C143.725 106.999 143.716 107.011 143.703 107.02C143.69 107.028 143.674 107.031 143.659 107.029C140.806 106.39 138.906 103.251 138.369 100.478C135.636 100.809 132.092 101.539 130.197 98.9938C130.186 98.9767 130.203 98.9596 130.214 98.971Z" fill="#263238"/>
  <path d="M148.539 95.4444L155.895 110.852C155.895 110.852 170.595 104.318 172.912 99.5475C173.631 98.0923 181.472 83.0438 183.527 74.2898C185.581 65.5358 183.31 64.7882 177.381 70.9172C171.451 77.0461 163.536 87.3524 162.737 88.0714C161.938 88.7904 148.539 95.4444 148.539 95.4444Z" fill="#EBEBEB"/>
  <path d="M209.696 115.486L172.911 115.275C172.757 115.098 169.487 112.913 170.229 107.548C171.906 95.3189 177.019 73.3083 179.93 68.8114C180.474 67.8982 181.195 67.1027 182.05 66.4717C182.906 65.8406 183.879 65.3866 184.912 65.1363C185.945 64.8859 187.018 64.8443 188.067 65.0139C189.117 65.1834 190.122 65.5607 191.024 66.1236C193.135 67.6187 195.053 69.5476 197.375 73.4624C203.082 83.1237 208.828 99.9413 210.54 109.1C211.259 112.907 209.787 115.384 209.696 115.486Z" fill="#15803D"/>
  <g opacity="0.1">
  <path d="M171.576 99.4619V113.866C171.451 113.689 171.319 113.495 171.194 113.295C170.963 112.898 170.772 112.479 170.623 112.045V105.003C170.674 104.678 170.726 104.341 170.783 104.004C170.783 103.925 170.811 103.839 170.828 103.753C170.897 103.303 170.977 102.852 171.057 102.384C171.108 102.07 171.165 101.75 171.222 101.425C171.302 100.974 171.388 100.518 171.473 100.055C171.473 99.9755 171.473 99.8899 171.519 99.8043C171.565 99.7187 171.553 99.5818 171.576 99.4619Z" fill="black"/>
  <path d="M173.202 91.4556V115.275H172.945V92.6483L173.048 92.1632C173.048 92.0776 173.088 91.992 173.105 91.9121C173.122 91.8322 173.174 91.6096 173.202 91.4556Z" fill="black"/>
  <path d="M175.525 81.7539V115.275H174.572V85.5317C174.675 85.1094 174.778 84.6814 174.886 84.2648C174.886 84.1792 174.926 84.0936 174.949 84.008C175.063 83.5458 175.177 83.0893 175.297 82.6384C175.371 82.3417 175.445 82.0449 175.525 81.7539Z" fill="black"/>
  <path d="M177.152 75.9673V115.309H176.906V76.8176L177.043 76.3668C177.043 76.2812 177.095 76.1956 177.117 76.11C177.14 76.0244 177.135 76.0129 177.152 75.9673Z" fill="black"/>
  <path d="M179.475 69.6616V115.315H178.521V71.9043C178.67 71.5106 178.813 71.1396 178.961 70.7972C179.109 70.4548 179.246 70.1296 179.389 69.8442C179.411 69.7807 179.44 69.7195 179.475 69.6616Z" fill="black"/>
  <path d="M181.101 67.3389V115.332H180.844V67.6299L181.101 67.3389Z" fill="black"/>
  <path d="M183.424 65.667V115.344H182.471V66.1977C182.648 66.0836 182.825 65.9752 183.001 65.8781C183.178 65.7811 183.281 65.7355 183.424 65.667Z" fill="black"/>
  <path d="M185.05 65.1191V115.338H184.793V65.1762L185.05 65.1191Z" fill="black"/>
  <path d="M187.373 64.9593V115.366H186.42V64.9479C186.738 64.9316 187.056 64.9354 187.373 64.9593Z" fill="black"/>
  <path d="M188.999 65.2332V115.372H188.742V65.1533L188.999 65.2332Z" fill="black"/>
  <path d="M191.322 66.3404V115.389H190.369V65.7412L190.632 65.8782C190.772 65.9533 190.907 66.0372 191.037 66.1293L191.322 66.3404Z" fill="black"/>
  <path d="M192.948 67.6815V115.395H192.691V67.459L192.948 67.6815Z" fill="black"/>
  <path d="M195.275 70.2838V115.406H194.316V69.1025C194.522 69.3308 194.727 69.5819 194.933 69.8387C195.047 69.9833 195.161 70.1316 195.275 70.2838Z" fill="black"/>
  <path d="M196.749 72.4181C196.795 72.498 196.846 72.5779 196.898 72.6578V115.418H196.646V72.2583L196.749 72.4181Z" fill="black"/>
  <path d="M199.224 76.8235V115.429H198.266V75.0259C198.465 75.3797 198.659 75.7392 198.836 76.1101L198.973 76.3669L199.224 76.8235Z" fill="black"/>
  <path d="M200.874 80.0591V115.44H200.623V79.6025C200.692 79.7509 200.76 79.905 200.834 80.0591H200.874Z" fill="black"/>
  <path d="M203.156 85.4975V115.452H202.197V83.2148C202.311 83.4774 202.426 83.7399 202.534 84.0081C202.574 84.0937 202.608 84.1793 202.642 84.2649C202.825 84.6719 202.996 85.0828 203.156 85.4975Z" fill="black"/>
  <path d="M204.794 89.5951V115.469H204.543V88.9902L204.766 89.5951H204.794Z" fill="black"/>
  <path d="M207.152 96.306V115.475H206.193V93.4526C206.193 93.4812 206.193 93.5097 206.222 93.5325C206.33 93.8521 206.444 94.1774 206.547 94.4913C206.707 94.9535 206.855 95.41 207.004 95.8609L207.089 96.1119C207.084 96.1804 207.101 96.2432 207.152 96.306Z" fill="black"/>
  <path d="M208.686 101.431H208.743V115.48H208.492V100.751C208.561 101.008 208.623 101.208 208.686 101.431Z" fill="black"/>
  <path d="M210.706 110.288C210.734 110.744 210.734 111.201 210.706 111.657V111.908C210.674 112.369 210.609 112.826 210.512 113.278C210.441 113.602 210.354 113.922 210.25 114.237C210.199 114.385 210.153 114.516 210.102 114.636V106.983C210.159 107.229 210.21 107.468 210.261 107.708L210.313 107.959C210.393 108.353 210.472 108.741 210.541 109.101C210.541 109.175 210.57 109.243 210.575 109.317C210.64 109.656 210.684 109.979 210.706 110.288Z" fill="black"/>
  <path d="M171.576 99.4619V113.866C171.451 113.689 171.319 113.495 171.194 113.295C170.963 112.898 170.772 112.479 170.623 112.045V105.003C170.674 104.678 170.726 104.341 170.783 104.004C170.783 103.925 170.811 103.839 170.828 103.753C170.897 103.303 170.977 102.852 171.057 102.384C171.108 102.07 171.165 101.75 171.222 101.425C171.302 100.974 171.388 100.518 171.473 100.055C171.473 99.9755 171.473 99.8899 171.519 99.8043C171.565 99.7187 171.553 99.5818 171.576 99.4619Z" fill="black"/>
  <path d="M173.202 91.4556V115.275H172.945V92.6483L173.048 92.1632C173.048 92.0776 173.088 91.992 173.105 91.9121C173.122 91.8322 173.174 91.6096 173.202 91.4556Z" fill="black"/>
  <path d="M175.525 81.7539V115.275H174.572V85.5317C174.675 85.1094 174.778 84.6814 174.886 84.2648C174.886 84.1792 174.926 84.0936 174.949 84.008C175.063 83.5458 175.177 83.0893 175.297 82.6384C175.371 82.3417 175.445 82.0449 175.525 81.7539Z" fill="black"/>
  <path d="M177.152 75.9673V115.309H176.906V76.8176L177.043 76.3668C177.043 76.2812 177.095 76.1956 177.117 76.11C177.14 76.0244 177.135 76.0129 177.152 75.9673Z" fill="black"/>
  <path d="M179.475 69.6616V115.315H178.521V71.9043C178.67 71.5106 178.813 71.1396 178.961 70.7972C179.109 70.4548 179.246 70.1296 179.389 69.8442C179.411 69.7807 179.44 69.7195 179.475 69.6616Z" fill="black"/>
  <path d="M181.101 67.3389V115.332H180.844V67.6299L181.101 67.3389Z" fill="black"/>
  <path d="M183.424 65.667V115.344H182.471V66.1977C182.648 66.0836 182.825 65.9752 183.001 65.8781C183.178 65.7811 183.281 65.7355 183.424 65.667Z" fill="black"/>
  <path d="M185.05 65.1191V115.338H184.793V65.1762L185.05 65.1191Z" fill="black"/>
  <path d="M187.373 64.9593V115.366H186.42V64.9479C186.738 64.9316 187.056 64.9354 187.373 64.9593Z" fill="black"/>
  <path d="M188.999 65.2332V115.372H188.742V65.1533L188.999 65.2332Z" fill="black"/>
  <path d="M191.322 66.3404V115.389H190.369V65.7412L190.632 65.8782C190.772 65.9533 190.907 66.0372 191.037 66.1293L191.322 66.3404Z" fill="black"/>
  <path d="M192.948 67.6815V115.395H192.691V67.459L192.948 67.6815Z" fill="black"/>
  <path d="M195.275 70.2838V115.406H194.316V69.1025C194.522 69.3308 194.727 69.5819 194.933 69.8387C195.047 69.9833 195.161 70.1316 195.275 70.2838Z" fill="black"/>
  <path d="M196.749 72.4181C196.795 72.498 196.846 72.5779 196.898 72.6578V115.418H196.646V72.2583L196.749 72.4181Z" fill="black"/>
  <path d="M199.224 76.8235V115.429H198.266V75.0259C198.465 75.3797 198.659 75.7392 198.836 76.1101L198.973 76.3669L199.224 76.8235Z" fill="black"/>
  <path d="M200.874 80.0591V115.44H200.623V79.6025C200.692 79.7509 200.76 79.905 200.834 80.0591H200.874Z" fill="black"/>
  <path d="M203.156 85.4975V115.452H202.197V83.2148C202.311 83.4774 202.426 83.7399 202.534 84.0081C202.574 84.0937 202.608 84.1793 202.642 84.2649C202.825 84.6719 202.996 85.0828 203.156 85.4975Z" fill="black"/>
  <path d="M204.794 89.5951V115.469H204.543V88.9902L204.766 89.5951H204.794Z" fill="black"/>
  <path d="M207.152 96.306V115.475H206.193V93.4526C206.193 93.4812 206.193 93.5097 206.222 93.5325C206.33 93.8521 206.444 94.1774 206.547 94.4913C206.707 94.9535 206.855 95.41 207.004 95.8609L207.089 96.1119C207.084 96.1804 207.101 96.2432 207.152 96.306Z" fill="black"/>
  <path d="M208.686 101.431H208.743V115.48H208.492V100.751C208.561 101.008 208.623 101.208 208.686 101.431Z" fill="black"/>
  <path d="M210.706 110.288C210.734 110.744 210.734 111.201 210.706 111.657V111.908C210.674 112.369 210.609 112.826 210.512 113.278C210.441 113.602 210.354 113.922 210.25 114.237C210.199 114.385 210.153 114.516 210.102 114.636V106.983C210.159 107.229 210.21 107.468 210.261 107.708L210.313 107.959C210.393 108.353 210.472 108.741 210.541 109.101C210.541 109.175 210.57 109.243 210.575 109.317C210.64 109.656 210.684 109.979 210.706 110.288Z" fill="black"/>
  <path d="M191.971 66.8425H181.631C181.897 66.6124 182.177 66.399 182.47 66.2034C182.647 66.0892 182.824 65.9808 183 65.8838H190.63C190.77 65.9589 190.906 66.0428 191.035 66.1349L191.321 66.3403C191.538 66.5001 191.743 66.6656 191.971 66.8425Z" fill="black"/>
  <path d="M193.746 68.4804H180.182C180.246 68.3891 180.309 68.3035 180.37 68.2236H193.495L193.746 68.4804Z" fill="black"/>
  <path d="M195.653 70.7914H178.961C179.104 70.4433 179.246 70.1237 179.389 69.8384H194.934C195.048 69.9829 195.162 70.1313 195.276 70.2835C195.402 70.449 195.527 70.6145 195.653 70.7914Z" fill="black"/>
  <path d="M196.747 72.4179H178.326C178.355 72.3323 178.389 72.2467 178.423 72.1611H196.582L196.645 72.2581L196.747 72.4179Z" fill="black"/>
  <path d="M198.112 74.7577H177.539C177.642 74.4324 177.745 74.1128 177.847 73.8047H197.569C197.752 74.0957 197.935 74.4153 198.112 74.7577Z" fill="black"/>
  <path d="M198.991 76.3672H177.031C177.031 76.2816 177.083 76.196 177.105 76.1104H198.854L198.991 76.3672Z" fill="black"/>
  <path d="M200.156 78.6893H176.336C176.422 78.3641 176.513 78.0502 176.604 77.7363H199.665C199.847 78.0502 200.001 78.3698 200.156 78.6893Z" fill="black"/>
  <path d="M200.926 80.3159H175.908L175.977 80.0591H200.875V80.1447L200.926 80.3159Z" fill="black"/>
  <path d="M201.964 82.6386H175.297C175.371 82.3418 175.445 82.0679 175.525 81.754V81.6855H201.542C201.685 81.9994 201.827 82.319 201.964 82.6386Z" fill="black"/>
  <path d="M202.661 84.2651H174.887C174.887 84.1795 174.927 84.0939 174.95 84.0083H202.553C202.587 84.0939 202.627 84.1795 202.661 84.2651Z" fill="black"/>
  <path d="M203.607 86.5878H174.314C174.394 86.2682 174.469 85.9543 174.548 85.6348H203.224C203.356 85.9486 203.487 86.2682 203.607 86.5878Z" fill="black"/>
  <path d="M204.248 88.2138H173.939C173.939 88.1282 173.974 88.0426 173.997 87.957H204.151C204.185 88.0426 204.219 88.1282 204.248 88.2138Z" fill="black"/>
  <path d="M205.126 90.5422H173.402C173.477 90.2226 173.551 89.9031 173.619 89.5835H204.795V89.652C204.909 89.9487 205.017 90.2455 205.126 90.5422Z" fill="black"/>
  <path d="M205.714 92.1632H173.049C173.049 92.0776 173.089 91.992 173.106 91.9121H205.634C205.657 91.9977 205.685 92.0833 205.714 92.1632Z" fill="black"/>
  <path d="M206.519 94.4914H172.559C172.627 94.1719 172.69 93.8523 172.758 93.5327H206.194C206.302 93.8523 206.416 94.1605 206.519 94.4914Z" fill="black"/>
  <path d="M207.061 96.1119H172.25L172.301 95.8608H206.998L207.061 96.1119Z" fill="black"/>
  <path d="M207.796 98.4402H171.77C171.832 98.1206 171.889 97.801 171.958 97.4814H207.499C207.602 97.801 207.722 98.1206 207.796 98.4402Z" fill="black"/>
  <path d="M208.292 100.061H171.467C171.467 99.9813 171.467 99.8957 171.512 99.8101H208.212C208.241 99.8957 208.292 99.9813 208.292 100.061Z" fill="black"/>
  <path d="M208.954 102.389H171.051C171.102 102.076 171.159 101.756 171.216 101.431H208.743V101.63C208.818 101.887 208.863 102.15 208.954 102.389Z" fill="black"/>
  <path d="M209.389 104.01H170.777C170.777 103.93 170.806 103.844 170.823 103.759H209.32C209.348 103.841 209.37 103.925 209.389 104.01Z" fill="black"/>
  <path d="M209.971 106.338H170.412C170.463 106.024 170.509 105.705 170.56 105.379H209.737C209.817 105.705 209.891 106.024 209.971 106.338Z" fill="black"/>
  <path d="M210.325 107.959H170.195C170.195 107.879 170.195 107.794 170.224 107.708H210.273L210.325 107.959Z" fill="black"/>
  <path d="M210.707 110.287H170.189C170.144 109.97 170.119 109.649 170.115 109.329H210.575C210.64 109.66 210.684 109.979 210.707 110.287Z" fill="black"/>
  <path d="M210.736 111.657V111.908H170.578C170.549 111.828 170.521 111.742 170.498 111.657H210.736Z" fill="black"/>
  <path d="M210.524 113.278C210.453 113.602 210.365 113.922 210.261 114.237H171.861C171.77 114.122 171.673 114.003 171.576 113.866C171.479 113.729 171.319 113.495 171.193 113.295L210.524 113.278Z" fill="black"/>
  </g>
  <path d="M184.445 73.2567C185.079 73.1026 188.64 68.9253 189.416 66.0834C189.467 65.8837 188.771 64.1317 188.023 61.9575C187.573 60.6392 187.105 59.1555 186.774 57.7745C186.711 57.4892 185.866 58.2424 185.866 58.2424L184.183 59.0984L178.607 61.9518C179.518 63.5705 180.225 65.2956 180.713 67.0878C180.756 67.2752 180.781 67.4663 180.787 67.6584C180.787 67.6584 180.787 67.7212 180.787 67.7555C180.901 68.8511 183.412 73.5078 184.445 73.2567Z" fill="#EB9481"/>
  <path d="M180.787 67.6357C180.787 67.6357 180.787 67.6984 180.787 67.7327C181.092 67.7045 181.394 67.6491 181.689 67.5672C187.498 66.0435 186.454 58.4365 186.454 58.4365L184.171 59.0871L178.596 61.9404C179.506 63.5592 180.214 65.2842 180.701 67.0764C180.747 67.2597 180.776 67.447 180.787 67.6357Z" fill="#263238"/>
  <path d="M185.946 47.7421C187.447 50.6867 187.384 59.9657 185.524 62.3625C182.83 65.8322 177.626 67.0363 174.476 63.618C171.423 60.2967 171.714 48.21 173.865 45.9273C177.032 42.6232 183.755 43.3708 185.946 47.7421Z" fill="#EB9481"/>
  <path d="M178.128 54.6699C178.128 54.6699 178.173 54.6699 178.173 54.727C178.173 55.349 178.236 56.0681 178.801 56.2792V56.3134C178.105 56.2164 178.008 55.2577 178.128 54.6699Z" fill="#263238"/>
  <path d="M178.681 54.0196C179.691 53.9454 179.765 55.9598 178.835 56.0283C177.905 56.0968 177.842 54.0824 178.681 54.0196Z" fill="#263238"/>
  <path d="M174.515 54.9097C174.515 54.9097 174.463 54.9097 174.463 54.9667C174.509 55.5888 174.463 56.3135 173.893 56.5418V56.576C174.589 56.4505 174.652 55.4917 174.515 54.9097Z" fill="#263238"/>
  <path d="M173.932 54.2765C172.922 54.2365 172.916 56.2567 173.852 56.2909C174.788 56.3252 174.777 54.3107 173.932 54.2765Z" fill="#263238"/>
  <path d="M179.446 53.0723C179.177 53.0052 178.912 52.9232 178.652 52.8269C178.361 52.7801 178.094 52.6375 177.893 52.4217C177.844 52.3413 177.823 52.2471 177.832 52.1535C177.841 52.0598 177.881 51.9717 177.945 51.9024C178.092 51.7852 178.269 51.7096 178.455 51.6835C178.642 51.6574 178.832 51.6818 179.006 51.754C179.38 51.8474 179.707 52.0748 179.925 52.3932C179.969 52.4688 179.991 52.5556 179.987 52.6432C179.983 52.7308 179.954 52.8154 179.904 52.8871C179.853 52.9587 179.783 53.0142 179.702 53.0471C179.621 53.0799 179.532 53.0887 179.446 53.0723Z" fill="#C7C7C7"/>
  <path d="M173.112 53.2892C173.38 53.226 173.645 53.1479 173.905 53.0553C174.196 53.0084 174.464 52.8682 174.669 52.6558C174.721 52.5766 174.745 52.4824 174.736 52.3883C174.728 52.2941 174.688 52.2054 174.624 52.1365C174.476 52.019 174.301 51.9423 174.115 51.9143C173.928 51.8862 173.738 51.9078 173.562 51.9767C173.188 52.0669 172.86 52.29 172.638 52.6044C172.592 52.6797 172.57 52.7666 172.572 52.8545C172.575 52.9424 172.603 53.0276 172.653 53.1C172.703 53.1723 172.773 53.2286 172.854 53.2622C172.936 53.2958 173.025 53.3052 173.112 53.2892Z" fill="#C7C7C7"/>
  <path d="M178.921 60.445C178.778 60.5991 178.635 60.8045 178.407 60.8331C178.176 60.8382 177.946 60.7935 177.734 60.7018C177.734 60.7018 177.694 60.7018 177.705 60.7361C177.799 60.8554 177.923 60.9471 178.065 61.0013C178.207 61.0556 178.36 61.0704 178.51 61.0442C178.636 61.0053 178.747 60.9306 178.831 60.8293C178.916 60.7279 178.968 60.6044 178.983 60.4736C178.987 60.4652 178.988 60.4557 178.984 60.4472C178.981 60.4386 178.975 60.4317 178.966 60.4279C178.958 60.4241 178.949 60.4238 178.94 60.427C178.931 60.4302 178.924 60.4367 178.921 60.445Z" fill="#263238"/>
  <path d="M178.195 58.6022C178.045 58.8547 177.844 59.0737 177.605 59.2455C177.367 59.4173 177.096 59.5382 176.808 59.6008C176.558 59.6589 176.3 59.6801 176.044 59.6636C175.994 59.6695 175.945 59.6695 175.895 59.6636H175.758C175.725 59.659 175.694 59.6436 175.671 59.6199C175.647 59.5963 175.632 59.5655 175.627 59.5323C175.624 59.5115 175.624 59.4904 175.627 59.4696V59.3497C175.593 58.8704 175.627 58.1399 175.627 58.1399C175.456 58.2312 174.571 58.6706 174.577 58.4195C174.548 56.2487 174.739 54.0804 175.148 51.9482C175.148 51.933 175.154 51.9185 175.164 51.9078C175.175 51.8971 175.19 51.8911 175.205 51.8911C175.22 51.8911 175.234 51.8971 175.245 51.9078C175.256 51.9185 175.262 51.933 175.262 51.9482C175.296 53.9569 174.982 55.9428 174.982 57.9687C175.296 57.8093 175.63 57.6941 175.975 57.6263C176.044 57.6263 175.912 59.0416 175.947 59.2584C176.342 59.2823 176.739 59.2264 177.112 59.094C177.486 58.9617 177.829 58.7556 178.121 58.488C178.178 58.5108 178.229 58.5508 178.195 58.6022Z" fill="#263238"/>
  <path d="M176.336 59.4124C176.613 59.7445 176.971 59.9999 177.375 60.1543C177.601 60.2268 177.844 60.2268 178.071 60.1543C178.562 60.0059 178.556 59.5494 178.453 59.1556C178.393 58.9568 178.311 58.7654 178.208 58.585C177.687 59.0513 177.032 59.3409 176.336 59.4124Z" fill="#263238"/>
  <path d="M177.357 60.1544C177.584 60.2269 177.827 60.2269 178.054 60.1544C178.544 60.0061 178.539 59.5495 178.436 59.1558C178.17 59.1769 177.919 59.2869 177.724 59.4681C177.528 59.6492 177.399 59.891 177.357 60.1544Z" fill="#FF99BA"/>
  <path d="M172.648 49.0776C172.962 48.273 173.191 46.7094 173.995 46.4126C174.566 46.2015 174.885 47.3542 175.975 47.3885C177.448 47.4284 178.298 46.0931 180.341 45.8705C183.274 45.5509 184.21 48.8208 184.444 52.9924C184.65 56.7246 186.921 56.9871 186.921 56.9871C186.921 56.9871 187.965 48.7067 185.54 46.0759C183.114 43.4452 177.75 42.4465 174.281 45.1857C173.014 46.1672 172.648 49.0776 172.648 49.0776Z" fill="#C7C7C7"/>
  <path d="M186.493 42.6747C186.493 42.8451 186.442 43.0117 186.348 43.1534C186.253 43.2951 186.118 43.4056 185.961 43.4708C185.804 43.536 185.63 43.5531 185.463 43.5198C185.296 43.4866 185.142 43.4045 185.022 43.284C184.901 43.1635 184.819 43.01 184.786 42.8428C184.753 42.6757 184.77 42.5024 184.835 42.3449C184.9 42.1875 185.011 42.0529 185.152 41.9582C185.294 41.8635 185.461 41.813 185.631 41.813C185.744 41.813 185.856 41.8353 185.961 41.8786C186.066 41.9219 186.161 41.9854 186.241 42.0654C186.321 42.1454 186.384 42.2404 186.427 42.3449C186.471 42.4495 186.493 42.5615 186.493 42.6747Z" fill="#37474F"/>
  <path d="M186.899 50.7267C186.522 50.3786 181.261 46.8005 179.948 46.5666C177.847 46.3558 175.733 46.3081 173.625 46.4239C172.792 46.5152 171.343 45.2255 171.748 44.3638C172.221 43.3594 174.921 43.2224 176.644 42.8629C178.367 42.5034 183.309 41.6588 186.037 43.1939C188.12 44.3352 190.603 46.8062 190.135 48.6723C189.684 50.4071 186.899 50.7267 186.899 50.7267Z" fill="#455A64"/>
  <path d="M185.37 55.4575C185.37 55.4575 186.945 52.2218 188.383 52.7354C189.821 53.249 188.953 57.7231 187.498 58.5505C187.318 58.669 187.115 58.7499 186.903 58.7882C186.69 58.8265 186.472 58.8216 186.262 58.7736C186.051 58.7256 185.853 58.6357 185.678 58.5091C185.503 58.3825 185.355 58.2219 185.244 58.0369L185.37 55.4575Z" fill="#EB9481"/>
  <path d="M188.103 54.0137V54.0536C187.082 54.6642 186.671 55.7656 186.437 56.907C186.482 56.7875 186.553 56.6793 186.645 56.5901C186.736 56.5008 186.846 56.4326 186.967 56.3903C187.087 56.3479 187.216 56.3323 187.343 56.3447C187.47 56.357 187.593 56.397 187.704 56.4618C187.732 56.4618 187.704 56.5246 187.704 56.5246C187.503 56.4944 187.297 56.527 187.115 56.6179C186.934 56.7088 186.784 56.8536 186.688 57.0325C186.53 57.3343 186.403 57.6518 186.311 57.9798C186.277 58.0825 186.094 58.0597 186.111 57.9399C185.866 56.4961 186.636 54.3903 188.103 54.0137Z" fill="#263238"/>
  <g opacity="0.2">
  <path d="M176.854 50.0536C176.519 50.1126 176.179 50.1488 175.839 50.162C175.49 50.162 175.148 50.0936 174.8 50.105C174.143 50.148 173.5 50.3085 172.9 50.5786C172.848 50.5786 172.86 50.6357 172.9 50.6186C173.54 50.3565 174.229 50.2376 174.92 50.2705C175.488 50.352 176.064 50.352 176.632 50.2705C177.887 49.9558 179.21 50.0477 180.41 50.533C179.299 50.0218 178.061 49.8549 176.854 50.0536Z" fill="black"/>
  <path d="M176.842 49.1406C176.523 49.1948 176.201 49.2291 175.878 49.2433C175.547 49.2433 175.222 49.1748 174.891 49.1805C174.269 49.2269 173.661 49.3814 173.093 49.6371C173.042 49.6371 173.053 49.6884 173.093 49.6713C173.701 49.4255 174.355 49.3126 175.01 49.3403C175.542 49.4145 176.082 49.4145 176.614 49.3403C177.803 49.0417 179.056 49.1297 180.192 49.5914C179.145 49.1114 177.979 48.9545 176.842 49.1406Z" fill="black"/>
  </g>
  <path d="M180.804 67.8523L183.965 72.6002L189.033 64.7593L191.276 66.4713C191.276 66.4713 187.144 78.13 187.007 77.6678L183.965 73.6731L181.54 77.3995L180.188 69.5814L180.804 67.8523Z" fill="#EBEBEB"/>
  <path d="M180.65 73.565C180.473 72.2696 180.257 70.9685 180.137 69.6617C180.137 69.616 180.199 69.5818 180.222 69.6617C180.73 70.8429 181.392 75.8135 181.638 76.9833C181.74 76.8235 183.92 73.6792 183.954 73.7134C184.565 74.324 186.808 77.2401 186.956 77.514C187.607 75.6594 190.175 68.897 191.025 67.0937C191.054 67.0423 191.128 67.0937 191.111 67.1222C190.597 69.0454 187.23 78.1361 187.116 78.1304C185.981 76.7722 184.916 75.357 183.926 73.8903C183.584 74.5466 181.444 78.0334 181.398 77.845C181.073 76.4326 180.824 75.0039 180.65 73.565Z" fill="#263238"/>
  <path d="M181.517 242.374H177.522V128.166C177.522 126.02 176.917 124.251 175.776 123.064C175.317 122.579 174.765 122.192 174.151 121.928C173.538 121.664 172.877 121.528 172.209 121.529C169.835 121.529 167.444 123.241 167.444 127.168V130.455H163.449V127.168C163.449 120.845 167.855 117.535 172.209 117.535C173.414 117.539 174.606 117.785 175.714 118.26C176.822 118.734 177.823 119.427 178.657 120.297C179.964 121.655 181.511 124.126 181.511 128.166L181.517 242.374Z" fill="#15803D"/>
  <path opacity="0.1" d="M167.444 130.455H163.449V127.168C163.449 120.845 167.855 117.535 172.209 117.535C173.414 117.539 174.606 117.785 175.714 118.26C176.822 118.734 177.823 119.427 178.657 120.297C179.964 121.655 181.511 124.126 181.511 128.166H177.516C177.516 126.02 176.911 124.251 175.77 123.064C175.312 122.579 174.759 122.192 174.145 121.928C173.532 121.664 172.871 121.528 172.203 121.529C169.829 121.529 167.438 123.241 167.438 127.168L167.444 130.455Z" fill="black"/>
  <path d="M186.888 102.406C186.888 102.406 179.897 105.026 175.446 106.081C172.963 106.652 168.803 108.062 167.177 109.328C164.746 111.223 155.792 120.702 158.046 122.922C160.083 124.936 166.743 115.811 166.743 115.811C166.743 115.811 159.216 124.405 162.104 126.391C164.991 128.377 171.154 117.055 171.154 117.055C171.154 117.055 163.616 126.078 166.926 127.635C169.425 128.811 175.577 118.887 175.577 118.887C175.577 118.887 169.151 126.682 171.668 128.018C174.453 129.479 180.707 120.673 180.707 120.673C187.681 122.956 192.994 119.578 195.87 117.957C196.566 117.557 186.888 102.406 186.888 102.406Z" fill="#EB9481"/>
  <path d="M168.706 113.175C165.231 116.787 162.595 121.227 161.858 123.196C161.767 123.435 161.693 123.652 161.704 123.635C163.177 121.352 167.936 114.259 168.763 113.203C168.769 113.175 168.729 113.152 168.706 113.175Z" fill="#263238"/>
  <path d="M173.027 115.6C170.008 117.957 167.731 122.22 166.749 123.635C166.675 123.743 166.749 123.743 166.835 123.635C167.856 122.26 171.971 116.941 173.044 115.646C173.078 115.606 173.049 115.583 173.027 115.6Z" fill="#263238"/>
  <path d="M176.529 117.855C174.657 119.531 173.161 121.585 172.141 123.881C172.084 124.001 172.175 123.984 172.255 123.881C173.767 121.741 174.663 120.383 176.598 117.929C176.626 117.883 176.575 117.82 176.529 117.855Z" fill="#263238"/>
  <path d="M191.505 74.0673C192.646 78.7867 201.463 95.0963 201.457 96.0265C201.451 96.9567 184.839 102.875 181.558 104.838C179.327 106.15 187.67 122.077 192.018 119.955C198.752 116.668 217.961 107.822 218.965 100.991C219.97 94.1604 200.304 73.8561 196.481 70.2609C192.657 66.6657 189.644 66.3062 191.505 74.0673Z" fill="#EB9481"/>
  <path d="M181.529 103.416L195.665 120.651C195.665 120.651 217.464 109.117 219.519 101.819C221.413 95.0961 199.477 72.2295 196.03 69.3476C192.68 66.5513 189.182 65.9236 191.721 75.4708C194.261 85.0181 201.337 95.1417 200.852 95.8436C200.367 96.5456 181.529 103.416 181.529 103.416Z" fill="#EBEBEB"/>
  <path d="M182.608 246.871H175.246L175.817 237.837H182.037L182.608 246.871Z" fill="#15803D"/>
  <path opacity="0.2" d="M182.608 246.871H175.246L175.817 237.837H182.037L182.608 246.871Z" fill="black"/>
  <path d="M112.222 246.328C110.91 246.756 73.6052 246.271 72.2014 245.347C71.6307 245.01 71.4138 239.566 71.3054 232.986C71.3054 232.918 71.3054 232.849 71.3054 232.781C71.3054 231.423 71.2655 230.024 71.2598 228.609C71.2598 228.415 71.2598 228.221 71.2598 228.038L73.046 208.676L98.0012 208.927L95.5416 228.096L95.5131 228.855L95.359 232.849V233.26C95.359 233.26 109.551 239.834 110.995 241.01C112.439 242.185 113.529 245.912 112.222 246.328Z" fill="#AD6359"/>
  <path d="M112.222 246.328C110.91 246.756 73.6052 246.271 72.2014 245.347C71.6307 245.01 71.4138 239.566 71.3054 232.986C71.3054 232.918 71.3054 232.849 71.3054 232.781C71.3054 231.423 71.2655 230.024 71.2598 228.609C71.2598 228.415 71.2598 228.221 71.2598 228.039L95.5645 228.107L95.5359 228.866L95.3818 232.861V233.272C95.3818 233.272 109.574 239.846 111.018 241.021C112.462 242.197 113.529 245.912 112.222 246.328Z" fill="#EBEBEB"/>
  <path d="M112.222 246.328C111.548 246.545 101.413 246.522 91.5064 246.328C89.5148 246.288 87.5118 246.243 85.6457 246.191C78.5808 245.997 72.7429 245.706 72.2008 245.353C71.6587 244.999 71.419 239.726 71.3105 233.266C71.3105 233.175 71.3105 233.083 71.3105 232.992C71.3105 232.901 71.3105 232.849 71.3105 232.781L95.3527 232.826V233.237C95.3527 233.237 109.551 239.806 110.989 240.981C112.427 242.157 113.528 245.912 112.222 246.328Z" fill="#15803D"/>
  <path d="M111.817 244.879C105.54 244.645 80.1511 244.308 73.9194 244.531C73.868 244.531 73.868 244.565 73.9194 244.571C80.1454 244.942 105.523 245.09 111.817 244.982C111.949 244.982 111.949 244.885 111.817 244.879Z" fill="#263238"/>
  <path d="M98.0521 232.929C95.5811 232.433 92.5509 232.775 90.6334 234.51C90.5593 234.578 90.6334 234.681 90.7419 234.658C93.1159 233.928 95.5606 233.452 98.035 233.237C98.0758 233.239 98.1159 233.225 98.1464 233.198C98.1769 233.171 98.1954 233.132 98.1976 233.092C98.1999 233.051 98.1858 233.011 98.1586 232.98C98.1313 232.95 98.093 232.931 98.0521 232.929Z" fill="#263238"/>
  <path d="M99.8218 234.025C97.3565 233.534 94.3205 233.87 92.4031 235.611C92.3289 235.679 92.4031 235.782 92.5058 235.759C94.8811 235.027 97.328 234.55 99.8046 234.338C99.8417 234.334 99.876 234.316 99.9014 234.289C99.9269 234.261 99.9419 234.226 99.944 234.189C99.946 234.151 99.9349 234.114 99.9126 234.084C99.8902 234.054 99.8581 234.033 99.8218 234.025Z" fill="#263238"/>
  <path d="M101.58 235.114C99.1086 234.618 96.0784 234.96 94.1609 236.701C94.0867 236.769 94.1609 236.872 94.2636 236.849C96.6441 236.116 99.0971 235.644 101.58 235.44C101.623 235.44 101.664 235.423 101.695 235.392C101.725 235.362 101.742 235.32 101.742 235.277C101.742 235.234 101.725 235.193 101.695 235.162C101.664 235.132 101.623 235.114 101.58 235.114Z" fill="#263238"/>
  <path d="M91.5064 246.323C89.5148 246.283 87.5118 246.237 85.6457 246.186C78.5808 245.992 72.7429 245.701 72.2008 245.347C71.6587 244.993 71.419 239.72 71.3105 233.26C71.3105 233.169 71.3105 233.077 71.3105 232.986C71.3105 232.895 71.3105 232.843 71.3105 232.775C74.6204 235.115 86.2278 242.813 91.5064 246.323Z" fill="#263238"/>
  <path d="M97.0142 232.906H70.1415C70.1415 232.906 75.5515 170.133 75.3403 169.06C75.0721 167.656 73.4856 161.305 71.3456 153.007C70.6837 150.411 69.9703 147.626 69.2285 144.738C67.254 136.96 65.0569 128.4 63.1223 120.981C60.2348 109.859 57.9863 101.219 57.9863 101.219H80.7559C80.7559 101.219 83.4095 109.631 86.7536 120.576C92.2035 138.364 99.4852 162.846 100.204 168.798C101.363 178.402 97.0142 232.906 97.0142 232.906Z" fill="#37474F"/>
  <path d="M95.8203 228.324C91.7172 228.238 92.8928 228.204 88.7897 228.164C86.7809 228.164 73.5871 228.027 71.7096 228.341C71.6697 228.341 71.6697 228.415 71.7096 228.427C73.5871 228.735 86.7809 228.621 88.7897 228.598C92.8928 228.563 91.7172 228.529 95.8203 228.444C95.8717 228.438 95.8717 228.324 95.8203 228.324Z" fill="#263238"/>
  <path d="M80.395 165.225C79.5161 161.339 78.1979 157.532 77.0509 153.72C74.7225 145.971 72.3809 138.23 70.026 130.5C68.8504 126.631 67.6691 122.762 66.4821 118.892C65.8772 116.941 65.278 114.989 64.6674 113.043C64.0568 111.097 63.3891 109.242 62.8527 107.336C62.6301 106.555 62.5103 106.983 62.7899 107.981C63.3606 109.984 63.9312 111.976 64.5019 113.985C65.6432 117.945 66.8074 121.902 67.9944 125.855C70.3227 133.73 72.672 141.595 75.0421 149.452L78.6031 161.276C79.2021 163.147 79.6861 165.053 80.0526 166.983C80.369 169.006 80.4494 171.058 80.2923 173.1C80.0297 177.215 79.5561 181.318 79.1795 185.421C78.8028 189.524 78.4148 193.638 78.0381 197.747C77.2772 205.927 76.5259 214.106 75.784 222.286C75.6927 223.319 75.6014 224.357 75.5215 225.396C75.4929 225.744 76.018 225.716 76.0579 225.396C76.9424 217.31 77.6215 209.195 78.3805 201.091C79.1395 192.988 79.8928 184.976 80.6632 176.918C80.8515 174.892 81.0627 172.866 81.0684 170.829C81.0544 168.942 80.8285 167.062 80.395 165.225Z" fill="#263238"/>
  <path d="M78.1806 101.213C76.5998 113.443 73.5867 136.372 71.3896 153.007C66.2536 132.851 57.9961 101.213 57.9961 101.213H78.1806Z" fill="#263238"/>
  <path d="M83.7577 246.688C82.4509 247.116 45.1464 246.768 43.7368 245.855C43.1662 245.512 42.9265 240.074 42.7952 233.494C42.7952 233.425 42.7952 233.357 42.7952 233.289C42.7952 231.93 42.7439 230.538 42.7382 229.123C42.7382 228.929 42.7382 228.729 42.7382 228.552C42.6526 219.056 43.3088 209.201 43.3088 209.201L67.6934 209.36L67.0143 228.535V229.294L66.8774 233.289V233.699C66.8774 233.699 81.0984 240.216 82.5422 241.392C83.986 242.568 85.0645 246.271 83.7577 246.688Z" fill="#AD6359"/>
  <path d="M83.7559 246.688C82.449 247.116 45.1445 246.767 43.735 245.854C43.1643 245.512 42.9246 240.074 42.7934 233.494C42.7934 233.425 42.7934 233.357 42.7934 233.288C42.7934 231.93 42.742 230.538 42.7363 229.122C42.7363 228.928 42.7363 228.729 42.7363 228.552H67.041V229.311L66.9041 233.305V233.716C66.9041 233.716 81.1251 240.233 82.5689 241.409C84.0126 242.584 85.0627 246.271 83.7559 246.688Z" fill="#EBEBEB"/>
  <path d="M83.7574 246.688C82.4506 247.116 45.1461 246.767 43.7365 245.854C43.1659 245.512 42.9262 240.074 42.7949 233.494C42.7949 233.425 42.7949 233.357 42.7949 233.288L66.8656 233.243V233.654C66.8656 233.654 81.0867 240.171 82.5304 241.346C83.9742 242.522 85.0642 246.271 83.7574 246.688Z" fill="#15803D"/>
  <path d="M83.3525 245.238C77.0752 245.027 51.6862 244.759 45.4545 245.027C45.4032 245.027 45.4032 245.067 45.4545 245.067C51.6805 245.415 77.0581 245.478 83.3468 245.341C83.4838 245.341 83.4838 245.244 83.3525 245.238Z" fill="#263238"/>
  <path d="M69.5405 233.34C67.0695 232.855 64.0393 233.203 62.1218 234.949C62.0477 235.017 62.1218 235.12 62.2246 235.097C64.595 234.356 67.0381 233.87 69.512 233.648C69.5322 233.65 69.5526 233.648 69.572 233.642C69.5914 233.636 69.6095 233.626 69.6251 233.613C69.6407 233.6 69.6537 233.584 69.6631 233.566C69.6726 233.548 69.6785 233.528 69.6803 233.508C69.6822 233.488 69.6801 233.467 69.6741 233.448C69.668 233.429 69.6583 233.411 69.6453 233.395C69.6323 233.379 69.6164 233.366 69.5984 233.357C69.5804 233.347 69.5607 233.342 69.5405 233.34Z" fill="#263238"/>
  <path d="M71.3335 234.43C68.8625 233.945 65.8323 234.299 63.9148 236.045C63.8406 236.114 63.9148 236.216 64.0175 236.193C66.3972 235.449 68.8499 234.963 71.3335 234.744C71.37 234.737 71.4029 234.717 71.4266 234.689C71.4503 234.66 71.4632 234.624 71.4632 234.587C71.4632 234.55 71.4503 234.514 71.4266 234.485C71.4029 234.457 71.37 234.437 71.3335 234.43Z" fill="#263238"/>
  <path d="M73.0913 235.525C70.6203 235.04 67.5901 235.388 65.6726 237.135C65.5984 237.203 65.6726 237.306 65.7753 237.283C68.1472 236.54 70.5925 236.056 73.0685 235.839C73.1058 235.835 73.1406 235.818 73.1668 235.791C73.193 235.765 73.2088 235.729 73.2115 235.692C73.2142 235.654 73.2037 235.617 73.1817 235.587C73.1597 235.556 73.1277 235.534 73.0913 235.525Z" fill="#263238"/>
  <path d="M80.0132 101.213C80.0132 101.213 79.4882 112.107 76.9944 120.736C76.7946 121.449 76.5778 122.151 76.3438 122.824C74.0582 123.747 71.8615 124.876 69.7811 126.197C69.7811 126.197 69.5186 134.962 69.2561 144.738C68.9651 155.666 68.6854 167.856 68.7254 170.418C68.9537 180.091 67.5156 233.277 67.5156 233.277L40.6543 233.402C40.6543 233.402 45.5107 174.007 45.4764 170.464C45.4251 164.757 46.7776 139.596 47.8219 121.238C48.461 109.927 48.9632 101.208 48.9632 101.208L80.0132 101.213Z" fill="#37474F"/>
  <path d="M66.5977 228.523C62.4946 228.455 63.6701 228.415 59.567 228.392C57.5583 228.392 44.3645 228.323 42.487 228.643C42.447 228.643 42.447 228.717 42.487 228.729C44.3645 229.031 57.564 228.86 59.5728 228.831C63.6758 228.774 62.4946 228.746 66.5977 228.643C66.6718 228.637 66.6718 228.523 66.5977 228.523Z" fill="#263238"/>
  <path d="M51.2464 105.105C50.75 120.091 50.2249 135.083 49.5344 150.062C48.8439 165.042 47.9537 180.114 46.6811 195.111C45.9792 203.488 45.3172 215.273 44.3984 223.644C44.3984 223.701 44.4783 223.724 44.484 223.644C46.4414 208.778 47.5314 190.397 48.4787 175.434C49.426 160.471 50.1622 145.52 50.6701 130.523C50.9554 122.048 51.178 113.568 51.4291 105.094C51.4348 105.003 51.2464 105.003 51.2464 105.105Z" fill="#263238"/>
  <path d="M77.462 122.174C74.7908 123.281 72.2208 124.617 69.7809 126.169C69.6838 126.226 69.7809 126.38 69.8608 126.328C72.4516 125.067 75.0995 123.857 77.6161 122.454C77.6383 122.427 77.652 122.395 77.6553 122.36C77.6586 122.326 77.6515 122.291 77.6348 122.261C77.6182 122.231 77.5928 122.206 77.5619 122.191C77.5311 122.175 77.4963 122.169 77.462 122.174Z" fill="#263238"/>
  <path d="M69.1137 66.8991C70.0097 80.3554 74.9174 94.5764 76.9604 96.8191C80.1219 100.295 95.5413 104.666 101.596 105.379C103.576 105.613 106.059 92.0712 104.558 90.5418C103.057 89.0124 86.3421 86.1077 85.275 85.3545C84.7043 84.955 79.2373 74.3976 75.3511 67.5668C71.7274 61.221 68.8398 62.8188 69.1137 66.8991Z" fill="#DD6A57"/>
  <path d="M99.1426 88.967C99.1426 88.967 103.571 86.0338 105.802 85.1721C108.034 84.3104 117.524 84.162 117.672 86.2107C117.86 88.8529 112.399 90.0227 109.649 90.2396C109.649 90.2396 110.099 96.3571 106.362 98.0463C102.624 99.7355 99.1426 88.967 99.1426 88.967Z" fill="#DD6A57"/>
  <path d="M101.482 105.368C103.446 105.939 112.662 107.651 115.333 107.565C118.003 107.48 125.679 106.658 125.816 104.603C125.953 102.549 123.687 102.612 123.687 102.612C123.687 102.612 126.871 101.75 126.826 99.6728C126.78 97.5956 123.253 97.801 123.253 97.801C123.253 97.801 126.46 96.6597 126.266 94.611C126.072 92.5623 122.563 93.3441 122.563 93.3441C122.563 93.3441 125.542 92.4539 124.663 90.816C123.601 88.8472 118.294 91.1014 115.338 90.9815C114.665 90.953 101.762 89.4521 101.762 89.4521L101.482 105.368Z" fill="#DD6A57"/>
  <path d="M123.687 102.611C123.687 102.611 125.97 102.549 125.816 104.603C125.662 106.658 118.003 107.456 115.333 107.565C112.662 107.673 103.526 105.933 101.511 105.374C99.3643 105.073 97.2361 104.652 95.1367 104.112L97.0484 88.2136C97.8645 88.4076 98.6634 88.5959 99.4167 88.7842C100.415 88.1337 103.902 85.8967 105.802 85.1662C108.028 84.3045 117.524 84.1561 117.672 86.2048C117.702 86.6941 117.542 87.1761 117.227 87.5516C115.926 89.8 112.919 90.1196 110.459 90.4449C112.953 90.7302 115.076 90.9642 115.338 90.9756C118.294 91.0954 123.602 88.8413 124.663 90.8101C125.49 92.3509 122.9 93.2297 122.591 93.3324L122.848 93.2811C122.87 93.27 122.895 93.2643 122.92 93.2643C122.944 93.2643 122.969 93.27 122.991 93.2811C123.944 93.1384 126.095 93.0129 126.249 94.6221C126.404 96.2314 124.452 97.2872 123.613 97.6638C123.704 97.6638 123.727 97.738 123.681 97.8122C124.629 97.8122 126.769 98.0633 126.809 99.684C126.871 101.75 123.687 102.611 123.687 102.611Z" fill="#DBDBDB"/>
  <path d="M122.864 93.2809C118.955 94.9302 116.963 94.9929 112.843 94.2967C112.763 94.2967 112.723 94.3994 112.803 94.4166C116.798 95.4495 119.292 95.7576 122.95 93.4636C123.132 93.3494 123.047 93.2011 122.864 93.2809Z" fill="#263238"/>
  <path d="M123.561 97.6639C119.356 99.022 117.193 99.0905 112.827 98.6968C112.764 98.6968 112.747 98.7938 112.827 98.8052C117.079 99.5528 119.59 99.7981 123.613 97.8864C123.778 97.8008 123.755 97.584 123.561 97.6639Z" fill="#263238"/>
  <path d="M123.464 102.583C119.298 103.605 116.93 103.782 112.741 102.857C112.723 102.856 112.705 102.861 112.691 102.871C112.676 102.881 112.665 102.896 112.66 102.913C112.655 102.93 112.655 102.949 112.662 102.965C112.668 102.982 112.68 102.996 112.695 103.005C116.878 104.369 119.834 104.147 123.481 102.714C123.732 102.612 123.726 102.52 123.464 102.583Z" fill="#263238"/>
  <path d="M117.482 86.9526C115.919 89.4921 112.289 89.5492 109.636 89.9658C109.596 89.9694 109.558 89.9828 109.525 90.0048C109.492 90.0268 109.465 90.0567 109.446 90.0918C109.427 90.1269 109.418 90.1661 109.418 90.2059C109.418 90.2456 109.428 90.2847 109.447 90.3196C109.447 92.8933 108.734 96.5341 106.514 98.1035C106.501 98.1123 106.492 98.1259 106.488 98.1414C106.484 98.157 106.487 98.1733 106.495 98.1871C106.503 98.2009 106.516 98.2112 106.531 98.2158C106.546 98.2204 106.563 98.219 106.577 98.2119C109.191 96.8537 110.195 93.3327 110.001 90.5136C112.729 90.1313 116.364 89.9144 117.517 86.9698L117.482 86.9526Z" fill="#263238"/>
  <path d="M70.192 85.3829L82.9065 80.2469C82.9065 80.2469 78.3925 70.8366 75.3451 66.277C72.2978 61.7173 68.0007 60.6388 68.1034 69.0105C68.1833 76.1096 70.192 85.3829 70.192 85.3829Z" fill="#37474F"/>
  <path d="M46.7949 112.045C46.7949 112.045 85.5717 111.856 85.5717 111.862C85.5717 112.621 77.1601 68.4913 73.1084 63.2354C72.2409 62.0941 66.3174 60.6732 63.641 63.167C51.9309 74.0781 46.7949 112.535 46.7949 112.045Z" fill="#15803D"/>
  <path d="M71.6242 67.1903C69.7753 67.6354 65.9176 65.4783 64.5879 62.8418C64.5023 62.6592 64.8333 60.8045 65.1586 58.5219C65.3298 57.1409 65.4953 55.5943 65.5409 54.1734C65.5409 53.8823 74.3805 56.6387 74.3805 56.6387C73.8124 58.3964 73.4617 60.217 73.3362 62.06C73.3327 62.251 73.3461 62.442 73.3762 62.6307C73.3797 62.6629 73.3797 62.6954 73.3762 62.7277C73.5074 63.8576 73.6159 66.7109 71.6242 67.1903Z" fill="#DD6A57"/>
  <path d="M73.3591 62.6476C73.3591 62.6476 73.3591 62.7103 73.3591 62.7446C73.0552 62.7679 72.75 62.7679 72.4461 62.7446C67.2073 62.4535 66.0432 55.8452 65.832 54.1846C67.4071 54.4642 74.3521 56.6327 74.3521 56.6327C73.7842 58.3925 73.4336 60.215 73.3078 62.0598C73.3066 62.2569 73.3238 62.4537 73.3591 62.6476Z" fill="#263238"/>
  <path d="M64.239 43.0626C63.2689 46.2241 64.9181 55.3548 67.1665 57.392C70.4193 60.3481 75.7265 60.6391 78.266 56.7301C80.7027 52.9351 78.3345 41.071 75.8292 39.222C72.137 36.4885 65.6714 38.4002 64.239 43.0626Z" fill="#DD6A57"/>
  <path d="M73.1304 48.5464C73.1304 48.5464 73.0904 48.5806 73.0961 48.6092C73.2217 49.2198 73.2674 49.9388 72.748 50.2413C72.748 50.2413 72.748 50.2812 72.748 50.2755C73.4214 50.0644 73.3529 49.1056 73.1304 48.5464Z" fill="#263238"/>
  <path d="M72.4738 47.9985C71.4751 48.0955 71.7434 50.0986 72.6735 50.0073C73.6037 49.916 73.3127 47.9358 72.4738 47.9985Z" fill="#263238"/>
  <path d="M76.7309 48.1587C76.7309 48.1587 76.7823 48.1587 76.788 48.2043C76.8508 48.8264 77.0277 49.5283 77.6212 49.6595V49.6938C76.9193 49.6881 76.691 48.7579 76.7309 48.1587Z" fill="#263238"/>
  <path d="M77.2004 47.4336C78.1819 47.2225 78.5357 49.2141 77.6227 49.4081C76.7096 49.6022 76.3729 47.6105 77.2004 47.4336Z" fill="#263238"/>
  <path d="M71.556 47.1883C71.8088 47.0777 72.0546 46.9519 72.2922 46.8117C72.5775 46.6633 72.8172 46.5777 72.9713 46.2866C73.0072 46.1987 73.0133 46.1013 72.9886 46.0096C72.9638 45.9178 72.9096 45.8367 72.8343 45.7787C72.6681 45.6894 72.481 45.6461 72.2925 45.6531C72.1039 45.6601 71.9206 45.7173 71.7615 45.8187C71.4081 45.9731 71.1252 46.254 70.9682 46.6062C70.9363 46.6881 70.9291 46.7776 70.9474 46.8636C70.9656 46.9495 71.0086 47.0283 71.0711 47.0902C71.1336 47.152 71.2127 47.1942 71.2989 47.2117C71.3851 47.2291 71.4744 47.221 71.556 47.1883Z" fill="#263238"/>
  <path d="M77.8331 46.3211C77.567 46.3046 77.3021 46.2722 77.0399 46.2241C76.7453 46.2303 76.4568 46.1402 76.2181 45.9673C76.1544 45.8979 76.1154 45.8093 76.1071 45.7154C76.0989 45.6215 76.1218 45.5275 76.1725 45.448C76.2958 45.3055 76.455 45.1985 76.6337 45.1383C76.8123 45.0781 77.0038 45.0668 77.1883 45.1056C77.5743 45.1276 77.9384 45.2924 78.2098 45.5679C78.2714 45.6352 78.3112 45.7196 78.3239 45.81C78.3366 45.9004 78.3215 45.9925 78.2807 46.0741C78.2398 46.1558 78.1752 46.2231 78.0953 46.2672C78.0154 46.3113 77.924 46.3301 77.8331 46.3211Z" fill="#263238"/>
  <path d="M73.7409 52.4273C73.9318 52.6506 74.1666 52.8322 74.4307 52.9608C74.6948 53.0895 74.9825 53.1623 75.276 53.1749C75.5329 53.189 75.7904 53.166 76.0407 53.1064C76.089 53.0984 76.1367 53.0869 76.1834 53.0722L76.3146 53.0322C76.3476 53.0211 76.3761 52.9994 76.3957 52.9706C76.4153 52.9417 76.4249 52.9073 76.423 52.8724C76.4263 52.8516 76.4263 52.8305 76.423 52.8097V52.7526C76.3717 52.279 76.229 51.5599 76.229 51.5599C76.4116 51.6227 77.3704 51.9023 77.3076 51.6512C76.9593 49.5074 76.3953 47.4043 75.6241 45.3739C75.6165 45.3631 75.6057 45.355 75.5933 45.3506C75.5808 45.3463 75.5673 45.346 75.5547 45.3498C75.5421 45.3536 75.5309 45.3613 75.5229 45.3717C75.5149 45.3822 75.5104 45.3949 75.51 45.4081C75.8238 47.3883 76.4801 49.3001 76.8225 51.286C76.4859 51.1817 76.1362 51.126 75.7839 51.1205C75.7211 51.1205 76.0921 52.5072 76.0978 52.7241C75.7112 52.8175 75.3096 52.8318 74.9174 52.7661C74.5251 52.7004 74.1502 52.556 73.8151 52.3417C73.7409 52.336 73.6953 52.3817 73.7409 52.4273Z" fill="#263238"/>
  <path d="M75.7277 52.9009C75.5111 53.2761 75.2028 53.5903 74.8318 53.814C74.6251 53.9289 74.3878 53.9768 74.1527 53.951C73.6391 53.8882 73.582 53.4374 73.582 53.0379C73.6034 52.8236 73.6513 52.6127 73.7247 52.4102C74.3218 52.7859 75.0246 52.9581 75.7277 52.9009Z" fill="#263238"/>
  <path d="M74.8318 53.8139C74.6251 53.9288 74.3878 53.9767 74.1527 53.9509C73.6391 53.8881 73.582 53.4373 73.582 53.0378C73.8484 52.999 74.1199 53.0556 74.3486 53.1976C74.5773 53.3396 74.7485 53.5579 74.8318 53.8139Z" fill="#FF99BA"/>
  <path d="M77.5642 42.0752C77.1191 41.339 76.6169 40.5972 76.1262 40.5059C75.6354 40.4146 75.4756 41.6073 74.4142 41.8241C72.9761 42.1209 72.0916 40.8768 70.0372 41.0081C67.0925 41.2021 66.1338 43.81 66.6132 47.9645C67.0469 51.6681 64.8555 52.3187 64.8555 52.3187C64.8555 52.3187 62.4073 44.3293 64.3419 41.3333C66.2765 38.3373 71.3953 36.4199 75.2816 38.5199C76.7082 39.2903 77.5642 42.0752 77.5642 42.0752Z" fill="#263238"/>
  <path d="M66.5337 50.6122C66.5337 50.6122 64.4165 47.6961 63.1097 48.4608C61.8028 49.2255 63.4178 53.4713 64.9986 54.0248C65.1966 54.1107 65.4099 54.1556 65.6257 54.1568C65.8415 54.1579 66.0554 54.1154 66.2543 54.0316C66.4532 53.9479 66.6331 53.8248 66.7831 53.6696C66.9331 53.5145 67.0502 53.3305 67.1271 53.1289L66.5337 50.6122Z" fill="#DD6A57"/>
  <path d="M63.5898 49.6479V49.6879C64.7312 50.1159 65.3018 51.126 65.7298 52.1817C65.6636 52.072 65.5743 51.9781 65.4682 51.9063C65.362 51.8346 65.2416 51.7867 65.1151 51.7661C64.9887 51.7455 64.8592 51.7526 64.7358 51.7869C64.6124 51.8212 64.4979 51.8819 64.4002 51.9649C64.4002 51.9649 64.4002 52.0276 64.4344 52.0219C64.6275 51.9571 64.8358 51.9536 65.031 52.0118C65.2261 52.07 65.3985 52.1872 65.5244 52.3472C65.7304 52.6155 65.9083 52.9042 66.0551 53.2089C66.1122 53.3116 66.2891 53.2546 66.2491 53.1404V53.1119C66.2263 51.7252 65.1021 49.7792 63.5898 49.6479Z" fill="#263238"/>
  <path d="M124.634 69.4043H84.373V113.99H124.634V69.4043Z" fill="#15803D"/>
  <path d="M145.428 69.4043H124.639V113.99H145.428V69.4043Z" fill="#15803D"/>
  <path opacity="0.1" d="M145.428 69.4043H124.639V113.99H145.428V69.4043Z" fill="black"/>
  <path d="M107.925 79.0371H107.069H106.429L106.064 78.2953L105.551 79.0371L104.86 77.5135L104.198 79.0371H102.315H101.453L101.145 78.0214L100.848 79.0371H100.289V69.4043H107.925V79.0371Z" fill="white"/>
  <path d="M143.997 110.92C142.456 107.748 140.934 104.567 139.432 101.379L134.918 91.786L130.455 82.1759C128.975 78.9574 127.514 75.7236 126.072 72.4746C127.613 75.6475 129.135 78.828 130.638 82.0162L135.146 91.6091L139.597 101.242C141.081 104.457 142.547 107.683 143.997 110.92Z" fill="#15803D"/>
  <path d="M143.997 72.4746C142.548 75.7084 141.085 78.9422 139.609 82.1759L135.158 91.8031L130.649 101.396C129.128 104.588 127.606 107.768 126.084 110.938C127.526 107.7 128.987 104.466 130.467 101.236L134.918 91.6034L139.432 82.0105C140.931 78.8223 142.453 75.6437 143.997 72.4746Z" fill="#15803D"/>
  <path d="M60.5595 72.1607C60.2456 81.4911 60.9361 100.648 65.433 105.904C71.3337 112.804 86.833 116.142 91.4211 117.146C93.4185 117.58 97.1278 104.472 95.8267 102.697C94.5256 100.922 78.5811 98.0918 77.2686 97.116C75.9561 96.1402 70.6203 78.9574 68.1893 71.436C65.1191 61.9002 60.8334 64.2627 60.5595 72.1607Z" fill="#DD6A57"/>
  <path d="M101.578 106.561C100.802 105.865 101.162 105.454 103.011 105.573C104.86 105.693 112.084 107.736 112.581 105.157C113.077 102.578 102.88 99.844 99.7581 99.8782C96.6365 99.9125 91.666 101.06 91.666 101.06C93.5549 101.99 97.9148 104.689 101.578 106.561Z" fill="#DD6A57"/>
  <path d="M86.377 115.6C91.7812 118.031 98.361 121.387 105.004 120.656C105.743 120.594 106.441 120.284 106.984 119.777C109.968 119.503 110.733 118.014 110.733 118.014C113.432 116.907 114.009 115.275 114.009 115.275C114.009 115.275 117.507 114.915 117.644 112.764C117.798 110.35 112.856 111.331 109.803 110.201C102.824 107.622 93.613 102.007 91.6727 101.071L86.377 115.6Z" fill="#DD6A57"/>
  <path d="M100.585 112.644C102.62 113.423 104.706 114.062 106.829 114.556C109.183 114.95 111.564 115.171 113.951 115.218C113.966 115.218 113.98 115.224 113.991 115.234C114.002 115.245 114.008 115.26 114.008 115.275C114.008 115.29 114.002 115.304 113.991 115.315C113.98 115.326 113.966 115.332 113.951 115.332C109.331 115.711 104.695 114.812 100.551 112.735C100.437 112.69 100.483 112.61 100.585 112.644Z" fill="#263238"/>
  <path d="M98.4171 116.633C100.472 117.204 104.084 118.231 110.732 117.94C110.732 117.94 110.761 117.98 110.732 117.98C106.58 118.719 102.303 118.287 98.3829 116.73C98.263 116.684 98.2802 116.593 98.4171 116.633Z" fill="#263238"/>
  <path d="M97.2926 118.801C100.819 119.663 103.153 119.76 106.965 119.766V119.806C102.634 120.256 101.008 119.931 97.2641 118.915C97.1157 118.881 97.15 118.767 97.2926 118.801Z" fill="#263238"/>
  <path d="M59.9195 86.8328L73.2217 83.4772C73.2217 83.4772 70.0374 73.5419 67.6406 68.6399C65.2438 63.7379 61.135 62.0487 60.0964 70.3519C59.2004 77.3768 59.9195 86.8328 59.9195 86.8328Z" fill="#37474F"/>
  </svg>
  