<svg width="241" height="195" viewBox="0 0 241 195" fill="none" xmlns="http://www.w3.org/2000/svg">
<path d="M18.3575 131.24C18.6775 131.624 18.9015 131.933 19.0295 132.168C19.1575 132.403 19.2215 132.627 19.2215 132.84C19.2215 133.096 19.0508 133.395 18.7095 133.736C18.3895 134.077 18.0695 134.248 17.7495 134.248C17.3228 134.248 16.9815 134.184 16.7255 134.056C16.4695 133.928 16.2562 133.725 16.0855 133.448C15.7442 132.936 15.3282 132.499 14.8375 132.136C14.3468 131.752 13.5788 131.56 12.5335 131.56C11.6375 131.56 10.6135 131.763 9.4615 132.168C8.33083 132.573 7.52017 133.075 7.0295 133.672C6.60283 134.205 6.2295 135.016 5.9095 136.104C5.61083 137.192 5.4615 138.248 5.4615 139.272C5.4615 140.509 5.72817 141.651 6.2615 142.696C6.81617 143.72 7.6055 144.541 8.6295 145.16C9.67483 145.779 10.9228 146.088 12.3735 146.088C13.1628 146.088 13.9735 145.939 14.8055 145.64C15.6588 145.32 16.3948 144.808 17.0135 144.104H16.9815C17.3655 143.699 17.8455 143.496 18.4215 143.496C18.7628 143.496 19.0828 143.645 19.3815 143.944C19.7015 144.243 19.8615 144.541 19.8615 144.84C19.8615 145.16 19.8082 145.448 19.7015 145.704C19.6162 145.939 19.4455 146.205 19.1895 146.504C18.3148 147.485 17.2802 148.157 16.0855 148.52C14.8908 148.883 13.4615 149.064 11.7975 149.064C10.3255 149.064 8.83217 148.712 7.3175 148.008C5.82417 147.304 4.67217 146.451 3.8615 145.448C3.43483 144.829 3.01883 143.944 2.6135 142.792C2.2295 141.619 2.0375 140.669 2.0375 139.944C2.0375 138.088 2.31483 136.328 2.8695 134.664C3.4455 132.979 4.29883 131.635 5.4295 130.632C6.17617 129.949 7.2535 129.437 8.6615 129.096C10.0695 128.755 11.3602 128.584 12.5335 128.584C13.9628 128.584 15.0828 128.787 15.8935 129.192C16.7255 129.576 17.5468 130.259 18.3575 131.24ZM37.256 147.464C37.256 147.933 37 148.328 36.488 148.648C35.9973 148.968 35.5387 149.128 35.112 149.128C34.3013 149.128 33.6507 149.032 33.16 148.84C32.6907 148.627 32.2533 148.243 31.848 147.688C31.2933 148.179 30.536 148.552 29.576 148.808C28.616 149.043 27.7307 149.16 26.92 149.16C25.5973 149.16 24.5093 148.808 23.656 148.104C22.8027 147.379 22.376 146.323 22.376 144.936C22.376 144.339 22.536 143.795 22.856 143.304C23.176 142.792 23.6133 142.344 24.168 141.96C24.7867 141.555 25.4907 141.245 26.28 141.032C27.0693 140.797 27.8907 140.68 28.744 140.68C29.192 140.68 29.7253 140.765 30.344 140.936C30.9627 141.107 31.4427 141.288 31.784 141.48V140.968C31.784 139.816 31.5067 139.027 30.952 138.6C30.3973 138.152 29.5013 137.928 28.264 137.928C27.9013 137.928 27.5387 138.003 27.176 138.152C26.8347 138.301 26.44 138.504 25.992 138.76C25.3947 139.08 24.8293 139.24 24.296 139.24C24.104 139.24 23.9227 139.112 23.752 138.856C23.5813 138.579 23.496 138.333 23.496 138.12C23.496 137.501 23.784 136.968 24.36 136.52C24.9573 136.072 25.6613 135.741 26.472 135.528C27.2827 135.293 28.008 135.176 28.648 135.176C29.288 135.176 30.024 135.304 30.856 135.56C31.688 135.795 32.3707 136.125 32.904 136.552C33.544 137.107 34.0347 137.757 34.376 138.504C34.7387 139.229 34.92 140.029 34.92 140.904C34.92 141.181 34.8987 141.597 34.856 142.152C34.8133 142.749 34.792 143.261 34.792 143.688C34.792 143.88 34.7707 144.168 34.728 144.552C34.6853 145.021 34.664 145.395 34.664 145.672C34.664 145.928 34.76 146.152 34.952 146.344C35.144 146.515 35.368 146.6 35.624 146.6L36.52 146.568C36.7547 146.568 36.936 146.653 37.064 146.824C37.192 146.995 37.256 147.208 37.256 147.464ZM26.952 146.632C27.8693 146.632 28.6373 146.536 29.256 146.344C29.8747 146.152 30.6213 145.8 31.496 145.288C31.5813 144.925 31.6347 144.445 31.656 143.848C30.4827 143.293 29.512 143.016 28.744 143.016C27.8693 143.016 27.0907 143.176 26.408 143.496C25.7253 143.816 25.384 144.381 25.384 145.192C25.384 145.597 25.5547 145.939 25.896 146.216C26.2373 146.493 26.5893 146.632 26.952 146.632ZM48.3435 141.8C48.5142 141.907 48.8448 142.109 49.3355 142.408C49.8475 142.685 50.1888 143.016 50.3595 143.4C50.5302 143.784 50.6155 144.317 50.6155 145C50.6155 145.768 50.3915 146.451 49.9435 147.048C49.4955 147.624 48.9195 148.072 48.2155 148.392C47.7035 148.627 47.0742 148.808 46.3275 148.936C45.6022 149.064 45.0262 149.128 44.5995 149.128C44.1728 149.128 43.6182 149.064 42.9355 148.936C42.2742 148.808 41.8155 148.691 41.5595 148.584C40.8982 148.2 40.3222 147.731 39.8315 147.176C39.3622 146.621 39.1275 146.056 39.1275 145.48C39.1275 145.053 39.2662 144.723 39.5435 144.488C39.8208 144.232 40.1835 144.104 40.6315 144.104C40.8448 144.104 41.0688 144.189 41.3035 144.36C41.5382 144.509 41.6982 144.669 41.7835 144.84C42.0182 145.395 42.4128 145.811 42.9675 146.088C43.5222 146.365 44.0875 146.504 44.6635 146.504C45.4102 146.504 46.1035 146.387 46.7435 146.152C47.3835 145.896 47.7035 145.555 47.7035 145.128C47.7035 144.936 47.6502 144.787 47.5435 144.68C47.4582 144.552 47.3302 144.424 47.1595 144.296C46.8608 144.083 46.4128 143.912 45.8155 143.784C45.2182 143.635 44.8342 143.539 44.6635 143.496C43.7888 143.304 42.9355 143.016 42.1035 142.632C41.2715 142.227 40.6102 141.747 40.1195 141.192C39.6288 140.637 39.3835 139.923 39.3835 139.048C39.3835 138.472 39.5968 137.875 40.0235 137.256C40.4502 136.616 40.9302 136.168 41.4635 135.912C41.8475 135.763 42.4875 135.603 43.3835 135.432C44.3008 135.261 44.9195 135.176 45.2395 135.176C45.7302 135.176 46.2635 135.229 46.8395 135.336C47.4155 135.421 47.8528 135.571 48.1515 135.784C48.7275 136.125 49.1968 136.488 49.5595 136.872C49.9222 137.235 50.1035 137.651 50.1035 138.12C50.1035 138.355 50.0502 138.611 49.9435 138.888C49.8368 139.144 49.7088 139.304 49.5595 139.368C49.2395 139.517 48.8662 139.592 48.4395 139.592C48.2475 139.592 48.0875 139.539 47.9595 139.432C47.8528 139.325 47.7035 139.155 47.5115 138.92C47.2768 138.557 47.0528 138.344 46.8395 138.28C46.5835 138.216 46.2102 138.141 45.7195 138.056C45.2288 137.949 44.8982 137.896 44.7275 137.896C44.2368 137.896 43.7248 138.035 43.1915 138.312C42.6795 138.589 42.4235 138.909 42.4235 139.272C42.4235 139.464 42.4982 139.613 42.6475 139.72C42.8182 139.827 42.9888 139.923 43.1595 140.008C43.3515 140.093 43.4795 140.147 43.5435 140.168C43.9915 140.381 44.4822 140.563 45.0155 140.712C45.5702 140.861 45.9115 140.957 46.0395 141C47.1915 141.277 47.9595 141.544 48.3435 141.8ZM65.7935 149.128C65.0682 149.128 64.5135 149.021 64.1295 148.808C63.7455 148.573 63.3295 148.147 62.8815 147.528C62.3268 148.019 61.4948 148.413 60.3855 148.712C59.2975 149.011 58.3588 149.16 57.5695 149.16C56.2682 149.16 55.2122 148.808 54.4015 148.104C53.6122 147.379 53.2175 146.323 53.2175 144.936C53.2175 144.339 53.3775 143.795 53.6975 143.304C54.0388 142.792 54.4762 142.344 55.0095 141.96C55.6068 141.555 56.3108 141.235 57.1215 141C57.9535 140.765 58.7108 140.648 59.3935 140.648C60.5455 140.648 61.5695 140.755 62.4655 140.968V140.936C62.4655 139.784 62.1775 138.995 61.6015 138.568C61.0468 138.12 60.1508 137.896 58.9135 137.896C58.1242 137.896 57.4415 138.248 56.8655 138.952C56.6522 139.229 56.2042 139.368 55.5215 139.368C55.1802 139.368 54.9242 139.229 54.7535 138.952C54.6042 138.653 54.5295 138.355 54.5295 138.056C54.5295 137.437 54.7855 136.904 55.2975 136.456C55.8308 136.008 56.4708 135.677 57.2175 135.464C57.9642 135.229 58.6575 135.112 59.2975 135.112C59.9162 135.112 60.6522 135.24 61.5055 135.496C62.3588 135.752 63.0522 136.093 63.5855 136.52C64.2255 137.075 64.7162 137.725 65.0575 138.472C65.4202 139.197 65.6015 139.997 65.6015 140.872C65.6015 141.149 65.5802 141.565 65.5375 142.12C65.4948 142.76 65.4735 143.283 65.4735 143.688C65.4735 143.88 65.4522 144.125 65.4095 144.424C65.3668 144.808 65.3455 145.128 65.3455 145.384C65.3455 145.661 65.4308 145.928 65.6015 146.184C65.7722 146.44 66.0068 146.653 66.3055 146.824C66.5828 146.973 66.7642 147.133 66.8495 147.304C66.9348 147.475 66.9775 147.667 66.9775 147.88C66.9775 148.093 66.8388 148.36 66.5615 148.68C66.3055 148.979 66.0495 149.128 65.7935 149.128ZM59.3935 143.016C58.5615 143.016 57.8255 143.176 57.1855 143.496C56.5455 143.816 56.2255 144.381 56.2255 145.192C56.2255 145.597 56.3642 145.939 56.6415 146.216C56.9402 146.493 57.2602 146.632 57.6015 146.632C58.5188 146.632 59.2868 146.536 59.9055 146.344C60.5242 146.152 61.2708 145.8 62.1455 145.288C62.2522 144.947 62.3162 144.467 62.3375 143.848C62.3375 143.613 62.3482 143.432 62.3695 143.304C61.2175 143.112 60.2255 143.016 59.3935 143.016ZM89.819 148.84C89.371 148.84 88.9443 148.712 88.539 148.456C88.155 148.179 87.8137 147.891 87.515 147.592C87.2163 147.272 87.0137 147.059 86.907 146.952C86.459 147.592 85.8083 148.115 84.955 148.52C84.1017 148.925 83.2803 149.128 82.491 149.128C81.275 149.128 80.1977 148.872 79.259 148.36C78.3203 147.848 77.595 147.155 77.083 146.28C76.571 145.384 76.315 144.392 76.315 143.304C76.315 142.28 76.4323 141.299 76.667 140.36C76.923 139.4 77.2643 138.6 77.691 137.96C78.267 137.149 79.035 136.509 79.995 136.04C80.9763 135.571 81.947 135.336 82.907 135.336C83.483 135.336 84.027 135.443 84.539 135.656C85.051 135.869 85.499 136.136 85.883 136.456C85.883 135.048 85.8723 134.163 85.851 133.8V133.096C85.851 131.091 85.979 129.629 86.235 128.712C86.4697 127.816 87.0457 127.368 87.963 127.368C88.4537 127.368 88.8163 127.475 89.051 127.688C89.2857 127.901 89.403 128.307 89.403 128.904C89.403 129.117 89.3497 129.704 89.243 130.664C89.0083 133.053 88.891 135.443 88.891 137.832C88.891 139.837 88.923 141.331 88.987 142.312C89.0723 143.272 89.2323 144.04 89.467 144.616C89.723 145.192 90.1177 145.704 90.651 146.152C90.971 146.408 91.195 146.621 91.323 146.792C91.4723 146.963 91.547 147.187 91.547 147.464C91.547 147.805 91.3763 148.125 91.035 148.424C90.6937 148.701 90.2883 148.84 89.819 148.84ZM82.395 146.536C83.5257 146.536 84.3577 146.184 84.891 145.48C85.4457 144.755 85.723 143.837 85.723 142.728L85.691 140.936C85.6697 140.595 85.659 140.136 85.659 139.56C84.8697 138.621 84.0163 138.152 83.099 138.152C82.4803 138.152 81.8937 138.312 81.339 138.632C80.8057 138.952 80.3683 139.421 80.027 140.04C79.6643 140.744 79.483 141.811 79.483 143.24C79.483 144.221 79.771 145.021 80.347 145.64C80.923 146.237 81.6057 146.536 82.395 146.536ZM108.224 147.464C108.224 147.933 107.968 148.328 107.456 148.648C106.944 148.968 106.475 149.128 106.048 149.128C105.259 149.128 104.619 149.032 104.128 148.84C103.659 148.627 103.211 148.243 102.784 147.688C102.251 148.179 101.504 148.552 100.544 148.808C99.584 149.043 98.6987 149.16 97.888 149.16C96.5653 149.16 95.4667 148.808 94.592 148.104C93.7387 147.379 93.312 146.323 93.312 144.936C93.312 144.339 93.4933 143.741 93.856 143.144C94.2187 142.525 94.6667 142.035 95.2 141.672C95.776 141.288 96.4267 141.032 97.152 140.904C97.8773 140.755 98.72 140.68 99.68 140.68C100.128 140.68 100.661 140.765 101.28 140.936C101.899 141.107 102.389 141.288 102.752 141.48V140.968C102.752 139.816 102.464 139.027 101.888 138.6C101.333 138.152 100.437 137.928 99.2 137.928C98.816 137.928 98.464 137.992 98.144 138.12C97.8453 138.227 97.4933 138.387 97.088 138.6C96.704 138.813 96.3413 138.92 96 138.92C95.7013 138.92 95.4133 138.803 95.136 138.568C94.8587 138.312 94.72 138.045 94.72 137.768C94.72 136.872 95.2747 136.221 96.384 135.816C97.5147 135.389 98.6667 135.176 99.84 135.176C100.437 135.176 101.12 135.304 101.888 135.56C102.656 135.795 103.307 136.125 103.84 136.552C104.48 137.085 104.971 137.725 105.312 138.472C105.675 139.219 105.856 140.029 105.856 140.904C105.856 141.181 105.835 141.597 105.792 142.152C105.749 142.749 105.728 143.261 105.728 143.688L105.696 144.552C105.653 145.021 105.632 145.395 105.632 145.672C105.632 145.928 105.717 146.152 105.888 146.344C106.08 146.515 106.304 146.6 106.56 146.6L107.456 146.568C107.691 146.568 107.872 146.664 108 146.856C108.149 147.027 108.224 147.229 108.224 147.464ZM97.888 146.632C98.8053 146.632 99.5733 146.536 100.192 146.344C100.811 146.152 101.557 145.8 102.432 145.288C102.517 144.925 102.571 144.445 102.592 143.848C101.419 143.293 100.448 143.016 99.68 143.016C98.9547 143.016 98.368 143.048 97.92 143.112C97.472 143.155 97.0667 143.336 96.704 143.656C96.3413 143.976 96.16 144.488 96.16 145.192C96.16 145.597 96.352 145.939 96.736 146.216C97.1413 146.493 97.5253 146.632 97.888 146.632ZM133.701 131.24C134.021 131.624 134.245 131.933 134.373 132.168C134.501 132.403 134.565 132.627 134.565 132.84C134.565 133.096 134.395 133.395 134.053 133.736C133.733 134.077 133.413 134.248 133.093 134.248C132.667 134.248 132.325 134.184 132.069 134.056C131.813 133.928 131.6 133.725 131.429 133.448C131.088 132.936 130.672 132.499 130.181 132.136C129.691 131.752 128.923 131.56 127.877 131.56C126.981 131.56 125.957 131.763 124.805 132.168C123.675 132.573 122.864 133.075 122.373 133.672C121.947 134.205 121.573 135.016 121.253 136.104C120.955 137.192 120.805 138.248 120.805 139.272C120.805 140.509 121.072 141.651 121.605 142.696C122.16 143.72 122.949 144.541 123.973 145.16C125.019 145.779 126.267 146.088 127.717 146.088C128.507 146.088 129.317 145.939 130.149 145.64C131.003 145.32 131.739 144.808 132.357 144.104H132.325C132.709 143.699 133.189 143.496 133.765 143.496C134.107 143.496 134.427 143.645 134.725 143.944C135.045 144.243 135.205 144.541 135.205 144.84C135.205 145.16 135.152 145.448 135.045 145.704C134.96 145.939 134.789 146.205 134.533 146.504C133.659 147.485 132.624 148.157 131.429 148.52C130.235 148.883 128.805 149.064 127.141 149.064C125.669 149.064 124.176 148.712 122.661 148.008C121.168 147.304 120.016 146.451 119.205 145.448C118.779 144.829 118.363 143.944 117.957 142.792C117.573 141.619 117.381 140.669 117.381 139.944C117.381 138.088 117.659 136.328 118.213 134.664C118.789 132.979 119.643 131.635 120.773 130.632C121.52 129.949 122.597 129.437 124.005 129.096C125.413 128.755 126.704 128.584 127.877 128.584C129.307 128.584 130.427 128.787 131.237 129.192C132.069 129.576 132.891 130.259 133.701 131.24ZM152.6 147.464C152.6 147.933 152.344 148.328 151.832 148.648C151.341 148.968 150.882 149.128 150.456 149.128C149.645 149.128 148.994 149.032 148.504 148.84C148.034 148.627 147.597 148.243 147.192 147.688C146.637 148.179 145.88 148.552 144.92 148.808C143.96 149.043 143.074 149.16 142.264 149.16C140.941 149.16 139.853 148.808 139 148.104C138.146 147.379 137.72 146.323 137.72 144.936C137.72 144.339 137.88 143.795 138.2 143.304C138.52 142.792 138.957 142.344 139.512 141.96C140.13 141.555 140.834 141.245 141.624 141.032C142.413 140.797 143.234 140.68 144.088 140.68C144.536 140.68 145.069 140.765 145.688 140.936C146.306 141.107 146.786 141.288 147.128 141.48V140.968C147.128 139.816 146.85 139.027 146.296 138.6C145.741 138.152 144.845 137.928 143.608 137.928C143.245 137.928 142.882 138.003 142.52 138.152C142.178 138.301 141.784 138.504 141.336 138.76C140.738 139.08 140.173 139.24 139.64 139.24C139.448 139.24 139.266 139.112 139.096 138.856C138.925 138.579 138.84 138.333 138.84 138.12C138.84 137.501 139.128 136.968 139.704 136.52C140.301 136.072 141.005 135.741 141.816 135.528C142.626 135.293 143.352 135.176 143.992 135.176C144.632 135.176 145.368 135.304 146.2 135.56C147.032 135.795 147.714 136.125 148.248 136.552C148.888 137.107 149.378 137.757 149.72 138.504C150.082 139.229 150.264 140.029 150.264 140.904C150.264 141.181 150.242 141.597 150.2 142.152C150.157 142.749 150.136 143.261 150.136 143.688C150.136 143.88 150.114 144.168 150.072 144.552C150.029 145.021 150.008 145.395 150.008 145.672C150.008 145.928 150.104 146.152 150.296 146.344C150.488 146.515 150.712 146.6 150.968 146.6L151.864 146.568C152.098 146.568 152.28 146.653 152.408 146.824C152.536 146.995 152.6 147.208 152.6 147.464ZM142.296 146.632C143.213 146.632 143.981 146.536 144.6 146.344C145.218 146.152 145.965 145.8 146.84 145.288C146.925 144.925 146.978 144.445 147 143.848C145.826 143.293 144.856 143.016 144.088 143.016C143.213 143.016 142.434 143.176 141.752 143.496C141.069 143.816 140.728 144.381 140.728 145.192C140.728 145.597 140.898 145.939 141.24 146.216C141.581 146.493 141.933 146.632 142.296 146.632ZM159.175 147.72C159.133 148.083 158.983 148.403 158.727 148.68C158.471 148.957 158.141 149.096 157.735 149.096C157.095 149.096 156.626 148.979 156.327 148.744C156.029 148.488 155.879 148.029 155.879 147.368C155.879 146.472 155.933 145.491 156.039 144.424C156.125 143.187 156.167 142.237 156.167 141.576C156.167 141.235 156.146 140.808 156.103 140.296C156.061 139.827 156.039 139.475 156.039 139.24C155.975 138.877 155.826 138.589 155.591 138.376C155.378 138.163 155.037 137.981 154.567 137.832C154.375 137.747 154.215 137.608 154.087 137.416C153.959 137.203 153.895 137.011 153.895 136.84C153.895 136.349 154.087 135.976 154.471 135.72C154.855 135.464 155.325 135.336 155.879 135.336C156.498 135.336 157.031 135.549 157.479 135.976C157.927 136.403 158.269 136.936 158.503 137.576C158.994 136.872 159.591 136.307 160.295 135.88C161.021 135.453 161.725 135.24 162.407 135.24C163.282 135.24 164.018 135.389 164.615 135.688C165.234 135.965 165.543 136.456 165.543 137.16C165.543 137.565 165.362 137.992 164.999 138.44C164.658 138.867 164.306 139.08 163.943 139.08C163.666 139.08 163.335 138.952 162.951 138.696C162.802 138.589 162.631 138.504 162.439 138.44C162.269 138.355 162.087 138.312 161.895 138.312C161.554 138.312 161.234 138.365 160.935 138.472C160.637 138.579 160.434 138.707 160.327 138.856C159.986 139.389 159.73 139.869 159.559 140.296C159.41 140.723 159.335 141.181 159.335 141.672C159.335 142.035 159.325 142.323 159.303 142.536L159.271 144.36L159.303 145.576C159.303 146.472 159.261 147.187 159.175 147.72ZM169.078 128.456C169.825 128.52 170.475 128.723 171.03 129.064C171.585 129.384 171.862 129.875 171.862 130.536C171.862 131.027 171.627 131.421 171.158 131.72C170.71 131.997 170.166 132.136 169.526 132.136C168.907 132.136 168.481 131.976 168.246 131.656C168.011 131.336 167.894 131.005 167.894 130.664C167.894 130.024 167.958 129.491 168.086 129.064C168.235 128.637 168.566 128.435 169.078 128.456ZM171.638 142.632V143.56C171.638 144.392 171.659 145.181 171.702 145.928C171.766 146.653 171.841 147.389 171.926 148.136C171.926 148.392 171.777 148.627 171.478 148.84C171.179 149.032 170.902 149.128 170.646 149.128C170.241 149.128 169.825 149.053 169.398 148.904C168.993 148.733 168.747 148.531 168.662 148.296C168.534 147.613 168.47 147.005 168.47 146.472C168.47 144.723 168.417 142.76 168.31 140.584C168.225 138.664 168.182 137.32 168.182 136.552C168.182 136.168 168.374 135.837 168.758 135.56C169.142 135.283 169.547 135.144 169.974 135.144C170.593 135.144 171.019 135.283 171.254 135.56C171.51 135.837 171.638 136.275 171.638 136.872V142.632ZM188.402 128.968C188.402 129.181 188.348 129.768 188.242 130.728C188.007 133.075 187.89 135.453 187.89 137.864C187.89 139.976 187.922 141.587 187.986 142.696C188.05 143.805 188.21 144.659 188.466 145.256C188.722 145.832 189.116 146.12 189.65 146.12C190.674 146.12 191.186 146.461 191.186 147.144C191.186 147.592 190.962 147.976 190.514 148.296C190.066 148.595 189.575 148.744 189.042 148.744C188.402 148.744 187.804 148.595 187.25 148.296C186.695 147.997 186.258 147.539 185.938 146.92C185.49 147.581 184.839 148.115 183.986 148.52C183.154 148.904 182.343 149.096 181.554 149.096C180.338 149.096 179.26 148.84 178.322 148.328C177.383 147.816 176.658 147.123 176.146 146.248C175.634 145.352 175.378 144.371 175.378 143.304C175.378 142.28 175.495 141.299 175.73 140.36C175.986 139.4 176.327 138.611 176.754 137.992C177.33 137.181 178.098 136.541 179.058 136.072C180.039 135.581 180.999 135.336 181.938 135.336C182.514 135.336 183.058 135.453 183.57 135.688C184.082 135.901 184.53 136.168 184.914 136.488C184.914 135.059 184.903 134.163 184.882 133.8V133.128C184.882 131.144 185.01 129.693 185.266 128.776C185.5 127.88 186.066 127.432 186.962 127.432C187.452 127.432 187.815 127.539 188.05 127.752C188.284 127.965 188.402 128.371 188.402 128.968ZM178.546 143.24C178.546 144.221 178.823 145.011 179.378 145.608C179.954 146.205 180.636 146.504 181.426 146.504C182.556 146.504 183.388 146.152 183.922 145.448C184.476 144.744 184.754 143.837 184.754 142.728L184.722 139.56C183.89 138.643 183.026 138.184 182.13 138.184C181.511 138.184 180.924 138.344 180.37 138.664C179.836 138.963 179.41 139.421 179.09 140.04C178.727 140.744 178.546 141.811 178.546 143.24ZM207.818 147.464C207.818 147.933 207.562 148.328 207.05 148.648C206.538 148.968 206.068 149.128 205.642 149.128C204.852 149.128 204.212 149.032 203.722 148.84C203.252 148.627 202.804 148.243 202.378 147.688C201.844 148.179 201.098 148.552 200.138 148.808C199.178 149.043 198.292 149.16 197.482 149.16C196.159 149.16 195.06 148.808 194.186 148.104C193.332 147.379 192.906 146.323 192.906 144.936C192.906 144.339 193.087 143.741 193.45 143.144C193.812 142.525 194.26 142.035 194.794 141.672C195.37 141.288 196.02 141.032 196.746 140.904C197.471 140.755 198.314 140.68 199.274 140.68C199.722 140.68 200.255 140.765 200.874 140.936C201.492 141.107 201.983 141.288 202.346 141.48V140.968C202.346 139.816 202.058 139.027 201.482 138.6C200.927 138.152 200.031 137.928 198.794 137.928C198.41 137.928 198.058 137.992 197.738 138.12C197.439 138.227 197.087 138.387 196.682 138.6C196.298 138.813 195.935 138.92 195.594 138.92C195.295 138.92 195.007 138.803 194.73 138.568C194.452 138.312 194.314 138.045 194.314 137.768C194.314 136.872 194.868 136.221 195.978 135.816C197.108 135.389 198.26 135.176 199.434 135.176C200.031 135.176 200.714 135.304 201.482 135.56C202.25 135.795 202.9 136.125 203.434 136.552C204.074 137.085 204.564 137.725 204.906 138.472C205.268 139.219 205.45 140.029 205.45 140.904C205.45 141.181 205.428 141.597 205.386 142.152C205.343 142.749 205.322 143.261 205.322 143.688L205.29 144.552C205.247 145.021 205.226 145.395 205.226 145.672C205.226 145.928 205.311 146.152 205.482 146.344C205.674 146.515 205.898 146.6 206.154 146.6L207.05 146.568C207.284 146.568 207.466 146.664 207.594 146.856C207.743 147.027 207.818 147.229 207.818 147.464ZM197.482 146.632C198.399 146.632 199.167 146.536 199.786 146.344C200.404 146.152 201.151 145.8 202.026 145.288C202.111 144.925 202.164 144.445 202.186 143.848C201.012 143.293 200.042 143.016 199.274 143.016C198.548 143.016 197.962 143.048 197.514 143.112C197.066 143.155 196.66 143.336 196.298 143.656C195.935 143.976 195.754 144.488 195.754 145.192C195.754 145.597 195.946 145.939 196.33 146.216C196.735 146.493 197.119 146.632 197.482 146.632ZM223.132 148.84C222.684 148.84 222.257 148.712 221.852 148.456C221.468 148.179 221.126 147.891 220.828 147.592C220.529 147.272 220.326 147.059 220.22 146.952C219.772 147.592 219.121 148.115 218.268 148.52C217.414 148.925 216.593 149.128 215.804 149.128C214.588 149.128 213.51 148.872 212.572 148.36C211.633 147.848 210.908 147.155 210.396 146.28C209.884 145.384 209.628 144.392 209.628 143.304C209.628 142.28 209.745 141.299 209.98 140.36C210.236 139.4 210.577 138.6 211.004 137.96C211.58 137.149 212.348 136.509 213.308 136.04C214.289 135.571 215.26 135.336 216.22 135.336C216.796 135.336 217.34 135.443 217.852 135.656C218.364 135.869 218.812 136.136 219.196 136.456C219.196 135.048 219.185 134.163 219.164 133.8V133.096C219.164 131.091 219.292 129.629 219.548 128.712C219.782 127.816 220.358 127.368 221.276 127.368C221.766 127.368 222.129 127.475 222.364 127.688C222.598 127.901 222.716 128.307 222.716 128.904C222.716 129.117 222.662 129.704 222.556 130.664C222.321 133.053 222.204 135.443 222.204 137.832C222.204 139.837 222.236 141.331 222.3 142.312C222.385 143.272 222.545 144.04 222.78 144.616C223.036 145.192 223.43 145.704 223.964 146.152C224.284 146.408 224.508 146.621 224.635 146.792C224.785 146.963 224.86 147.187 224.86 147.464C224.86 147.805 224.689 148.125 224.347 148.424C224.006 148.701 223.601 148.84 223.132 148.84ZM215.708 146.536C216.838 146.536 217.67 146.184 218.204 145.48C218.758 144.755 219.036 143.837 219.036 142.728L219.004 140.936C218.982 140.595 218.972 140.136 218.972 139.56C218.182 138.621 217.329 138.152 216.411 138.152C215.793 138.152 215.206 138.312 214.652 138.632C214.118 138.952 213.681 139.421 213.34 140.04C212.977 140.744 212.796 141.811 212.796 143.24C212.796 144.221 213.084 145.021 213.66 145.64C214.236 146.237 214.918 146.536 215.708 146.536ZM226.753 142.216C226.753 141.405 226.902 140.595 227.201 139.784C227.499 138.952 227.894 138.195 228.385 137.512C228.875 136.829 229.654 136.275 230.721 135.848C231.787 135.4 232.737 135.176 233.569 135.176C234.422 135.176 235.286 135.293 236.161 135.528C237.057 135.763 237.675 136.125 238.017 136.616C238.806 137.725 239.201 138.813 239.201 139.88C239.201 140.456 239.073 140.947 238.817 141.352C238.582 141.757 238.241 142.195 237.793 142.664C237.43 143.048 236.854 143.304 236.065 143.432C235.297 143.56 234.529 143.624 233.76 143.624C233.27 143.624 232.673 143.581 231.969 143.496C231.265 143.389 230.582 143.261 229.921 143.112C229.963 143.539 230.07 143.955 230.241 144.36C230.411 144.765 230.614 145.075 230.849 145.288C231.275 145.693 231.713 145.949 232.161 146.056C232.63 146.163 233.227 146.216 233.953 146.216C234.721 146.216 235.435 146.088 236.097 145.832C236.63 145.64 237.067 145.544 237.409 145.544C237.814 145.544 238.123 145.672 238.337 145.928C238.55 146.163 238.657 146.472 238.657 146.856C238.657 147.389 238.347 147.827 237.729 148.168C237.11 148.509 236.395 148.765 235.585 148.936C234.795 149.085 234.155 149.16 233.665 149.16C232.662 149.16 231.691 148.979 230.753 148.616C229.814 148.253 229.035 147.741 228.417 147.08C227.905 146.483 227.499 145.768 227.201 144.936C226.902 144.083 226.753 143.176 226.753 142.216ZM233.729 137.896C233.259 137.896 232.79 137.992 232.321 138.184C231.851 138.355 231.467 138.6 231.169 138.92C230.785 139.325 230.518 139.656 230.369 139.912C230.241 140.147 230.155 140.477 230.113 140.904C230.646 141.075 231.755 141.16 233.441 141.16C234.358 141.16 235.062 141.021 235.553 140.744C236.065 140.467 236.321 140.104 236.321 139.656C236.321 139.208 236.043 138.803 235.489 138.44C234.934 138.077 234.347 137.896 233.729 137.896ZM73.9478 166.648C75.3771 166.648 76.6784 166.829 77.8518 167.192C79.0251 167.533 79.9851 168.045 80.7318 168.728C82.0758 169.944 83.0144 171.277 83.5478 172.728C84.1024 174.157 84.3798 175.992 84.3798 178.232C84.3798 178.957 84.0384 180.173 83.3558 181.88C82.9718 182.627 82.5664 183.213 82.1398 183.64C81.7344 184.067 81.1051 184.579 80.2518 185.176C80.9771 186.328 81.5424 187.117 81.9478 187.544C82.3744 187.992 82.8544 188.216 83.3878 188.216C83.5584 188.216 83.6864 188.205 83.7718 188.184C83.8358 188.163 83.9318 188.152 84.0598 188.152C84.3584 188.152 84.5931 188.248 84.7638 188.44C84.9558 188.653 85.0518 188.899 85.0518 189.176C85.0518 189.325 85.0091 189.485 84.9238 189.656C84.8384 189.827 84.7211 189.955 84.5718 190.04C84.1664 190.296 83.8144 190.456 83.5158 190.52C83.2171 190.605 82.6731 190.648 81.8838 190.648C81.0518 190.648 80.3051 190.275 79.6438 189.528C79.0038 188.803 78.3318 187.789 77.6278 186.488C76.7104 186.829 75.7824 187 74.8438 187C70.7264 187 67.7931 185.592 66.0438 182.776C65.5531 181.987 65.1691 181.165 64.8918 180.312C64.6358 179.459 64.5078 178.627 64.5078 177.816C64.5078 175.64 64.8918 173.741 65.6598 172.12C66.4491 170.499 67.5371 169.251 68.9238 168.376C69.7344 167.864 70.5878 167.448 71.4838 167.128C72.4011 166.808 73.2224 166.648 73.9478 166.648ZM67.7718 177.816C67.7718 178.605 67.8891 179.309 68.1238 179.928C68.3798 180.525 68.7424 181.091 69.2118 181.624C69.5958 180.813 70.1398 180.205 70.8438 179.8C71.5478 179.395 72.3798 179.192 73.3398 179.192C74.3424 179.192 75.1958 179.373 75.8998 179.736C76.6038 180.099 77.1264 180.483 77.4678 180.888C77.8091 181.272 78.2358 181.827 78.7478 182.552C80.2624 181.336 81.0198 179.619 81.0198 177.4C81.0198 175.736 80.8384 174.445 80.4757 173.528C80.1344 172.611 79.4838 171.757 78.5238 170.968C78.0118 170.541 77.3718 170.221 76.6038 170.008C75.8571 169.795 75.0571 169.688 74.2038 169.688C72.9024 169.688 71.7611 170.093 70.7798 170.904C69.7984 171.693 69.0518 172.717 68.5398 173.976C68.0278 175.213 67.7718 176.493 67.7718 177.816ZM73.9158 181.624C73.3184 181.624 72.7638 181.752 72.2517 182.008C71.7398 182.243 71.3878 182.691 71.1958 183.352L71.6118 183.672C72.0598 183.843 72.4544 183.971 72.7958 184.056C73.1371 184.12 73.5211 184.152 73.9478 184.152C74.6518 184.152 75.4091 184.035 76.2198 183.8C75.8358 183.096 75.4518 182.563 75.0678 182.2C74.7051 181.816 74.3211 181.624 73.9158 181.624ZM87.1193 176.216C86.9486 176.216 86.7886 176.152 86.6393 176.024C86.5113 175.875 86.4473 175.704 86.4473 175.512C86.4473 175.021 86.6606 174.563 87.0872 174.136C87.2153 174.072 87.4713 173.965 87.8553 173.816C88.2393 173.667 88.5806 173.592 88.8793 173.592C89.6899 173.592 90.3513 173.816 90.8633 174.264C91.3753 174.691 91.6313 175.309 91.6313 176.12C91.6313 176.355 91.5886 176.856 91.5033 177.624C91.4179 178.52 91.3753 179.213 91.3753 179.704C91.3753 181.197 91.5779 182.403 91.9833 183.32C92.1326 183.619 92.3673 183.853 92.6873 184.024C93.0073 184.195 93.2953 184.28 93.5513 184.28C94.1699 184.28 94.6713 184.173 95.0553 183.96C95.4393 183.747 95.8553 183.405 96.3033 182.936C96.7513 182.467 97.0393 181.933 97.1673 181.336C97.3166 180.739 97.4233 179.917 97.4873 178.872C97.5299 178.189 97.5726 177.688 97.6153 177.368C97.7219 176.344 97.7753 175.469 97.7753 174.744C97.7753 174.275 97.9033 173.891 98.1593 173.592C98.4153 173.272 98.7673 173.112 99.2153 173.112C99.4713 173.112 99.7593 173.197 100.079 173.368C100.421 173.517 100.645 173.699 100.751 173.912C100.879 174.125 100.943 174.477 100.943 174.968C100.943 175.224 100.911 175.469 100.847 175.704C100.698 176.237 100.623 176.877 100.623 177.624L100.655 179.288C100.655 180.803 100.762 181.923 100.975 182.648C101.082 182.989 101.231 183.341 101.423 183.704C101.615 184.045 101.797 184.333 101.967 184.568C102.394 185.037 102.671 185.368 102.799 185.56C102.927 185.731 102.991 185.901 102.991 186.072C102.991 186.328 102.863 186.573 102.607 186.808C102.373 187.021 102.117 187.128 101.839 187.128C101.05 187.128 100.367 186.861 99.7913 186.328C99.2153 185.795 98.7886 185.101 98.5113 184.248C97.7859 185.08 97.1139 185.752 96.4953 186.264C96.0686 186.563 95.5459 186.787 94.9273 186.936C94.3086 187.064 93.6899 187.128 93.0713 187.128C92.2393 187.128 91.3966 186.787 90.5433 186.104C89.6899 185.421 89.1139 184.632 88.8153 183.736C88.7939 183.693 88.7299 183.523 88.6233 183.224C88.5379 182.925 88.4953 182.477 88.4953 181.88C88.4953 181.091 88.5379 180.099 88.6233 178.904C88.6873 178.136 88.7193 177.432 88.7193 176.792C88.7193 176.6 88.6446 176.44 88.4953 176.312C88.3673 176.184 88.2179 176.12 88.0473 176.12C87.9193 176.12 87.7699 176.141 87.5993 176.184C87.4499 176.205 87.2899 176.216 87.1193 176.216ZM107.047 166.456C107.793 166.52 108.444 166.723 108.999 167.064C109.553 167.384 109.831 167.875 109.831 168.536C109.831 169.027 109.596 169.421 109.127 169.72C108.679 169.997 108.135 170.136 107.495 170.136C106.876 170.136 106.449 169.976 106.215 169.656C105.98 169.336 105.863 169.005 105.863 168.664C105.863 168.024 105.927 167.491 106.055 167.064C106.204 166.637 106.535 166.435 107.047 166.456ZM109.607 180.632V181.56C109.607 182.392 109.628 183.181 109.671 183.928C109.735 184.653 109.809 185.389 109.895 186.136C109.895 186.392 109.745 186.627 109.447 186.84C109.148 187.032 108.871 187.128 108.615 187.128C108.209 187.128 107.793 187.053 107.367 186.904C106.961 186.733 106.716 186.531 106.631 186.296C106.503 185.613 106.439 185.005 106.439 184.472C106.439 182.723 106.385 180.76 106.279 178.584C106.193 176.664 106.151 175.32 106.151 174.552C106.151 174.168 106.343 173.837 106.727 173.56C107.111 173.283 107.516 173.144 107.943 173.144C108.561 173.144 108.988 173.283 109.223 173.56C109.479 173.837 109.607 174.275 109.607 174.872V180.632ZM124.418 172.888C124.845 172.888 125.176 172.995 125.41 173.208C125.666 173.4 125.794 173.645 125.794 173.944C125.794 174.157 125.752 174.381 125.666 174.616C125.602 174.829 125.528 175.053 125.442 175.288C124.952 176.44 123.917 178.051 122.338 180.12C123.96 182.211 125.272 183.555 126.274 184.152C126.36 184.195 126.52 184.269 126.754 184.376C126.989 184.483 127.17 184.611 127.298 184.76C127.448 184.909 127.522 185.08 127.522 185.272C127.522 185.741 127.341 186.125 126.978 186.424C126.637 186.701 126.221 186.84 125.73 186.84C124.898 186.84 123.992 186.381 123.01 185.464C122.029 184.525 121.197 183.544 120.514 182.52C120.024 183.267 119.458 184.013 118.818 184.76C118.2 185.485 117.624 186.104 117.09 186.616C116.877 186.851 116.621 187.032 116.322 187.16C116.045 187.288 115.768 187.352 115.49 187.352C115.106 187.352 114.765 187.267 114.466 187.096C114.168 186.925 114.018 186.627 114.018 186.2C114.018 186.093 114.093 185.923 114.242 185.688C114.392 185.432 114.477 185.283 114.498 185.24C114.754 184.792 115.096 184.333 115.522 183.864C115.949 183.373 116.216 183.064 116.322 182.936C116.578 182.616 116.856 182.307 117.154 182.008C117.325 181.816 117.581 181.517 117.922 181.112C118.264 180.707 118.498 180.387 118.626 180.152L117.506 178.616C116.973 177.997 116.514 177.507 116.13 177.144C115.746 176.76 115.437 176.568 115.202 176.568C114.861 176.568 114.541 176.664 114.242 176.856C113.986 177.027 113.73 177.112 113.474 177.112C113.197 177.112 112.984 177.048 112.834 176.92C112.685 176.771 112.61 176.611 112.61 176.44C112.61 175.715 112.898 175.096 113.474 174.584C114.05 174.051 114.776 173.784 115.65 173.784C116.482 173.784 117.218 174.072 117.858 174.648C118.52 175.203 119.17 175.949 119.81 176.888C119.896 176.973 119.992 177.112 120.098 177.304C120.205 177.496 120.312 177.656 120.418 177.784C120.653 177.443 121.08 176.781 121.698 175.8C122.36 174.627 122.754 173.955 122.882 173.784C123.33 173.187 123.842 172.888 124.418 172.888ZM143.974 185.464C143.974 185.933 143.718 186.328 143.206 186.648C142.694 186.968 142.225 187.128 141.798 187.128C141.009 187.128 140.369 187.032 139.878 186.84C139.409 186.627 138.961 186.243 138.534 185.688C138.001 186.179 137.254 186.552 136.294 186.808C135.334 187.043 134.449 187.16 133.638 187.16C132.315 187.16 131.217 186.808 130.342 186.104C129.489 185.379 129.062 184.323 129.062 182.936C129.062 182.339 129.243 181.741 129.606 181.144C129.969 180.525 130.417 180.035 130.95 179.672C131.526 179.288 132.177 179.032 132.902 178.904C133.627 178.755 134.47 178.68 135.43 178.68C135.878 178.68 136.411 178.765 137.03 178.936C137.649 179.107 138.139 179.288 138.502 179.48V178.968C138.502 177.816 138.214 177.027 137.638 176.6C137.083 176.152 136.187 175.928 134.95 175.928C134.566 175.928 134.214 175.992 133.894 176.12C133.595 176.227 133.243 176.387 132.838 176.6C132.454 176.813 132.091 176.92 131.75 176.92C131.451 176.92 131.163 176.803 130.886 176.568C130.609 176.312 130.47 176.045 130.47 175.768C130.47 174.872 131.025 174.221 132.134 173.816C133.265 173.389 134.417 173.176 135.59 173.176C136.187 173.176 136.87 173.304 137.638 173.56C138.406 173.795 139.057 174.125 139.59 174.552C140.23 175.085 140.721 175.725 141.062 176.472C141.425 177.219 141.606 178.029 141.606 178.904C141.606 179.181 141.585 179.597 141.542 180.152C141.499 180.749 141.478 181.261 141.478 181.688L141.446 182.552C141.403 183.021 141.382 183.395 141.382 183.672C141.382 183.928 141.467 184.152 141.638 184.344C141.83 184.515 142.054 184.6 142.31 184.6L143.206 184.568C143.441 184.568 143.622 184.664 143.75 184.856C143.899 185.027 143.974 185.229 143.974 185.464ZM133.638 184.632C134.555 184.632 135.323 184.536 135.942 184.344C136.561 184.152 137.307 183.8 138.182 183.288C138.267 182.925 138.321 182.445 138.342 181.848C137.169 181.293 136.198 181.016 135.43 181.016C134.705 181.016 134.118 181.048 133.67 181.112C133.222 181.155 132.817 181.336 132.454 181.656C132.091 181.976 131.91 182.488 131.91 183.192C131.91 183.597 132.102 183.939 132.486 184.216C132.891 184.493 133.275 184.632 133.638 184.632ZM159.288 186.84C158.84 186.84 158.413 186.712 158.008 186.456C157.624 186.179 157.282 185.891 156.984 185.592C156.685 185.272 156.482 185.059 156.376 184.952C155.928 185.592 155.277 186.115 154.424 186.52C153.57 186.925 152.749 187.128 151.96 187.128C150.744 187.128 149.666 186.872 148.728 186.36C147.789 185.848 147.064 185.155 146.552 184.28C146.04 183.384 145.784 182.392 145.784 181.304C145.784 180.28 145.901 179.299 146.136 178.36C146.392 177.4 146.733 176.6 147.16 175.96C147.736 175.149 148.504 174.509 149.464 174.04C150.445 173.571 151.416 173.336 152.376 173.336C152.952 173.336 153.496 173.443 154.008 173.656C154.52 173.869 154.968 174.136 155.352 174.456C155.352 173.048 155.341 172.163 155.32 171.8V171.096C155.32 169.091 155.448 167.629 155.704 166.712C155.938 165.816 156.514 165.368 157.432 165.368C157.922 165.368 158.285 165.475 158.52 165.688C158.754 165.901 158.872 166.307 158.872 166.904C158.872 167.117 158.818 167.704 158.712 168.664C158.477 171.053 158.36 173.443 158.36 175.832C158.36 177.837 158.392 179.331 158.456 180.312C158.541 181.272 158.701 182.04 158.936 182.616C159.192 183.192 159.586 183.704 160.12 184.152C160.44 184.408 160.664 184.621 160.792 184.792C160.941 184.963 161.016 185.187 161.016 185.464C161.016 185.805 160.845 186.125 160.504 186.424C160.162 186.701 159.757 186.84 159.288 186.84ZM151.864 184.536C152.994 184.536 153.826 184.184 154.36 183.48C154.914 182.755 155.192 181.837 155.192 180.728L155.16 178.936C155.138 178.595 155.128 178.136 155.128 177.56C154.338 176.621 153.485 176.152 152.568 176.152C151.949 176.152 151.362 176.312 150.808 176.632C150.274 176.952 149.837 177.421 149.496 178.04C149.133 178.744 148.952 179.811 148.952 181.24C148.952 182.221 149.24 183.021 149.816 183.64C150.392 184.237 151.074 184.536 151.864 184.536ZM171.741 166.616C172.189 166.616 172.541 166.712 172.797 166.904C173.074 167.096 173.213 167.341 173.213 167.64C173.213 168.216 172.935 168.781 172.381 169.336C171.847 169.869 171.282 170.307 170.685 170.648C170.365 170.84 169.949 171 169.437 171.128C168.946 171.256 168.573 171.32 168.317 171.32C167.869 171.32 167.645 171.107 167.645 170.68C167.645 170.552 167.687 170.435 167.773 170.328C167.858 170.221 168.039 170.061 168.317 169.848C168.402 169.763 168.53 169.645 168.701 169.496C168.893 169.325 169.074 169.133 169.245 168.92C169.415 168.685 169.586 168.376 169.757 167.992C170.013 167.48 170.29 167.128 170.589 166.936C170.909 166.723 171.293 166.616 171.741 166.616ZM177.725 185.464C177.725 185.933 177.469 186.328 176.957 186.648C176.466 186.968 176.007 187.128 175.581 187.128C174.77 187.128 174.119 187.032 173.629 186.84C173.159 186.627 172.722 186.243 172.317 185.688C171.762 186.179 171.005 186.552 170.045 186.808C169.085 187.043 168.199 187.16 167.389 187.16C166.066 187.16 164.978 186.808 164.125 186.104C163.271 185.379 162.845 184.323 162.845 182.936C162.845 182.339 163.005 181.795 163.325 181.304C163.645 180.792 164.082 180.344 164.637 179.96C165.255 179.555 165.959 179.245 166.749 179.032C167.538 178.797 168.359 178.68 169.213 178.68C169.661 178.68 170.194 178.765 170.813 178.936C171.431 179.107 171.911 179.288 172.253 179.48V178.968C172.253 177.816 171.975 177.027 171.421 176.6C170.866 176.152 169.97 175.928 168.733 175.928C168.37 175.928 168.007 176.003 167.645 176.152C167.303 176.301 166.909 176.504 166.461 176.76C165.863 177.08 165.298 177.24 164.765 177.24C164.573 177.24 164.391 177.112 164.221 176.856C164.05 176.579 163.965 176.333 163.965 176.12C163.965 175.501 164.253 174.968 164.829 174.52C165.426 174.072 166.13 173.741 166.941 173.528C167.751 173.293 168.477 173.176 169.117 173.176C169.757 173.176 170.493 173.304 171.325 173.56C172.157 173.795 172.839 174.125 173.373 174.552C174.013 175.107 174.503 175.757 174.845 176.504C175.207 177.229 175.389 178.029 175.389 178.904C175.389 179.181 175.367 179.597 175.325 180.152C175.282 180.749 175.261 181.261 175.261 181.688C175.261 181.88 175.239 182.168 175.197 182.552C175.154 183.021 175.133 183.395 175.133 183.672C175.133 183.928 175.229 184.152 175.421 184.344C175.613 184.515 175.837 184.6 176.093 184.6L176.989 184.568C177.223 184.568 177.405 184.653 177.533 184.824C177.661 184.995 177.725 185.208 177.725 185.464ZM167.421 184.632C168.338 184.632 169.106 184.536 169.725 184.344C170.343 184.152 171.09 183.8 171.965 183.288C172.05 182.925 172.103 182.445 172.125 181.848C170.951 181.293 169.981 181.016 169.213 181.016C168.338 181.016 167.559 181.176 166.877 181.496C166.194 181.816 165.853 182.381 165.853 183.192C165.853 183.597 166.023 183.939 166.365 184.216C166.706 184.493 167.058 184.632 167.421 184.632Z" fill="#27272A"/>
<path d="M135.175 14.9483L126.928 7.47412L111.464 13.1442L91.3606 29.1236L76.6699 39.6906L77.4431 47.4226L78.2163 62.6288V95.3607L159.144 96.3917V93.0411L158.113 78.0927V53.3504V45.8762L159.917 39.6906L152.959 31.4432L142.907 22.1648L135.175 14.9483Z" fill="#FEFEFE"/>
<path d="M186.964 53.2588L186.919 53.1737C186.33 52.0665 185.543 51.0763 184.596 50.2528L184.541 50.2044L182.558 48.3927L180.576 46.581L177.601 44.5104L174.132 41.4046L170.91 38.8164L167.192 35.7106L164.466 33.3812L163.712 32.7151C162.07 31.2643 160.297 29.9691 158.415 28.8464L157.689 28.413C155.443 27.0725 153.387 25.4355 151.578 23.546L149.617 21.8402C149.14 21.4252 148.697 20.9721 148.294 20.4853C147.841 19.9387 147.338 19.4347 146.794 18.9795L146.374 18.6284L144.221 16.5579L142.16 14.2286C140.843 12.853 139.368 11.6378 137.766 10.6081L136.955 10.0874L134.229 8.27572L133.398 7.75463C132.302 7.06835 131.277 6.27701 130.334 5.3918C129.627 4.7271 128.872 4.115 128.076 3.56043L127.042 2.84048L126.863 2.6853C126.019 1.95089 124.938 1.54639 123.82 1.54639C123.165 1.54639 122.515 1.66899 121.905 1.90789L121.671 1.99968C121.123 2.21415 120.607 2.50106 120.135 2.85274L119.663 3.20504C119.296 3.47851 118.966 3.79791 118.681 4.15542L118.654 4.18875C118.14 4.83345 117.479 5.34567 116.726 5.68262L116.575 5.7503C116.284 5.88046 115.978 5.97396 115.664 6.0286L115.582 6.04288C114.971 6.14917 114.399 6.41438 113.924 6.81185C113.584 7.09505 113.3 7.44278 113.087 7.83025C112.66 8.61206 111.953 9.21438 111.111 9.50737L110.932 9.56979L109.197 10.0874L108.998 10.1221C108.161 10.2677 107.393 10.6771 106.806 11.2905L106.684 11.4182C106.542 11.5658 106.419 11.7299 106.318 11.907C105.944 12.5579 105.3 13.0089 104.56 13.1376L104.376 13.1696C104.286 13.1854 104.194 13.1932 104.102 13.1932H103.68C103.031 13.1932 102.505 13.7192 102.505 14.368C102.505 14.6139 102.428 14.8536 102.285 15.0533L102.053 15.3752C101.861 15.6432 101.616 15.8687 101.332 16.0378L100.027 16.8167L98.0441 17.852L95.5658 19.4049L93.5173 20.5719C93.0663 20.8286 92.6426 21.1293 92.2514 21.4697C91.6555 21.9882 91.1416 22.5938 90.7266 23.266L90.1441 24.2103C89.2524 25.6552 88.124 26.9397 86.806 28.0102L86.5668 28.2048C85.2462 29.5834 83.8297 30.8661 82.3271 32.043L81.6096 32.6047L79.8751 33.8988L78.14 34.9341L75.9096 36.2282C74.5916 36.9162 73.356 37.7509 72.2262 38.7164L71.2004 39.5928L68.9699 41.6634L67.235 42.9575L65.6158 43.9721C65.0442 44.3302 64.4405 44.6342 63.8124 44.8802C63.1218 45.1506 62.4608 45.4911 61.8398 45.8965L61.6074 46.0482C61.0639 46.4029 60.4956 46.7181 59.9069 46.9913L59.7814 47.0496C58.969 47.4266 58.191 47.8736 57.456 48.3853L54.854 50.1967C54.3517 50.5464 53.8786 50.9361 53.4393 51.3622L51.6005 53.1454C50.9715 53.7552 50.5651 54.5582 50.4463 55.4268C50.4034 55.7402 50.3987 56.0577 50.4321 56.3722L50.5662 57.632C50.6084 58.0289 50.6825 58.4211 50.7877 58.8057L50.9491 59.3959C51.0657 59.8216 51.2543 60.2247 51.5067 60.5871L52.2881 61.7093C52.7774 62.4119 53.6624 62.7211 54.4829 62.4763C54.7208 62.4052 54.9433 62.2902 55.1387 62.1371L55.8343 61.5923L57.3213 60.2985L58.5605 59.0041L60.0476 57.4515L61.5346 56.1572L62.6927 55.0691C63.5718 54.2428 64.5101 53.482 65.5001 52.7928L67.9785 51.2397L69.4655 50.2044L71.2004 48.6515L72.6874 47.6162L73.1761 47.208C73.6751 46.7912 74.2173 46.4292 74.7936 46.1283L75.0498 45.9945C75.2921 45.868 75.524 45.7231 75.7441 45.561L75.9679 45.396C76.0663 45.3234 76.1715 45.2594 76.2807 45.2049C76.5158 45.088 76.7266 44.9286 76.9029 44.7347L77.5792 43.9928C78.4034 43.1315 79.2988 42.3404 80.2545 41.6274L80.5529 41.4046L81.8637 40.5493C82.3106 40.2574 82.7844 40.0087 83.2787 39.8066C84.0452 39.4932 84.7606 39.0688 85.4029 38.5467L86.9818 37.2635L88.7168 35.9694L89.3555 35.5477C89.7132 35.3118 90.0462 35.0407 90.3493 34.7385L90.423 34.6651C90.5895 34.4996 90.7673 34.346 90.9555 34.2056L91.1648 34.0491C91.5266 33.7788 91.8343 33.4426 92.072 33.0581C92.3612 32.5896 92.7539 32.1939 93.2204 31.9015L93.4209 31.7761C93.64 31.6386 93.8478 31.4827 94.0411 31.3103L96.1658 29.4145C96.4895 29.1261 96.79 28.8132 97.0648 28.4787L97.5008 27.9489C97.6436 27.775 97.7653 27.5845 97.8622 27.3815C98.0905 26.9049 98.4493 26.5029 98.8972 26.2224L99.4508 25.8754L101.434 24.3225L103.664 22.5108L105.399 21.2166L106.421 20.3271C106.731 20.0578 107.059 19.8109 107.404 19.5883C107.86 19.2942 108.286 18.9576 108.679 18.5831L109.445 17.852L111.676 16.0403L113.163 14.7462L113.392 14.5407C114.394 13.6445 115.479 12.8466 116.632 12.158L118.615 11.1227L118.657 11.0976C119.783 10.4255 120.848 9.65432 121.837 8.79335L122.677 8.09201C122.939 7.87273 123.251 7.72149 123.586 7.65159C124.058 7.55309 124.549 7.62113 124.976 7.84412L125.397 8.06376C125.666 8.20443 125.915 8.38046 126.138 8.58721L128.033 10.3462L130.759 13.4521L131.106 13.9348C132.357 15.6766 133.822 17.2536 135.468 18.6284L137.451 20.4402L140.673 23.546L140.747 23.6258C141.502 24.4343 142.316 25.1862 143.181 25.8754L144.886 27.4283C145.874 28.4601 146.979 29.3737 148.178 30.1507L150.707 31.79C152.605 33.0209 154.39 34.4196 156.039 35.9694L158.765 38.8164L160.858 40.6281L162.677 41.9222L165.277 43.734C166.546 44.4199 167.7 45.2998 168.698 46.3419L169.422 47.0986L171.653 49.1692L172.501 50.166C173.257 51.053 174.081 51.8789 174.966 52.635C175.895 53.4289 176.757 54.2985 177.541 55.235L178.097 55.8985L178.934 56.8979C179.525 57.6026 180.268 58.1644 181.108 58.5397C181.413 58.6768 181.73 58.7881 182.054 58.8727L183.549 59.2629L184.811 59.5923C185.283 59.7155 185.78 59.7072 186.247 59.5675L186.41 59.5191C186.96 59.3546 187.427 58.9856 187.713 58.4876C187.908 58.1479 188.011 57.7629 188.011 57.3711V56.716C188.011 56.1753 187.917 55.6381 187.734 55.1289L187.485 54.435C187.34 54.0309 187.166 53.6376 186.964 53.2588Z" fill="#B91C1C"/>
<path d="M161.207 45.1032L161.308 44.7664C161.711 43.4204 161.233 41.9655 160.109 41.1224C159.982 41.0272 159.862 40.9232 159.75 40.8111L158.114 39.1754L155.378 36.6223C154.949 36.2213 154.248 36.5259 154.248 37.1135V40.9795L153.99 45.8764V51.8042V57.7321V63.1444V67.7836V72.4228V76.8042V81.7011V88.4022V96.3918H160.949L161.128 95.3161C161.179 95.0099 161.325 94.7274 161.544 94.5083C161.823 94.229 161.98 93.8506 161.98 93.4558V91.4949V87.9089C161.98 87.3857 161.858 86.8697 161.624 86.4021C161.518 86.1898 161.39 85.9893 161.241 85.8037L161.225 85.7836C160.713 85.1429 160.434 84.347 160.434 83.5264V82.4743V80.6702V75.7733V72.4228V68.8145V64.6908V61.8558V58.5052V56.4284C160.434 55.9429 160.626 55.4774 160.97 55.1341L161.062 55.0418C161.602 54.5022 161.705 53.665 161.312 53.0104C161.242 52.8939 161.158 52.7867 161.062 52.6903L160.942 52.5702C160.608 52.2362 160.356 51.8284 160.206 51.3801L160.191 51.3342C160.012 50.7977 159.976 50.2239 160.087 49.6694L160.434 47.9382L161.207 45.1032Z" fill="#FACC15"/>
<path d="M83.1127 98.4537H85.6901C86.2596 98.4537 86.721 97.9924 86.721 97.4228V95.8764V92.2681V90.464V87.629V84.7939V80.9279V78.3243C86.721 78.0249 86.5514 77.7506 86.2834 77.6161C86.2318 77.5903 86.1772 77.5702 86.121 77.5563L86.0529 77.5393C85.5169 77.4053 85.1055 76.9738 84.9968 76.4315L84.9519 76.2053C84.9287 76.0893 84.9169 75.9712 84.9169 75.8532V75.2578V73.7114V71.9073V70.3609V67.7836V65.7218V63.4022V62.2424C84.9169 61.6568 84.7272 61.0872 84.3756 60.6187C84.222 60.4135 84.0395 60.231 83.8344 60.0774L83.2303 59.6243C83.1519 59.5656 83.0689 59.514 82.9813 59.4707C82.4303 59.195 82.0818 58.6316 82.0818 58.0151V57.9898V56.4434V54.3816V51.2888V49.1513C82.0818 48.2096 82.456 47.3064 83.122 46.6405C83.287 46.4752 83.4359 46.2939 83.5653 46.0993L83.9787 45.4794C84.2545 45.066 84.4014 44.5804 84.4014 44.0836V43.7725C84.4014 43.3043 84.2153 42.8554 83.8844 42.5243C83.7153 42.3553 83.5138 42.2224 83.2916 42.1336L82.9633 42.0022C82.5514 41.8374 82.1117 41.7527 81.6679 41.7527H81.4442C81.0122 41.7527 80.5823 41.8129 80.1669 41.9316L79.7906 42.0391C79.2612 42.1904 78.7658 42.4419 78.3308 42.7801C77.2823 43.5954 76.6694 44.849 76.6694 46.1771V49.2269V54.3816V59.2785V65.464V68.4011C76.6694 68.996 76.4334 69.5661 76.0127 69.9867C75.7669 70.2326 75.5813 70.5331 75.471 70.863L75.3328 71.2774C75.1942 71.6944 75.123 72.1315 75.123 72.5712V75.0001V81.1857V84.5362V86.9573C75.123 87.5383 75.4133 88.08 75.8962 88.4022L75.9566 88.4424C76.421 88.7522 76.7803 89.195 76.9875 89.713C77.1179 90.0388 77.1849 90.3867 77.1849 90.7377V92.1089C77.1849 92.729 77.1267 93.348 77.0107 93.9573L76.154 98.4537H78.989H83.1127Z" fill="#FACC15"/>
<path d="M126.062 48.5784H125.655C125.028 48.5784 124.426 48.8279 123.982 49.2719C123.537 49.7159 123.288 50.3182 123.288 50.9461V69.2675C123.288 69.7144 122.926 70.0762 122.479 70.0762C122.032 70.0762 121.67 70.4386 121.67 70.8855V77.7046V86.9958C121.67 87.5298 121.988 88.0123 122.479 88.2226C122.97 88.4329 123.288 88.9154 123.288 89.4494V89.8556C123.288 90.9324 124.161 91.8056 125.238 91.8056H126.293C127.953 91.8056 129.298 90.4602 129.298 88.8004V79.3231V63.6123C129.298 63.4587 129.237 63.3118 129.129 63.2035L128.67 62.7448C128.475 62.5499 128.613 62.2169 128.888 62.2169C129.094 62.2169 129.242 62.0205 129.186 61.8231L128.912 60.8633C128.862 60.6901 128.769 60.5319 128.642 60.404L128.569 60.3319C128.296 60.0587 128.143 59.6881 128.143 59.302V52.0458H141.087L141.3 88.5716C141.311 90.3943 142.735 91.8999 144.553 92.0211C146.551 92.1546 148.253 90.5711 148.253 88.5695V84.3102C148.253 83.9174 148.333 83.5288 148.488 83.1675L148.533 83.0618C148.799 82.4427 148.815 81.7448 148.579 81.1138C148.368 80.5535 148.357 79.9376 148.546 79.3695L148.57 79.2963C148.667 79.0077 148.716 78.7056 148.716 78.401V77.3664C148.716 76.8427 148.508 76.3412 148.138 75.9711C147.768 75.601 147.56 75.0994 147.56 74.5757V71.001V66.686C147.56 66.0644 147.886 65.4886 148.419 65.169C148.615 65.0515 148.786 64.8968 148.924 64.7138L148.973 64.6489C149.256 64.2705 149.409 63.8108 149.409 63.3381V58.7494V52.9541C149.409 52.3551 149.287 51.7618 149.051 51.211L148.903 50.8645C148.779 50.576 148.602 50.3136 148.38 50.0917L147.457 49.1688C147.118 48.83 146.582 48.7919 146.199 49.0794C146.032 49.2044 145.829 49.2719 145.621 49.2719H142.965C142.346 49.2719 141.745 49.0713 141.25 48.7003C141.142 48.6192 141.04 48.5304 140.944 48.4348L140.918 48.4092C140.286 47.7775 139.43 47.4226 138.536 47.4226H134.384H129.51C129.092 47.4226 128.704 47.642 128.489 48.0005C128.274 48.3591 127.886 48.5784 127.468 48.5784H126.062Z" fill="#7F1D1D"/>
<path d="M134.785 69.1671L134.992 68.3387C135.048 68.116 135.173 67.9171 135.349 67.7702C135.905 67.3063 136.751 67.5094 137.037 68.1748L137.668 69.647C137.789 69.9305 137.852 70.2356 137.852 70.5439V73.2851C137.852 74.4496 136.908 75.3934 135.743 75.3934C135.039 75.3934 134.381 75.0413 133.989 74.4547L133.73 74.0645C133.403 73.5743 133.229 72.9985 133.229 72.4094V71.7377C133.229 71.1331 133.531 70.5686 134.034 70.2331C134.408 69.9836 134.676 69.6037 134.785 69.1671Z" fill="#7F1D1D"/>
<path d="M101.813 49.6291L98.7851 49.9655H95.3176C94.0753 49.9655 92.9722 50.7605 92.5795 51.9392L92.4588 52.3006C92.3619 52.5918 92.3047 52.8949 92.2882 53.2011L92.0815 57.1315L91.6191 61.7547V67.765V72.3882L91.9191 74.9361C92.0212 75.8052 92.53 76.5743 93.2892 77.0083C93.5609 77.1634 93.8568 77.2712 94.1645 77.3269L94.8846 77.4578C95.7624 77.6176 96.6686 77.4681 97.4485 77.0346C98.0222 76.716 98.6671 76.549 99.3228 76.549H103.64L108.62 76.3645C109.456 76.3336 110.284 76.1835 111.078 75.9186L112.403 75.4774C112.57 75.4217 112.724 75.3356 112.859 75.2232C113.494 74.6939 113.538 73.733 112.953 73.1485L112.7 72.8959C112.375 72.5707 112.192 72.1299 112.192 71.6707V66.6093V62.6794C112.192 62.1686 112.606 61.7547 113.117 61.7547C113.628 61.7547 114.042 61.3408 114.042 60.8299V57.3629C114.042 56.8521 113.628 56.4382 113.117 56.4382C112.606 56.4382 112.192 56.0243 112.192 55.5134V54.5887L112.072 52.416C112.002 51.1644 111.347 50.0187 110.305 49.3233C109.58 48.8401 108.717 48.6079 107.847 48.6623L106.35 48.7559C105.777 48.7917 105.21 48.8857 104.657 49.0366L104.046 49.2032C103.314 49.4029 102.567 49.5452 101.813 49.6291Z" fill="#7F1D1D"/>
<path d="M98.5769 63.7815H99.5222C100.03 63.7815 100.474 63.4351 100.598 62.9418C100.619 62.8542 100.63 62.764 100.63 62.6733V60.3805V57.9511V55.5686C100.63 55.2171 100.563 54.8681 100.433 54.5418L100.285 54.1738C100.193 53.9434 100.04 53.7429 99.8413 53.5944C99.4315 53.2872 98.8836 53.2377 98.4253 53.4666L98.0186 53.6702C97.8176 53.7707 97.6346 53.9027 97.4759 54.0614L97.1609 54.3764C96.7305 54.8068 96.4372 55.3547 96.3176 55.9516C96.2779 56.1506 96.2578 56.3532 96.2578 56.5563V57.7083V60.8661V61.4625C96.2578 62.7429 97.296 63.7815 98.5769 63.7815Z" fill="#FEFEFE"/>
<path d="M105.488 53.5789L106.739 53.1619C106.871 53.1176 107.016 53.1279 107.141 53.1903C107.319 53.2794 107.432 53.4619 107.432 53.6609V55.5222V58.9227V60.7336C107.432 61.7459 106.611 62.5666 105.599 62.5666H105.535C105.344 62.5666 105.154 62.53 104.976 62.4593L104.59 62.3047C104.253 62.1696 104.03 61.8423 104.03 61.4779C104.03 61.2418 104.124 61.0155 104.291 60.8485L104.363 60.7769C104.463 60.6763 104.589 60.6052 104.727 60.5707L104.845 60.5413C105.201 60.4526 105.416 60.0923 105.327 59.7377C105.276 59.531 105.128 59.3619 104.93 59.283L104.585 59.1444C104.231 59.0031 103.951 58.7227 103.809 58.3691L103.695 58.0851C103.596 57.8361 103.545 57.5707 103.545 57.3026V55.9593C103.545 55.83 103.556 55.7011 103.577 55.5733C103.708 54.7846 104.233 54.1171 104.968 53.8021L105.488 53.5789Z" fill="#FEFEFE"/>
<path d="M97.7846 67.0257L97.4722 67.1819L97.4222 67.2071C96.8408 67.4979 96.4264 68.0406 96.2985 68.6778C96.2717 68.8138 96.2578 68.9525 96.2578 69.0912V71.069V72.1097C96.2578 72.5375 96.3965 72.9546 96.6537 73.2968C96.8712 73.5875 97.165 73.8123 97.5016 73.9468L97.7382 74.0417C98.0393 74.1618 98.3702 74.1845 98.6846 74.1056C99.0021 74.0267 99.2856 73.8484 99.4949 73.5973L99.8228 73.204C100.192 72.7607 100.43 72.2241 100.512 71.653L100.582 71.1664C100.614 70.9396 100.63 70.7107 100.63 70.4819V69.4628C100.63 69.0798 100.553 68.7009 100.402 68.3489L100.217 67.9164C100.016 67.4494 99.6259 67.0901 99.1434 66.9293C98.6954 66.7798 98.2068 66.8149 97.7846 67.0257Z" fill="#FEFEFE"/>
<path d="M105.746 66.4536H105.974C106.289 66.4536 106.596 66.5557 106.849 66.7449C107.216 67.0201 107.432 67.4521 107.432 67.9108V69.1253V70.8314C107.432 70.9892 107.415 71.1464 107.38 71.3005L107.238 71.9418C107.073 72.683 106.366 73.1722 105.614 73.065C105.372 73.0304 105.143 72.9356 104.947 72.7887L104.565 72.5021C104.372 72.3572 104.2 72.1851 104.055 71.9918C103.724 71.5505 103.545 71.0134 103.545 70.4613V69.7098C103.545 69.4825 103.561 69.2557 103.593 69.0304L103.716 68.1722C103.763 67.8412 103.893 67.5278 104.093 67.2608C104.367 66.8954 104.758 66.6361 105.201 66.5253L105.238 66.516C105.404 66.4742 105.575 66.4536 105.746 66.4536Z" fill="#FEFEFE"/>
<path d="M110.478 81.0927L111.521 80.0494C112.05 79.5206 112.767 79.2231 113.515 79.2231C114.031 79.2231 114.45 79.6417 114.45 80.1582C114.45 81.0654 114.141 81.9463 113.574 82.6551L113.515 82.7283L112.347 83.8969L111.404 84.8396C111.101 85.1427 110.74 85.3809 110.342 85.5402L110.022 85.668C109.86 85.7329 109.687 85.7664 109.512 85.7664H109.304C108.662 85.7664 108.141 85.2453 108.141 84.603C108.141 84.4453 108.173 84.2896 108.235 84.1448L108.502 83.5201C108.727 82.9974 109.048 82.5216 109.451 82.1195L110.478 81.0927Z" fill="#93C5FD"/>
<path d="M103.93 30.9877L104.371 30.7986C104.971 30.5418 105.66 30.6163 106.191 30.9952C106.681 31.3455 106.972 31.911 106.972 32.5135V33.3154C106.972 33.847 106.849 34.3713 106.61 34.8468L106.377 35.3128C106.153 35.7618 105.841 36.1615 105.46 36.4883L105.376 36.5598C104.748 37.0989 103.946 37.3953 103.118 37.3953H102.732C102.447 37.3953 102.166 37.3289 101.911 37.2015C101.289 36.8906 100.896 36.2551 100.896 35.5599V34.7646C100.896 34.3418 100.983 33.9234 101.149 33.5348L101.183 33.4557C101.453 32.8243 101.902 32.2852 102.473 31.9041L103.493 31.2245C103.631 31.1324 103.777 31.0531 103.93 30.9877Z" fill="#93C5FD"/>
<path d="M134.006 20.103H134.332C134.9 20.103 135.426 20.4009 135.718 20.8876C135.869 21.1387 135.948 21.4261 135.948 21.719V22.6109C135.948 23.0998 135.754 23.5687 135.408 23.9145L135.316 24.0072C135.119 24.2041 134.868 24.3384 134.595 24.393C134.127 24.4865 133.738 24.8098 133.561 25.2526L133.531 25.3288C133.431 25.5795 133.267 25.7999 133.056 25.9686L132.709 26.2463C132.386 26.505 131.984 26.646 131.569 26.646C130.715 26.646 129.974 26.0522 129.789 25.2176L129.736 24.981C129.672 24.6921 129.669 24.393 129.727 24.1028L129.797 23.7541C129.995 22.7629 130.579 21.8911 131.42 21.3305L131.508 21.2714L132.845 20.4362C133.193 20.2184 133.596 20.103 134.006 20.103Z" fill="#93C5FD"/>
<path d="M111.207 89.1753H105.206C104.449 89.1753 103.747 89.565 103.346 90.2062C102.945 90.8475 102.242 91.2371 101.486 91.2371H101.155H94.1964L86.4644 91.7526L79.5056 92.5258H74.5C72.1904 92.5258 69.9038 92.9877 67.775 93.8841C66.6638 94.3516 65.5067 94.7026 64.3226 94.9299L59.4025 95.8763L54.3075 96.2052C52.3971 96.3284 50.5307 96.833 48.8184 97.6892C48.1436 98.0263 47.4432 98.3098 46.7238 98.5372L42.9077 99.7423L36.9799 100.773L31.5675 101.546L27.7826 102.177C27.2157 102.272 26.6647 102.444 26.1447 102.688L23.1806 104.083C22.7938 104.266 22.5469 104.654 22.5469 105.082C22.5469 105.691 23.041 106.186 23.6506 106.186H28.7324C32.3346 106.186 35.9305 105.888 39.4835 105.296L41.8768 104.897L49.351 104.381H53.5853C55.5706 104.381 57.5531 104.232 59.516 103.935L61.4241 103.645C63.8444 103.279 66.2006 102.572 68.4232 101.546C70.9695 100.358 73.7453 99.7423 76.5551 99.7423H79.5056L87.4953 98.9691H95.7428H101.155L106.727 98.3263C107.476 98.2397 108.211 98.0542 108.912 97.7737C109.917 97.3717 110.99 97.165 112.072 97.165H114.815L123.062 96.3918L124.692 96.1408C125.833 95.9655 126.993 95.9593 128.136 96.1227L128.394 96.1593C129.472 96.3134 130.518 96.6397 131.491 97.1268C132.897 97.8299 134.448 98.1959 136.02 98.1959H139.042L145.227 98.9691H151.413H154.658C155.413 98.9691 156.166 98.8835 156.902 98.7134C158.378 98.3727 159.912 98.3727 161.388 98.7134L162.495 98.9691C165.568 99.9933 168.786 100.515 172.025 100.515H172.687C174.652 100.515 176.613 100.685 178.549 101.022L181.568 101.546L186.546 102.504C187.692 102.724 188.856 102.835 190.022 102.835C191.934 102.835 193.835 103.133 195.655 103.718L200.124 105.155L206.761 106.482C207.466 106.623 208.095 107.019 208.526 107.594C209.078 108.33 209.944 108.763 210.863 108.763H214.758C214.968 108.763 215.177 108.747 215.383 108.717L217.796 108.354C219.076 108.162 219.885 106.877 219.504 105.64C219.31 105.009 218.833 104.505 218.214 104.277L214.299 102.835L209.403 101.031L204.248 98.9691L198.836 97.4227L195.261 96.8011C193.694 96.5284 192.15 96.1392 190.642 95.6366L189.847 95.3717C188.796 95.0212 187.72 94.7542 186.627 94.5717C184.639 94.2402 182.613 94.1944 180.612 94.4341L179.985 94.5098C178.125 94.733 176.246 94.7516 174.381 94.565L169.454 94.0722L166.146 93.3372C165.27 93.1423 164.447 92.7552 163.739 92.2042C162.923 91.5701 161.959 91.1547 160.939 90.9975L159.907 90.8387C159.399 90.7609 158.887 90.7217 158.374 90.7217H154.248H150.798C149.503 90.7217 148.222 90.4588 147.031 89.9485C145.841 89.4382 144.56 89.1753 143.264 89.1753H140.073H135.691H128.99H124.093H118.423H111.207Z" fill="#22C55E"/>
</svg>
