<svg width="20" height="20" viewBox="0 0 20 20" fill="none" xmlns="http://www.w3.org/2000/svg">
<g clip-path="url(#clip0_672_2622)">
<path d="M19.9399 5.87708C19.8912 4.81262 19.7221 4.08569 19.4749 3.44971C19.2239 2.78244 18.8303 2.17804 18.3215 1.67847C17.8221 1.16974 17.2176 0.77591 16.5503 0.52475C15.9142 0.27771 15.1874 0.108795 14.1229 0.0604248C13.0565 0.0115967 12.7158 0 10 0C7.28424 0 6.94351 0.0115967 5.87708 0.0601196C4.81262 0.108795 4.08585 0.277863 3.44971 0.525055C2.78244 0.776062 2.17804 1.16974 1.67847 1.67847C1.16974 2.17789 0.775909 2.78229 0.52475 3.44956C0.27771 4.08569 0.108795 4.81262 0.0604248 5.87692C0.0115967 6.94351 0 7.28409 0 9.99985C0 12.7158 0.0115967 13.0565 0.0604248 14.1229C0.108948 15.1872 0.278015 15.9142 0.525207 16.5503C0.776215 17.2174 1.16989 17.822 1.67862 18.3214C2.17804 18.8301 2.78259 19.2238 3.44986 19.4748C4.08585 19.7221 4.81277 19.8911 5.87723 19.9397C6.94382 19.9884 7.28439 19.9999 10.0002 19.9999C12.7159 19.9999 13.0566 19.9884 14.1231 19.9397C15.1875 19.8911 15.9143 19.7221 16.5504 19.4748C17.8937 18.9554 18.9555 17.8935 19.4749 16.5503C19.7223 15.9142 19.8912 15.1872 19.9399 14.1229C19.9884 13.0563 20 12.7158 20 10C20 7.28409 19.9884 6.94351 19.9399 5.87708ZM18.1398 14.041C18.0954 15.016 17.9324 15.5455 17.7956 15.8978C17.4591 16.77 16.7699 17.4593 15.8977 17.7957C15.5453 17.9326 15.0159 18.0956 14.0408 18.14C12.9866 18.1882 12.6703 18.1982 10 18.1982C7.32956 18.1982 7.0134 18.1882 5.95901 18.14C4.98413 18.0956 4.45465 17.9326 4.10217 17.7957C3.66791 17.6353 3.27499 17.3798 2.95242 17.0476C2.62024 16.725 2.36465 16.3322 2.20428 15.8978C2.06741 15.5455 1.90445 15.016 1.86005 14.041C1.81198 12.9866 1.80176 12.6703 1.80176 10.0002C1.80176 7.32987 1.81198 7.0137 1.86005 5.95917C1.9046 4.98413 2.06741 4.45465 2.20428 4.10233C2.36465 3.66791 2.62039 3.27499 2.95242 2.95242C3.27499 2.62024 3.66791 2.36466 4.10233 2.20444C4.45465 2.06741 4.98413 1.9046 5.95917 1.86005C7.01355 1.81198 7.32986 1.80176 10 1.80176H9.99985C12.67 1.80176 12.9863 1.81198 14.0408 1.8602C15.0159 1.9046 15.5452 2.06757 15.8977 2.20444C16.3319 2.36481 16.7249 2.62039 17.0474 2.95242C17.3796 3.27499 17.6352 3.66791 17.7954 4.10233C17.9324 4.45465 18.0954 4.98413 18.1398 5.95917C18.1879 7.01355 18.1981 7.32987 18.1981 10C18.1981 12.6703 18.188 12.9865 18.1398 14.041Z" fill="#15803D"/>
<path d="M10.135 5C7.29904 5 5 7.29919 5 10.1352C5 12.9712 7.29904 15.2702 10.135 15.2702C12.9712 15.2702 15.2702 12.9712 15.2702 10.1352C15.2702 7.29919 12.9712 5 10.135 5ZM10.135 13.4685C8.29422 13.4683 6.80176 11.976 6.80191 10.135C6.80191 8.29422 8.29422 6.80176 10.1352 6.80176C11.9762 6.80191 13.4685 8.29422 13.4685 10.135C13.4685 11.976 11.976 13.4685 10.135 13.4685Z" fill="#15803D"/>
<path d="M16.5377 4.66202C16.5377 5.32471 16.0005 5.86197 15.3378 5.86197C14.675 5.86197 14.1377 5.32471 14.1377 4.66202C14.1377 3.99918 14.675 3.46191 15.3378 3.46191C16.0005 3.46191 16.5377 3.99918 16.5377 4.66202Z" fill="#15803D"/>
</g>
<defs>
<clipPath id="clip0_672_2622">
<rect width="20" height="20" fill="white"/>
</clipPath>
</defs>
</svg>
