<svg width="146" height="36" viewBox="0 0 146 36" fill="none" xmlns="http://www.w3.org/2000/svg">
    <path d="M0.5 4C0.5 2.067 2.067 0.5 4 0.5H142C143.933 0.5 145.5 2.067 145.5 4V32C145.5 33.933 143.933 35.5 142 35.5H4C2.06701 35.5 0.5 33.933 0.5 32V4Z" stroke="#22C55E"/>
    <g clip-path="url(#clip0_420_2256)">
    <path d="M35.9399 13.8771C35.8912 12.8126 35.7221 12.0857 35.4749 11.4497C35.2239 10.7824 34.8303 10.178 34.3215 9.67847C33.8221 9.16974 33.2176 8.77591 32.5503 8.52475C31.9142 8.27771 31.1874 8.1088 30.1229 8.06042C29.0565 8.0116 28.7158 8 26 8C23.2842 8 22.9435 8.0116 21.8771 8.06012C20.8126 8.1088 20.0858 8.27786 19.4497 8.52506C18.7824 8.77606 18.178 9.16974 17.6785 9.67847C17.1697 10.1779 16.7759 10.7823 16.5247 11.4496C16.2777 12.0857 16.1088 12.8126 16.0604 13.8769C16.0116 14.9435 16 15.2841 16 17.9998C16 20.7158 16.0116 21.0565 16.0604 22.1229C16.1089 23.1872 16.278 23.9142 16.5252 24.5503C16.7762 25.2174 17.1699 25.822 17.6786 26.3214C18.178 26.8301 18.7826 27.2238 19.4499 27.4748C20.0858 27.7221 20.8128 27.8911 21.8772 27.9397C22.9438 27.9884 23.2844 27.9999 26.0002 27.9999C28.7159 27.9999 29.0566 27.9884 30.1231 27.9397C31.1875 27.8911 31.9143 27.7221 32.5504 27.4748C33.8937 26.9554 34.9555 25.8935 35.4749 24.5503C35.7223 23.9142 35.8912 23.1872 35.9399 22.1229C35.9884 21.0563 36 20.7158 36 18C36 15.2841 35.9884 14.9435 35.9399 13.8771ZM34.1398 22.041C34.0954 23.016 33.9324 23.5455 33.7956 23.8978C33.4591 24.77 32.7699 25.4593 31.8977 25.7957C31.5453 25.9326 31.0159 26.0956 30.0408 26.14C28.9866 26.1882 28.6703 26.1982 26 26.1982C23.3296 26.1982 23.0134 26.1882 21.959 26.14C20.9841 26.0956 20.4547 25.9326 20.1022 25.7957C19.6679 25.6353 19.275 25.3798 18.9524 25.0476C18.6202 24.725 18.3647 24.3322 18.2043 23.8978C18.0674 23.5455 17.9044 23.016 17.86 22.041C17.812 20.9866 17.8018 20.6703 17.8018 18.0002C17.8018 15.3299 17.812 15.0137 17.86 13.9592C17.9046 12.9841 18.0674 12.4547 18.2043 12.1023C18.3647 11.6679 18.6204 11.275 18.9524 10.9524C19.275 10.6202 19.6679 10.3647 20.1023 10.2044C20.4547 10.0674 20.9841 9.9046 21.9592 9.86005C23.0135 9.81198 23.3299 9.80176 26 9.80176H25.9998C28.67 9.80176 28.9863 9.81198 30.0408 9.8602C31.0159 9.9046 31.5452 10.0676 31.8977 10.2044C32.3319 10.3648 32.7249 10.6204 33.0474 10.9524C33.3796 11.275 33.6352 11.6679 33.7954 12.1023C33.9324 12.4547 34.0954 12.9841 34.1398 13.9592C34.1879 15.0136 34.1981 15.3299 34.1981 18C34.1981 20.6703 34.188 20.9865 34.1398 22.041Z" fill="#22C55E"/>
    <path d="M26.135 13C23.299 13 21 15.2992 21 18.1352C21 20.9712 23.299 23.2702 26.135 23.2702C28.9712 23.2702 31.2702 20.9712 31.2702 18.1352C31.2702 15.2992 28.9712 13 26.135 13ZM26.135 21.4685C24.2942 21.4683 22.8018 19.976 22.8019 18.135C22.8019 16.2942 24.2942 14.8018 26.1352 14.8018C27.9762 14.8019 29.4685 16.2942 29.4685 18.135C29.4685 19.976 27.976 21.4685 26.135 21.4685Z" fill="#22C55E"/>
    <path d="M32.5377 12.662C32.5377 13.3247 32.0005 13.862 31.3378 13.862C30.675 13.862 30.1377 13.3247 30.1377 12.662C30.1377 11.9992 30.675 11.4619 31.3378 11.4619C32.0005 11.4619 32.5377 11.9992 32.5377 12.662Z" fill="#22C55E"/>
    </g>
    <path d="M46.6548 12.8182V23H45.1186V12.8182H46.6548ZM57.5101 12.8182V23H56.0982L50.9227 15.5327H50.8283V23H49.292V12.8182H50.7139L55.8943 20.2955H55.9888V12.8182H57.5101ZM65.7043 15.4929C65.6513 15.0223 65.4325 14.6577 65.048 14.3991C64.6636 14.1373 64.1797 14.0064 63.5963 14.0064C63.1787 14.0064 62.8175 14.0727 62.5125 14.2053C62.2076 14.3345 61.9706 14.5135 61.8016 14.7422C61.6359 14.9676 61.553 15.2244 61.553 15.5128C61.553 15.7547 61.6094 15.9635 61.7221 16.1392C61.8381 16.3149 61.9889 16.4624 62.1745 16.5817C62.3634 16.6977 62.5656 16.7955 62.781 16.875C62.9964 16.9512 63.2036 17.0142 63.4025 17.0639L64.3968 17.3224C64.7216 17.402 65.0547 17.5097 65.3961 17.6456C65.7374 17.7815 66.054 17.9605 66.3456 18.1825C66.6373 18.4046 66.8726 18.6797 67.0516 19.0078C67.2339 19.3359 67.325 19.7287 67.325 20.1861C67.325 20.7628 67.1759 21.2749 66.8776 21.7223C66.5826 22.1697 66.1534 22.5227 65.59 22.7812C65.0298 23.0398 64.352 23.169 63.5566 23.169C62.7943 23.169 62.1347 23.0481 61.5779 22.8061C61.0211 22.5642 60.5852 22.2211 60.2703 21.777C59.9555 21.3295 59.7815 20.7992 59.7483 20.1861H61.2895C61.3194 20.554 61.4387 20.8606 61.6475 21.1058C61.8596 21.3478 62.1297 21.5284 62.4578 21.6477C62.7893 21.7637 63.1522 21.8217 63.5466 21.8217C63.9808 21.8217 64.3669 21.7538 64.705 21.6179C65.0464 21.4787 65.3149 21.2865 65.5104 21.0412C65.706 20.7926 65.8037 20.5026 65.8037 20.1712C65.8037 19.8696 65.7176 19.6226 65.5452 19.4304C65.3762 19.2382 65.1458 19.0791 64.8542 18.9531C64.5658 18.8272 64.2393 18.7161 63.8748 18.62L62.6716 18.2919C61.8563 18.0698 61.21 17.7434 60.7327 17.3125C60.2587 16.8816 60.0218 16.3116 60.0218 15.6023C60.0218 15.0156 60.1809 14.5036 60.499 14.0661C60.8172 13.6286 61.2481 13.2888 61.7917 13.0469C62.3352 12.8016 62.9484 12.679 63.6311 12.679C64.3205 12.679 64.9287 12.8 65.4557 13.0419C65.986 13.2839 66.4036 13.617 66.7086 14.0412C67.0135 14.4621 67.1726 14.946 67.1858 15.4929H65.7043ZM69.0587 14.1406V12.8182H76.9386V14.1406H73.7618V23H72.2305V14.1406H69.0587ZM78.7369 23H77.1062L80.7703 12.8182H82.5451L86.2092 23H84.5785L81.7 14.6676H81.6204L78.7369 23ZM79.0103 19.0128H84.3001V20.3054H79.0103V19.0128ZM94.4917 16.0348C94.3955 15.7332 94.2663 15.4631 94.1039 15.2244C93.9448 14.9825 93.7542 14.777 93.5321 14.608C93.3101 14.4356 93.0565 14.3047 92.7715 14.2152C92.4898 14.1257 92.1799 14.081 91.8418 14.081C91.2684 14.081 90.7514 14.2285 90.2907 14.5234C89.83 14.8184 89.4654 15.2509 89.1969 15.821C88.9318 16.3878 88.7992 17.0821 88.7992 17.9041C88.7992 18.7294 88.9334 19.4271 89.2019 19.9972C89.4703 20.5672 89.8382 20.9998 90.3056 21.2947C90.7729 21.5897 91.3049 21.7372 91.9015 21.7372C92.455 21.7372 92.9372 21.6245 93.3482 21.3991C93.7625 21.1738 94.0823 20.8556 94.3077 20.4446C94.5364 20.0303 94.6507 19.5431 94.6507 18.983L95.0485 19.0575H92.1351V17.7898H96.1373V18.9482C96.1373 19.8033 95.955 20.5457 95.5904 21.1754C95.2291 21.8018 94.7286 22.2857 94.089 22.6271C93.4526 22.9685 92.7234 23.1392 91.9015 23.1392C90.9801 23.1392 90.1713 22.9271 89.4753 22.5028C88.7826 22.0786 88.2424 21.477 87.8546 20.6982C87.4668 19.916 87.2729 18.9879 87.2729 17.9141C87.2729 17.102 87.3856 16.3729 87.611 15.7266C87.8364 15.0803 88.1529 14.5317 88.5605 14.081C88.9715 13.6269 89.4538 13.2805 90.0073 13.0419C90.5641 12.8 91.1723 12.679 91.8319 12.679C92.382 12.679 92.8941 12.7602 93.3681 12.9226C93.8453 13.085 94.2696 13.3153 94.6408 13.6136C95.0153 13.9119 95.3252 14.2666 95.5705 14.6776C95.8158 15.0852 95.9815 15.5376 96.0676 16.0348H94.4917ZM98.4874 23V12.8182H102.117C102.905 12.8182 103.56 12.9541 104.08 13.2259C104.604 13.4976 104.995 13.8738 105.254 14.3544C105.512 14.8317 105.641 15.3835 105.641 16.0099C105.641 16.633 105.511 17.1816 105.249 17.6555C104.99 18.1262 104.599 18.4924 104.075 18.7543C103.555 19.0161 102.9 19.147 102.112 19.147H99.3624V17.8246H101.972C102.47 17.8246 102.874 17.7533 103.186 17.6108C103.5 17.4683 103.731 17.2611 103.877 16.9893C104.022 16.7176 104.095 16.3911 104.095 16.0099C104.095 15.6255 104.021 15.2924 103.872 15.0107C103.726 14.7289 103.495 14.5135 103.181 14.3643C102.869 14.2119 102.46 14.1357 101.953 14.1357H100.024V23H98.4874ZM103.514 18.4062L106.029 23H104.279L101.813 18.4062H103.514ZM108.771 23H107.14L110.804 12.8182H112.579L116.243 23H114.612L111.734 14.6676H111.654L108.771 23ZM109.044 19.0128H114.334V20.3054H109.044V19.0128ZM118.114 12.8182H119.978L123.219 20.733H123.339L126.58 12.8182H128.444V23H126.983V15.6321H126.888L123.886 22.9851H122.672L119.67 15.6271H119.575V23H118.114V12.8182Z" fill="#22C55E"/>
    <defs>
    <clipPath id="clip0_420_2256">
    <rect width="20" height="20" fill="white" transform="translate(16 8)"/>
    </clipPath>
    </defs>
    </svg>
    