<svg width="112" height="62" viewBox="0 0 112 62" fill="none" xmlns="http://www.w3.org/2000/svg">
  <path d="M63.9377 8.37111L59.3191 4.18555L50.6593 7.3608L39.4016 16.3093L31.1748 22.2268L31.6078 26.5567L32.0408 35.0721V53.402L77.3604 53.9794V52.1031L76.7831 43.7319V29.8763V25.6907L77.7934 22.2268L73.8965 17.6082L68.2676 12.4123L63.9377 8.37111Z" fill="white"/>
  <path d="M92.94 29.8251L92.9149 29.7775C92.585 29.1575 92.1439 28.6029 91.6139 28.1418L91.583 28.1147L90.4725 27.1002L89.3624 26.0856L87.6968 24.9261L85.7538 23.1868L83.9494 21.7374L81.8676 19.9981L80.3409 18.6937L79.9186 18.3207C78.9992 17.5082 78.0062 16.7829 76.9526 16.1542L76.5459 15.9115C75.2879 15.1608 74.137 14.2441 73.1238 13.186L72.0255 12.2307C71.7585 11.9983 71.5105 11.7446 71.2845 11.472C71.0307 11.1659 70.7496 10.8837 70.4445 10.6288L70.2092 10.4322L69.0038 9.27268L67.8497 7.96822C67.1119 7.1979 66.286 6.51739 65.3889 5.94079L64.9351 5.64919L63.4084 4.63463L62.9428 4.34283C62.3294 3.95851 61.7549 3.51536 61.2273 3.01964C60.8312 2.64741 60.4086 2.30463 59.9624 1.99407L59.3833 1.59091L59.2834 1.504C58.8109 1.09273 58.2056 0.866211 57.5792 0.866211C57.2123 0.866211 56.8486 0.934872 56.5071 1.06865L56.3758 1.12005C56.0689 1.24016 55.7797 1.40083 55.5159 1.59777L55.2514 1.79505C55.0459 1.9482 54.8612 2.12707 54.7015 2.32727L54.6865 2.34593C54.3985 2.70697 54.0281 2.99381 53.6067 3.1825L53.5218 3.2204C53.359 3.29329 53.1875 3.34565 53.0117 3.37625L52.9658 3.38425C52.6238 3.44377 52.3036 3.59228 52.0372 3.81487C51.8473 3.97346 51.6879 4.16819 51.569 4.38518C51.3294 4.82299 50.9337 5.16028 50.4623 5.32436L50.3618 5.35932L49.3905 5.64919L49.2791 5.66859C48.8103 5.75013 48.3802 5.97941 48.0514 6.32289L47.983 6.39442C47.9036 6.47706 47.8349 6.56897 47.778 6.66816C47.5685 7.03268 47.2079 7.28522 46.7937 7.3573L46.6907 7.37523C46.6401 7.38403 46.5888 7.38845 46.5374 7.38845H46.301C45.9375 7.38845 45.6431 7.683 45.6431 8.04633C45.6431 8.18402 45.5998 8.31825 45.5196 8.43008L45.39 8.61035C45.2823 8.76042 45.1449 8.88671 44.9861 8.98139L44.2552 9.41761L43.1448 9.99736L41.7569 10.867L40.6097 11.5205C40.3572 11.6642 40.1199 11.8327 39.9008 12.0233C39.5671 12.3136 39.2793 12.6528 39.0469 13.0292L38.7208 13.558C38.2214 14.3671 37.5895 15.0865 36.8514 15.6859L36.7175 15.7949C35.9779 16.5669 35.1847 17.2852 34.3432 17.9443L33.9414 18.2589L32.9701 18.9836L31.9985 19.5633L30.7494 20.288C30.0113 20.6733 29.3194 21.1407 28.6867 21.6814L28.1123 22.1722L26.8632 23.3317L25.8916 24.0564L24.9849 24.6246C24.6648 24.8251 24.3267 24.9954 23.975 25.1331C23.5883 25.2845 23.2181 25.4753 22.8703 25.7023L22.7402 25.7872C22.4358 25.9859 22.1176 26.1624 21.7879 26.3154L21.7176 26.348C21.2627 26.5592 20.827 26.8094 20.4154 27.096L18.9583 28.1104C18.677 28.3062 18.4121 28.5245 18.166 28.763L17.1363 29.7616C16.7841 30.1031 16.5565 30.5528 16.49 31.0392C16.466 31.2147 16.4633 31.3926 16.482 31.5686L16.5571 32.2741C16.5808 32.4964 16.6222 32.7161 16.6812 32.9314L16.7716 33.2619C16.8369 33.5004 16.9424 33.7261 17.0838 33.929L17.5214 34.5574C17.7954 34.9509 18.291 35.1241 18.7504 34.9869C18.8837 34.9471 19.0083 34.8827 19.1177 34.797L19.5072 34.4919L20.34 33.7674L21.0339 33.0425L21.8667 32.1731L22.6994 31.4483L23.348 30.8389C23.8402 30.3762 24.3657 29.9501 24.9201 29.5642L26.308 28.6945L27.1407 28.1147L28.1123 27.2451L28.945 26.6653L29.2187 26.4367C29.4981 26.2033 29.8018 26.0006 30.1245 25.8321L30.2679 25.7571C30.4036 25.6863 30.5335 25.6052 30.6568 25.5144L30.782 25.422C30.8372 25.3813 30.8961 25.3455 30.9573 25.315C31.0889 25.2495 31.2069 25.1602 31.3057 25.0517L31.6844 24.6362C32.146 24.1539 32.6474 23.7108 33.1825 23.3116L33.3497 23.1868L34.0837 22.7078C34.334 22.5444 34.5993 22.4051 34.8761 22.2919C35.3053 22.1164 35.706 21.8787 36.0657 21.5864L36.9498 20.8678L37.9215 20.1431L38.2791 19.907C38.4794 19.7748 38.6659 19.623 38.8356 19.4538L38.8769 19.4127C38.9702 19.32 39.0697 19.234 39.1751 19.1553L39.2923 19.0677C39.4949 18.9164 39.6673 18.7281 39.8003 18.5128C39.9623 18.2504 40.1822 18.0288 40.4435 17.8651L40.5558 17.7949C40.6785 17.7178 40.7948 17.6306 40.903 17.534L42.0929 16.4723C42.2742 16.3108 42.4425 16.1356 42.5963 15.9483L42.8405 15.6516C42.9205 15.5543 42.9886 15.4476 43.0429 15.3339C43.1707 15.067 43.3716 14.8419 43.6225 14.6848L43.9325 14.4905L45.043 13.6208L46.292 12.6063L47.2636 11.8816L47.8361 11.3834C48.0093 11.2326 48.1931 11.0943 48.3862 10.9697C48.6414 10.805 48.8804 10.6165 49.1004 10.4068L49.5293 9.99736L50.7784 8.98277L51.6111 8.25809L51.7396 8.14303C52.3005 7.64114 52.9081 7.19433 53.5541 6.8087L54.6646 6.22896L54.688 6.21487C55.3187 5.83849 55.9148 5.40666 56.4687 4.92451L56.9389 4.53176C57.0859 4.40896 57.2608 4.32427 57.4481 4.28513C57.7123 4.22996 57.9874 4.26807 58.2267 4.39294L58.4622 4.51594C58.6129 4.59471 58.7526 4.69329 58.8773 4.80907L59.9384 5.79412L61.4651 7.53339L61.6594 7.80372C62.36 8.77913 63.1806 9.66225 64.1023 10.4322L65.2125 11.4467L67.0169 13.186L67.0585 13.2307C67.4814 13.6834 67.9372 14.1045 68.4215 14.4905L69.3764 15.3601C69.9295 15.9379 70.5481 16.4495 71.2195 16.8846L72.6357 17.8026C73.6991 18.4919 74.6985 19.2752 75.6219 20.1431L77.1486 21.7374L78.3203 22.752L79.3392 23.4767L80.7949 24.4913C81.5056 24.8754 82.1519 25.3681 82.7108 25.9517L83.1166 26.3754L84.3657 27.535L84.8408 28.0932C85.2637 28.5899 85.7253 29.0524 86.2212 29.4759C86.7413 29.9204 87.2237 30.4074 87.663 30.9319L87.9745 31.3034L88.4433 31.8631C88.7741 32.2577 89.19 32.5723 89.6603 32.7825C89.8314 32.8592 90.0087 32.9216 90.1902 32.9689L91.0276 33.1874L91.734 33.3719C91.9984 33.4409 92.2767 33.4363 92.5385 33.358L92.6297 33.3309C92.9377 33.2388 93.1989 33.0321 93.3592 32.7533C93.4686 32.5631 93.526 32.3474 93.526 32.1281V31.7612C93.526 31.4584 93.4737 31.1576 93.3713 30.8724L93.2316 30.4839C93.1505 30.2575 93.0529 30.0373 92.94 29.8251Z" fill="#B91C1C"/>
  <path d="M78.5158 25.2575L78.5724 25.0689C78.7984 24.3152 78.5306 23.5004 77.901 23.0283C77.83 22.975 77.7627 22.9167 77.6998 22.8539L76.7839 21.9379L75.252 20.5082C75.0115 20.2837 74.6189 20.4543 74.6189 20.7833V22.9483L74.4746 25.6905V29.0101V32.3297V35.3606V37.9586V40.5565V43.0101V45.7524V49.5049V53.9792H78.3715L78.472 53.3767C78.5005 53.2053 78.5819 53.0471 78.7046 52.9244C78.8611 52.768 78.9488 52.5561 78.9488 52.335V51.2369V49.2287C78.9488 48.9357 78.8807 48.6468 78.7497 48.3849C78.6902 48.266 78.6183 48.1537 78.5352 48.0498L78.5262 48.0386C78.2393 47.6798 78.0829 47.2341 78.0829 46.7745V46.1854V45.1751V42.4328V40.5565V38.5359V36.2266V34.639V32.7627V31.5997C78.0829 31.3278 78.1908 31.0671 78.3831 30.8748L78.4347 30.8232C78.737 30.521 78.7947 30.0522 78.5747 29.6856C78.5358 29.6203 78.4887 29.5603 78.4347 29.5063L78.3675 29.4391C78.1804 29.252 78.0393 29.0237 77.9556 28.7726L77.9469 28.7469C77.8467 28.4465 77.8268 28.1251 77.8889 27.8146L78.0829 26.8452L78.5158 25.2575Z" fill="#FACC15"/>
  <path d="M34.7838 55.1344H36.2271C36.5461 55.1344 36.8044 54.8761 36.8044 54.5571V53.6911V51.6705V50.6602V49.0726V47.4849V45.32V43.862C36.8044 43.6942 36.7094 43.5407 36.5593 43.4653C36.5305 43.4509 36.4999 43.4396 36.4684 43.4319L36.4303 43.4223C36.1301 43.3473 35.8998 43.1057 35.8388 42.802L35.8137 42.6753C35.8007 42.6103 35.7941 42.5442 35.7941 42.4781V42.1447V41.2787V40.2684V39.4025V37.9592V36.8045V35.5055V34.8561C35.7941 34.5281 35.6879 34.2092 35.491 33.9468C35.405 33.8319 35.3028 33.7297 35.1879 33.6437L34.8496 33.39C34.8057 33.357 34.7593 33.3282 34.7102 33.3039C34.4016 33.1495 34.2065 32.834 34.2065 32.4888V32.4746V31.6086V30.454V28.722V27.5251C34.2065 26.9977 34.416 26.4919 34.789 26.119C34.8814 26.0264 34.9648 25.9249 35.0372 25.8159L35.2687 25.4688C35.4232 25.2373 35.5054 24.9653 35.5054 24.6872V24.5129C35.5054 24.2508 35.4012 23.9993 35.2159 23.814C35.1212 23.7193 35.0084 23.6449 34.884 23.5952L34.7001 23.5216C34.4694 23.4293 34.2232 23.3818 33.9747 23.3818H33.8494C33.6075 23.3818 33.3668 23.4156 33.1341 23.482L32.9234 23.5422C32.6269 23.6269 32.3495 23.7678 32.1059 23.9572C31.5188 24.4137 31.1755 25.1158 31.1755 25.8595V27.5674V30.454V33.1963V36.6602V38.305C31.1755 38.6381 31.0433 38.9573 30.8078 39.1929C30.6701 39.3306 30.5662 39.4989 30.5044 39.6836L30.4271 39.9157C30.3494 40.1492 30.3096 40.394 30.3096 40.6402V42.0004V45.4643V47.3406V48.6964C30.3096 49.0218 30.4721 49.3251 30.7426 49.5055L30.7763 49.5281C31.0364 49.7015 31.2376 49.9495 31.3537 50.2396C31.4267 50.422 31.4642 50.6169 31.4642 50.8135V51.5813C31.4642 51.9286 31.4316 52.2752 31.3666 52.6164L30.8869 55.1344H32.4745H34.7838Z" fill="#FACC15"/>
  <path d="M58.8347 27.2039H58.6069C58.2553 27.2039 57.9182 27.3436 57.6696 27.5922C57.4208 27.8409 57.2811 28.1782 57.2811 28.5298V38.7898C57.2811 39.04 57.0782 39.2427 56.8282 39.2427C56.5779 39.2427 56.375 39.4456 56.375 39.6959V43.5145V48.7176C56.375 49.0167 56.5531 49.2869 56.8282 49.4046C57.103 49.5224 57.2811 49.7926 57.2811 50.0916V50.3191C57.2811 50.9221 57.7701 51.4111 58.3734 51.4111H58.964C59.8935 51.4111 60.6469 50.6577 60.6469 49.7282V44.4209V35.6229C60.6469 35.5368 60.6128 35.4546 60.5522 35.394L60.295 35.1371C60.1859 35.0279 60.2632 34.8415 60.4174 34.8415C60.5323 34.8415 60.6154 34.7315 60.584 34.6209L60.4304 34.0834C60.4024 33.9865 60.3504 33.8978 60.2791 33.8262L60.2384 33.7858C60.0854 33.6328 59.9997 33.4253 59.9997 33.2091V29.1456H67.2488L67.3677 49.6001C67.3738 50.6208 68.1714 51.4639 69.1898 51.5318C70.3083 51.6065 71.2618 50.7198 71.2618 49.5989V47.2137C71.2618 46.9937 71.3065 46.7761 71.3931 46.5737L71.4185 46.5146C71.5672 46.1679 71.5761 45.777 71.4439 45.4237C71.3261 45.11 71.3198 44.765 71.4257 44.4469L71.4393 44.4059C71.4933 44.2443 71.5207 44.0751 71.5207 43.9045V43.3252C71.5207 43.0319 71.4044 42.751 71.1971 42.5438C70.9898 42.3365 70.8735 42.0556 70.8735 41.7624V39.7605V37.3441C70.8735 36.996 71.0559 36.6736 71.3544 36.4946C71.4641 36.4288 71.5602 36.3422 71.637 36.2397L71.6644 36.2034C71.8232 35.9915 71.9089 35.734 71.9089 35.4693V32.8996V29.6542C71.9089 29.3188 71.8408 28.9866 71.7086 28.6781L71.6255 28.4841C71.5562 28.3225 71.4569 28.1756 71.3325 28.0513L70.8158 27.5345C70.6261 27.3448 70.3256 27.3235 70.1112 27.4844C70.0176 27.5544 69.9042 27.5922 69.7876 27.5922H68.3001C67.9537 27.5922 67.6169 27.4799 67.3397 27.2721C67.2791 27.2267 67.222 27.177 67.1683 27.1235L67.1541 27.1091C66.8002 26.7554 66.3205 26.5566 65.8202 26.5566H63.4948H60.7652C60.5311 26.5566 60.3143 26.6795 60.1937 26.8803C60.0733 27.081 59.8562 27.2039 59.6221 27.2039H58.8347Z" fill="#7F1D1D"/>
  <path d="M63.7191 38.7336L63.8352 38.2697C63.8663 38.145 63.9365 38.0336 64.0352 37.9513C64.3467 37.6915 64.8204 37.8053 64.9803 38.1779L65.3336 39.0023C65.4014 39.1611 65.4366 39.332 65.4366 39.5046V41.0397C65.4366 41.6918 64.9081 42.2203 64.256 42.2203C63.8614 42.2203 63.4928 42.0232 63.2737 41.6947L63.1282 41.4761C62.9452 41.2016 62.8477 40.8792 62.8477 40.5493V40.1731C62.8477 39.8345 63.0168 39.5185 63.2985 39.3305C63.5081 39.1908 63.6582 38.9781 63.7191 38.7336Z" fill="#7F1D1D"/>
  <path d="M45.2554 27.7918L43.5598 27.9802H41.618C40.9223 27.9802 40.3046 28.4254 40.0847 29.0855L40.0171 29.2879C39.9628 29.451 39.9308 29.6207 39.9216 29.7922L39.8058 31.9932L39.5469 34.5822V37.9479V40.5369L39.7149 41.9638C39.772 42.4505 40.0569 42.8811 40.4821 43.1242C40.6343 43.2111 40.7999 43.2714 40.9723 43.3026L41.3755 43.3759C41.8671 43.4654 42.3746 43.3817 42.8113 43.1389C43.1326 42.9605 43.4937 42.867 43.8609 42.867H46.2784L49.0672 42.7637C49.5357 42.7463 49.9992 42.6623 50.4441 42.514L51.1859 42.2669C51.2792 42.2357 51.3655 42.1875 51.4411 42.1246C51.7967 41.8281 51.8213 41.29 51.4936 40.9627L51.3522 40.8213C51.1703 40.6391 51.0679 40.3923 51.0679 40.1351V37.3008V35.1C51.0679 34.814 51.2997 34.5822 51.5857 34.5822C51.8718 34.5822 52.1036 34.3504 52.1036 34.0643V32.1228C52.1036 31.8367 51.8718 31.6049 51.5857 31.6049C51.2997 31.6049 51.0679 31.3731 51.0679 31.0871V30.5692L51.0003 29.3525C50.9613 28.6516 50.5948 28.01 50.0108 27.6206C49.6049 27.35 49.1214 27.22 48.6348 27.2504L47.7959 27.3029C47.4755 27.3229 47.1577 27.3755 46.8479 27.46L46.5059 27.5534C46.096 27.6652 45.6777 27.7449 45.2554 27.7918Z" fill="#7F1D1D"/>
  <path d="M43.4432 35.7176H43.9726C44.2572 35.7176 44.5055 35.5236 44.5748 35.2473C44.5869 35.1983 44.5932 35.1477 44.5932 35.0969V33.813V32.4525V31.1183C44.5932 30.9215 44.5557 30.726 44.4824 30.5433L44.3998 30.3372C44.3484 30.2082 44.2624 30.0959 44.1513 30.0128C43.9218 29.8407 43.615 29.813 43.3583 29.9412L43.1306 30.0552C43.018 30.1115 42.9155 30.1854 42.8266 30.2743L42.6503 30.4507C42.4092 30.6917 42.245 30.9985 42.178 31.3328C42.1558 31.4442 42.1445 31.5577 42.1445 31.6714V32.3166V34.0849V34.4189C42.1445 35.1359 42.7259 35.7176 43.4432 35.7176Z" fill="white"/>
  <path d="M47.3138 30.0046L48.0141 29.7711C48.0883 29.7462 48.1694 29.752 48.2393 29.7869C48.3392 29.8369 48.4021 29.9391 48.4021 30.0505V31.0928V32.9971V34.0112C48.4021 34.5781 47.9425 35.0377 47.3756 35.0377H47.3401C47.233 35.0377 47.1268 35.0172 47.0272 34.9776L46.811 34.891C46.6219 34.8154 46.4975 34.6321 46.4975 34.428C46.4975 34.2958 46.55 34.1691 46.6436 34.0756L46.6837 34.0354C46.74 33.9791 46.8104 33.9393 46.8878 33.92L46.9539 33.9035C47.1528 33.8539 47.2734 33.6521 47.2238 33.4535C47.1949 33.3377 47.1123 33.2431 47.0015 33.1989L46.8078 33.1212C46.6098 33.0422 46.4528 32.8851 46.3737 32.6871L46.3099 32.5281C46.2542 32.3886 46.2256 32.24 46.2256 32.0899V31.3376C46.2256 31.2652 46.2316 31.193 46.2435 31.1214C46.3171 30.6798 46.6107 30.3059 47.0223 30.1296L47.3138 30.0046Z" fill="white"/>
  <path d="M42.9995 37.5349L42.8246 37.6223L42.7966 37.6365C42.471 37.7993 42.2389 38.1032 42.1673 38.46C42.1523 38.5362 42.1445 38.6139 42.1445 38.6915V39.7991V40.3819C42.1445 40.6215 42.2222 40.855 42.3662 41.0467C42.488 41.2095 42.6526 41.3354 42.8411 41.4107L42.9736 41.4638C43.1421 41.5311 43.3275 41.5438 43.5035 41.4996C43.6814 41.4554 43.8401 41.3556 43.9573 41.215L44.1409 40.9947C44.3476 40.7465 44.4812 40.446 44.5271 40.1262L44.5658 39.8537C44.584 39.7267 44.5932 39.5985 44.5932 39.4703V38.8996C44.5932 38.6852 44.5496 38.473 44.4651 38.2758L44.3614 38.0337C44.2491 37.7721 44.0306 37.5709 43.7605 37.4809C43.5096 37.3972 43.236 37.4168 42.9995 37.5349Z" fill="white"/>
  <path d="M47.4582 37.2139H47.586C47.7624 37.2139 47.9345 37.271 48.0756 37.377C48.2811 37.5311 48.4021 37.773 48.4021 38.0299V38.71V39.6655C48.4021 39.7538 48.3926 39.8418 48.3732 39.9281L48.2935 40.2872C48.2012 40.7023 47.8051 40.9763 47.3843 40.9162C47.2489 40.8969 47.1204 40.8438 47.011 40.7615L46.7968 40.601C46.6886 40.5199 46.5925 40.4235 46.5114 40.3152C46.3258 40.0681 46.2256 39.7674 46.2256 39.4582V39.0373C46.2256 38.91 46.2345 38.783 46.2527 38.6569L46.3214 38.1763C46.3477 37.9909 46.4204 37.8154 46.5327 37.6659C46.686 37.4612 46.9051 37.3161 47.153 37.254L47.1738 37.2488C47.2668 37.2254 47.3623 37.2139 47.4582 37.2139Z" fill="white"/>
  <path d="M50.1076 45.4122L50.6919 44.828C50.988 44.5318 51.3898 44.3652 51.8087 44.3652C52.0976 44.3652 52.332 44.5996 52.332 44.8889C52.332 45.3969 52.1591 45.8902 51.8416 46.2871L51.8087 46.3281L51.1543 46.9825L50.6263 47.5105C50.4566 47.6802 50.2543 47.8136 50.0317 47.9028L49.8521 47.9743C49.7615 48.0107 49.6648 48.0295 49.567 48.0295H49.4503C49.0907 48.0295 48.7988 47.7376 48.7988 47.378C48.7988 47.2896 48.8167 47.2025 48.8517 47.1214L49.0015 46.7715C49.127 46.4788 49.3072 46.2124 49.5326 45.9872L50.1076 45.4122Z" fill="#93C5FD"/>
  <path d="M46.4409 17.3535L46.688 17.2476C47.0238 17.1038 47.41 17.1455 47.707 17.3577C47.9815 17.5538 48.1446 17.8705 48.1446 18.208V18.657C48.1446 18.9547 48.0753 19.2483 47.942 19.5146L47.8115 19.7755C47.6859 20.027 47.511 20.2508 47.2977 20.4338L47.2509 20.4738C46.8988 20.7758 46.4502 20.9417 45.986 20.9417H45.7701C45.6105 20.9417 45.4532 20.9046 45.3103 20.8332C44.9621 20.6591 44.7422 20.3032 44.7422 19.9139V19.4686C44.7422 19.2318 44.7904 18.9975 44.8836 18.7798L44.9024 18.7356C45.0539 18.382 45.3051 18.0801 45.6252 17.8667L46.1962 17.4861C46.2735 17.4345 46.3555 17.3901 46.4409 17.3535Z" fill="#93C5FD"/>
  <path d="M63.2839 11.2578H63.4664C63.7842 11.2578 64.0789 11.4246 64.2423 11.6972C64.3269 11.8378 64.3713 11.9987 64.3713 12.1628V12.6622C64.3713 12.936 64.2625 13.1986 64.0688 13.3922L64.0171 13.4441C63.9069 13.5544 63.7663 13.6296 63.6133 13.6602C63.3515 13.7125 63.1338 13.8936 63.0345 14.1416L63.0175 14.1842C62.9615 14.3246 62.8697 14.4481 62.7517 14.5425L62.5574 14.698C62.3764 14.8429 62.1512 14.9219 61.9192 14.9219C61.4406 14.9219 61.026 14.5893 60.9221 14.122L60.8927 13.9895C60.8566 13.8277 60.8549 13.6602 60.8875 13.4977L60.9265 13.3024C61.0376 12.7474 61.3644 12.2591 61.8354 11.9452L61.8851 11.9121L62.6333 11.4444C62.8284 11.3224 63.0539 11.2578 63.2839 11.2578Z" fill="#93C5FD"/>
  <path d="M50.5157 49.9385H47.1551C46.7317 49.9385 46.3382 50.1567 46.1136 50.5158C45.8891 50.8749 45.4956 51.0931 45.0721 51.0931H44.8868H40.9899L36.66 51.3818L32.7631 51.8148H29.9599C28.6666 51.8148 27.3861 52.0734 26.194 52.5754C25.5717 52.8372 24.9237 53.0338 24.2606 53.1611L21.5054 53.6911L18.6522 53.8752C17.5823 53.9442 16.5371 54.2268 15.5782 54.7063C15.2004 54.8951 14.8082 55.0538 14.4053 55.1811L12.2683 55.856L8.94868 56.4333L5.91776 56.8663L3.79821 57.2196C3.48078 57.2725 3.17217 57.3689 2.881 57.5057L1.22111 58.2868C1.00448 58.389 0.866211 58.6066 0.866211 58.8462C0.866211 59.1874 1.14293 59.4642 1.48429 59.4642H4.33013C6.34731 59.4642 8.36103 59.2977 10.3507 58.966L11.691 58.7426L15.8765 58.4539H18.2477C19.3595 58.4539 20.4697 58.3702 21.5689 58.2037L22.6375 58.0417C23.9928 57.8365 25.3123 57.4407 26.5569 56.8663C27.9829 56.201 29.5373 55.856 31.1108 55.856H32.7631L37.2373 55.423H41.8559H44.8868L48.007 55.0631C48.4267 55.0146 48.8383 54.9106 49.2306 54.7536C49.7935 54.5285 50.3942 54.4127 51.0004 54.4127H52.5363L57.1549 53.9797L58.0676 53.8391C58.7064 53.741 59.3562 53.7375 59.9961 53.829L60.1408 53.8495C60.7441 53.9358 61.3298 54.1186 61.875 54.3913C62.6625 54.7851 63.5308 54.99 64.4112 54.99H66.1033L69.5672 55.423H73.0312H74.8486C75.2712 55.423 75.6929 55.3751 76.1048 55.2798C76.9315 55.089 77.7906 55.089 78.6173 55.2798L79.2373 55.423C80.958 55.9966 82.7599 56.289 84.5738 56.289H84.9444C86.0448 56.289 87.1432 56.3837 88.2274 56.5725L89.9178 56.8663L92.7059 57.4024C93.3473 57.5259 93.9991 57.588 94.6524 57.588C95.723 57.588 96.7873 57.7548 97.8065 58.0824L100.31 58.8869L104.026 59.6302C104.421 59.7093 104.773 59.931 105.014 60.2532C105.324 60.6651 105.808 60.9075 106.323 60.9075H108.505C108.622 60.9075 108.739 60.8989 108.855 60.8816L110.206 60.6786C110.922 60.5713 111.376 59.8513 111.162 59.1588C111.054 58.8055 110.786 58.5232 110.44 58.3956L108.248 57.588L105.505 56.5777L102.619 55.423L99.5879 54.557L97.586 54.2089C96.7088 54.0562 95.8442 53.8383 94.9993 53.5568L94.5545 53.4085C93.9659 53.2122 93.3629 53.0626 92.751 52.9605C91.6376 52.7748 90.5034 52.7492 89.3829 52.8834L89.0313 52.9258C87.9898 53.0508 86.9376 53.0612 85.8935 52.9567L83.1342 52.6807L81.2816 52.2691C80.7909 52.16 80.3305 51.9432 79.9336 51.6346C79.4769 51.2796 78.9371 51.0469 78.3656 50.9589L77.7877 50.87C77.5036 50.8264 77.2167 50.8045 76.9292 50.8045H74.6188H72.6871C71.9617 50.8045 71.2441 50.6572 70.5775 50.3715C69.911 50.0857 69.1934 49.9385 68.468 49.9385H66.6806H64.227H60.4745H57.7322H54.5569H50.5157Z" fill="#22C55E"/>
  </svg>
  