<svg width="80" height="46" viewBox="0 0 80 46" fill="none" xmlns="http://www.w3.org/2000/svg">
  <path d="M45.6696 6.91743L42.3707 3.92773L36.1851 6.19578L28.1439 12.5875L22.2676 16.8143L22.5769 19.9071L22.8861 25.9896V39.0824L55.2573 39.4947V38.1545L54.8449 32.1752V22.2782V19.2886L55.5665 16.8143L52.783 13.5154L48.7624 9.80402L45.6696 6.91743Z" fill="white"/>
  <path d="M66.3853 22.2416L66.3674 22.2076C66.1317 21.7647 65.8166 21.3686 65.4381 21.0392L65.416 21.0199L64.6228 20.2952L63.8298 19.5705L62.6402 18.7422L61.2523 17.4999L59.9635 16.4646L58.4764 15.2223L57.3859 14.2906L57.0843 14.0241C56.4276 13.4438 55.7183 12.9257 54.9657 12.4766L54.6752 12.3033C53.7766 11.7671 52.9546 11.1123 52.2309 10.3565L51.4463 9.67417C51.2556 9.50817 51.0785 9.32691 50.9171 9.13219C50.7358 8.91357 50.535 8.71198 50.3171 8.5299L50.149 8.38946L49.288 7.56126L48.4637 6.62951C47.9366 6.07928 47.3467 5.5932 46.7059 5.18134L46.3818 4.97305L45.2913 4.24837L44.9587 4.03994C44.5206 3.76542 44.1103 3.44889 43.7333 3.09481C43.4505 2.82893 43.1486 2.58409 42.8298 2.36226L42.4162 2.07428L42.3449 2.01221C42.0074 1.71844 41.575 1.55664 41.1276 1.55664C40.8655 1.55664 40.6057 1.60568 40.3618 1.70124L40.268 1.73796C40.0488 1.82375 39.8422 1.93851 39.6538 2.07918L39.4649 2.2201C39.3181 2.32949 39.1861 2.45725 39.0721 2.60026L39.0614 2.61358C38.8556 2.87147 38.5911 3.07635 38.29 3.21114L38.2294 3.23821C38.1131 3.29027 37.9907 3.32767 37.8651 3.34953L37.8323 3.35524C37.588 3.39775 37.3593 3.50384 37.169 3.66283C37.0333 3.7761 36.9195 3.9152 36.8346 4.07019C36.6635 4.38291 36.3808 4.62384 36.0441 4.74103L35.9723 4.766L35.2785 4.97305L35.1989 4.98691C34.8641 5.04516 34.5569 5.20893 34.322 5.45427L34.2731 5.50536C34.2164 5.56439 34.1674 5.63004 34.1268 5.70089C33.9771 5.96126 33.7195 6.14165 33.4237 6.19314L33.35 6.20594C33.314 6.21223 33.2773 6.21538 33.2406 6.21538H33.0717C32.8121 6.21538 32.6018 6.42577 32.6018 6.6853C32.6018 6.78365 32.5709 6.87953 32.5136 6.9594L32.421 7.08817C32.3441 7.19536 32.2459 7.28557 32.1325 7.3532L31.6105 7.66478L30.8173 8.07889L29.8259 8.70006L29.0065 9.16685C28.8261 9.26951 28.6566 9.38982 28.5002 9.52598C28.2618 9.73338 28.0562 9.97561 27.8903 10.2445L27.6573 10.6222C27.3006 11.2001 26.8492 11.714 26.322 12.1421L26.2263 12.22C25.6981 12.7714 25.1315 13.2845 24.5305 13.7553L24.2435 13.98L23.5496 14.4976L22.8556 14.9117L21.9635 15.4294C21.4362 15.7046 20.942 16.0384 20.4901 16.4247L20.0798 16.7752L19.1876 17.6034L18.4936 18.1211L17.8459 18.5269C17.6173 18.6701 17.3758 18.7918 17.1246 18.8901C16.8483 18.9983 16.5839 19.1345 16.3355 19.2967L16.2426 19.3574C16.0252 19.4993 15.7979 19.6253 15.5624 19.7346L15.5122 19.7579C15.1872 19.9087 14.876 20.0875 14.582 20.2922L13.5412 21.0168C13.3403 21.1566 13.1511 21.3125 12.9753 21.483L12.2398 22.1962C11.9882 22.4401 11.8256 22.7614 11.7781 23.1088C11.761 23.2342 11.7591 23.3612 11.7725 23.4869L11.8261 23.9909C11.843 24.1496 11.8726 24.3065 11.9147 24.4604L11.9793 24.6964C12.0259 24.8667 12.1013 25.028 12.2023 25.1729L12.5149 25.6218C12.7106 25.9028 13.0646 26.0265 13.3928 25.9286C13.4879 25.9001 13.5769 25.8542 13.6551 25.7929L13.9333 25.575L14.5281 25.0575L15.0238 24.5397L15.6186 23.9187L16.2135 23.401L16.6767 22.9657C17.0283 22.6352 17.4036 22.3309 17.7996 22.0552L18.791 21.434L19.3858 21.0199L20.0798 20.3987L20.6746 19.9846L20.8701 19.8213C21.0696 19.6546 21.2865 19.5098 21.5171 19.3894L21.6195 19.3359C21.7164 19.2853 21.8092 19.2273 21.8973 19.1625L21.9868 19.0965C22.0261 19.0674 22.0682 19.0419 22.1119 19.02C22.2059 18.9733 22.2903 18.9095 22.3608 18.832L22.6313 18.5352C22.961 18.1907 23.3191 17.8742 23.7014 17.589L23.8208 17.4999L24.3451 17.1578C24.5239 17.0411 24.7133 16.9416 24.9111 16.8607C25.2177 16.7354 25.5039 16.5656 25.7608 16.3568L26.3923 15.8435L27.0863 15.3258L27.3418 15.1572C27.4849 15.0628 27.6181 14.9544 27.7393 14.8335L27.7688 14.8041C27.8354 14.7379 27.9065 14.6765 27.9818 14.6203L28.0655 14.5577C28.2103 14.4496 28.3333 14.3151 28.4284 14.1613C28.5441 13.9739 28.7012 13.8156 28.8878 13.6987L28.968 13.6485C29.0556 13.5935 29.1387 13.5312 29.216 13.4622L30.0659 12.7039C30.1954 12.5885 30.3156 12.4634 30.4255 12.3295L30.5999 12.1176C30.6571 12.0481 30.7057 11.9719 30.7445 11.8907C30.8358 11.7 30.9793 11.5393 31.1585 11.427L31.3799 11.2882L32.1731 10.6671L33.0653 9.94239L33.7593 9.42474L34.1682 9.06893C34.2919 8.9612 34.4232 8.86243 34.5612 8.77342C34.7435 8.65575 34.9142 8.52111 35.0713 8.37132L35.3777 8.07889L36.2698 7.35419L36.8647 6.83656L36.9564 6.75437C37.3571 6.39588 37.7911 6.07672 38.2525 5.80128L39.0457 5.38718L39.0624 5.37712C39.5129 5.10827 39.9387 4.79982 40.3344 4.45542L40.6703 4.17489C40.7752 4.08718 40.9002 4.02668 41.034 3.99872C41.2226 3.95932 41.4191 3.98654 41.59 4.07573L41.7583 4.16359C41.8659 4.21986 41.9657 4.29027 42.0548 4.37297L42.8127 5.07658L43.9032 6.31891L44.042 6.512C44.5424 7.20872 45.1286 7.83953 45.787 8.38946L46.5799 9.11417L47.8688 10.3565L47.8985 10.3884C48.2006 10.7118 48.5261 11.0126 48.8721 11.2882L49.5542 11.9094C49.9492 12.3221 50.3911 12.6876 50.8707 12.9984L51.8822 13.6541C52.6418 14.1464 53.3556 14.7059 54.0152 15.3258L55.1057 16.4646L55.9426 17.1893L56.6705 17.707L57.7103 18.4317C58.2179 18.7061 58.6795 19.058 59.0787 19.4748L59.3686 19.7775L60.2608 20.6058L60.6001 21.0045C60.9022 21.3593 61.2319 21.6896 61.5861 21.9921C61.9577 22.3096 62.3022 22.6575 62.616 23.0321L62.8385 23.2975L63.1733 23.6973C63.4096 23.9791 63.7067 24.2039 64.0426 24.354C64.1649 24.4088 64.2915 24.4533 64.4212 24.4872L65.0193 24.6432L65.5239 24.775C65.7127 24.8243 65.9115 24.821 66.0985 24.7651L66.1637 24.7457C66.3837 24.6799 66.5703 24.5323 66.6847 24.3331C66.7628 24.1973 66.8039 24.0432 66.8039 23.8865V23.6245C66.8039 23.4082 66.7665 23.1933 66.6933 22.9896L66.5936 22.7121C66.5356 22.5505 66.4659 22.3931 66.3853 22.2416Z" fill="#B91C1C"/>
  <path d="M56.0819 18.9798L56.1223 18.8451C56.2838 18.3067 56.0924 17.7248 55.6427 17.3875C55.592 17.3495 55.544 17.3078 55.499 17.263L54.8448 16.6087L53.7506 15.5875C53.5788 15.4271 53.2984 15.5489 53.2984 15.784V17.3304L53.1953 19.2891V21.6603V24.0314V26.1963V28.052V29.9077V31.6603V33.619V36.2994V39.4953H55.9788L56.0506 39.065C56.071 38.9425 56.1291 38.8295 56.2168 38.7419C56.3285 38.6302 56.3912 38.4788 56.3912 38.3209V37.5365V36.1021C56.3912 35.8928 56.3425 35.6864 56.2489 35.4994C56.2064 35.4145 56.1551 35.3343 56.0957 35.2601L56.0893 35.252C55.8844 34.9957 55.7726 34.6774 55.7726 34.3491V33.9283V33.2067V31.2479V29.9077V28.4644V26.8149V25.6809V24.3407V23.51C55.7726 23.3157 55.8497 23.1295 55.9871 22.9922L56.024 22.9553C56.2398 22.7394 56.2811 22.4046 56.124 22.1427C56.0961 22.0961 56.0625 22.0533 56.024 22.0147L55.9759 21.9667C55.8423 21.833 55.7415 21.67 55.6817 21.4906L55.6755 21.4723C55.604 21.2577 55.5897 21.0281 55.6341 20.8063L55.7726 20.1139L56.0819 18.9798Z" fill="#FACC15"/>
  <path d="M24.8463 40.3201H25.8772C26.105 40.3201 26.2896 40.1355 26.2896 39.9077V39.2891V37.8458V37.1242V35.9902V34.8561V33.3098V32.2683C26.2896 32.1485 26.2217 32.0388 26.1145 31.985C26.0939 31.9747 26.072 31.9667 26.0496 31.9611L26.0223 31.9543C25.8079 31.9007 25.6434 31.7281 25.5999 31.5112L25.5819 31.4207C25.5727 31.3743 25.5679 31.3271 25.5679 31.2799V31.0417V30.4232V29.7015V29.0829V28.052V27.2273V26.2994V25.8355C25.5679 25.6013 25.492 25.3735 25.3514 25.186C25.29 25.104 25.217 25.031 25.1349 24.9695L24.8933 24.7883C24.8619 24.7648 24.8287 24.7442 24.7937 24.7269C24.5733 24.6166 24.4339 24.3912 24.4339 24.1446V24.1345V23.5159V22.6912V21.4541V20.5991C24.4339 20.2224 24.5836 19.8611 24.85 19.5948C24.916 19.5286 24.9755 19.4561 25.0273 19.3783L25.1927 19.1303C25.303 18.965 25.3617 18.7707 25.3617 18.572V18.4476C25.3617 18.2603 25.2873 18.0807 25.1549 17.9483C25.0873 17.8807 25.0067 17.8275 24.9178 17.792L24.7865 17.7395C24.6217 17.6735 24.4459 17.6396 24.2683 17.6396H24.1788C24.0061 17.6396 23.8341 17.6637 23.6679 17.7112L23.5174 17.7542C23.3056 17.8147 23.1075 17.9153 22.9335 18.0506C22.5141 18.3767 22.2689 18.8782 22.2689 19.4094V20.6293V22.6912V24.65V27.1242V28.299C22.2689 28.537 22.1745 28.765 22.0063 28.9333C21.9079 29.0316 21.8337 29.1518 21.7896 29.2838L21.7343 29.4495C21.6788 29.6163 21.6504 29.7912 21.6504 29.9671V30.9386V33.4128V34.753V35.7215C21.6504 35.9539 21.7665 36.1706 21.9597 36.2994L21.9838 36.3155C22.1696 36.4394 22.3133 36.6166 22.3962 36.8238C22.4483 36.9541 22.4751 37.0933 22.4751 37.2337V37.7821C22.4751 38.0302 22.4518 38.2778 22.4054 38.5215L22.0628 40.3201H23.1968H24.8463Z" fill="#FACC15"/>
  <path d="M42.0245 20.3696H41.8618C41.6107 20.3696 41.3698 20.4693 41.1923 20.6469C41.0146 20.8245 40.9148 21.0655 40.9148 21.3166V28.6452C40.9148 28.8239 40.7698 28.9687 40.5913 28.9687C40.4125 28.9687 40.2676 29.1136 40.2676 29.2924V32.02V35.7365C40.2676 35.9501 40.3948 36.1431 40.5913 36.2272C40.7876 36.3113 40.9148 36.5043 40.9148 36.7179V36.8804C40.9148 37.3111 41.2641 37.6604 41.695 37.6604H42.1169C42.7808 37.6604 43.3189 37.1223 43.3189 36.4584V32.6674V26.3831C43.3189 26.3217 43.2946 26.2629 43.2513 26.2196L43.0676 26.0361C42.9896 25.9582 43.0449 25.825 43.155 25.825C43.2371 25.825 43.2964 25.7464 43.274 25.6674L43.1643 25.2835C43.1443 25.2142 43.1072 25.1509 43.0562 25.0998L43.0272 25.0709C42.9179 24.9617 42.8567 24.8134 42.8567 24.659V21.7565H48.0346L48.1195 36.3668C48.1239 37.0959 48.6936 37.6982 49.421 37.7466C50.2199 37.8 50.901 37.1666 50.901 36.366V34.6623C50.901 34.5052 50.9329 34.3497 50.9948 34.2052L51.0129 34.1629C51.1191 33.9153 51.1255 33.6361 51.0311 33.3837C50.947 33.1596 50.9424 32.9132 51.0181 32.686L51.0278 32.6567C51.0663 32.5412 51.0859 32.4204 51.0859 32.2986V31.8848C51.0859 31.6753 51.0028 31.4746 50.8548 31.3266C50.7068 31.1786 50.6237 30.9779 50.6237 30.7685V29.3386V27.6126C50.6237 27.3639 50.754 27.1336 50.9672 27.0058C51.0455 26.9588 51.1142 26.8969 51.169 26.8237L51.1886 26.7977C51.302 26.6464 51.3632 26.4625 51.3632 26.2734V24.4379V22.1198C51.3632 21.8802 51.3146 21.6429 51.2202 21.4226L51.1608 21.284C51.1113 21.1686 51.0404 21.0636 50.9515 20.9749L50.5824 20.6057C50.447 20.4702 50.2323 20.455 50.0791 20.5699C50.0123 20.6199 49.9313 20.6469 49.848 20.6469H48.7855C48.5381 20.6469 48.2975 20.5667 48.0995 20.4183C48.0562 20.3858 48.0154 20.3504 47.9771 20.3121L47.967 20.3018C47.7142 20.0492 47.3715 19.9072 47.0142 19.9072H45.3531H43.4035C43.2362 19.9072 43.0814 19.995 42.9952 20.1384C42.9092 20.2818 42.7542 20.3696 42.587 20.3696H42.0245Z" fill="#7F1D1D"/>
  <path d="M45.5131 28.6056L45.596 28.2743C45.6183 28.1852 45.6684 28.1056 45.7389 28.0468C45.9613 27.8613 46.2997 27.9425 46.4139 28.2087L46.6663 28.7976C46.7147 28.911 46.7399 29.033 46.7399 29.1563V30.2528C46.7399 30.7186 46.3624 31.0961 45.8966 31.0961C45.6147 31.0961 45.3514 30.9553 45.195 30.7207L45.091 30.5646C44.9603 30.3685 44.8906 30.1382 44.8906 29.9025V29.6339C44.8906 29.392 45.0114 29.1662 45.2127 29.032C45.3624 28.9322 45.4696 28.7802 45.5131 28.6056Z" fill="#7F1D1D"/>
  <path d="M32.3256 20.7902L31.1144 20.9248H29.7274C29.2305 20.9248 28.7893 21.2428 28.6322 21.7143L28.5839 21.8588C28.5452 21.9753 28.5223 22.0965 28.5157 22.219L28.433 23.7912L28.248 25.6404V28.0446V29.8938L28.368 30.913C28.4089 31.2607 28.6124 31.5683 28.9161 31.7419C29.0247 31.804 29.1431 31.847 29.2662 31.8693L29.5542 31.9217C29.9054 31.9856 30.2678 31.9258 30.5798 31.7524C30.8093 31.625 31.0672 31.5582 31.3295 31.5582H33.0563L35.0483 31.4844C35.3829 31.472 35.714 31.412 36.0318 31.306L36.5617 31.1295C36.6283 31.1072 36.6899 31.0728 36.7439 31.0279C36.9979 30.8161 37.0155 30.4318 36.7814 30.198L36.6804 30.0969C36.5505 29.9668 36.4773 29.7905 36.4773 29.6068V27.5823V26.0103C36.4773 25.806 36.6429 25.6404 36.8472 25.6404C37.0516 25.6404 37.2171 25.4749 37.2171 25.2706V23.8837C37.2171 23.6794 37.0516 23.5138 36.8472 23.5138C36.6429 23.5138 36.4773 23.3483 36.4773 23.144V22.7741L36.4291 21.905C36.4012 21.4043 36.1394 20.946 35.7223 20.6679C35.4324 20.4746 35.087 20.3817 34.7394 20.4035L34.1402 20.4409C33.9113 20.4553 33.6843 20.4929 33.4631 20.5532L33.2188 20.6199C32.926 20.6997 32.6272 20.7567 32.3256 20.7902Z" fill="#7F1D1D"/>
  <path d="M31.0311 26.4506H31.4093C31.6126 26.4506 31.7899 26.312 31.8394 26.1147C31.8481 26.0797 31.8526 26.0436 31.8526 26.0073V25.0902V24.1184V23.1654C31.8526 23.0248 31.8258 22.8852 31.7734 22.7547L31.7144 22.6075C31.6777 22.5153 31.6163 22.4351 31.5369 22.3758C31.373 22.2529 31.1538 22.2331 30.9705 22.3246L30.8078 22.4061C30.7274 22.4463 30.6542 22.4991 30.5907 22.5626L30.4648 22.6885C30.2926 22.8607 30.1753 23.0799 30.1274 23.3186C30.1116 23.3982 30.1035 23.4793 30.1035 23.5605V24.0213V25.2844V25.523C30.1035 26.0351 30.5188 26.4506 31.0311 26.4506Z" fill="white"/>
  <path d="M33.7949 22.37L34.2951 22.2032C34.3481 22.1855 34.406 22.1896 34.4559 22.2146C34.5273 22.2503 34.5722 22.3232 34.5722 22.4028V23.1474V24.5076V25.2319C34.5722 25.6368 34.244 25.9651 33.839 25.9651H33.8137C33.7372 25.9651 33.6613 25.9505 33.5902 25.9222L33.4357 25.8604C33.3007 25.8063 33.2118 25.6754 33.2118 25.5296C33.2118 25.4352 33.2493 25.3447 33.3161 25.2779L33.3448 25.2492C33.385 25.209 33.4353 25.1806 33.4906 25.1667L33.5378 25.155C33.6798 25.1195 33.766 24.9754 33.7306 24.8336C33.7099 24.7509 33.651 24.6832 33.5718 24.6517L33.4335 24.5962C33.292 24.5397 33.1798 24.4276 33.1234 24.2861L33.0778 24.1725C33.038 24.0729 33.0176 23.9667 33.0176 23.8595V23.3222C33.0176 23.2705 33.0219 23.2189 33.0304 23.1678C33.0829 22.8523 33.2926 22.5853 33.5866 22.4593L33.7949 22.37Z" fill="white"/>
  <path d="M30.7142 27.7489L30.5893 27.8114L30.5693 27.8215C30.3367 27.9378 30.1709 28.1549 30.1198 28.4098C30.1091 28.4642 30.1035 28.5197 30.1035 28.5751V29.3663V29.7826C30.1035 29.9537 30.159 30.1205 30.2619 30.2574C30.3489 30.3737 30.4664 30.4636 30.601 30.5174L30.6957 30.5553C30.8161 30.6034 30.9485 30.6125 31.0742 30.5809C31.2012 30.5494 31.3146 30.478 31.3984 30.3776L31.5295 30.2203C31.6771 30.043 31.7726 29.8283 31.8054 29.5999L31.833 29.4052C31.846 29.3145 31.8526 29.223 31.8526 29.1314V28.7238C31.8526 28.5706 31.8215 28.4191 31.761 28.2782L31.687 28.1052C31.6068 27.9184 31.4507 27.7747 31.2577 27.7104C31.0786 27.6506 30.8831 27.6646 30.7142 27.7489Z" fill="white"/>
  <path d="M33.898 27.5195H33.9893C34.1153 27.5195 34.2382 27.5604 34.339 27.636C34.4858 27.7461 34.5722 27.9189 34.5722 28.1024V28.5882V29.2707C34.5722 29.3338 34.5654 29.3966 34.5516 29.4583L34.4947 29.7148C34.4287 30.0113 34.1458 30.207 33.8452 30.1641C33.7485 30.1503 33.6568 30.1123 33.5786 30.0536L33.4256 29.9389C33.3483 29.881 33.2796 29.8121 33.2217 29.7348C33.0891 29.5583 33.0176 29.3435 33.0176 29.1226V28.822C33.0176 28.7311 33.024 28.6404 33.037 28.5503L33.086 28.207C33.1048 28.0746 33.1568 27.9492 33.237 27.8424C33.3464 27.6962 33.5029 27.5925 33.6801 27.5482L33.6949 27.5445C33.7613 27.5278 33.8295 27.5195 33.898 27.5195Z" fill="white"/>
  <path d="M35.7903 33.3758L36.2076 32.9584C36.4192 32.7469 36.7062 32.6279 37.0054 32.6279C37.2118 32.6279 37.3792 32.7954 37.3792 33.002C37.3792 33.3648 37.2557 33.7172 37.0289 34.0007L37.0054 34.03L36.5379 34.4974L36.1608 34.8745C36.0396 34.9958 35.8951 35.091 35.7361 35.1547L35.6078 35.2059C35.5431 35.2318 35.474 35.2452 35.4041 35.2452H35.3208C35.0639 35.2452 34.8555 35.0368 34.8555 34.7799C34.8555 34.7168 34.8683 34.6545 34.8932 34.5966L35.0002 34.3467C35.0899 34.1376 35.2186 33.9473 35.3796 33.7865L35.7903 33.3758Z" fill="#93C5FD"/>
  <path d="M33.1724 13.3332L33.3489 13.2576C33.5887 13.1549 33.8646 13.1847 34.0767 13.3363C34.2728 13.4764 34.3893 13.7026 34.3893 13.9436V14.2644C34.3893 14.477 34.3398 14.6867 34.2446 14.8769L34.1514 15.0633C34.0617 15.2429 33.9367 15.4028 33.7843 15.5335L33.7509 15.5621C33.4994 15.7777 33.179 15.8963 32.8474 15.8963H32.6932C32.5792 15.8963 32.4668 15.8698 32.3648 15.8188C32.1161 15.6944 31.959 15.4402 31.959 15.1622V14.844C31.959 14.6749 31.9934 14.5075 32.06 14.3521L32.0734 14.3205C32.1817 14.0679 32.361 13.8523 32.5897 13.6998L32.9975 13.428C33.0528 13.3911 33.1114 13.3594 33.1724 13.3332Z" fill="#93C5FD"/>
  <path d="M45.203 8.97949H45.3333C45.5603 8.97949 45.7708 9.09863 45.8875 9.29333C45.9479 9.39378 45.9797 9.50873 45.9797 9.62588V9.98263C45.9797 10.1782 45.9019 10.3658 45.7636 10.5041L45.7267 10.5411C45.6479 10.6199 45.5475 10.6736 45.4382 10.6955C45.2512 10.7329 45.0957 10.8622 45.0248 11.0393L45.0126 11.0698C44.9726 11.1701 44.9071 11.2583 44.8227 11.3257L44.684 11.4368C44.5547 11.5403 44.3939 11.5967 44.2281 11.5967C43.8863 11.5967 43.5902 11.3592 43.5159 11.0253L43.4949 10.9307C43.4691 10.8151 43.4679 10.6955 43.4912 10.5794L43.519 10.4399C43.5984 10.0435 43.8318 9.69473 44.1683 9.47048L44.2038 9.44685L44.7382 9.11275C44.8776 9.02566 45.0386 8.97949 45.203 8.97949Z" fill="#93C5FD"/>
  <path d="M36.0831 36.6084H33.6826C33.3802 36.6084 33.0991 36.7643 32.9387 37.0208C32.7783 37.2773 32.4973 37.4331 32.1948 37.4331H32.0624H29.2789L26.1862 37.6393L23.4026 37.9486H21.4004C20.4765 37.9486 19.5619 38.1333 18.7104 38.4919C18.2659 38.6789 17.8031 38.8193 17.3294 38.9103L15.3614 39.2888L13.3234 39.4204C12.5592 39.4696 11.8127 39.6715 11.1277 40.014C10.8578 40.1488 10.5777 40.2622 10.2899 40.3531L8.76347 40.8352L6.39234 41.2476L4.22739 41.5569L2.71343 41.8092C2.48669 41.847 2.26625 41.9158 2.05827 42.0136L0.872642 42.5715C0.717906 42.6445 0.619141 42.7999 0.619141 42.9711C0.619141 43.2148 0.816798 43.4125 1.06062 43.4125H3.09337C4.53421 43.4125 5.97258 43.2936 7.3938 43.0566L8.3511 42.8971L11.3408 42.6909H13.0345C13.8286 42.6909 14.6216 42.6311 15.4068 42.5121L16.17 42.3964C17.1381 42.2498 18.0806 41.9672 18.9697 41.5569C19.9882 41.0816 21.0985 40.8352 22.2224 40.8352H23.4026L26.5985 40.5259H29.8975H32.0624L34.2911 40.2688C34.5909 40.2342 34.8849 40.1599 35.1651 40.0478C35.5672 39.887 35.9963 39.8043 36.4292 39.8043H37.5264L40.8253 39.495L41.4773 39.3946C41.9336 39.3245 42.3977 39.322 42.8548 39.3874L42.9581 39.402C43.389 39.4637 43.8074 39.5942 44.1969 39.789C44.7593 40.0703 45.3796 40.2166 46.0084 40.2166H47.2171L49.6913 40.5259H52.1655H53.4637C53.7655 40.5259 54.0668 40.4917 54.361 40.4237C54.9515 40.2874 55.5651 40.2874 56.1556 40.4237L56.5985 40.5259C57.8276 40.9356 59.1146 41.1445 60.4103 41.1445H60.675C61.461 41.1445 62.2455 41.2121 63.02 41.347L64.2274 41.5569L66.2189 41.9397C66.6771 42.028 67.1426 42.0723 67.6092 42.0723C68.374 42.0723 69.1342 42.1915 69.8622 42.4255L71.6501 43.0002L74.3049 43.5311C74.587 43.5876 74.8383 43.7459 75.0107 43.976C75.2315 44.2703 75.5779 44.4434 75.9457 44.4434H77.5037C77.5874 44.4434 77.6711 44.4373 77.7538 44.4249L78.7189 44.2799C79.2307 44.2032 79.5544 43.689 79.402 43.1944C79.3245 42.942 79.1336 42.7404 78.8859 42.6492L77.3202 42.0723L75.3614 41.3507L73.2996 40.5259L71.1346 39.9074L69.7047 39.6587C69.0781 39.5496 68.4606 39.394 67.8571 39.1929L67.5393 39.087C67.1189 38.9467 66.6882 38.8399 66.2511 38.767C65.4558 38.6344 64.6457 38.616 63.8453 38.7119L63.5942 38.7422C62.8503 38.8315 62.0987 38.8389 61.353 38.7643L59.382 38.5672L58.0587 38.2731C57.7082 38.1952 57.3793 38.0404 57.0958 37.8199C56.7697 37.5663 56.3841 37.4002 55.9758 37.3373L55.5631 37.2738C55.3602 37.2426 55.1552 37.227 54.9499 37.227H53.2996H51.9198C51.4016 37.227 50.889 37.1218 50.413 36.9177C49.9369 36.7136 49.4243 36.6084 48.9062 36.6084H47.6294H45.8769H43.1965H41.2377H38.9697H36.0831Z" fill="#22C55E"/>
  </svg>
  