<svg width="48" height="44" viewBox="0 0 48 44" fill="none" xmlns="http://www.w3.org/2000/svg">
  <path d="M12 18L24 10.2L39.6 21L40.8 42H7.2L12 18Z" fill="#D9D9D9"/>
  <path d="M23.7383 0.0522179C23.7203 0.105497 23.576 0.158776 23.4136 0.176535C23.2603 0.185415 23.1521 0.212054 23.1701 0.229814C23.2152 0.274213 22.647 0.638285 22.5568 0.611646C22.5298 0.602766 22.4486 0.664925 22.3764 0.753723C22.2682 0.895799 22.2772 0.895799 22.4396 0.771482C22.5388 0.700444 22.3584 0.88692 22.0427 1.17107C21.718 1.46411 21.4204 1.69498 21.3843 1.67722C21.3483 1.66834 21.3122 1.7305 21.3122 1.81042C21.3122 1.89034 21.2851 1.92586 21.2581 1.89922C21.222 1.87258 21.1228 1.94362 21.0236 2.05905C20.9334 2.18337 20.8252 2.27217 20.7891 2.25441C20.753 2.24553 20.7079 2.27217 20.6899 2.32545C20.6267 2.45865 20.0134 2.99143 19.9142 2.99143C19.8601 2.99143 19.5444 3.29335 19.2017 3.65742C18.859 4.02149 18.5253 4.32341 18.4621 4.32341C18.39 4.32341 18.3359 4.35892 18.3359 4.4122C18.3359 4.4566 18.1826 4.59868 18.0022 4.71412C17.8128 4.82955 17.3257 5.25579 16.9199 5.6465C16.505 6.04609 16.1713 6.348 16.1713 6.31248C16.1713 6.28584 16.1082 6.3036 16.036 6.36576C15.9638 6.42792 15.9278 6.50784 15.9458 6.55224C15.9729 6.58776 15.9007 6.66768 15.7925 6.72983C15.6752 6.79199 15.4858 6.94295 15.3686 7.06727C15.2513 7.19158 15.1882 7.23598 15.2243 7.16494C15.2604 7.09391 15.098 7.2271 14.8635 7.47574C14.638 7.71549 14.4667 7.85757 14.5027 7.78653C14.5388 7.71549 14.4216 7.80429 14.2592 7.99077C14.0969 8.16836 13.9165 8.31932 13.8534 8.31932C13.7993 8.31932 13.7181 8.36372 13.682 8.42588C13.6369 8.48804 13.655 8.49692 13.7361 8.45252C13.8173 8.40812 13.8353 8.417 13.7902 8.47916C13.7542 8.54131 13.673 8.58571 13.6099 8.58571C13.5467 8.58571 13.4114 8.71003 13.2942 8.85211C13.186 9.00306 13.0597 9.10074 13.0056 9.0741C12.9605 9.03858 12.8973 9.09186 12.8613 9.17178C12.7981 9.33162 12.2209 9.87328 12.1127 9.87328C12.0766 9.87328 11.779 10.1486 11.4362 10.4949C11.1025 10.8323 10.859 11.0543 10.8951 10.9833C10.9222 10.9122 10.8771 10.93 10.7869 11.0277C10.6967 11.1253 10.363 11.4184 10.0383 11.6848C9.7136 11.9512 9.46106 12.1998 9.4791 12.2442C9.48812 12.2797 9.46106 12.3064 9.42498 12.2975C9.37989 12.2797 9.08226 12.5372 8.74855 12.8658C8.42386 13.2032 8.09917 13.4696 8.03604 13.4696C7.9729 13.4696 7.83762 13.5673 7.74743 13.6916C7.65724 13.8159 7.53097 13.9136 7.46783 13.9136C7.4047 13.9136 7.24236 14.0557 7.11609 14.2244C6.9808 14.3931 6.82748 14.5263 6.76434 14.5085C6.70121 14.4997 6.66513 14.5441 6.68317 14.6062C6.69219 14.6595 6.67415 14.7039 6.63807 14.695C6.59298 14.6861 6.37652 14.8549 6.14202 15.0857C5.90753 15.3077 5.70009 15.4764 5.68205 15.4587C5.66401 15.4409 5.57382 15.5031 5.48363 15.6008C5.39344 15.6984 5.35736 15.7784 5.39344 15.7784C5.42951 15.7784 5.3754 15.8583 5.25815 15.956C5.1409 16.0536 4.99659 16.1335 4.92444 16.1335C4.86131 16.1335 4.80719 16.1868 4.80719 16.2579C4.80719 16.3289 4.7621 16.4177 4.69896 16.4532C4.63583 16.4976 4.62681 16.4799 4.67191 16.3911C4.74406 16.2845 4.72602 16.2845 4.59975 16.3822C4.51858 16.4532 4.42839 16.5775 4.40133 16.6752C4.36526 16.7729 4.30212 16.8262 4.25703 16.7907C4.20291 16.764 4.13978 16.8173 4.11272 16.915C4.08566 17.0126 4.00449 17.1192 3.93234 17.1458C3.85117 17.1814 3.82411 17.1636 3.8692 17.0837C3.9143 17.0304 3.62569 17.2879 3.23787 17.6609C2.85004 18.0427 2.48928 18.3535 2.42614 18.3535C2.31791 18.3535 1.95715 18.7265 2.00225 18.7975C2.01126 18.8241 1.94813 18.8774 1.85794 18.9307C1.76775 18.9751 1.66854 19.055 1.63246 19.1083C1.58737 19.1704 1.56031 19.1704 1.56031 19.1083C1.56031 19.055 1.42502 19.1438 1.26268 19.3036C1.10935 19.4546 0.811721 19.7387 0.6133 19.9252C0.41488 20.1117 0.243516 20.2982 0.234497 20.3337C0.216459 20.3692 0.189402 20.4935 0.153325 20.6178C0.126268 20.7422 0.0631339 20.8398 0.0270574 20.8398C-0.00901912 20.8398 -0.00901912 21.0086 0.0270574 21.2128C0.072153 21.4259 0.0811721 21.6124 0.0631339 21.6301C0.0450956 21.6479 0.162344 21.7989 0.333708 21.9587C0.505071 22.1185 0.62232 22.2695 0.604281 22.2873C0.559186 22.3228 0.658396 22.3405 1.24464 22.3849C1.56933 22.4116 1.74069 22.3849 1.85794 22.2873C1.93911 22.2073 2.01126 22.1718 2.01126 22.1985C2.01126 22.2251 2.11047 22.1629 2.22772 22.0564C2.34497 21.9498 2.53437 21.79 2.65162 21.7012C2.94023 21.4969 3.7249 20.8132 4.26605 20.2804C4.50956 20.0495 4.75308 19.8631 4.80719 19.8631C4.86131 19.8631 4.87935 19.8187 4.85229 19.7743C4.82523 19.721 4.83425 19.6855 4.87033 19.6855C4.94248 19.6855 5.32128 19.3836 5.80832 18.9307C5.93458 18.8064 6.06987 18.7087 6.11497 18.7087C6.15104 18.7087 6.31339 18.5666 6.48475 18.3979C6.64709 18.2292 6.82748 18.0871 6.88159 18.0871C6.93571 18.0871 6.95374 18.0427 6.92669 17.9983C6.89963 17.945 6.90865 17.9095 6.96276 17.9095C7.00786 17.9095 7.37764 17.5898 7.77448 17.1991C8.18034 16.8084 8.56817 16.4887 8.64032 16.4887C8.71247 16.4887 8.76659 16.4532 8.75757 16.4088C8.73051 16.3289 9.63242 15.4942 9.68654 15.5475C9.70458 15.5652 9.80379 15.4942 9.903 15.3965C10.0022 15.2988 10.0202 15.2544 9.94809 15.29C9.87594 15.3255 9.99319 15.2012 10.2187 15.0147C10.4351 14.8282 10.6516 14.6773 10.6877 14.695C10.7237 14.7039 10.7598 14.6595 10.7598 14.6062C10.7598 14.4997 11.3641 13.958 11.4813 13.958C11.6166 13.9491 11.7429 13.7982 11.6978 13.7182C11.6617 13.665 11.6798 13.6472 11.7339 13.6827C11.788 13.7094 11.9052 13.6383 12.0045 13.514C12.1037 13.3897 12.2209 13.292 12.266 13.292C12.3021 13.292 12.4374 13.1677 12.5636 13.0256C12.6899 12.8747 12.8162 12.7592 12.8523 12.7592C12.8883 12.7592 13.0507 12.626 13.213 12.4662C13.3754 12.3152 13.5918 12.1376 13.691 12.0755C13.7902 12.0222 13.8624 11.9334 13.8444 11.8801C13.8353 11.8268 13.8624 11.7824 13.9075 11.7824C13.9526 11.7824 14.0608 11.7114 14.151 11.6226C14.2412 11.5427 14.3314 11.4716 14.3584 11.4628C14.3855 11.4628 14.638 11.2408 14.9086 10.9744C15.1882 10.708 15.5399 10.3972 15.7023 10.2818C15.8556 10.1663 15.9909 10.0154 15.9909 9.9532C15.9909 9.88216 16.027 9.82889 16.0631 9.82889C16.1442 9.82889 16.2795 9.72233 16.8477 9.22506C17.001 9.09186 17.1544 8.99418 17.1904 9.01194C17.2355 9.02082 17.2446 8.99418 17.2085 8.94979C17.1814 8.89651 17.2446 8.81659 17.3528 8.75443C17.461 8.70115 17.6504 8.55019 17.7677 8.417C17.8939 8.29268 17.9571 8.24828 17.921 8.31932C17.8849 8.39036 18.0292 8.25716 18.2457 8.02629C18.4531 7.79541 18.6515 7.61781 18.6696 7.64445C18.6966 7.67109 18.8049 7.60005 18.9131 7.48462C19.0123 7.36918 19.2107 7.20934 19.355 7.12054C19.4903 7.04063 19.5986 6.91631 19.5986 6.84527C19.5986 6.78311 19.6437 6.70319 19.7068 6.66767C19.7699 6.62328 19.788 6.64992 19.7429 6.72983C19.7068 6.80087 19.7789 6.72983 19.9052 6.58776C20.0315 6.4368 20.1397 6.29472 20.1397 6.25032C20.1397 6.21481 20.1848 6.18817 20.2299 6.18817C20.284 6.18817 20.4373 6.08161 20.5726 5.93953C20.9965 5.53994 21.2581 5.3357 21.1859 5.47778C21.1408 5.54882 21.213 5.48666 21.3392 5.34458C21.8353 4.75852 21.9345 4.66084 22.0247 4.71412C22.0698 4.74964 22.1419 4.723 22.178 4.66972C22.2231 4.59868 22.2051 4.5898 22.1149 4.6342C22.0427 4.66972 22.2321 4.48324 22.5208 4.20797C22.8184 3.93269 23.089 3.72846 23.116 3.74622C23.1521 3.77286 23.2603 3.70182 23.3505 3.58638C23.5219 3.39991 23.5219 3.39991 23.3415 3.51534C23.2423 3.58638 23.3415 3.47094 23.567 3.27559C23.9277 2.94703 24.2975 2.76944 24.1622 2.98255C24.1352 3.01807 24.1983 3.13351 24.3156 3.22231C24.505 3.39103 24.505 3.39103 24.3787 3.21343C24.3065 3.11575 24.4508 3.21343 24.6944 3.43542C24.9379 3.65742 25.1814 3.87941 25.2445 3.93269C25.3077 3.99485 25.3437 4.05701 25.3167 4.07477C25.2986 4.10141 25.3528 4.17245 25.4339 4.24349C25.5782 4.35892 25.5873 4.35004 25.479 4.21685C25.3708 4.08365 25.3798 4.06589 25.5331 4.08365C25.6323 4.08365 25.6955 4.13693 25.6684 4.19021C25.6143 4.33228 25.8759 4.52764 26.0112 4.44772C26.0833 4.4122 26.0923 4.42108 26.0562 4.48324C25.9751 4.61644 26.1645 4.96275 26.2817 4.90059C26.3268 4.86507 26.39 4.90947 26.417 4.98051C26.4441 5.05155 26.5433 5.14035 26.6335 5.16699C26.7327 5.19363 26.8319 5.30018 26.8589 5.39786C26.895 5.48666 26.9491 5.54882 26.9852 5.53106C27.0754 5.4689 27.815 6.15265 27.7428 6.22368C27.7158 6.25032 27.7879 6.31248 27.9142 6.35688C28.0314 6.40128 28.2569 6.57888 28.4102 6.74759C28.5636 6.92519 28.7079 7.04951 28.7259 7.03175C28.7439 7.00511 29.0416 7.26262 29.3843 7.5823C29.736 7.91085 29.9615 8.14172 29.8894 8.09732C29.7992 8.05292 29.7811 8.0618 29.8262 8.13284C29.8623 8.18612 29.9255 8.21276 29.9615 8.195C30.0517 8.13284 30.6921 8.72779 30.6199 8.81659C30.5838 8.85211 30.6109 8.85211 30.665 8.81659C30.7372 8.78107 30.8634 8.84323 30.9807 8.96755C31.0979 9.08298 31.2603 9.2073 31.3595 9.23394C31.4677 9.27834 31.5038 9.34938 31.4677 9.44705C31.4316 9.53585 31.4316 9.57137 31.4677 9.54473C31.5038 9.50921 31.6301 9.55361 31.7563 9.65129C31.8736 9.74897 32.0179 9.80225 32.072 9.76673C32.1171 9.74009 32.1351 9.75785 32.1081 9.80225C32.072 9.85553 32.1081 9.94432 32.1802 10.0065C32.2524 10.0686 32.2885 10.1574 32.2524 10.2196C32.2253 10.2729 32.2253 10.2906 32.2704 10.2551C32.3065 10.2196 32.4598 10.2818 32.6041 10.4061C32.7575 10.5304 32.9288 10.6014 33.019 10.5748C33.1182 10.5393 33.1363 10.5481 33.0641 10.6014C32.9829 10.6636 32.9829 10.7257 33.0641 10.8945C33.1272 11.0188 33.2174 11.1165 33.2625 11.1165C33.4339 11.1165 34.1103 11.7203 34.0562 11.818C34.0292 11.8712 34.0292 11.889 34.0742 11.8535C34.1825 11.7558 35.0303 12.4928 34.9581 12.6083C34.9311 12.6704 34.9311 12.6882 34.9762 12.6527C35.0483 12.5905 36.0043 13.363 36.9153 14.2066C36.9874 14.2777 37.258 14.5085 37.5015 14.7128C39.3414 16.249 40.3425 17.1636 40.3425 17.3057C40.3425 17.3501 40.3786 17.3678 40.4327 17.3323C40.5229 17.279 41.3797 18.0693 41.3797 18.2114C41.3797 18.2647 41.4248 18.3091 41.4699 18.3091C41.6233 18.3091 42.1464 18.7353 42.1464 18.8596C42.1464 18.9218 42.1824 18.9662 42.2185 18.9573C42.3177 18.9218 43.0483 19.5523 43.0483 19.6677C43.0483 19.7299 43.0844 19.7654 43.1204 19.7565C43.2467 19.7121 44.0404 20.4136 43.9772 20.5113C43.9502 20.5646 43.9682 20.5735 44.0314 20.5379C44.1576 20.458 44.8701 21.0974 44.789 21.2217C44.7619 21.275 44.7709 21.2838 44.816 21.2572C44.9243 21.195 45.5015 21.6834 45.4203 21.7633C45.3932 21.79 45.4203 21.8166 45.5015 21.8166C45.5736 21.8166 45.7089 21.8965 45.8081 22.0031C45.8983 22.1008 46.0516 22.2251 46.1328 22.2695C46.3493 22.3849 47.1159 22.5181 47.0618 22.4382C47.0347 22.4027 47.1159 22.3405 47.2331 22.3139C47.3504 22.2873 47.5759 22.1185 47.7382 21.9409C47.9998 21.639 48.0178 21.5857 47.9908 21.0174C47.9817 20.68 47.9457 20.4225 47.9096 20.4491C47.8735 20.4669 47.7923 20.3692 47.7292 20.2271C47.6661 20.0851 47.5849 19.9785 47.5488 20.0051C47.5127 20.0229 47.4226 19.9696 47.3594 19.8808C47.2963 19.7831 47.2061 19.7032 47.152 19.6943C47.1069 19.6943 47.0618 19.65 47.0618 19.6056C47.0618 19.4901 46.9355 19.3747 46.8092 19.3747C46.7461 19.3658 46.71 19.3214 46.7191 19.2592C46.7371 19.206 46.683 19.1793 46.6198 19.206C46.5477 19.2326 46.4665 19.1793 46.4395 19.0816C46.4034 18.9928 46.2771 18.8152 46.1418 18.6998C46.0156 18.5844 45.9344 18.5489 45.9795 18.6199C46.0156 18.6909 45.8081 18.5133 45.5195 18.2203C45.2309 17.9273 45.0235 17.7497 45.0686 17.8207C45.1046 17.8917 45.0415 17.8474 44.9243 17.7053C44.807 17.5721 44.6627 17.4655 44.6086 17.4655C44.5545 17.4655 44.4913 17.4389 44.4733 17.3945C44.4643 17.359 44.2659 17.1725 44.0404 16.9771C43.8149 16.7818 43.6435 16.6131 43.6616 16.6042C43.6706 16.5864 43.6526 16.5775 43.6165 16.5687C43.4902 16.5509 42.8228 15.9204 42.8499 15.8494C42.8589 15.805 42.8138 15.7872 42.7597 15.7961C42.6965 15.8139 42.6514 15.7695 42.6695 15.7073C42.6785 15.654 42.6514 15.6096 42.6063 15.6185C42.5071 15.654 41.3346 14.5618 41.4068 14.4997C41.4339 14.473 41.4068 14.4464 41.3527 14.4464C41.2986 14.4464 41.046 14.2421 40.8025 13.9935C40.55 13.736 40.3425 13.5673 40.3425 13.6028C40.3425 13.665 39.8645 13.2387 39.3144 12.6882C39.1971 12.5639 39.0979 12.3419 39.0708 12.111C39.0528 11.9068 39.0348 9.77561 39.0348 7.36918C39.0438 3.86166 39.0167 2.99143 38.9265 2.95591C38.8634 2.92928 38.8093 2.84936 38.8093 2.76944C38.8093 2.6984 38.7732 2.63624 38.7191 2.63624C38.674 2.63624 38.6289 2.57408 38.6289 2.50304C38.6289 2.29881 38.3042 2.18337 37.5827 2.13009C37.2129 2.10345 36.9153 2.04129 36.9153 2.00578C36.9153 1.96138 36.798 1.92586 36.6447 1.92586C36.5004 1.92586 36.3741 1.97026 36.3741 2.01466C36.3741 2.07681 35.833 2.10345 34.8499 2.09457C33.6413 2.09457 33.2625 2.12121 33.0551 2.22777C32.9108 2.29881 32.7665 2.34321 32.7484 2.31657C32.7214 2.29881 32.6492 2.35209 32.5771 2.43201C32.4598 2.58296 32.4688 2.58296 32.6312 2.46753C32.7304 2.40537 32.7033 2.44089 32.5771 2.5652C32.4508 2.68064 32.3606 2.82272 32.3877 2.88488C32.4057 2.94703 32.3877 2.99143 32.3426 2.99143C32.3065 2.99143 32.2794 3.55974 32.2794 4.25237C32.2885 5.12259 32.2704 5.39786 32.2253 5.12259C32.1712 4.82068 32.1532 4.93611 32.1622 5.62874C32.1802 6.4368 32.1622 6.5256 32.0269 6.51672C31.9367 6.50784 31.8646 6.47232 31.8646 6.42792C31.8646 6.38352 31.6481 6.16153 31.3956 5.93953C31.134 5.70866 30.7552 5.36234 30.5478 5.16699C30.3403 4.97163 30.0968 4.7674 30.0066 4.70524C29.9164 4.65196 29.8443 4.56316 29.8533 4.50988C29.8713 4.4566 29.8533 4.42108 29.8082 4.42996C29.691 4.46548 29.3392 4.22573 29.3392 4.11029C29.3392 4.04813 29.249 3.92381 29.1408 3.82614C28.9424 3.65742 28.9333 3.65742 29.0596 3.83502C29.1318 3.93269 29.0235 3.85278 28.8341 3.65742C28.6447 3.46206 28.3561 3.22231 28.2028 3.12463C28.0405 3.02695 27.7789 2.77832 27.6346 2.57408C27.4813 2.36097 27.3189 2.20113 27.2738 2.21889C27.2287 2.22777 27.0123 2.05017 26.7868 1.81042C26.5703 1.57954 26.3449 1.39307 26.2907 1.39307C26.2366 1.39307 26.0472 1.22435 25.8578 1.01124C25.6774 0.807001 25.5602 0.700444 25.6053 0.771482C25.6414 0.842521 25.5512 0.807001 25.3979 0.682684C25.2445 0.558367 25.1363 0.43405 25.1634 0.39853C25.1814 0.363011 25.1363 0.354131 25.0641 0.380771C24.983 0.41629 24.9018 0.371891 24.8657 0.291973C24.8387 0.212054 24.7755 0.176535 24.7304 0.203175C24.6853 0.229814 24.6493 0.212054 24.6493 0.176535C24.6493 0.132136 24.4779 0.114377 24.2795 0.132136C24.045 0.158776 23.8826 0.132136 23.8375 0.0610977C23.7924 -0.0188206 23.7564 -0.0188206 23.7383 0.0522179Z" fill="#1D4ED8"/>
  <path d="M37.2129 1.98801C37.2941 2.00577 37.4384 2.00577 37.5286 1.98801C37.6097 1.96138 37.5376 1.94362 37.3662 1.94362C37.1949 1.94362 37.1227 1.96138 37.2129 1.98801Z" fill="#1D4ED8"/>
  <path d="M23.6121 6.24144C23.4678 6.36576 23.2333 6.57 23.098 6.68543C22.9627 6.80975 22.8274 6.89855 22.8003 6.89855C22.7643 6.88967 22.647 6.98735 22.5208 7.12055C22.4035 7.24486 22.3043 7.32478 22.3043 7.29814C22.3043 7.12943 21.8443 7.81317 21.7992 8.04405C21.7631 8.195 21.709 8.31932 21.6639 8.31932C21.6188 8.31932 21.6098 8.25716 21.6459 8.17724C21.682 8.07069 21.6098 8.08845 21.3483 8.25716C21.0506 8.44364 20.9965 8.51468 21.0236 8.75443C21.0326 8.90539 21.0055 9.02971 20.9514 9.02971C20.9063 9.02971 20.8612 8.96755 20.8612 8.88763C20.8612 8.78995 20.8161 8.76331 20.7169 8.79883C20.6358 8.82547 20.5275 8.85211 20.4824 8.85211C20.4283 8.85211 20.4103 8.87875 20.4373 8.91427C20.5185 8.98531 19.8691 9.56249 19.7068 9.56249C19.6437 9.56249 19.5625 9.63353 19.5354 9.71345C19.4543 9.91769 18.859 10.4505 18.7778 10.3972C18.7417 10.3794 18.6786 10.4061 18.6425 10.4594C18.5974 10.5304 18.6245 10.5482 18.7057 10.4949C18.7778 10.4594 18.6696 10.5748 18.4712 10.7524C18.2727 10.93 18.0202 11.1165 17.903 11.1609C17.7857 11.2141 17.7226 11.2941 17.7496 11.3385C17.7767 11.3917 17.7316 11.4539 17.6414 11.4894C17.5512 11.5249 17.4249 11.6226 17.3618 11.7114C17.2987 11.8002 17.1995 11.8535 17.1544 11.818C17.1093 11.7913 17.0822 11.8091 17.0912 11.8535C17.1273 11.9689 16.2074 12.7681 16.1262 12.6882C16.0811 12.6527 16.0811 12.6704 16.1082 12.7237C16.1352 12.777 16.0811 12.8835 15.9819 12.9635C15.8827 13.0523 15.8286 13.1677 15.8646 13.221C15.9007 13.2831 15.8917 13.292 15.8195 13.2565C15.7023 13.1766 15.4317 13.3631 15.4949 13.4696C15.5219 13.514 15.6301 13.5229 15.7474 13.5051C15.9278 13.4696 15.9278 13.4696 15.7654 13.5495C15.6392 13.6028 15.5309 13.585 15.4137 13.4785C15.3145 13.3986 15.2604 13.3808 15.2964 13.4341C15.3596 13.5318 15.0439 13.9047 14.7733 14.0557C14.6561 14.1178 14.5839 14.2688 14.5659 14.4553C14.5298 14.8105 14.2322 15.1568 13.9706 15.1568C13.8173 15.1568 13.8083 15.1745 13.9165 15.2456C14.0067 15.3077 14.0157 15.3521 13.9526 15.3965C13.8985 15.4409 13.8353 15.5386 13.7993 15.6185C13.7361 15.7872 13.4656 15.8405 13.4656 15.6896C13.4656 15.6363 13.5106 15.6008 13.5557 15.6008C13.6099 15.6008 13.6459 15.5564 13.6459 15.512C13.6459 15.4587 13.5828 15.4232 13.5016 15.4232C13.4205 15.4232 13.3934 15.3788 13.4295 15.3077C13.4746 15.2456 13.4024 15.2633 13.2852 15.3432C13.1499 15.432 13.0687 15.5652 13.0867 15.654C13.1048 15.7517 13.0777 15.7872 13.0417 15.734C12.9515 15.6185 12.7891 15.6185 12.6809 15.7251C12.6358 15.7695 12.6538 15.7784 12.726 15.7428C12.7801 15.7073 12.8342 15.6984 12.8342 15.7251C12.8342 15.8139 12.4734 16.1336 12.3833 16.1336C12.3291 16.1336 12.2931 16.1957 12.3111 16.2756C12.3291 16.3644 12.284 16.4443 12.2119 16.471C12.1307 16.4976 12.1127 16.471 12.1578 16.3911C12.2029 16.32 12.1939 16.2934 12.1488 16.3378C12.0676 16.4177 12.0586 16.4355 12.0315 16.7285C12.0135 16.8617 11.9954 16.8528 11.9323 16.6841C11.8241 16.4443 11.7158 16.4266 11.779 16.6663C11.806 16.764 11.797 16.8262 11.7519 16.7995C11.7158 16.7818 11.6076 16.8439 11.5174 16.9594C11.3461 17.1458 11.3461 17.1458 11.5264 17.0215C11.6798 16.915 11.6888 16.915 11.5896 17.0215C11.5264 17.0926 11.4362 17.1547 11.3912 17.1547C11.3551 17.1547 11.1927 17.2435 11.0304 17.359C10.8139 17.5188 10.7598 17.6076 10.8049 17.7586C10.841 17.8651 10.832 17.9095 10.7869 17.8562C10.6786 17.7053 10.2998 17.874 10.2457 18.0871C10.2187 18.1848 10.1646 18.2469 10.1285 18.2203C10.0924 18.1937 10.0293 18.2381 10.0022 18.318C9.96613 18.4068 9.89398 18.4423 9.80379 18.4068C9.6685 18.3535 9.6685 18.3713 9.77673 18.5045C9.84888 18.5844 9.8579 18.6288 9.80379 18.5933C9.67752 18.5222 9.02814 19.055 9.1003 19.1704C9.13637 19.2237 9.12735 19.2415 9.07324 19.2148C9.02814 19.1882 8.79365 19.348 8.54111 19.5612C7.84664 20.1916 7.42274 20.5291 7.33255 20.5291C7.27843 20.5291 7.24236 20.5557 7.23334 20.5912C7.22432 20.7155 6.56592 21.3371 6.48475 21.2927C6.43965 21.275 6.43064 21.2927 6.45769 21.346C6.51181 21.4348 6.34044 21.9054 6.25025 21.9054C6.2232 21.9054 6.24123 22.9355 6.27731 24.1875C6.31339 25.4485 6.33143 29.5509 6.29535 33.316C6.25025 39.2743 6.26829 40.2245 6.38554 40.6685C6.45769 40.9526 6.49377 41.2279 6.46671 41.2812C6.43064 41.3433 6.44867 41.3522 6.50279 41.3167C6.56592 41.2812 6.61102 41.3078 6.61102 41.3877C6.61102 41.6364 6.62004 41.663 6.75532 41.734C6.82748 41.7784 6.86355 41.8406 6.8365 41.8939C6.80042 41.9383 6.80944 41.9738 6.85453 41.9738C6.89061 41.9738 7.10707 42.1336 7.32353 42.329C7.53999 42.5155 7.8737 42.7552 8.0631 42.844C8.2525 42.9417 8.3968 43.0305 8.37877 43.0482C8.28857 43.137 9.72262 43.1459 23.9819 43.1814C39.0258 43.217 39.152 43.217 39.5759 43.0394C39.8104 42.9417 40.0449 42.8884 40.099 42.9239C40.1622 42.9506 40.1802 42.9506 40.1441 42.9062C40.072 42.8351 40.9649 42.0892 41.0821 42.1247C41.1182 42.1425 41.1272 42.0715 41.1092 41.9738C41.0911 41.8672 41.1092 41.814 41.1633 41.8406C41.2084 41.8761 41.2445 41.8495 41.2445 41.7962C41.2445 41.7429 41.2805 41.7252 41.3346 41.7518C41.3888 41.7873 41.3978 41.7429 41.3617 41.6541C41.3256 41.5476 41.3346 41.5209 41.4158 41.5653C41.4699 41.6008 41.515 41.6008 41.497 41.5564C41.4699 41.4321 41.7225 40.4642 41.7766 40.4997C41.8036 40.5175 41.8217 36.3351 41.8127 31.2026L41.7946 21.8788L41.5782 21.4703C41.4429 21.2217 41.3076 21.0707 41.2174 21.0707C41.1362 21.0796 41.0821 21.053 41.1092 21.0174C41.1543 20.9553 40.6402 20.4403 40.4688 20.387C40.4147 20.3692 40.1892 20.1472 39.9818 19.9075C39.7653 19.6588 39.5579 19.4635 39.5218 19.4635C39.4767 19.4635 39.3595 19.3924 39.2602 19.3036C39.161 19.2237 39.0528 19.1527 39.0257 19.1527C38.9987 19.1527 38.8905 19.055 38.7913 18.9307C38.692 18.8064 38.5477 18.7087 38.4756 18.7087C38.3944 18.7087 38.3583 18.6821 38.3854 18.6465C38.4215 18.6199 38.4034 18.54 38.3493 18.4689C38.2591 18.3713 38.223 18.3801 38.1238 18.5045C38.0156 18.6554 38.0066 18.6465 38.0517 18.4778C38.0787 18.3713 38.0427 18.2292 37.9615 18.1581C37.8893 18.0782 37.8533 17.9894 37.8893 17.945C37.9254 17.9006 37.8803 17.9273 37.7901 17.9983C37.6999 18.0605 37.6368 18.0782 37.6458 18.0338C37.6819 17.8829 37.5286 17.6431 37.3843 17.6431C37.3121 17.6431 37.276 17.6165 37.3031 17.5898C37.3662 17.5277 36.9874 17.1991 36.8521 17.1991C36.807 17.1991 36.6808 17.1015 36.5725 16.9771C36.4643 16.8528 36.3381 16.7551 36.293 16.7551C36.2479 16.7551 36.1937 16.6663 36.1757 16.5509C36.1577 16.4443 36.0945 16.3644 36.0314 16.3822C35.9683 16.3911 35.7879 16.2667 35.6165 16.1158C35.0483 15.5652 34.5252 15.1035 34.3087 14.9614C34.1915 14.8815 34.1193 14.7749 34.1554 14.7305C34.1825 14.6861 34.0652 14.5707 33.8939 14.4819C33.7225 14.3931 33.5782 14.2866 33.5782 14.2422C33.5782 14.2066 33.5331 14.1978 33.47 14.2333C33.4068 14.2777 33.3888 14.251 33.4249 14.1622C33.4519 14.0734 33.3798 13.9402 33.2445 13.8159C33.1092 13.7005 33.0371 13.6472 33.0731 13.7094C33.1002 13.7626 33.0821 13.8426 33.028 13.8781C32.9649 13.9136 32.9469 13.9047 32.9739 13.8514C33.0641 13.7094 31.6391 12.484 31.4677 12.5461C31.3775 12.5816 31.3234 12.555 31.3234 12.4662C31.3234 12.2975 30.3403 11.3385 30.169 11.3385C30.0968 11.3385 30.0607 11.2852 30.0878 11.2141C30.1239 11.1253 30.0968 11.0987 30.0247 11.1253C29.9525 11.152 29.8713 11.1342 29.8353 11.0809C29.8082 11.0277 29.8262 10.9833 29.8894 10.9833C30.0247 10.9833 29.9074 10.8501 29.7631 10.8501C29.7 10.8412 29.6639 10.7879 29.6819 10.7258C29.691 10.6636 29.6729 10.637 29.6278 10.6636C29.5827 10.6902 29.3933 10.5482 29.2039 10.3528C28.9965 10.1308 28.8161 10.0154 28.7259 10.0509C28.6087 10.0953 28.6087 10.0775 28.7169 9.94433C28.8071 9.83777 28.8071 9.81113 28.7259 9.86441C28.6628 9.89993 28.5545 9.88217 28.4824 9.82889C28.293 9.66905 28.311 9.5181 28.5095 9.66017C28.6447 9.75785 28.6447 9.75785 28.5455 9.65129C28.4824 9.58025 28.4012 9.51809 28.3651 9.50922C28.1667 9.48258 27.833 9.28722 27.7158 9.1185C27.5444 8.86987 27.4452 8.76331 27.1115 8.48804C26.9672 8.3726 26.8229 8.20388 26.7868 8.11509C26.7597 8.03517 26.6695 7.96413 26.5884 7.96413C26.5162 7.96413 26.4531 7.91973 26.4531 7.87533C26.4531 7.82205 26.3809 7.78653 26.2998 7.80429C26.2096 7.82205 26.1374 7.78653 26.1374 7.74213C26.1284 7.5823 25.9661 7.38694 25.7045 7.2271C25.5692 7.13831 25.479 7.03175 25.5061 6.98735C25.5331 6.93407 25.5061 6.92519 25.4429 6.94295C25.3708 6.96959 25.2445 6.92519 25.1453 6.84527C25.0461 6.77423 25.0281 6.73871 25.1002 6.76535C25.1724 6.80087 25.0371 6.64992 24.7846 6.41904C24.2705 5.94841 24.0089 5.90401 23.6121 6.24144ZM24.974 11.4628C25.3437 11.818 25.3708 11.8801 25.3708 12.3064C25.3708 12.5639 25.3257 12.7592 25.2716 12.7592C25.2265 12.7592 25.1994 12.7947 25.2265 12.8391C25.2986 12.9546 24.9198 13.3897 24.8116 13.3275C24.7575 13.292 24.7395 13.3098 24.7755 13.3631C24.8567 13.5051 24.2434 13.6738 23.9007 13.6028C23.4948 13.514 23.0258 13.1499 22.8815 12.7859C22.7462 12.4751 22.7913 11.8712 22.9447 11.8712C22.9897 11.8712 23.0168 11.8446 23.0078 11.8002C22.9627 11.667 23.3776 11.2319 23.4858 11.3029C23.5489 11.3385 23.567 11.3296 23.5309 11.2674C23.4497 11.1431 23.6211 11.0898 24.1442 11.0809C24.5501 11.0721 24.6132 11.1076 24.974 11.4628ZM15.6301 14.2688C15.6301 14.3132 15.549 14.3576 15.4407 14.3576C15.3415 14.3576 15.2874 14.3132 15.3145 14.2688C15.3415 14.2155 15.4317 14.18 15.5039 14.18C15.576 14.18 15.6301 14.2155 15.6301 14.2688ZM22.1059 15.512C22.1239 15.5475 22.2141 15.5652 22.3043 15.5386C22.4125 15.512 22.4847 15.5386 22.4847 15.6008C22.4847 15.6629 22.5568 15.6807 22.6741 15.6452C22.8184 15.6008 22.8454 15.6096 22.8003 15.6896C22.7553 15.7606 22.7643 15.7872 22.8184 15.7517C22.9266 15.6807 23.3956 15.8672 23.7834 16.1247C23.9909 16.2579 24.0811 16.2756 24.2073 16.1957C24.2975 16.1424 24.3426 16.0625 24.3156 16.0092C24.2885 15.9648 24.3065 15.956 24.3607 15.9915C24.4148 16.0181 24.6222 15.9648 24.8206 15.8583C25.019 15.7606 25.2355 15.7073 25.2896 15.7428C25.3528 15.7784 25.3708 15.7695 25.3437 15.7162C25.2716 15.6096 26.2006 15.3788 26.408 15.4498C26.4982 15.4942 26.5343 15.4764 26.4892 15.4054C26.4441 15.3344 26.6335 15.3255 27.2287 15.3788C27.6707 15.4232 28.1397 15.4587 28.275 15.4587C28.4012 15.4676 28.4914 15.4942 28.4734 15.5297C28.4553 15.5564 28.5816 15.6363 28.753 15.6896C28.9243 15.7428 29.0686 15.8228 29.0686 15.8583C29.0686 15.8938 29.1228 15.9293 29.1859 15.9293C29.4294 15.9293 30.3133 16.5775 30.8093 17.1192C31.0979 17.43 31.3866 17.6875 31.4407 17.6875C31.5038 17.6964 31.5399 17.7497 31.5218 17.8118C31.5128 17.874 31.603 18.1315 31.7293 18.389C31.8555 18.6377 31.9638 19.0106 31.9818 19.2148C31.9908 19.4102 32.0269 19.5612 32.054 19.5434C32.1351 19.499 32.2253 20.236 32.2253 20.8754C32.2163 21.5147 31.9367 22.7224 31.7924 22.7756C31.7293 22.7934 31.7022 22.8467 31.7293 22.8911C31.7924 22.9799 31.5579 23.4416 31.2603 23.8323C31.134 23.9922 31.0619 24.1609 31.0979 24.2142C31.134 24.2675 31.116 24.2941 31.0709 24.2852C30.9266 24.2408 29.9615 25.1998 30.0337 25.3064C30.0698 25.3685 30.0247 25.3597 29.9435 25.2886C29.8172 25.191 29.7811 25.191 29.727 25.333C29.691 25.4218 29.709 25.5017 29.7721 25.5284C29.9615 25.5905 29.8894 25.7237 29.6639 25.7237C29.5196 25.7237 29.4204 25.7859 29.3843 25.9013C29.3482 25.999 29.2851 26.0523 29.231 26.0257C29.0957 25.9369 28.6177 26.443 28.6177 26.6739C28.6177 26.7982 28.5816 26.8692 28.5365 26.8337C28.4824 26.8071 28.4644 26.7005 28.4824 26.6028C28.5185 26.4519 28.5004 26.4341 28.3922 26.5229C28.32 26.5851 28.284 26.665 28.311 26.7094C28.3381 26.7538 28.311 26.7893 28.2569 26.7893C28.2028 26.7893 28.1036 26.9136 28.0405 27.0646C27.9773 27.2155 27.8871 27.3399 27.842 27.3487C27.7969 27.3576 27.7699 27.402 27.7879 27.4553C27.806 27.4997 27.7879 27.5175 27.7609 27.4819C27.7248 27.4464 27.6166 27.4553 27.5173 27.5086C27.373 27.5885 27.364 27.624 27.4542 27.7483C27.5534 27.8727 27.5534 27.8815 27.4452 27.7839C27.337 27.6951 27.2558 27.7395 26.9762 28.0059C26.7868 28.1834 26.6335 28.3877 26.6335 28.4498C26.6335 28.512 26.5794 28.5564 26.5252 28.5386C26.4621 28.5298 26.417 28.5653 26.426 28.6274C26.4441 28.6985 26.39 28.7162 26.2998 28.6807C26.1825 28.6363 26.1645 28.663 26.2186 28.7873C26.2547 28.885 26.2547 28.9293 26.2186 28.8938C26.1194 28.805 25.8127 29.1069 25.8849 29.2224C25.921 29.2757 25.8849 29.2668 25.8037 29.2046C25.6865 29.1158 25.6414 29.1158 25.5873 29.1957C25.5422 29.2668 25.5602 29.2845 25.6504 29.2401C25.7225 29.2046 25.6774 29.249 25.5512 29.3467C25.4339 29.4444 25.2896 29.5065 25.2445 29.4799C25.1994 29.4533 25.1904 29.471 25.2265 29.5243C25.2535 29.5776 25.1543 29.6753 25.001 29.7552C24.6493 29.9239 23.567 30.0482 23.567 29.915C23.567 29.8706 23.4858 29.844 23.3866 29.8706C23.2784 29.8972 23.1882 29.8617 23.1521 29.7729C23.125 29.693 23.0619 29.6575 23.0168 29.6841C22.9717 29.7108 22.9356 29.6841 22.9356 29.6309C22.9356 29.5776 22.8996 29.5509 22.8545 29.5865C22.8003 29.6131 22.7192 29.5509 22.6651 29.4533C22.6109 29.3556 22.5208 29.2757 22.4576 29.2757C22.3314 29.2668 21.4294 28.4321 20.6177 27.5619C20.302 27.2333 20.0495 26.9847 20.0495 27.0113C20.0495 27.0468 19.8421 26.8781 19.5895 26.6384C19.337 26.4075 19.0935 26.221 19.0484 26.2299C19.0033 26.2476 18.9762 26.2121 18.9943 26.1677C19.0033 26.1145 18.6515 25.7326 18.2006 25.3153C17.7587 24.8979 17.443 24.5871 17.5151 24.6226C17.5873 24.6582 17.434 24.4806 17.1724 24.2231C16.9109 23.9655 16.6944 23.6814 16.6854 23.5837C16.6764 23.4949 16.6403 23.415 16.6042 23.415C16.505 23.415 16.1803 22.7135 16.1533 22.4382C16.1352 22.3139 16.0901 22.1896 16.045 22.1541C15.9909 22.1185 15.9548 21.8699 15.9548 21.6035C15.9458 21.3282 15.9188 21.1062 15.8827 21.1062C15.8376 21.1062 15.8105 20.9198 15.8105 20.6978C15.8105 20.4758 15.8466 20.3159 15.8917 20.3426C15.9368 20.3781 15.9548 20.2449 15.9278 20.0407C15.8917 19.8276 15.9097 19.6855 15.9729 19.6855C16.018 19.6855 16.045 19.6056 16.018 19.5079C15.9909 19.4102 16.0089 19.3303 16.0631 19.3303C16.1172 19.3303 16.1352 19.2415 16.0991 19.1349C16.0631 18.9928 16.0811 18.9662 16.1713 19.0195C16.2525 19.0728 16.2705 19.055 16.2164 18.984C16.1803 18.9218 16.1893 18.7797 16.2434 18.6821C16.2885 18.5755 16.3787 18.3535 16.4419 18.1937C16.505 18.0427 16.5862 17.9095 16.6313 17.9095C16.6764 17.9095 16.7124 17.8562 16.7124 17.7852C16.7124 17.7142 16.8026 17.5898 16.9199 17.5099C17.0281 17.4389 17.1183 17.3412 17.1183 17.3057C17.1183 17.2702 17.1634 17.2524 17.2085 17.2702C17.2626 17.2879 17.2716 17.2702 17.2265 17.2346C17.1363 17.137 17.8038 16.4799 17.921 16.5509C17.9751 16.5775 17.9932 16.5775 17.9571 16.5331C17.8939 16.471 18.2457 16.1336 18.372 16.1336C18.408 16.1336 18.5523 16.0448 18.6966 15.9471C18.8409 15.8405 19.0213 15.7784 19.0935 15.805C19.1747 15.8405 19.2378 15.8228 19.2378 15.7784C19.2378 15.6718 19.8511 15.4853 20.0134 15.5475C20.0856 15.5741 20.1217 15.5652 20.0946 15.5208C20.0676 15.4676 20.2028 15.4143 20.3832 15.3965C20.8612 15.3344 22.0698 15.4143 22.1059 15.512ZM38.8273 28.583C38.9175 28.5919 39.0258 28.7162 39.0708 28.8494C39.125 28.9826 39.1881 29.0981 39.2152 29.0981C39.2422 29.0981 39.2422 29.0537 39.2152 29.0093C39.1881 28.956 39.1791 28.9205 39.2061 28.9205C39.3144 28.9205 39.7202 29.622 39.6661 29.7108C39.6391 29.7641 39.6571 29.8085 39.7022 29.8085C39.8285 29.8085 39.8285 30.4922 39.7112 30.5632C39.6571 30.5988 39.639 30.6609 39.6751 30.7053C39.8194 30.9451 38.9807 31.8242 35.6616 34.8966C35.2918 35.2429 35.0393 35.5359 35.0754 35.5981C35.1114 35.6602 35.1024 35.6691 35.0393 35.6336C34.9852 35.5981 34.8589 35.6425 34.7687 35.7313C34.6785 35.8201 34.5252 35.9355 34.426 35.9888C34.3358 36.0421 34.2546 36.1309 34.2546 36.193C34.2546 36.2463 34.2276 36.2818 34.1915 36.2641C34.0923 36.2286 33.6684 36.6637 33.7225 36.7525C33.7496 36.7969 33.7225 36.8146 33.6504 36.8057C33.5782 36.788 33.5421 36.8413 33.5602 36.9478C33.5782 37.0366 33.5511 37.081 33.506 37.0544C33.3978 36.9922 32.6492 37.6582 32.7394 37.7381C32.7665 37.7736 32.7484 37.8003 32.6943 37.8003C32.541 37.8003 32.1261 38.2709 32.1712 38.3952C32.1983 38.4574 32.1622 38.484 32.1081 38.4574C32.0449 38.4396 31.8375 38.5728 31.6481 38.7682C31.4497 38.9635 31.2603 39.1056 31.2152 39.079C31.1791 39.0523 31.143 39.079 31.143 39.1323C31.143 39.2566 29.9615 40.3932 29.8984 40.3399C29.8804 40.3133 29.727 40.4465 29.5647 40.6418C29.3392 40.9082 29.249 40.9615 29.1588 40.8816C29.0686 40.8017 29.0596 40.8017 29.1047 40.8816C29.1408 40.9437 29.1318 40.997 29.0777 40.997C29.0326 40.997 28.9333 41.0503 28.8702 41.1036C28.8071 41.1657 28.6087 41.2723 28.4373 41.3344C28.0134 41.4943 25.5963 41.6275 24.2434 41.5742C23.1972 41.5298 15.8466 41.4499 11.6257 41.4321C9.76771 41.4321 9.5242 41.4144 9.21755 41.2545C8.66738 40.9881 8.05408 40.2333 8.18936 40.0202C8.21642 39.967 8.19838 39.9314 8.13525 39.9314C8.08113 39.9314 8.05408 39.8604 8.08114 39.7538C8.10819 39.6562 8.09917 39.594 8.0631 39.6118C8.02702 39.6384 7.99996 39.2566 7.99094 38.7771C7.99094 38.2087 8.02702 37.9157 8.08114 37.9512C8.13525 37.9779 8.14427 37.9601 8.10819 37.898C8.02702 37.7736 8.23446 36.9034 8.33367 36.9567C8.36975 36.9833 8.3968 36.9478 8.38779 36.8857C8.37877 36.6015 8.42386 36.4594 8.50503 36.5127C8.55915 36.5482 8.56817 36.5038 8.53209 36.415C8.487 36.2996 8.50503 36.2818 8.59522 36.3351C8.66738 36.3795 8.69444 36.3706 8.65836 36.3085C8.56817 36.1753 8.68542 35.9266 8.80267 35.9977C8.84776 36.0243 8.8658 36.0066 8.82972 35.9533C8.76659 35.8556 9.29872 34.9587 9.41597 34.9587C9.46106 34.9587 9.49714 34.9055 9.49714 34.8433C9.49714 34.7811 9.57831 34.6835 9.67752 34.6213C9.77673 34.5592 9.86692 34.4615 9.86692 34.3993C9.87594 34.346 10.1465 34.053 10.4712 33.76C10.7959 33.4669 11.0304 33.2893 10.9853 33.3604C10.9492 33.4314 11.0214 33.3781 11.1476 33.2449C11.4182 32.9519 12.2029 32.4369 12.275 32.5079C12.3021 32.5346 12.3652 32.5079 12.4193 32.4369C12.5817 32.2415 13.6279 31.8774 14.4667 31.7265C15.9188 31.4601 18.0202 31.6111 19.1566 32.0639C19.4633 32.1882 19.7609 32.2682 19.815 32.2326C19.8691 32.206 19.8872 32.206 19.8511 32.2504C19.7609 32.3481 20.3652 32.7299 20.753 32.8187C20.9424 32.8631 21.0236 32.9075 20.9514 32.9075C20.8342 32.9164 20.8342 32.9253 20.9514 33.0052C21.0326 33.0585 22.1239 33.094 23.576 33.094C26.3358 33.094 26.6335 33.1384 27.1927 33.6534C27.5895 34.0175 27.833 34.4082 27.7699 34.568C27.7428 34.6479 27.7609 34.6746 27.806 34.6479C27.8601 34.6124 27.8962 34.8167 27.8962 35.1719C27.8962 35.5182 27.8601 35.7579 27.806 35.7579C27.7428 35.7579 27.7428 35.8112 27.806 35.9355C27.8871 36.0776 27.8781 36.0954 27.7609 36.0598C27.6797 36.0243 27.6256 36.0332 27.6346 36.0776C27.6617 36.2552 27.6075 36.3529 27.2829 36.6992C26.9221 37.0988 26.5884 37.303 26.4531 37.2231C26.399 37.1965 26.3629 37.2053 26.3629 37.2497C26.3629 37.2941 24.9018 37.3119 23.0168 37.2941C19.8511 37.2675 19.6527 37.2586 19.3731 37.0899C19.2198 36.9922 19.0484 36.9478 19.0123 36.9833C18.9672 37.0189 18.9672 36.9922 19.0033 36.9301C19.0394 36.8768 19.0213 36.8235 18.9762 36.8235C18.9221 36.8235 18.877 36.7702 18.877 36.6992C18.877 36.5482 17.9571 35.9178 17.4791 35.7402C16.8297 35.5004 15.8105 35.8201 15.8105 36.273C15.8105 36.3351 15.7744 36.3618 15.7203 36.3351C15.6752 36.3085 15.6301 36.3262 15.6301 36.3795C15.6301 36.566 15.8827 36.7347 16.1713 36.7347C16.3336 36.7347 16.4328 36.7702 16.3968 36.8235C16.3697 36.8679 16.3968 36.8857 16.4689 36.859C16.6222 36.8057 17.4791 37.3563 17.4791 37.5072C17.4791 37.5694 17.5061 37.6138 17.5422 37.596C17.6324 37.5694 18.0653 37.9956 18.0653 38.1288C18.0653 38.191 18.1194 38.2354 18.1826 38.2265C18.2367 38.2088 18.2727 38.262 18.2637 38.3331C18.2457 38.4041 18.2637 38.4396 18.2998 38.4041C18.3539 38.3508 18.8139 38.5995 18.9672 38.7771C18.9943 38.8037 19.1115 38.8303 19.2378 38.8481C19.355 38.857 19.4813 38.9014 19.5084 38.9369C19.5805 39.0346 26.8139 39.0168 26.8139 38.9191C26.8139 38.8747 26.8409 38.857 26.868 38.8925C26.904 38.9191 27.0664 38.8925 27.2287 38.8215C27.4001 38.7504 27.5354 38.7238 27.5354 38.7504C27.5354 38.7859 27.5895 38.7415 27.6526 38.6527C27.7158 38.5728 27.824 38.4929 27.8962 38.4751C28.0314 38.4574 28.9153 37.6227 28.8071 37.6227C28.78 37.6138 28.8522 37.5339 28.9694 37.4451C29.0867 37.3474 29.1498 37.2675 29.1137 37.2675C29.0777 37.2675 29.0957 37.2053 29.1588 37.1343C29.222 37.0633 29.249 37.0011 29.2129 37.0011C29.1769 37.0011 29.249 36.8324 29.3572 36.6193C29.4655 36.415 29.5647 36.1042 29.5647 35.9444C29.5737 35.7757 29.6278 35.6158 29.6819 35.5981C29.7451 35.5803 29.7902 35.5093 29.7902 35.4383C29.7902 35.3672 29.8353 35.3139 29.8894 35.3139C30.0066 35.3139 30.8725 34.4437 30.8725 34.3283C30.8725 34.2839 30.8995 34.2572 30.9446 34.2572C30.9807 34.2661 31.0348 34.2572 31.0799 34.2484C31.116 34.2395 31.1971 34.2217 31.2603 34.2128C31.3144 34.2128 31.3685 34.1596 31.3685 34.1063C31.3685 34.0619 31.5399 33.8576 31.7383 33.6623C31.9457 33.4758 32.4328 33.0141 32.8116 32.65C33.1994 32.2859 33.488 32.0462 33.4429 32.1172C33.3978 32.1882 33.479 32.1527 33.6143 32.0284C33.7586 31.8952 33.8398 31.7443 33.8217 31.6555C33.7947 31.5755 33.8037 31.5134 33.8398 31.5223C33.9209 31.54 34.3448 31.2559 34.5613 31.0427C34.6425 30.9628 35.0032 30.5899 35.373 30.2258C35.7428 29.8528 36.0765 29.5687 36.1126 29.5953C36.1577 29.6131 36.2839 29.4977 36.3922 29.3201C36.5094 29.1513 36.6898 28.9826 36.798 28.956C36.9063 28.9294 37.0145 28.8494 37.0415 28.7784C37.0686 28.7074 37.1858 28.6186 37.2941 28.5742C37.4745 28.512 38.2862 28.512 38.8273 28.583Z" fill="#1D4ED8"/>
  <path d="M25.9119 18.611C25.9119 18.6909 25.8217 18.7176 25.6504 18.6909C25.4971 18.6732 25.3979 18.6821 25.4159 18.7176C25.4429 18.7531 25.3528 18.8064 25.2084 18.8419C25.0732 18.8685 24.8747 18.9751 24.7755 19.0728C24.6673 19.1704 24.532 19.2415 24.4599 19.2237C24.3967 19.206 24.3426 19.2504 24.3336 19.3214C24.3336 19.3924 24.2705 19.4901 24.1803 19.5345C24.063 19.6144 23.9277 19.5523 23.5309 19.2592C22.9356 18.8153 22.1329 18.5755 21.5557 18.6643C21.0777 18.7442 19.8511 19.3125 19.8601 19.4546C19.8781 19.6144 19.8601 19.6855 19.7519 19.792C19.6887 19.8542 19.5895 20.0229 19.5174 20.1739C19.3821 20.4758 19.1476 21.9143 19.2378 21.861C19.2739 21.8344 19.328 21.9853 19.3641 22.1807C19.4272 22.5892 19.5805 22.9177 19.8601 23.2285C19.9593 23.344 20.0225 23.4772 19.9864 23.5304C19.9593 23.5748 19.9683 23.5926 20.0225 23.566C20.1397 23.4949 20.7079 24.0721 20.6177 24.1609C20.5726 24.1964 20.5907 24.2142 20.6538 24.1964C20.753 24.1698 21.691 24.9601 22.1961 25.4929C22.3313 25.6349 22.5929 25.8925 22.7733 26.0612C22.9627 26.2299 23.089 26.4075 23.0619 26.4519C23.0348 26.4963 23.0619 26.514 23.1341 26.5052C23.1972 26.4874 23.2423 26.5318 23.2242 26.594C23.2152 26.665 23.2423 26.6916 23.2784 26.665C23.3235 26.6384 23.4317 26.6916 23.5129 26.7804C23.7203 27.0113 24.2254 27.0024 24.523 26.7627C24.9108 26.4519 26.399 25.0666 26.4441 24.9778C26.4621 24.9423 26.5613 24.8358 26.6605 24.7558C27.1205 24.4095 28.3381 23.2019 28.293 23.1397C28.275 23.1042 28.302 23.042 28.3742 22.9976C28.4373 22.9621 28.5365 22.7668 28.5996 22.5714C28.7259 22.1629 28.8071 21.0174 28.7079 21.0174C28.6718 21.0174 28.6538 20.8931 28.6628 20.7422C28.6718 20.5823 28.5996 20.3426 28.4734 20.1739C28.3651 20.014 28.293 19.8542 28.32 19.8276C28.3471 19.8009 28.2659 19.7565 28.1306 19.721C27.833 19.65 27.824 19.5168 28.1216 19.5434C28.2389 19.5612 28.32 19.5345 28.293 19.499C28.2659 19.4546 28.1757 19.4191 28.0856 19.4191C27.8961 19.4191 27.5083 19.0817 27.5805 18.9751C27.6075 18.9396 27.5264 18.9129 27.4001 18.9218C27.2828 18.9396 27.2017 18.9218 27.2197 18.8863C27.2738 18.8064 26.8229 18.7087 26.417 18.7087C26.2547 18.7087 26.0833 18.6643 26.0202 18.6021C25.939 18.5222 25.9119 18.5222 25.9119 18.611Z" fill="#1D4ED8"/>
  <path d="M14.0698 14.5973C13.9977 14.6595 14.169 14.8904 14.2863 14.8904C14.3314 14.8904 14.3675 14.8105 14.3675 14.7128C14.3675 14.5441 14.1871 14.473 14.0698 14.5973Z" fill="#1D4ED8"/>
  <path d="M6.19614 28.8317C6.19614 29.6841 6.21418 30.0393 6.22319 29.6042C6.24123 29.178 6.24123 28.4854 6.22319 28.0503C6.21418 27.624 6.19614 27.9792 6.19614 28.8317Z" fill="#1D4ED8"/>
  <path d="M6.19614 32.1616C6.19614 32.7921 6.20516 33.0407 6.22319 32.7122C6.24123 32.3836 6.24123 31.8597 6.22319 31.5578C6.20516 31.2559 6.19614 31.5223 6.19614 32.1616Z" fill="#1D4ED8"/>
  </svg>
  