<svg width="73" height="65" viewBox="0 0 73 65" fill="none" xmlns="http://www.w3.org/2000/svg">
  <path d="M18.5 27L36.5 15.3L59.9 31.5L61.7 63H11.3L18.5 27Z" fill="#D9D9D9"/>
  <path d="M36.1075 0.0783268C36.0804 0.158245 35.864 0.238163 35.6205 0.264803C35.3905 0.278122 35.2281 0.318082 35.2552 0.344721C35.3228 0.41132 34.4705 0.957428 34.3352 0.917469C34.2947 0.904149 34.1729 0.997387 34.0647 1.13058C33.9023 1.3437 33.9159 1.3437 34.1594 1.15722C34.3082 1.05067 34.0376 1.33038 33.5641 1.75661C33.0771 2.19616 32.6306 2.54247 32.5765 2.51583C32.5224 2.50251 32.4683 2.59575 32.4683 2.71563C32.4683 2.83551 32.4277 2.88879 32.3871 2.84883C32.333 2.80887 32.1842 2.91543 32.0354 3.08858C31.9001 3.27506 31.7377 3.40825 31.6836 3.38161C31.6295 3.3683 31.5619 3.40825 31.5348 3.48817C31.4401 3.68797 30.5202 4.48715 30.3713 4.48715C30.2902 4.48715 29.8167 4.94002 29.3026 5.48613C28.7885 6.03224 28.2879 6.48511 28.1932 6.48511C28.085 6.48511 28.0038 6.53839 28.0038 6.61831C28.0038 6.6849 27.7738 6.89802 27.5033 7.07118C27.2192 7.24433 26.4886 7.88368 25.8798 8.46975C25.2575 9.06913 24.7569 9.522 24.7569 9.46872C24.7569 9.42877 24.6622 9.4554 24.554 9.54864C24.4458 9.64188 24.3917 9.76176 24.4187 9.82836C24.4593 9.88164 24.3511 10.0015 24.1887 10.0948C24.0129 10.188 23.7288 10.4144 23.5529 10.6009C23.377 10.7874 23.2823 10.854 23.3364 10.7474C23.3905 10.6409 23.147 10.8407 22.7953 11.2136C22.4571 11.5732 22.2 11.7864 22.2541 11.6798C22.3082 11.5732 22.1324 11.7064 21.8888 11.9861C21.6453 12.2525 21.3748 12.479 21.2801 12.479C21.1989 12.479 21.0771 12.5456 21.023 12.6388C20.9554 12.7321 20.9824 12.7454 21.1042 12.6788C21.2259 12.6122 21.253 12.6255 21.1854 12.7187C21.1312 12.812 21.0095 12.8786 20.9148 12.8786C20.8201 12.8786 20.6172 13.065 20.4413 13.2782C20.2789 13.5046 20.0895 13.6511 20.0084 13.6112C19.9407 13.5579 19.846 13.6378 19.7919 13.7577C19.6972 13.9974 18.8314 14.8099 18.669 14.8099C18.6149 14.8099 18.1685 15.2228 17.6544 15.7423C17.1538 16.2485 16.7885 16.5814 16.8427 16.4749C16.8832 16.3683 16.8156 16.395 16.6803 16.5415C16.545 16.688 16.0445 17.1276 15.5574 17.5271C15.0704 17.9267 14.6916 18.2997 14.7186 18.3663C14.7322 18.4196 14.6916 18.4595 14.6375 18.4462C14.5698 18.4196 14.1234 18.8058 13.6228 19.2987C13.1358 19.8048 12.6488 20.2044 12.5541 20.2044C12.4594 20.2044 12.2564 20.3509 12.1211 20.5374C11.9859 20.7239 11.7965 20.8704 11.7018 20.8704C11.607 20.8704 11.3635 21.0835 11.1741 21.3366C10.9712 21.5897 10.7412 21.7895 10.6465 21.7628C10.5518 21.7495 10.4977 21.8161 10.5248 21.9093C10.5383 21.9893 10.5112 22.0559 10.4571 22.0425C10.3895 22.0292 10.0648 22.2823 9.71303 22.6286C9.36129 22.9616 9.05013 23.2147 9.02307 23.188C8.99601 23.1614 8.86073 23.2546 8.72544 23.4011C8.59015 23.5477 8.53604 23.6675 8.59015 23.6675C8.64427 23.6675 8.5631 23.7874 8.38722 23.9339C8.21135 24.0804 7.99489 24.2003 7.88666 24.2003C7.79196 24.2003 7.71079 24.2802 7.71079 24.3868C7.71079 24.4934 7.64315 24.6266 7.54844 24.6798C7.45374 24.7464 7.44022 24.7198 7.50786 24.5866C7.61609 24.4268 7.58903 24.4268 7.39963 24.5733C7.27787 24.6798 7.14258 24.8663 7.102 25.0128C7.04788 25.1593 6.95318 25.2393 6.88554 25.186C6.80437 25.146 6.70967 25.2259 6.66908 25.3725C6.62849 25.519 6.50674 25.6788 6.39851 25.7188C6.27675 25.772 6.23616 25.7454 6.30381 25.6255C6.37145 25.5456 5.93853 25.9319 5.3568 26.4913C4.77506 27.0641 4.23392 27.5303 4.13922 27.5303C3.97687 27.5303 3.43572 28.0897 3.50337 28.1962C3.5169 28.2362 3.4222 28.3161 3.28691 28.396C3.15162 28.4626 3.00281 28.5825 2.94869 28.6624C2.88105 28.7557 2.84046 28.7557 2.84046 28.6624C2.84046 28.5825 2.63753 28.7157 2.39402 28.9555C2.16403 29.1819 1.71758 29.6081 1.41995 29.8878C1.12232 30.1676 0.865274 30.4473 0.851746 30.5005C0.824688 30.5538 0.784102 30.7403 0.729988 30.9268C0.689402 31.1132 0.594701 31.2598 0.540586 31.2598C0.486471 31.2598 0.486471 31.5128 0.540586 31.8192C0.608229 32.1389 0.621758 32.4186 0.594701 32.4452C0.567643 32.4719 0.743516 32.6983 1.00056 32.938C1.25761 33.1778 1.43348 33.4042 1.40642 33.4309C1.33878 33.4842 1.48759 33.5108 2.36696 33.5774C2.85399 33.6174 3.11104 33.5774 3.28691 33.4309C3.40867 33.311 3.5169 33.2577 3.5169 33.2977C3.5169 33.3376 3.66571 33.2444 3.84158 33.0846C4.01746 32.9247 4.30156 32.685 4.47743 32.5518C4.91035 32.2454 6.08735 31.2198 6.89907 30.4206C7.26434 30.0743 7.62962 29.7946 7.71079 29.7946C7.79196 29.7946 7.81902 29.728 7.77843 29.6614C7.73785 29.5815 7.75137 29.5282 7.80549 29.5282C7.91372 29.5282 8.48192 29.0753 9.21247 28.396C9.40187 28.2096 9.6048 28.063 9.67245 28.063C9.72656 28.063 9.97008 27.8499 10.2271 27.5968C10.4706 27.3438 10.7412 27.1307 10.8224 27.1307C10.9036 27.1307 10.9306 27.0641 10.89 26.9975C10.8494 26.9175 10.863 26.8643 10.9441 26.8643C11.0118 26.8643 11.5665 26.3848 12.1617 25.7987C12.7705 25.2126 13.3523 24.7331 13.4605 24.7331C13.5687 24.7331 13.6499 24.6798 13.6364 24.6132C13.5958 24.4934 14.9486 23.2413 15.0298 23.3212C15.0569 23.3479 15.2057 23.2413 15.3545 23.0948C15.5033 22.9483 15.5304 22.8817 15.4221 22.9349C15.3139 22.9882 15.4898 22.8018 15.828 22.522C16.1527 22.2423 16.4774 22.0159 16.5315 22.0425C16.5856 22.0559 16.6397 21.9893 16.6397 21.9093C16.6397 21.7495 17.5461 20.937 17.722 20.937C17.9249 20.9237 18.1143 20.6972 18.0467 20.5774C17.9926 20.4974 18.0196 20.4708 18.1008 20.5241C18.182 20.564 18.3579 20.4575 18.5067 20.271C18.6555 20.0845 18.8314 19.938 18.899 19.938C18.9531 19.938 19.1561 19.7515 19.3455 19.5384C19.5349 19.312 19.7243 19.1388 19.7784 19.1388C19.8325 19.1388 20.076 18.939 20.3195 18.6993C20.563 18.4728 20.8877 18.2065 21.0365 18.1132C21.1854 18.0333 21.2936 17.9001 21.2665 17.8202C21.253 17.7403 21.2936 17.6737 21.3612 17.6737C21.4289 17.6737 21.5912 17.5671 21.7265 17.4339C21.8618 17.314 21.9971 17.2075 22.0377 17.1942C22.0783 17.1942 22.4571 16.8612 22.8629 16.4616C23.2823 16.062 23.8099 15.5958 24.0534 15.4226C24.2834 15.2495 24.4864 15.023 24.4864 14.9298C24.4864 14.8232 24.5405 14.7433 24.5946 14.7433C24.7163 14.7433 24.9193 14.5835 25.7716 13.8376C26.0016 13.6378 26.2316 13.4913 26.2857 13.5179C26.3533 13.5312 26.3668 13.4913 26.3127 13.4247C26.2721 13.3448 26.3668 13.2249 26.5292 13.1316C26.6915 13.0517 26.9756 12.8253 27.1515 12.6255C27.3409 12.439 27.4356 12.3724 27.3815 12.479C27.3274 12.5855 27.5438 12.3857 27.8685 12.0394C28.1797 11.6931 28.4773 11.4267 28.5044 11.4667C28.545 11.5066 28.7073 11.4001 28.8697 11.2269C29.0185 11.0538 29.3161 10.814 29.5326 10.6808C29.7355 10.5609 29.8978 10.3745 29.8978 10.2679C29.8978 10.1747 29.9655 10.0548 30.0602 10.0015C30.1549 9.93491 30.1819 9.97487 30.1143 10.0948C30.0602 10.2013 30.1684 10.0948 30.3578 9.88164C30.5472 9.6552 30.7096 9.44209 30.7096 9.37549C30.7096 9.32221 30.7772 9.28225 30.8448 9.28225C30.926 9.28225 31.156 9.12241 31.3589 8.9093C31.9948 8.30991 32.3871 8.00356 32.2789 8.21667C32.2112 8.32323 32.3195 8.22999 32.5089 8.01688C33.2529 7.13778 33.4018 6.99126 33.537 7.07118C33.6047 7.12445 33.7129 7.0845 33.767 7.00458C33.8347 6.89802 33.8076 6.8847 33.6723 6.9513C33.5641 7.00458 33.8482 6.72486 34.2811 6.31195C34.7276 5.89904 35.1334 5.59269 35.174 5.61933C35.2281 5.65929 35.3905 5.55273 35.5258 5.37957C35.7828 5.09986 35.7828 5.09986 35.5122 5.27301C35.3634 5.37957 35.5122 5.20642 35.8505 4.91338C36.3916 4.42055 36.9463 4.15416 36.7433 4.47383C36.7028 4.52711 36.7975 4.70027 36.9733 4.83346C37.2574 5.08654 37.2574 5.08654 37.068 4.82014C36.9598 4.67363 37.1763 4.82014 37.5415 5.15314C37.9068 5.48613 38.2721 5.81912 38.3668 5.89904C38.4615 5.99228 38.5156 6.08552 38.475 6.11216C38.448 6.15211 38.5291 6.25867 38.6509 6.36523C38.8673 6.53839 38.8809 6.52507 38.7185 6.32527C38.5562 6.12548 38.5697 6.09884 38.7997 6.12548C38.9485 6.12548 39.0432 6.20539 39.0026 6.28531C38.9215 6.49843 39.3138 6.79146 39.5167 6.67159C39.625 6.61831 39.6385 6.63163 39.5844 6.72486C39.4626 6.92466 39.7467 7.44413 39.9226 7.35089C39.9902 7.29761 40.0849 7.36421 40.1255 7.47077C40.1661 7.57733 40.3149 7.71052 40.4502 7.75048C40.599 7.79044 40.7478 7.95028 40.7884 8.09679C40.8425 8.22999 40.9237 8.32323 40.9778 8.29659C41.1131 8.20335 42.2225 9.22897 42.1142 9.33553C42.0736 9.37549 42.1819 9.46872 42.3713 9.53532C42.5472 9.60192 42.8854 9.86832 43.1154 10.1214C43.3453 10.3878 43.5618 10.5743 43.5889 10.5476C43.6159 10.5077 44.0624 10.8939 44.5765 11.3734C45.1041 11.8663 45.4423 12.2126 45.3341 12.146C45.1988 12.0794 45.1717 12.0927 45.2394 12.1993C45.2935 12.2792 45.3882 12.3191 45.4423 12.2925C45.5776 12.1993 46.5381 13.0917 46.4299 13.2249C46.3758 13.2782 46.4164 13.2782 46.4975 13.2249C46.6058 13.1716 46.7952 13.2648 46.971 13.4513C47.1469 13.6245 47.3904 13.811 47.5392 13.8509C47.7016 13.9175 47.7557 14.0241 47.7016 14.1706C47.6475 14.3038 47.6475 14.3571 47.7016 14.3171C47.7557 14.2638 47.9451 14.3304 48.1345 14.4769C48.3104 14.6235 48.5268 14.7034 48.608 14.6501C48.6756 14.6101 48.7027 14.6368 48.6621 14.7034C48.608 14.7833 48.6621 14.9165 48.7703 15.0097C48.8786 15.103 48.9327 15.2362 48.8786 15.3294C48.838 15.4093 48.838 15.436 48.9056 15.3827C48.9597 15.3294 49.1897 15.4226 49.4062 15.6091C49.6362 15.7956 49.8932 15.9021 50.0285 15.8622C50.1773 15.8089 50.2044 15.8222 50.0962 15.9021C49.9744 15.9954 49.9744 16.0886 50.0962 16.3417C50.1909 16.5282 50.3261 16.6747 50.3938 16.6747C50.6508 16.6747 51.6655 17.5804 51.5843 17.7269C51.5437 17.8069 51.5437 17.8335 51.6114 17.7802C51.7737 17.6337 53.0454 18.7392 52.9372 18.9124C52.8966 19.0056 52.8966 19.0323 52.9642 18.979C53.0725 18.8858 54.5065 20.0446 55.8729 21.3099C55.9811 21.4165 56.387 21.7628 56.7523 22.0692C59.5121 24.3735 61.0138 25.7454 61.0138 25.9585C61.0138 26.0251 61.0679 26.0518 61.1491 25.9985C61.2844 25.9186 62.5696 27.104 62.5696 27.3171C62.5696 27.3971 62.6372 27.4637 62.7049 27.4637C62.9349 27.4637 63.7195 28.103 63.7195 28.2895C63.7195 28.3827 63.7737 28.4493 63.8278 28.436C63.9766 28.3827 65.0724 29.3284 65.0724 29.5016C65.0724 29.5948 65.1265 29.6481 65.1806 29.6348C65.37 29.5682 66.5606 30.6204 66.4659 30.7669C66.4253 30.8469 66.4523 30.8602 66.547 30.8069C66.7364 30.687 67.8052 31.646 67.6834 31.8325C67.6429 31.9124 67.6564 31.9258 67.724 31.8858C67.8864 31.7926 68.7522 32.5251 68.6304 32.645C68.5899 32.685 68.6305 32.7249 68.7522 32.7249C68.8604 32.7249 69.0634 32.8448 69.2122 33.0047C69.3475 33.1512 69.5775 33.3376 69.6992 33.4042C70.0239 33.5774 71.1738 33.7772 71.0927 33.6573C71.0521 33.604 71.1738 33.5108 71.3497 33.4708C71.5256 33.4309 71.8638 33.1778 72.1073 32.9114C72.4997 32.4585 72.5267 32.3786 72.4861 31.5262C72.4726 31.02 72.4185 30.6337 72.3644 30.6737C72.3103 30.7003 72.1885 30.5538 72.0938 30.3407C71.9991 30.1276 71.8773 29.9678 71.8232 30.0077C71.7691 30.0344 71.6338 29.9544 71.5391 29.8212C71.4444 29.6747 71.3091 29.5548 71.228 29.5415C71.1603 29.5415 71.0927 29.4749 71.0927 29.4083C71.0927 29.2352 70.9033 29.062 70.7139 29.062C70.6192 29.0487 70.5651 28.9821 70.5786 28.8889C70.6056 28.8089 70.5245 28.769 70.4298 28.8089C70.3215 28.8489 70.1998 28.769 70.1592 28.6225C70.1051 28.4893 69.9157 28.2229 69.7127 28.0497C69.5233 27.8766 69.4016 27.8233 69.4692 27.9298C69.5233 28.0364 69.2122 27.77 68.7793 27.3305C68.3464 26.8909 68.0352 26.6245 68.1028 26.7311C68.1569 26.8376 68.0622 26.771 67.8864 26.5579C67.7105 26.3581 67.494 26.1983 67.4129 26.1983C67.3317 26.1983 67.237 26.1583 67.2099 26.0917C67.1964 26.0384 66.8988 25.7587 66.5606 25.4657C66.2224 25.1727 65.9653 24.9196 65.9924 24.9063C66.0059 24.8796 65.9788 24.8663 65.9247 24.853C65.7353 24.8263 64.7342 23.8806 64.7748 23.7741C64.7883 23.7075 64.7207 23.6809 64.6395 23.6942C64.5448 23.7208 64.4771 23.6542 64.5042 23.561C64.5177 23.4811 64.4771 23.4145 64.4095 23.4278C64.2607 23.4811 62.502 21.8427 62.6102 21.7495C62.6508 21.7095 62.6102 21.6696 62.529 21.6696C62.4478 21.6696 62.069 21.3632 61.7038 20.9903C61.325 20.604 61.0138 20.3509 61.0138 20.4042C61.0138 20.4974 60.2968 19.8581 59.4715 19.0323C59.2957 18.8458 59.1468 18.5128 59.1063 18.1665C59.0792 17.8601 59.0521 14.6634 59.0521 11.0538C59.0657 5.79248 59.0251 4.48715 58.8898 4.43387C58.7951 4.39391 58.7139 4.27404 58.7139 4.15416C58.7139 4.0476 58.6598 3.95436 58.5786 3.95436C58.511 3.95436 58.4434 3.86112 58.4434 3.75457C58.4434 3.44821 57.9563 3.27506 56.874 3.19514C56.3194 3.15518 55.8729 3.06194 55.8729 3.00866C55.8729 2.94206 55.697 2.88879 55.467 2.88879C55.2506 2.88879 55.0612 2.95538 55.0612 3.02198C55.0612 3.11522 54.2495 3.15518 52.7748 3.14186C50.962 3.14186 50.3938 3.18182 50.0826 3.34166C49.8662 3.44821 49.6497 3.51481 49.6227 3.47485C49.5821 3.44821 49.4738 3.52813 49.3656 3.64801C49.1897 3.87444 49.2033 3.87444 49.4468 3.70129C49.5956 3.60805 49.555 3.66133 49.3656 3.84781C49.1762 4.02096 49.0409 4.23408 49.0815 4.32731C49.1086 4.42055 49.0815 4.48715 49.0139 4.48715C48.9597 4.48715 48.9192 5.33961 48.9192 6.37855C48.9327 7.68388 48.9056 8.09679 48.838 7.68388C48.7568 7.23101 48.7298 7.40417 48.7433 8.44311C48.7703 9.6552 48.7433 9.7884 48.5404 9.77508C48.4051 9.76176 48.2968 9.70848 48.2968 9.64188C48.2968 9.57528 47.9722 9.24229 47.5933 8.9093C47.201 8.56298 46.6328 8.04352 46.3217 7.75048C46.0105 7.45745 45.6452 7.15109 45.5099 7.05786C45.3746 6.97794 45.2664 6.84474 45.2799 6.76482C45.307 6.6849 45.2799 6.63163 45.2123 6.64495C45.0364 6.69822 44.5088 6.33859 44.5088 6.16543C44.5088 6.0722 44.3735 5.88572 44.2112 5.7392C43.9135 5.48613 43.9 5.48613 44.0894 5.75252C44.1977 5.89904 44.0353 5.77916 43.7512 5.48613C43.4671 5.1931 43.0342 4.83346 42.8042 4.68695C42.5607 4.54043 42.1684 4.16748 41.9519 3.86112C41.7219 3.54145 41.4784 3.3017 41.4107 3.32834C41.3431 3.34166 41.0184 3.07526 40.6802 2.71563C40.3555 2.36932 40.0173 2.0896 39.9361 2.0896C39.8549 2.0896 39.5708 1.83653 39.2867 1.51686C39.0162 1.2105 38.8403 1.05067 38.9079 1.15722C38.9621 1.26378 38.8268 1.2105 38.5968 1.02403C38.3668 0.83755 38.2044 0.651074 38.245 0.597795C38.2721 0.544517 38.2044 0.531197 38.0962 0.571156C37.9745 0.624435 37.8527 0.557836 37.7986 0.437959C37.758 0.318082 37.6633 0.264803 37.5957 0.304762C37.528 0.344721 37.4739 0.318082 37.4739 0.264803C37.4739 0.198204 37.2169 0.171565 36.9192 0.198204C36.5675 0.238163 36.324 0.198204 36.2563 0.0916465C36.1887 -0.0282309 36.1346 -0.0282309 36.1075 0.0783268Z" fill="#1D4ED8"/>
  <path d="M56.3193 2.98202C56.4411 3.00866 56.6576 3.00866 56.7929 2.98202C56.9146 2.94206 56.8064 2.91542 56.5493 2.91542C56.2923 2.91542 56.1841 2.94206 56.3193 2.98202Z" fill="#1D4ED8"/>
  <path d="M35.9181 9.36217C35.7016 9.54864 35.3499 9.855 35.147 10.0282C34.944 10.2146 34.7411 10.3478 34.7005 10.3478C34.6464 10.3345 34.4705 10.481 34.2811 10.6808C34.1053 10.8673 33.9564 10.9872 33.9564 10.9472C33.9564 10.6941 33.2665 11.7198 33.1988 12.0661C33.1447 12.2925 33.0635 12.479 32.9959 12.479C32.9283 12.479 32.9147 12.3857 32.9688 12.2659C33.023 12.106 32.9147 12.1327 32.5224 12.3857C32.076 12.6655 31.9948 12.772 32.0354 13.1316C32.0489 13.3581 32.0083 13.5446 31.9271 13.5446C31.8595 13.5446 31.7919 13.4513 31.7919 13.3314C31.7919 13.1849 31.7242 13.145 31.5754 13.1982C31.4536 13.2382 31.2913 13.2782 31.2236 13.2782C31.1425 13.2782 31.1154 13.3181 31.156 13.3714C31.2778 13.478 30.3037 14.3437 30.0602 14.3437C29.9655 14.3437 29.8437 14.4503 29.8031 14.5702C29.6814 14.8765 28.7885 15.6757 28.6667 15.5958C28.6126 15.5692 28.5179 15.6091 28.4638 15.689C28.3961 15.7956 28.4367 15.8222 28.5585 15.7423C28.6667 15.689 28.5044 15.8622 28.2067 16.1286C27.9091 16.395 27.5303 16.6747 27.3544 16.7413C27.1786 16.8212 27.0839 16.9411 27.1245 17.0077C27.165 17.0876 27.0974 17.1808 26.9621 17.2341C26.8268 17.2874 26.6374 17.4339 26.5427 17.5671C26.448 17.7003 26.2992 17.7802 26.2316 17.7269C26.1639 17.687 26.1233 17.7136 26.1369 17.7802C26.191 17.9534 24.811 19.1522 24.6893 19.0323C24.6216 18.979 24.6216 19.0056 24.6622 19.0856C24.7028 19.1655 24.6216 19.3253 24.4728 19.4452C24.324 19.5784 24.2428 19.7515 24.297 19.8315C24.3511 19.9247 24.3375 19.938 24.2293 19.8847C24.0534 19.7649 23.6476 20.0446 23.7423 20.2044C23.7829 20.271 23.9452 20.2843 24.1211 20.2577C24.3917 20.2044 24.3917 20.2044 24.1481 20.3243C23.9587 20.4042 23.7964 20.3776 23.6205 20.2177C23.4717 20.0979 23.3905 20.0712 23.4447 20.1511C23.5394 20.2977 23.0658 20.8571 22.66 21.0835C22.4841 21.1768 22.3759 21.4032 22.3488 21.6829C22.2947 22.2157 21.8483 22.7352 21.4559 22.7352C21.2259 22.7352 21.2124 22.7618 21.3748 22.8684C21.51 22.9616 21.5236 23.0282 21.4289 23.0948C21.3477 23.1614 21.253 23.3079 21.1989 23.4278C21.1042 23.6809 20.6983 23.7608 20.6983 23.5343C20.6983 23.4544 20.766 23.4011 20.8336 23.4011C20.9148 23.4011 20.9689 23.3345 20.9689 23.2679C20.9689 23.188 20.8742 23.1348 20.7524 23.1348C20.6307 23.1348 20.5901 23.0682 20.6442 22.9616C20.7119 22.8684 20.6036 22.895 20.4278 23.0149C20.2248 23.1481 20.1031 23.3479 20.1301 23.4811C20.1572 23.6276 20.1166 23.6809 20.0625 23.6009C19.9272 23.4278 19.6837 23.4278 19.5213 23.5876C19.4537 23.6542 19.4807 23.6675 19.589 23.6143C19.6701 23.561 19.7513 23.5477 19.7513 23.5876C19.7513 23.7208 19.2102 24.2003 19.0749 24.2003C18.9937 24.2003 18.9396 24.2936 18.9667 24.4134C18.9937 24.5466 18.9261 24.6665 18.8178 24.7065C18.6961 24.7464 18.669 24.7065 18.7367 24.5866C18.8043 24.48 18.7908 24.4401 18.7231 24.5067C18.6014 24.6266 18.5879 24.6532 18.5473 25.0927C18.5202 25.2925 18.4932 25.2792 18.3985 25.0262C18.2361 24.6665 18.0738 24.6399 18.1685 24.9995C18.209 25.146 18.1955 25.2393 18.1279 25.1993C18.0738 25.1727 17.9114 25.2659 17.7761 25.4391C17.5191 25.7188 17.5191 25.7188 17.7897 25.5323C18.0196 25.3725 18.0332 25.3725 17.8844 25.5323C17.7897 25.6389 17.6544 25.7321 17.5867 25.7321C17.5326 25.7321 17.2891 25.8653 17.0456 26.0384C16.7209 26.2782 16.6397 26.4114 16.7074 26.6378C16.7615 26.7977 16.748 26.8643 16.6803 26.7844C16.518 26.5579 15.9498 26.811 15.8686 27.1307C15.828 27.2772 15.7468 27.3704 15.6927 27.3305C15.6386 27.2905 15.5439 27.3571 15.5033 27.477C15.4492 27.6102 15.341 27.6635 15.2057 27.6102C15.0028 27.5303 15.0028 27.5569 15.1651 27.7567C15.2733 27.8766 15.2869 27.9432 15.2057 27.8899C15.0163 27.7833 14.0422 28.5825 14.1504 28.7557C14.2046 28.8356 14.191 28.8622 14.1099 28.8223C14.0422 28.7823 13.6905 29.0221 13.3117 29.3417C12.27 30.2874 11.6341 30.7936 11.4988 30.7936C11.4176 30.7936 11.3635 30.8335 11.35 30.8868C11.3365 31.0733 10.3489 32.0057 10.2271 31.9391C10.1595 31.9124 10.146 31.9391 10.1865 32.019C10.2677 32.1522 10.0107 32.8581 9.87538 32.8581C9.83479 32.8581 9.86185 34.4032 9.91597 36.2813C9.97008 38.1727 9.99714 44.3264 9.94302 49.974C9.87538 58.9115 9.90244 60.3367 10.0783 61.0027C10.1865 61.4289 10.2407 61.8418 10.2001 61.9217C10.146 62.015 10.173 62.0283 10.2542 61.975C10.3489 61.9217 10.4165 61.9617 10.4165 62.0816C10.4165 62.4545 10.4301 62.4945 10.633 62.6011C10.7412 62.6676 10.7953 62.7609 10.7547 62.8408C10.7006 62.9074 10.7142 62.9607 10.7818 62.9607C10.8359 62.9607 11.1606 63.2004 11.4853 63.4935C11.81 63.7732 12.3105 64.1328 12.5946 64.266C12.8787 64.4125 13.0952 64.5457 13.0681 64.5724C12.9329 64.7056 15.0839 64.7189 36.4728 64.7722C59.0386 64.8254 59.228 64.8254 59.8639 64.559C60.2156 64.4125 60.5674 64.3326 60.6485 64.3859C60.7432 64.4258 60.7703 64.4258 60.7162 64.3593C60.608 64.2527 61.9473 63.1338 62.1232 63.1871C62.1773 63.2138 62.1908 63.1072 62.1637 62.9607C62.1367 62.8008 62.1637 62.7209 62.2449 62.7609C62.3126 62.8142 62.3667 62.7742 62.3667 62.6943C62.3667 62.6144 62.4208 62.5877 62.502 62.6277C62.5831 62.681 62.5967 62.6144 62.5426 62.4812C62.4884 62.3213 62.502 62.2814 62.6237 62.348C62.7049 62.4013 62.7725 62.4013 62.7455 62.3347C62.7049 62.1482 63.0837 60.6963 63.1649 60.7496C63.2055 60.7762 63.2325 54.5027 63.219 46.8039L63.1919 32.8182L62.8672 32.2055C62.6643 31.8325 62.4614 31.6061 62.3261 31.6061C62.2043 31.6194 62.1232 31.5794 62.1637 31.5262C62.2314 31.4329 61.4603 30.6604 61.2032 30.5805C61.122 30.5538 60.7838 30.2208 60.4727 29.8612C60.148 29.4883 59.8368 29.1952 59.7827 29.1952C59.7151 29.1952 59.5392 29.0887 59.3904 28.9555C59.2416 28.8356 59.0792 28.729 59.0386 28.729C58.998 28.729 58.8357 28.5825 58.6869 28.396C58.5381 28.2096 58.3216 28.063 58.2134 28.063C58.0916 28.063 58.0375 28.0231 58.0781 27.9698C58.1322 27.9298 58.1051 27.81 58.024 27.7034C57.8887 27.5569 57.8346 27.5702 57.6858 27.7567C57.5234 27.9831 57.5099 27.9698 57.5775 27.7167C57.6181 27.5569 57.564 27.3438 57.4422 27.2372C57.334 27.1173 57.2799 26.9841 57.334 26.9175C57.3881 26.851 57.3205 26.8909 57.1852 26.9975C57.0499 27.0907 56.9552 27.1173 56.9687 27.0507C57.0228 26.8243 56.7929 26.4647 56.5764 26.4647C56.4682 26.4647 56.4141 26.4247 56.4546 26.3848C56.5493 26.2915 55.9811 25.7987 55.7782 25.7987C55.7106 25.7987 55.5212 25.6522 55.3588 25.4657C55.1965 25.2792 55.0071 25.1327 54.9394 25.1327C54.8718 25.1327 54.7906 24.9995 54.7636 24.8264C54.7365 24.6665 54.6418 24.5466 54.5471 24.5733C54.4524 24.5866 54.1818 24.4001 53.9248 24.1737C53.0725 23.3479 52.2878 22.6552 51.9631 22.4421C51.7872 22.3223 51.679 22.1624 51.7331 22.0958C51.7737 22.0292 51.5978 21.8561 51.3408 21.7229C51.0838 21.5897 50.8673 21.4298 50.8673 21.3632C50.8673 21.31 50.7997 21.2966 50.7049 21.3499C50.6102 21.4165 50.5832 21.3765 50.6373 21.2434C50.6779 21.1102 50.5697 20.9104 50.3667 20.7239C50.1638 20.5507 50.0556 20.4708 50.1097 20.564C50.1503 20.644 50.1232 20.7638 50.042 20.8171C49.9473 20.8704 49.9203 20.8571 49.9609 20.7772C50.0962 20.564 47.9586 18.7259 47.7016 18.8192C47.5663 18.8724 47.4851 18.8325 47.4851 18.6993C47.4851 18.4462 46.0105 17.0077 45.7535 17.0077C45.6452 17.0077 45.5911 16.9278 45.6317 16.8212C45.6858 16.688 45.6452 16.6481 45.537 16.688C45.4288 16.728 45.307 16.7013 45.2529 16.6214C45.2123 16.5415 45.2394 16.4749 45.3341 16.4749C45.537 16.4749 45.3611 16.2751 45.1447 16.2751C45.05 16.2618 44.9958 16.1819 45.0229 16.0886C45.0364 15.9954 45.0094 15.9554 44.9417 15.9954C44.8741 16.0353 44.59 15.8222 44.3059 15.5292C43.9947 15.1962 43.7241 15.023 43.5889 15.0763C43.413 15.1429 43.413 15.1163 43.5753 14.9165C43.7106 14.7567 43.7106 14.7167 43.5889 14.7966C43.4942 14.8499 43.3318 14.8233 43.2236 14.7433C42.9395 14.5036 42.9665 14.2771 43.2642 14.4903C43.4671 14.6368 43.4671 14.6368 43.3183 14.4769C43.2236 14.3704 43.1018 14.2771 43.0477 14.2638C42.7501 14.2239 42.2495 13.9308 42.0737 13.6778C41.8166 13.3048 41.6678 13.145 41.1672 12.7321C40.9508 12.5589 40.7343 12.3058 40.6802 12.1726C40.6396 12.0528 40.5043 11.9462 40.3826 11.9462C40.2743 11.9462 40.1796 11.8796 40.1796 11.813C40.1796 11.7331 40.0714 11.6798 39.9496 11.7064C39.8144 11.7331 39.7061 11.6798 39.7061 11.6132C39.6926 11.3734 39.4491 11.0804 39.0568 10.8407C38.8538 10.7075 38.7185 10.5476 38.7591 10.481C38.7997 10.4011 38.7591 10.3878 38.6644 10.4144C38.5562 10.4544 38.3668 10.3878 38.218 10.2679C38.0692 10.1614 38.0421 10.1081 38.1503 10.148C38.2586 10.2013 38.0556 9.97487 37.6768 9.62856C36.9057 8.92262 36.5134 8.85602 35.9181 9.36217ZM37.9609 17.1942C38.5156 17.7269 38.5562 17.8202 38.5562 18.4595C38.5562 18.8458 38.4885 19.1388 38.4074 19.1388C38.3397 19.1388 38.2991 19.1921 38.3397 19.2587C38.448 19.4319 37.8798 20.0845 37.7174 19.9913C37.6362 19.938 37.6092 19.9647 37.6633 20.0446C37.7851 20.2577 36.8651 20.5108 36.351 20.4042C35.7422 20.271 35.0387 19.7249 34.8223 19.1788C34.6193 18.7126 34.687 17.8069 34.917 17.8069C34.9846 17.8069 35.0252 17.7669 35.0117 17.7003C34.944 17.5005 35.5664 16.8478 35.7287 16.9544C35.8234 17.0077 35.8505 16.9944 35.7963 16.9011C35.6746 16.7147 35.9316 16.6347 36.7163 16.6214C37.3251 16.6081 37.4198 16.6614 37.9609 17.1942ZM23.9452 21.4032C23.9452 21.4698 23.8235 21.5364 23.6611 21.5364C23.5123 21.5364 23.4311 21.4698 23.4717 21.4032C23.5123 21.3233 23.6476 21.27 23.7558 21.27C23.864 21.27 23.9452 21.3233 23.9452 21.4032ZM33.6588 23.2679C33.6859 23.3212 33.8212 23.3479 33.9564 23.3079C34.1188 23.2679 34.227 23.3079 34.227 23.4011C34.227 23.4944 34.3352 23.521 34.5111 23.4677C34.7276 23.4011 34.7682 23.4145 34.7005 23.5343C34.6329 23.6409 34.6464 23.6809 34.7276 23.6276C34.8899 23.521 35.5934 23.8007 36.1751 24.187C36.4863 24.3868 36.6216 24.4134 36.811 24.2936C36.9463 24.2136 37.0139 24.0938 36.9733 24.0139C36.9328 23.9473 36.9598 23.9339 37.041 23.9872C37.1222 24.0272 37.4333 23.9473 37.7309 23.7874C38.0286 23.6409 38.3533 23.561 38.4344 23.6143C38.5291 23.6675 38.5562 23.6542 38.5156 23.5743C38.4074 23.4145 39.8008 23.0682 40.112 23.1747C40.2473 23.2413 40.3014 23.2147 40.2337 23.1081C40.1661 23.0016 40.4502 22.9882 41.3431 23.0682C42.006 23.1348 42.7095 23.188 42.9124 23.188C43.1018 23.2013 43.2371 23.2413 43.2101 23.2946C43.183 23.3345 43.3724 23.4544 43.6295 23.5343C43.8865 23.6143 44.103 23.7341 44.103 23.7874C44.103 23.8407 44.1841 23.894 44.2788 23.894C44.6441 23.894 45.9699 24.8663 46.714 25.6788C47.1469 26.145 47.5798 26.5313 47.661 26.5313C47.7557 26.5446 47.8098 26.6245 47.7828 26.7178C47.7692 26.811 47.9045 27.1973 48.0939 27.5835C48.2833 27.9565 48.4457 28.5159 48.4727 28.8223C48.4862 29.1153 48.5404 29.3417 48.5809 29.3151C48.7027 29.2485 48.838 30.354 48.838 31.3131C48.8245 32.2721 48.4051 34.0836 48.1886 34.1635C48.0939 34.1901 48.0533 34.27 48.0939 34.3366C48.1886 34.4698 47.8369 35.1625 47.3904 35.7485C47.201 35.9883 47.0928 36.2413 47.1469 36.3213C47.201 36.4012 47.174 36.4411 47.1063 36.4278C46.8899 36.3612 45.4423 37.7997 45.5505 37.9596C45.6046 38.0528 45.537 38.0395 45.4152 37.9329C45.2258 37.7864 45.1717 37.7864 45.0905 37.9995C45.0364 38.1327 45.0635 38.2526 45.1582 38.2926C45.4423 38.3858 45.3341 38.5856 44.9958 38.5856C44.7794 38.5856 44.6306 38.6788 44.5765 38.852C44.5223 38.9985 44.4276 39.0784 44.3465 39.0385C44.1435 38.9053 43.4265 39.6645 43.4265 40.0108C43.4265 40.1973 43.3724 40.3039 43.3048 40.2506C43.2236 40.2106 43.1965 40.0508 43.2236 39.9043C43.2777 39.6778 43.2506 39.6512 43.0883 39.7844C42.9801 39.8776 42.926 39.9975 42.9665 40.0641C43.0071 40.1307 42.9665 40.184 42.8854 40.184C42.8042 40.184 42.6554 40.3705 42.5607 40.5969C42.466 40.8233 42.3307 41.0098 42.2631 41.0231C42.1954 41.0364 42.1548 41.103 42.1819 41.183C42.2089 41.2496 42.1819 41.2762 42.1413 41.2229C42.0872 41.1696 41.9248 41.183 41.776 41.2629C41.5596 41.3828 41.546 41.436 41.6813 41.6225C41.8301 41.809 41.8301 41.8223 41.6678 41.6758C41.5054 41.5426 41.3837 41.6092 40.9643 42.0088C40.6802 42.2752 40.4502 42.5815 40.4502 42.6748C40.4502 42.768 40.369 42.8346 40.2879 42.808C40.1932 42.7946 40.1255 42.8479 40.139 42.9412C40.1661 43.0477 40.0849 43.0744 39.9496 43.0211C39.7738 42.9545 39.7467 42.9944 39.8279 43.1809C39.882 43.3274 39.882 43.394 39.8279 43.3407C39.6791 43.2076 39.2191 43.6604 39.3273 43.8336C39.3814 43.9135 39.3273 43.9002 39.2056 43.8069C39.0297 43.6737 38.9621 43.6737 38.8809 43.7936C38.8132 43.9002 38.8403 43.9268 38.9756 43.8602C39.0838 43.8069 39.0162 43.8735 38.8268 44.0201C38.6509 44.1666 38.4344 44.2598 38.3668 44.2198C38.2991 44.1799 38.2856 44.2065 38.3397 44.2864C38.3803 44.3664 38.2315 44.5129 38.0015 44.6328C37.4739 44.8858 35.8505 45.0723 35.8505 44.8725C35.8505 44.8059 35.7287 44.766 35.5799 44.8059C35.4175 44.8459 35.2823 44.7926 35.2281 44.6594C35.1875 44.5395 35.0928 44.4862 35.0252 44.5262C34.9576 44.5662 34.9034 44.5262 34.9034 44.4463C34.9034 44.3664 34.8493 44.3264 34.7817 44.3797C34.7005 44.4196 34.5788 44.3264 34.4976 44.1799C34.4164 44.0334 34.2811 43.9135 34.1864 43.9135C33.997 43.9002 32.6442 42.6481 31.4266 41.3428C30.9531 40.85 30.5743 40.477 30.5743 40.517C30.5743 40.5702 30.2631 40.3172 29.8843 39.9575C29.5055 39.6112 29.1402 39.3315 29.0726 39.3448C29.0049 39.3715 28.9644 39.3182 28.9914 39.2516C29.0049 39.1717 28.4773 38.5989 27.8009 37.9729C27.138 37.3469 26.6645 36.8807 26.7727 36.934C26.8809 36.9873 26.6509 36.7209 26.2586 36.3346C25.8663 35.9483 25.5416 35.5221 25.5281 35.3756C25.5145 35.2424 25.4604 35.1225 25.4063 35.1225C25.2575 35.1225 24.7705 34.0702 24.7299 33.6573C24.7028 33.4708 24.6352 33.2844 24.5675 33.2311C24.4864 33.1778 24.4322 32.8049 24.4322 32.4053C24.4187 31.9924 24.3781 31.6594 24.324 31.6594C24.2564 31.6594 24.2158 31.3797 24.2158 31.0467C24.2158 30.7137 24.2699 30.4739 24.3375 30.5139C24.4052 30.5671 24.4322 30.3674 24.3917 30.061C24.3375 29.7413 24.3646 29.5282 24.4593 29.5282C24.5269 29.5282 24.5675 29.4083 24.5269 29.2618C24.4864 29.1153 24.5134 28.9954 24.5946 28.9954C24.6758 28.9954 24.7028 28.8622 24.6487 28.7024C24.5946 28.4893 24.6216 28.4493 24.7569 28.5292C24.8787 28.6092 24.9057 28.5825 24.8246 28.476C24.7705 28.3827 24.784 28.1696 24.8652 28.0231C24.9328 27.8632 25.0681 27.5303 25.1628 27.2905C25.2575 27.0641 25.3793 26.8643 25.4469 26.8643C25.5145 26.8643 25.5687 26.7844 25.5687 26.6778C25.5687 26.5712 25.7039 26.3848 25.8798 26.2649C26.0422 26.1583 26.1774 26.0118 26.1774 25.9585C26.1774 25.9053 26.2451 25.8786 26.3127 25.9053C26.3939 25.9319 26.4074 25.9053 26.3398 25.852C26.2045 25.7055 27.2056 24.7198 27.3815 24.8264C27.4627 24.8663 27.4897 24.8663 27.4356 24.7997C27.3409 24.7065 27.8685 24.2003 28.0579 24.2003C28.112 24.2003 28.3285 24.0671 28.545 23.9206C28.7614 23.7608 29.032 23.6675 29.1402 23.7075C29.262 23.7608 29.3567 23.7341 29.3567 23.6675C29.3567 23.5077 30.2766 23.228 30.5202 23.3212C30.6284 23.3612 30.6825 23.3479 30.6419 23.2813C30.6013 23.2013 30.8043 23.1214 31.0748 23.0948C31.7919 23.0016 33.6047 23.1214 33.6588 23.2679ZM58.741 42.8746C58.8763 42.8879 59.0386 43.0744 59.1063 43.2742C59.1874 43.4739 59.2821 43.6471 59.3227 43.6471C59.3633 43.6471 59.3633 43.5805 59.3227 43.5139C59.2821 43.434 59.2686 43.3807 59.3092 43.3807C59.4715 43.3807 60.0803 44.433 59.9992 44.5662C59.9586 44.6461 59.9856 44.7127 60.0533 44.7127C60.2427 44.7127 60.2427 45.7383 60.0668 45.8449C59.9856 45.8981 59.9586 45.9914 60.0127 46.058C60.2291 46.4176 58.971 47.7363 53.9924 52.3449C53.4377 52.8643 53.0589 53.3039 53.1131 53.3971C53.1672 53.4904 53.1536 53.5037 53.0589 53.4504C52.9778 53.3971 52.7884 53.4637 52.6531 53.5969C52.5178 53.7301 52.2878 53.9033 52.139 53.9832C52.0037 54.0631 51.8819 54.1963 51.8819 54.2896C51.8819 54.3695 51.8414 54.4227 51.7872 54.3961C51.6384 54.3428 51.0026 54.9955 51.0838 55.1287C51.1243 55.1953 51.0838 55.2219 50.9755 55.2086C50.8673 55.182 50.8132 55.2619 50.8402 55.4217C50.8673 55.5549 50.8267 55.6215 50.7591 55.5816C50.5967 55.4883 49.4738 56.4873 49.6091 56.6072C49.6497 56.6605 49.6227 56.7004 49.5415 56.7004C49.3115 56.7004 48.6892 57.4064 48.7568 57.5928C48.7974 57.6861 48.7433 57.726 48.6621 57.6861C48.5674 57.6594 48.2563 57.8592 47.9722 58.1523C47.6745 58.4453 47.3904 58.6584 47.3228 58.6185C47.2687 58.5785 47.2146 58.6185 47.2146 58.6984C47.2146 58.8849 45.4423 60.5898 45.3476 60.5099C45.3205 60.4699 45.0905 60.6697 44.847 60.9627C44.5088 61.3623 44.3735 61.4422 44.2382 61.3224C44.103 61.2025 44.0894 61.2025 44.1571 61.3224C44.2112 61.4156 44.1977 61.4955 44.1165 61.4955C44.0488 61.4955 43.9 61.5754 43.8053 61.6553C43.7106 61.7486 43.413 61.9084 43.1559 62.0017C42.5201 62.2414 38.8944 62.4412 36.8651 62.3613C35.2958 62.2947 24.2699 62.1748 17.9385 62.1482C15.1516 62.1482 14.7863 62.1215 14.3263 61.8818C13.5011 61.4822 12.5811 60.35 12.784 60.0303C12.8246 59.9504 12.7976 59.8972 12.7029 59.8972C12.6217 59.8972 12.5811 59.7906 12.6217 59.6308C12.6623 59.4842 12.6488 59.391 12.5946 59.4176C12.5405 59.4576 12.4999 58.8849 12.4864 58.1656C12.4864 57.3131 12.5405 56.8736 12.6217 56.9269C12.7029 56.9668 12.7164 56.9402 12.6623 56.8469C12.5405 56.6605 12.8517 55.3551 13.0005 55.4351C13.0546 55.475 13.0952 55.4217 13.0817 55.3285C13.0681 54.9023 13.1358 54.6891 13.2576 54.7691C13.3387 54.8223 13.3523 54.7557 13.2981 54.6225C13.2305 54.4494 13.2576 54.4227 13.3928 54.5027C13.5011 54.5693 13.5417 54.556 13.4875 54.4627C13.3523 54.2629 13.5281 53.89 13.704 53.9965C13.7716 54.0365 13.7987 54.0098 13.7446 53.9299C13.6499 53.7834 14.4481 52.4381 14.6239 52.4381C14.6916 52.4381 14.7457 52.3582 14.7457 52.265C14.7457 52.1717 14.8675 52.0252 15.0163 51.932C15.1651 51.8387 15.3004 51.6922 15.3004 51.599C15.3139 51.5191 15.7198 51.0795 16.2068 50.6399C16.6938 50.2004 17.0456 49.934 16.9779 50.0406C16.9238 50.1471 17.0321 50.0672 17.2215 49.8674C17.6273 49.4279 18.8043 48.6553 18.9125 48.7619C18.9531 48.8018 19.0478 48.7619 19.129 48.6553C19.3725 48.3623 20.9418 47.8162 22.2 47.5897C24.3781 47.1901 27.5303 47.4166 29.2349 48.0959C29.6949 48.2824 30.1413 48.4022 30.2225 48.349C30.3037 48.309 30.3308 48.309 30.2766 48.3756C30.1413 48.5221 31.0478 49.0949 31.6295 49.2281C31.9136 49.2947 32.0354 49.3613 31.9271 49.3613C31.7513 49.3746 31.7513 49.3879 31.9271 49.5078C32.0489 49.5877 33.6859 49.641 35.864 49.641C40.0038 49.641 40.4502 49.7076 41.289 50.4801C41.8843 51.0262 42.2495 51.6123 42.1548 51.852C42.1142 51.9719 42.1413 52.0119 42.2089 51.9719C42.2901 51.9186 42.3442 52.225 42.3442 52.7578C42.3442 53.2773 42.2901 53.6369 42.2089 53.6369C42.1142 53.6369 42.1142 53.7168 42.2089 53.9033C42.3307 54.1164 42.3172 54.143 42.1413 54.0898C42.0195 54.0365 41.9384 54.0498 41.9519 54.1164C41.9925 54.3828 41.9113 54.5293 41.4243 55.0488C40.8831 55.6482 40.3826 55.9545 40.1796 55.8346C40.0985 55.7947 40.0443 55.808 40.0443 55.8746C40.0443 55.9412 37.8527 55.9678 35.0252 55.9412C30.2766 55.9012 29.979 55.8879 29.5596 55.6348C29.3296 55.4883 29.0726 55.4217 29.0185 55.475C28.9508 55.5283 28.9508 55.4883 29.0049 55.3951C29.0591 55.3152 29.032 55.2353 28.9644 55.2353C28.8832 55.2353 28.8155 55.1553 28.8155 55.0488C28.8155 54.8223 27.4356 53.8766 26.7186 53.6102C25.7445 53.2506 24.2158 53.7301 24.2158 54.4094C24.2158 54.5027 24.1617 54.5426 24.0805 54.5027C24.0129 54.4627 23.9452 54.4893 23.9452 54.5693C23.9452 54.849 24.324 55.1021 24.7569 55.1021C25.0005 55.1021 25.1493 55.1553 25.0951 55.2353C25.0546 55.3019 25.0951 55.3285 25.2034 55.2885C25.4334 55.2086 26.7186 56.0344 26.7186 56.2609C26.7186 56.3541 26.7592 56.4207 26.8133 56.3941C26.9486 56.3541 27.598 56.9935 27.598 57.1932C27.598 57.2865 27.6791 57.3531 27.7738 57.3398C27.855 57.3131 27.9091 57.393 27.8956 57.4996C27.8685 57.6062 27.8956 57.6594 27.9497 57.6062C28.0309 57.5262 28.7208 57.8992 28.9508 58.1656C28.9914 58.2055 29.1673 58.2455 29.3567 58.2721C29.5326 58.2855 29.722 58.3521 29.7625 58.4053C29.8708 58.5519 40.7208 58.5252 40.7208 58.3787C40.7208 58.3121 40.7614 58.2855 40.802 58.3387C40.8561 58.3787 41.0996 58.3387 41.3431 58.2322C41.6001 58.1256 41.8031 58.0857 41.8031 58.1256C41.8031 58.1789 41.8843 58.1123 41.979 57.9791C42.0737 57.8592 42.236 57.7394 42.3442 57.7127C42.5472 57.6861 43.873 56.434 43.7106 56.434C43.67 56.4207 43.7783 56.3008 43.9541 56.1676C44.13 56.0211 44.2247 55.9012 44.1706 55.9012C44.1165 55.9012 44.1435 55.808 44.2382 55.7014C44.3329 55.5949 44.3735 55.5016 44.3194 55.5016C44.2653 55.5016 44.3735 55.2486 44.5359 54.9289C44.6982 54.6225 44.847 54.1564 44.847 53.9166C44.8606 53.6635 44.9417 53.4238 45.0229 53.3971C45.1176 53.3705 45.1852 53.2639 45.1852 53.1574C45.1852 53.0508 45.2529 52.9709 45.3341 52.9709C45.5099 52.9709 46.8087 51.6656 46.8087 51.4924C46.8087 51.4258 46.8493 51.3859 46.9169 51.3859C46.971 51.3992 47.0522 51.3859 47.1199 51.3725C47.174 51.3592 47.2957 51.3326 47.3904 51.3193C47.4716 51.3193 47.5528 51.2393 47.5528 51.1594C47.5528 51.0928 47.8098 50.7865 48.1074 50.4934C48.4186 50.2137 49.1492 49.5211 49.7174 48.975C50.2991 48.4289 50.732 48.0692 50.6644 48.1758C50.5967 48.2824 50.7185 48.2291 50.9214 48.0426C51.1379 47.8428 51.2596 47.6164 51.2326 47.4832C51.192 47.3633 51.2055 47.2701 51.2596 47.2834C51.3814 47.31 52.0172 46.8838 52.3419 46.5641C52.4637 46.4442 53.0048 45.8848 53.5595 45.3387C54.1142 44.7793 54.6147 44.353 54.6689 44.393C54.7365 44.4196 54.9259 44.2465 55.0882 43.9801C55.2641 43.727 55.5347 43.4739 55.697 43.434C55.8594 43.394 56.0217 43.2742 56.0623 43.1676C56.1029 43.061 56.2788 42.9278 56.4411 42.8612C56.7117 42.768 57.9293 42.768 58.741 42.8746Z" fill="#1D4ED8"/>
  <path d="M39.3679 27.9165C39.3679 28.0364 39.2326 28.0764 38.9756 28.0364C38.7456 28.0098 38.5968 28.0231 38.6238 28.0764C38.6644 28.1296 38.5291 28.2096 38.3127 28.2628C38.1097 28.3028 37.8121 28.4626 37.6633 28.6092C37.5009 28.7557 37.298 28.8622 37.1898 28.8356C37.0951 28.809 37.0139 28.8755 37.0004 28.9821C37.0004 29.0887 36.9057 29.2352 36.7704 29.3018C36.5945 29.4217 36.3916 29.3284 35.7963 28.8889C34.9034 28.2229 33.6994 27.8633 32.8336 27.9965C32.1165 28.1163 30.2766 28.9688 30.2902 29.1819C30.3172 29.4217 30.2902 29.5282 30.1278 29.6881C30.0331 29.7813 29.8843 30.0344 29.7761 30.2608C29.5731 30.7137 29.2214 32.8715 29.3567 32.7915C29.4108 32.7516 29.492 32.978 29.5461 33.2711C29.6408 33.8838 29.8708 34.3766 30.2902 34.8428C30.439 35.0159 30.5337 35.2157 30.4796 35.2957C30.439 35.3623 30.4525 35.3889 30.5337 35.3489C30.7096 35.2424 31.5619 36.1082 31.4266 36.2414C31.3589 36.2946 31.386 36.3213 31.4807 36.2946C31.6295 36.2547 33.0365 37.4401 33.7941 38.2393C33.997 38.4524 34.3894 38.8387 34.6599 39.0918C34.944 39.3448 35.1334 39.6112 35.0928 39.6778C35.0523 39.7444 35.0928 39.7711 35.2011 39.7578C35.2958 39.7311 35.3634 39.7977 35.3364 39.891C35.3228 39.9975 35.3634 40.0375 35.4175 39.9975C35.4852 39.9576 35.6475 40.0375 35.7693 40.1707C36.0804 40.517 36.838 40.5037 37.2845 40.144C37.8662 39.6778 40.0985 37.6 40.1661 37.4668C40.1932 37.4135 40.342 37.2536 40.4908 37.1338C41.1808 36.6143 43.0071 34.8028 42.9395 34.7096C42.9124 34.6563 42.953 34.5631 43.0612 34.4965C43.1559 34.4432 43.3048 34.1502 43.3995 33.8571C43.5889 33.2444 43.7106 31.5262 43.5618 31.5262C43.5077 31.5262 43.4806 31.3397 43.4942 31.1133C43.5077 30.8735 43.3995 30.5139 43.2101 30.2608C43.0477 30.021 42.9395 29.7813 42.9801 29.7413C43.0207 29.7014 42.8989 29.6348 42.696 29.5815C42.2495 29.4749 42.236 29.2751 42.6824 29.3151C42.8583 29.3417 42.9801 29.3018 42.9395 29.2485C42.8989 29.1819 42.7636 29.1286 42.6283 29.1286C42.3442 29.1286 41.7625 28.6225 41.8707 28.4626C41.9113 28.4094 41.7895 28.3694 41.6001 28.3827C41.4243 28.4094 41.3025 28.3827 41.3296 28.3294C41.4107 28.2096 40.7343 28.063 40.1255 28.063C39.882 28.063 39.625 27.9965 39.5303 27.9032C39.4085 27.7833 39.3679 27.7833 39.3679 27.9165Z" fill="#1D4ED8"/>
  <path d="M21.6047 21.896C21.4965 21.9893 21.7536 22.3356 21.9294 22.3356C21.9971 22.3356 22.0512 22.2157 22.0512 22.0692C22.0512 21.8161 21.7806 21.7095 21.6047 21.896Z" fill="#1D4ED8"/>
  <path d="M9.79421 43.2475C9.79421 44.5262 9.82126 45.059 9.83479 44.4063C9.86185 43.767 9.86185 42.728 9.83479 42.0754C9.82126 41.436 9.79421 41.9688 9.79421 43.2475Z" fill="#1D4ED8"/>
  <path d="M9.79421 48.2424C9.79421 49.1881 9.80773 49.5611 9.83479 49.0682C9.86185 48.5754 9.86185 47.7895 9.83479 47.3367C9.80773 46.8838 9.79421 47.2834 9.79421 48.2424Z" fill="#1D4ED8"/>
  </svg>
  