<svg width="233" height="229" viewBox="0 0 233 229" fill="none" xmlns="http://www.w3.org/2000/svg">
<path d="M116.147 229C180.294 229 232.295 225.407 232.295 220.975C232.295 216.543 180.294 212.95 116.147 212.95C52.001 212.95 0 216.543 0 220.975C0 225.407 52.001 229 116.147 229Z" fill="#F5F5F5"/>
<path d="M114.02 186.891C113.936 186.892 113.855 186.862 113.791 186.807C113.727 186.753 113.685 186.677 113.673 186.593C113.673 186.515 112.255 178.228 107.187 173.578C103.104 169.842 98.9215 161.654 98.7443 161.307C98.7225 161.265 98.7093 161.22 98.7053 161.174C98.7014 161.127 98.7069 161.08 98.7214 161.036C98.736 160.992 98.7593 160.951 98.7901 160.916C98.8208 160.881 98.8583 160.852 98.9003 160.832C98.984 160.79 99.0809 160.782 99.1699 160.812C99.2589 160.841 99.3327 160.904 99.3752 160.988C99.4177 161.073 103.678 169.409 107.662 173.039C112.929 177.852 114.311 186.111 114.368 186.459C114.382 186.551 114.36 186.646 114.306 186.723C114.251 186.8 114.169 186.852 114.077 186.87L114.02 186.891Z" fill="#263238"/>
<path d="M108.244 175.669C108.244 175.669 102.842 174.358 104.699 178.292C106.556 182.226 110.888 180.539 110.888 180.539C110.888 180.539 114.567 177.633 112.688 174.159C110.81 170.686 108.244 175.669 108.244 175.669Z" fill="#15803D"/>
<path opacity="0.1" d="M112.709 174.124C110.831 170.58 108.244 175.669 108.244 175.669C108.244 175.669 107.854 178.2 110.909 180.539C110.909 180.539 114.588 177.633 112.709 174.124Z" fill="#09090B"/>
<path d="M99.2835 161.201C99.2835 161.201 95.8597 157.423 95.7392 161.25C95.6186 165.078 99.3898 166.113 99.3898 166.113C99.3898 166.113 103.118 165.943 103.048 162.42C102.977 158.897 99.2835 161.201 99.2835 161.201Z" fill="#15803D"/>
<path opacity="0.1" d="M103.083 162.399C103.005 158.854 99.283 161.179 99.283 161.179C99.283 161.179 98.078 162.803 99.4248 166.092C99.4248 166.092 103.153 165.922 103.083 162.399Z" fill="#09090B"/>
<path d="M103.622 168.29C103.622 168.29 102.275 162.959 105.189 164.54C108.102 166.121 107.258 170.587 107.258 170.587C107.258 170.587 105.5 174.521 102.885 172.912C100.269 171.303 103.622 168.29 103.622 168.29Z" fill="#15803D"/>
<path opacity="0.1" d="M102.884 172.933C100.262 171.317 103.593 168.311 103.593 168.311C103.593 168.311 105.344 167.723 107.23 170.608C107.258 170.608 105.514 174.542 102.884 172.933Z" fill="#09090B"/>
<path d="M118.508 186.892C118.475 186.899 118.441 186.899 118.408 186.892C118.363 186.879 118.321 186.858 118.284 186.829C118.247 186.8 118.217 186.764 118.194 186.723C118.172 186.682 118.158 186.637 118.153 186.59C118.148 186.544 118.153 186.497 118.167 186.452C118.259 186.14 120.457 178.81 125.965 174.663C129.19 172.244 131.851 169.153 133.762 165.603C133.781 165.561 133.809 165.523 133.843 165.491C133.877 165.46 133.917 165.435 133.96 165.419C134.004 165.403 134.05 165.397 134.097 165.399C134.143 165.401 134.188 165.413 134.23 165.433C134.273 165.453 134.311 165.481 134.343 165.516C134.374 165.55 134.399 165.591 134.414 165.635C134.43 165.679 134.437 165.726 134.435 165.773C134.432 165.82 134.421 165.866 134.4 165.908C132.455 169.565 129.724 172.746 126.404 175.223C121.081 179.235 118.876 186.566 118.855 186.651C118.83 186.722 118.783 186.784 118.72 186.827C118.658 186.87 118.583 186.893 118.508 186.892Z" fill="#263238"/>
<path d="M117.487 186.892C117.396 186.892 117.309 186.857 117.244 186.795C117.178 186.733 117.138 186.649 117.132 186.558C117.132 186.495 116.736 180.122 116.317 174.153C115.899 168.184 113.772 164.937 113.751 164.937C113.725 164.898 113.707 164.854 113.699 164.808C113.69 164.762 113.69 164.715 113.7 164.67C113.71 164.624 113.729 164.581 113.756 164.543C113.783 164.504 113.818 164.472 113.858 164.448C113.937 164.397 114.032 164.38 114.124 164.4C114.216 164.42 114.296 164.475 114.347 164.554C114.439 164.696 116.601 168.098 117.026 174.138C117.451 180.178 117.841 186.488 117.841 186.551C117.844 186.598 117.838 186.645 117.823 186.689C117.807 186.733 117.784 186.773 117.753 186.808C117.722 186.843 117.684 186.872 117.642 186.892C117.6 186.912 117.555 186.924 117.508 186.927L117.487 186.892Z" fill="#263238"/>
<path d="M116.218 169.707C116.218 169.707 114.645 165.567 118.479 166.638C122.314 167.708 120.989 171.295 120.989 171.295C120.989 171.295 118.472 174.513 115.034 173.422C111.596 172.33 116.218 169.707 116.218 169.707Z" fill="#15803D"/>
<path opacity="0.1" d="M115.034 173.429C111.596 172.309 116.218 169.736 116.218 169.736C117.082 169.608 117.964 169.685 118.793 169.961C119.622 170.237 120.374 170.704 120.989 171.324C120.989 171.324 118.472 174.542 115.034 173.429Z" fill="#09090B"/>
<path d="M131.204 170.416C131.204 170.416 129.63 166.283 133.472 167.354C137.314 168.424 135.981 172.011 135.981 172.011C135.981 172.011 133.458 175.229 130.02 174.138C126.582 173.046 131.204 170.416 131.204 170.416Z" fill="#15803D"/>
<path opacity="0.1" d="M130.02 174.139C126.582 173.026 131.204 170.445 131.204 170.445C132.069 170.32 132.952 170.399 133.782 170.676C134.611 170.953 135.364 171.42 135.981 172.04C135.981 172.04 133.458 175.259 130.02 174.139Z" fill="#09090B"/>
<path d="M122.57 179.32C122.57 179.32 121.804 174.868 125.349 176.931C128.893 178.994 126.929 182.134 126.929 182.134C126.929 182.134 123.874 184.608 120.727 182.609C117.58 180.61 122.57 179.32 122.57 179.32Z" fill="#15803D"/>
<path opacity="0.1" d="M120.727 182.609C117.587 180.61 122.57 179.32 122.57 179.32C122.57 179.32 124.987 179.384 126.929 182.156C126.929 182.134 123.874 184.594 120.727 182.609Z" fill="#09090B"/>
<path d="M116.622 176.86C116.622 176.86 115.552 174.025 118.168 174.769C118.504 174.838 118.821 174.98 119.096 175.185C119.372 175.389 119.599 175.652 119.762 175.954C119.925 176.256 120.02 176.591 120.039 176.933C120.059 177.276 120.003 177.619 119.876 177.938C119.876 177.938 118.161 180.135 115.814 179.355C113.468 178.576 116.622 176.86 116.622 176.86Z" fill="#15803D"/>
<path opacity="0.1" d="M115.814 179.377C113.468 178.618 116.622 176.861 116.622 176.861C117.211 176.773 117.812 176.825 118.377 177.012C118.942 177.199 119.456 177.516 119.876 177.938C119.876 177.938 118.161 180.135 115.814 179.377Z" fill="#09090B"/>
<path d="M114.29 164.469C114.29 164.469 115.637 160.159 112.518 161.364C109.399 162.569 110.391 166.234 110.391 166.234C110.391 166.234 112.369 169.488 115.162 168.254C117.955 167.021 114.29 164.469 114.29 164.469Z" fill="#15803D"/>
<path opacity="0.1" d="M115.183 168.289C118.018 167.049 114.29 164.504 114.29 164.504C114.29 164.504 112.39 163.965 110.412 166.269C110.412 166.234 112.39 169.487 115.183 168.289Z" fill="#09090B"/>
<path d="M133.869 164.114C133.869 164.114 132.337 161.427 134.648 161.626C136.959 161.824 136.775 164.546 136.775 164.546C136.775 164.546 135.875 167.183 133.776 166.893C131.678 166.602 133.869 164.114 133.869 164.114Z" fill="#15803D"/>
<path opacity="0.1" d="M133.784 166.872C131.657 166.589 133.869 164.093 133.869 164.093C133.869 164.093 135.095 163.342 136.782 164.526C136.782 164.547 135.882 167.184 133.784 166.872Z" fill="#09090B"/>
<path d="M127 173.5C127 173.5 132.465 172.606 129.608 169.636C126.752 166.666 123.144 169.948 123.144 169.948C123.144 169.948 120.471 174.145 123.214 176.718C125.958 179.291 127 173.5 127 173.5Z" fill="#15803D"/>
<path opacity="0.1" d="M123.236 176.719C125.979 179.292 127.021 173.5 127.021 173.5C127.021 173.5 126.695 170.956 123.165 169.956C123.143 169.949 120.471 174.145 123.236 176.719Z" fill="#09090B"/>
<path d="M113.035 180.943C113.035 180.943 111.688 175.605 114.602 177.186C117.515 178.767 116.671 183.24 116.671 183.24C116.671 183.24 114.914 187.174 112.298 185.558C109.682 183.942 113.035 180.943 113.035 180.943Z" fill="#15803D"/>
<path opacity="0.1" d="M112.299 185.559C109.676 183.943 113.007 180.944 113.007 180.944C113.007 180.944 114.751 180.349 116.644 183.241C116.672 183.241 114.914 187.175 112.299 185.559Z" fill="#09090B"/>
<path d="M105.096 212.951V216.495H107.931C107.981 216.051 108.199 215.642 108.54 215.352C108.881 215.062 109.32 214.913 109.767 214.936H124.341C124.802 214.905 125.257 215.056 125.607 215.357C125.957 215.658 126.175 216.085 126.213 216.545H129.048V213.001L105.096 212.951Z" fill="#263238"/>
<path d="M128.857 213.327H105.252C103.43 213.327 101.878 209.782 101.601 204.891L100.602 187.558C100.586 187.293 100.625 187.027 100.716 186.777C100.807 186.527 100.949 186.299 101.131 186.106C101.314 185.912 101.534 185.759 101.778 185.654C102.022 185.549 102.285 185.495 102.551 185.495H131.558C131.824 185.494 132.088 185.547 132.332 185.652C132.577 185.756 132.798 185.91 132.98 186.103C133.163 186.297 133.304 186.526 133.395 186.776C133.486 187.026 133.524 187.292 133.507 187.558L132.515 204.891C132.231 209.747 130.679 213.327 128.857 213.327Z" fill="#263238"/>
<path opacity="0.2" d="M128.857 213.327H105.252C103.43 213.327 101.878 209.782 101.601 204.891L100.602 187.558C100.586 187.293 100.625 187.027 100.716 186.777C100.807 186.527 100.949 186.299 101.131 186.106C101.314 185.912 101.534 185.759 101.778 185.654C102.022 185.549 102.285 185.495 102.551 185.495H131.558C131.824 185.494 132.088 185.547 132.332 185.652C132.577 185.756 132.798 185.91 132.98 186.103C133.163 186.297 133.304 186.526 133.395 186.776C133.486 187.026 133.524 187.292 133.507 187.558L132.515 204.891C132.231 209.747 130.679 213.327 128.857 213.327Z" fill="#FAFAFA"/>
<path d="M112.639 39.0281C112.545 39.0281 112.454 38.9907 112.388 38.9243C112.322 38.8578 112.284 38.7676 112.284 38.6736V31.6913C112.284 31.5973 112.322 31.5072 112.388 31.4407C112.454 31.3743 112.545 31.3369 112.639 31.3369C112.733 31.3369 112.823 31.3743 112.889 31.4407C112.956 31.5072 112.993 31.5973 112.993 31.6913V38.6736C112.993 38.7676 112.956 38.8578 112.889 38.9243C112.823 38.9907 112.733 39.0281 112.639 39.0281Z" fill="#15803D"/>
<path d="M104.182 40.6161C104.131 40.6157 104.081 40.6047 104.035 40.584C103.988 40.5633 103.947 40.5332 103.912 40.4956L101.261 37.3483C101.225 37.314 101.196 37.2724 101.177 37.2262C101.158 37.1801 101.149 37.1305 101.151 37.0805C101.152 37.0306 101.164 36.9816 101.186 36.9366C101.207 36.8917 101.238 36.8518 101.277 36.8197C101.315 36.7875 101.359 36.7638 101.407 36.75C101.455 36.7363 101.506 36.7328 101.555 36.7399C101.604 36.747 101.652 36.7644 101.694 36.7911C101.736 36.8177 101.772 36.853 101.8 36.8946L104.472 40.0349C104.532 40.1077 104.562 40.2011 104.554 40.2952C104.546 40.3892 104.501 40.4764 104.43 40.5381C104.359 40.5923 104.271 40.6199 104.182 40.6161Z" fill="#15803D"/>
<path d="M106.407 43.2397C106.356 43.2402 106.304 43.229 106.258 43.2069C106.211 43.1848 106.17 43.1524 106.138 43.1121L105.344 42.1835C105.283 42.112 105.253 42.0192 105.26 41.9255C105.267 41.8318 105.311 41.7448 105.383 41.6837C105.454 41.6226 105.547 41.5924 105.641 41.5997C105.735 41.607 105.822 41.6513 105.883 41.7227L106.677 42.6584C106.719 42.71 106.747 42.7727 106.756 42.8392C106.764 42.9057 106.754 42.9734 106.726 43.0343C106.698 43.0952 106.653 43.1468 106.596 43.1831C106.54 43.2195 106.474 43.2391 106.407 43.2397Z" fill="#15803D"/>
<path d="M118.926 43.183C118.859 43.1824 118.793 43.1628 118.737 43.1264C118.68 43.0901 118.635 43.0384 118.607 42.9776C118.579 42.9167 118.569 42.849 118.577 42.7825C118.586 42.7159 118.613 42.6532 118.656 42.6017L121.634 39.0928C121.664 39.0574 121.701 39.0284 121.742 39.0073C121.784 38.9862 121.829 38.9734 121.875 38.9698C121.922 38.9662 121.968 38.9718 122.013 38.9862C122.057 39.0006 122.098 39.0236 122.133 39.0538C122.169 39.0841 122.198 39.121 122.219 39.1625C122.24 39.204 122.253 39.2492 122.256 39.2956C122.26 39.342 122.254 39.3887 122.24 39.433C122.226 39.4772 122.203 39.5182 122.172 39.5536L119.195 43.0554C119.162 43.0953 119.121 43.1274 119.075 43.1495C119.028 43.1716 118.977 43.183 118.926 43.183Z" fill="#15803D"/>
<path d="M123.101 38.2627C123.017 38.2624 122.937 38.2323 122.874 38.1776C122.803 38.1159 122.758 38.0286 122.75 37.9346C122.742 37.8406 122.771 37.7471 122.831 37.6743L123.498 36.8945C123.56 36.8232 123.647 36.7788 123.741 36.7708C123.835 36.7629 123.928 36.792 124.001 36.852C124.037 36.8814 124.067 36.9177 124.088 36.9588C124.11 36.9999 124.123 37.0449 124.127 37.0911C124.131 37.1374 124.126 37.184 124.111 37.2281C124.097 37.2723 124.074 37.3131 124.044 37.3482L123.377 38.1351C123.344 38.1755 123.301 38.208 123.253 38.2301C123.206 38.2521 123.154 38.2633 123.101 38.2627Z" fill="#15803D"/>
<path d="M189.854 205.551L200.062 202.219L204.131 214.221L195.603 217.021L189.854 205.551Z" fill="#CE7A63"/>
<path opacity="0.2" d="M189.861 205.558L200.069 202.219L201.976 207.84L192.605 211.037L189.861 205.558Z" fill="#09090B"/>
<path d="M191.286 216.376C190.343 216.631 189.4 216.745 189.011 216.376C188.906 216.282 188.833 216.159 188.799 216.022C188.764 215.886 188.772 215.743 188.819 215.61C188.851 215.493 188.907 215.384 188.984 215.289C189.061 215.195 189.157 215.119 189.266 215.065C190.4 214.405 193.349 215.185 193.476 215.221C193.512 215.23 193.544 215.25 193.568 215.278C193.592 215.306 193.607 215.34 193.611 215.376C193.614 215.414 193.607 215.451 193.589 215.483C193.571 215.516 193.545 215.543 193.512 215.561C192.798 215.903 192.052 216.176 191.286 216.376ZM189.748 215.249C189.636 215.284 189.527 215.327 189.422 215.376C189.356 215.41 189.298 215.457 189.251 215.514C189.205 215.572 189.171 215.638 189.152 215.71C189.081 215.958 189.152 216.05 189.209 216.107C189.677 216.489 191.541 216.007 192.846 215.462C191.836 215.194 190.783 215.126 189.748 215.263V215.249Z" fill="#15803D"/>
<path d="M193.477 215.596H193.413C192.42 215.433 190.244 214.313 190.166 213.47C190.162 213.316 190.212 213.166 190.306 213.044C190.4 212.923 190.534 212.838 190.684 212.803C190.848 212.733 191.026 212.697 191.205 212.697C191.384 212.697 191.561 212.733 191.726 212.803C192.867 213.328 193.576 215.242 193.611 215.327C193.628 215.353 193.637 215.384 193.637 215.415C193.637 215.447 193.628 215.478 193.611 215.504L193.477 215.596ZM190.903 213.087H190.79C190.492 213.207 190.506 213.328 190.506 213.378C190.506 213.888 192.08 214.795 193.129 215.128C192.831 214.314 192.282 213.614 191.563 213.129C191.357 213.031 191.12 213.016 190.903 213.087Z" fill="#15803D"/>
<path d="M194.306 213.923L202.862 211.087C203.006 211.044 203.161 211.052 203.3 211.108C203.439 211.165 203.555 211.268 203.628 211.399L206.86 216.751C207.144 217.311 206.243 218.346 206.151 218.368C202.004 220.154 191.308 223.904 188.252 224.819C185.197 225.733 183.893 222.827 185.063 222.182C190.301 219.275 191.91 216.95 193.214 214.809C193.447 214.381 193.839 214.062 194.306 213.923Z" fill="#263238"/>
<path d="M141.198 206.954L152.249 207.869L150.37 220.863L141.134 220.111L141.198 206.954Z" fill="#CE7A63"/>
<path opacity="0.2" d="M141.198 206.962L152.257 207.876L151.349 214.114L141.17 213.349L141.198 206.962Z" fill="#09090B"/>
<path d="M162.315 169C166.625 152.383 179.023 115.08 170.389 99.8389L139.539 102.71C139.539 102.71 139.022 149.406 138.831 164.945C138.604 181.108 140 211.655 140 211.655L152.66 212.612C152.66 212.612 161.309 187.644 162.315 169Z" fill="#15803D"/>
<g opacity="0.3">
<path d="M162.315 169C166.625 152.383 179.023 115.08 170.389 99.8389L139.539 102.71C139.539 102.71 139.022 149.406 138.831 164.945C138.604 181.108 140 211.655 140 211.655L152.66 212.612C152.66 212.612 161.309 187.644 162.315 169Z" fill="#FAFAFA"/>
</g>
<path opacity="0.2" d="M164.236 120.794C164.378 124.629 170.821 140.097 170.403 144.074C168.886 149.299 165.647 157.792 163.917 162.868C161.642 148.484 164.236 120.794 164.236 120.794Z" fill="#09090B"/>
<path d="M193.66 163.613C195.163 146.811 199.813 107.8 193.745 100.619L161.386 101.371C161.386 101.371 166.348 150.512 169.389 166.009C172.536 182.129 190.995 209.961 190.995 209.961L202.372 206.154C202.372 206.154 197.474 182.788 193.66 163.613Z" fill="#15803D"/>
<g opacity="0.3">
<path d="M193.66 163.613C195.163 146.811 199.813 107.8 193.745 100.619L161.386 101.371C161.386 101.371 166.348 150.512 169.389 166.009C172.536 182.129 190.995 209.961 190.995 209.961L202.372 206.154C202.372 206.154 197.474 182.788 193.66 163.613Z" fill="#FAFAFA"/>
</g>
<path d="M137.88 217.503C136.902 217.404 135.988 217.163 135.754 216.695C135.691 216.57 135.668 216.429 135.685 216.29C135.703 216.152 135.761 216.021 135.853 215.915C135.927 215.817 136.02 215.735 136.128 215.675C136.235 215.615 136.354 215.579 136.477 215.568C137.767 215.363 140.234 217.163 140.333 217.234C140.364 217.256 140.387 217.287 140.4 217.322C140.412 217.358 140.414 217.396 140.404 217.432C140.393 217.467 140.373 217.499 140.346 217.523C140.318 217.546 140.284 217.562 140.248 217.567C139.458 217.621 138.666 217.599 137.88 217.503ZM136.852 215.894H136.498C136.352 215.915 136.22 215.991 136.129 216.107C135.973 216.319 136.009 216.426 136.037 216.504C136.342 217.028 138.249 217.255 139.667 217.213C138.817 216.593 137.853 216.148 136.831 215.901L136.852 215.894Z" fill="#15803D"/>
<path d="M140.184 217.56H140.106C139.241 217.05 137.625 215.214 137.866 214.384C137.916 214.241 138.013 214.12 138.143 214.041C138.272 213.962 138.425 213.93 138.575 213.952C138.753 213.944 138.932 213.972 139.099 214.035C139.266 214.099 139.418 214.196 139.546 214.321C140.418 215.221 140.39 217.269 140.39 217.354C140.395 217.386 140.392 217.418 140.381 217.448C140.37 217.478 140.351 217.505 140.326 217.525L140.184 217.56ZM138.695 214.292L138.589 214.25C138.27 214.25 138.235 214.37 138.22 214.413C138.036 214.895 139.163 216.334 140.028 217C140.051 216.135 139.803 215.285 139.319 214.569C139.156 214.398 138.932 214.299 138.695 214.292Z" fill="#15803D"/>
<path d="M141.56 216.305L150.98 216.745C151.131 216.755 151.273 216.817 151.383 216.92C151.493 217.024 151.564 217.162 151.583 217.312L152.653 223.472C152.702 223.679 152.702 223.895 152.653 224.103C152.579 224.288 152.453 224.447 152.289 224.561C152.125 224.674 151.931 224.737 151.732 224.741C146.876 224.868 135.045 224.5 131.976 224.251C128.8 223.996 128.637 220.821 129.963 220.636C135.896 219.828 138.235 218.247 140.227 216.723C140.411 216.569 140.623 216.453 140.852 216.381C141.08 216.31 141.321 216.284 141.56 216.305Z" fill="#263238"/>
<path d="M155.879 51.1581C154.971 53.3486 153.965 55.4541 152.916 57.5383C151.867 59.6224 150.754 61.6995 149.591 63.7483C148.429 65.797 147.245 67.8316 145.99 69.852C144.735 71.8723 143.459 73.8644 141.964 75.9982L141.51 76.6433C140.881 77.5419 140.042 78.2722 139.065 78.77C138.528 79.042 137.965 79.2582 137.385 79.4151C137.129 79.4789 136.874 79.5285 136.612 79.5781L136.222 79.6349H135.896C135.164 79.6894 134.427 79.6489 133.706 79.5143C132.871 79.3614 132.061 79.0992 131.295 78.7345C130.413 78.3169 129.581 77.8009 128.814 77.1962C127.745 76.3539 126.746 75.4245 125.83 74.4173C124.251 72.6935 122.797 70.8599 121.478 68.9304C120.188 67.073 119.018 65.1661 117.933 63.2166C116.835 61.2458 115.857 59.2098 115.006 57.12C114.88 56.7989 114.818 56.456 114.825 56.1111C114.831 55.7661 114.906 55.4258 115.044 55.1098C115.182 54.7937 115.382 54.508 115.631 54.269C115.879 54.0301 116.173 53.8426 116.494 53.7173C116.858 53.5721 117.25 53.5114 117.64 53.5396C118.031 53.5679 118.41 53.6844 118.749 53.8803H118.819C120.726 54.9791 122.527 56.2126 124.32 57.4248L129.53 61.0119C131.217 62.1887 132.905 63.33 134.492 64.2941C135.156 64.7156 135.851 65.0876 136.569 65.4071C136.825 65.4993 137.044 65.5347 136.888 65.4071C136.616 65.2395 136.312 65.1286 135.995 65.081C135.528 64.9926 135.051 64.9664 134.577 65.003H134.351H134.06C133.864 65.0347 133.67 65.0773 133.479 65.1306C133.026 65.244 132.588 65.4105 132.174 65.6269L129.275 68.3845L132.026 62.3021C132.971 60.2085 133.944 58.1196 134.946 56.0354C135.938 53.9512 136.98 51.8812 138.051 49.8254C139.121 47.7695 140.234 45.735 141.439 43.7642C142.501 42.0139 144.184 40.7293 146.153 40.1678C148.121 39.6063 150.229 39.8093 152.054 40.7363C153.879 41.6632 155.287 43.2456 155.995 45.1664C156.703 47.0872 156.659 49.2046 155.872 51.0943L155.879 51.1581Z" fill="#CE7A63"/>
<path d="M155.701 41.9282C158.154 53.6322 150.101 65.6978 150.101 65.6978C145.714 66.6548 136.513 60.0266 134.379 55.6668C134.379 55.6668 136.243 47.3584 141.319 41.8857C146.018 36.817 154.262 35.066 155.701 41.9282Z" fill="#15803D"/>
<g opacity="0.1">
<path d="M155.701 41.9282C158.154 53.6322 150.101 65.6978 150.101 65.6978C145.714 66.6548 136.513 60.0266 134.379 55.6668C134.379 55.6668 136.243 47.3584 141.319 41.8857C146.018 36.817 154.262 35.066 155.701 41.9282Z" fill="#09090B"/>
</g>
<path d="M118.38 53.7593L115.041 56.7153L110.419 55.17L107.846 53.6176C107.409 53.3071 107.097 52.8508 106.967 52.3308C106.838 51.8109 106.898 51.2616 107.137 50.7821L108.25 48.0459C108.446 47.4689 108.859 46.9909 109.402 46.7131C109.944 46.4352 110.573 46.3794 111.156 46.5573L113.595 47.5284C114.304 47.813 114.932 48.2683 115.424 48.854L118.38 53.7593Z" fill="#CE7A63"/>
<path d="M154.425 36.4343C163.435 34.6053 175.06 32.1808 184.623 32.592C190.591 32.8543 195.107 36.1365 195.553 48.2447C195.816 55.2274 193.817 69.7883 193.987 76.6009C194.412 93.7848 194.462 101.505 194.462 101.505C194.462 101.505 187.614 99.8105 139.326 102.54C137.448 68.9943 142.573 53.6252 146.748 43.098C149.605 35.9664 150.881 37.1857 154.425 36.4343Z" fill="#15803D"/>
<path opacity="0.2" d="M159.175 42.5021L159.402 43.1614L160.607 47.6768L164.668 41.7295L159.175 42.5021Z" fill="#09090B"/>
<path d="M157.558 37.4481C158.622 36.1792 159.912 36.7392 160.316 34.9457C160.439 33.5592 160.075 32.1733 159.288 31.0254L172.53 22.1357C172.749 27.3037 172.934 31.3515 175.408 33.2018C176.442 36.9731 169.737 41.4818 160.174 42.453C154.12 43.0768 156.027 39.27 157.558 37.4481Z" fill="#CE7A63"/>
<path opacity="0.2" d="M159.536 31.4721L170.297 27.6514C167.936 32.3015 163.144 35.1866 160.373 34.3856C160.342 33.3597 160.055 32.3578 159.536 31.4721Z" fill="#09090B"/>
<path d="M161.67 5.84475C168.815 3.52663 175.698 8.97102 174.925 15.7198C174.153 22.4686 173.472 27.0623 169.12 29.7207C160.465 35.0729 155.616 31.1881 154.234 24.3472C152.936 18.1939 154.425 8.19831 161.67 5.84475Z" fill="#CE7A63"/>
<path d="M159.997 25.46C159.693 25.5209 159.385 25.5588 159.075 25.5735C159.027 25.5736 158.98 25.5554 158.945 25.5225C158.909 25.4896 158.887 25.4445 158.884 25.3962C158.884 25.3478 158.902 25.3012 158.935 25.2657C158.968 25.2302 159.013 25.2084 159.061 25.2049C159.839 25.1841 160.601 24.9809 161.285 24.6115C161.97 24.2421 162.558 23.7169 163.002 23.0783C163.013 23.0568 163.029 23.0378 163.047 23.0225C163.066 23.0072 163.088 22.9959 163.111 22.9892C163.134 22.9826 163.159 22.9808 163.183 22.9839C163.207 22.987 163.23 22.995 163.25 23.0074C163.271 23.0198 163.29 23.0363 163.305 23.0559C163.319 23.0755 163.33 23.0978 163.336 23.1216C163.342 23.1453 163.343 23.1701 163.339 23.1943C163.335 23.2185 163.327 23.2417 163.314 23.2626C162.935 23.8313 162.447 24.3186 161.877 24.6959C161.307 25.0733 160.668 25.3331 159.997 25.46Z" fill="#263238"/>
<path d="M163.96 16.3583C164.253 16.4489 164.537 16.5652 164.81 16.7056C164.832 16.7155 164.851 16.7296 164.868 16.7472C164.884 16.7648 164.896 16.7855 164.904 16.808C164.912 16.8305 164.915 16.8544 164.914 16.8782C164.912 16.902 164.906 16.9253 164.895 16.9466C164.885 16.9686 164.87 16.9883 164.852 17.0045C164.833 17.0207 164.812 17.0331 164.789 17.041C164.766 17.0489 164.741 17.0522 164.717 17.0506C164.693 17.049 164.669 17.0425 164.647 17.0317C162.308 15.9046 161.904 17.2585 161.634 17.4428C161.614 17.4555 161.591 17.4638 161.568 17.4675C161.544 17.4711 161.52 17.4699 161.497 17.4639C161.474 17.458 161.452 17.4474 161.433 17.4328C161.414 17.4182 161.398 17.3999 161.386 17.379C161.363 17.3375 161.356 17.2884 161.368 17.2421C161.38 17.1958 161.409 17.1559 161.45 17.1309C161.514 17.0813 162.024 15.7841 163.96 16.3583Z" fill="#263238"/>
<path opacity="0.1" d="M166.242 16.9249C165.807 16.8193 165.349 16.8826 164.959 17.1022C165.035 17.1946 165.14 17.2594 165.257 17.2865C165.437 17.2952 165.617 17.2677 165.786 17.2056C165.955 17.1435 166.11 17.0481 166.242 16.9249Z" fill="#09090B"/>
<path opacity="0.1" d="M166.355 16.1025C165.905 16.1186 165.479 16.3064 165.164 16.6271C165.262 16.6926 165.379 16.7249 165.497 16.7193C165.674 16.6788 165.841 16.6034 165.988 16.4975C166.136 16.3916 166.26 16.2573 166.355 16.1025Z" fill="#09090B"/>
<path d="M156.481 17.4143C156.772 17.5112 157.056 17.6272 157.332 17.7617C157.376 17.7833 157.41 17.8216 157.426 17.8681C157.442 17.9146 157.439 17.9656 157.417 18.0098C157.395 18.054 157.357 18.0877 157.31 18.1037C157.264 18.1196 157.213 18.1165 157.169 18.0948C154.83 16.9607 154.425 18.3217 154.156 18.506C154.135 18.5185 154.111 18.5266 154.087 18.5298C154.062 18.533 154.037 18.5312 154.014 18.5246C153.99 18.518 153.967 18.5067 153.948 18.4913C153.929 18.4759 153.913 18.4568 153.901 18.4351C153.889 18.4143 153.881 18.3913 153.877 18.3673C153.874 18.3433 153.876 18.319 153.883 18.2957C153.889 18.2725 153.901 18.2509 153.916 18.2322C153.931 18.2135 153.95 18.1981 153.972 18.187C154.05 18.1445 154.546 16.8402 156.481 17.4143Z" fill="#263238"/>
<path d="M158.374 10.4029C157.717 10.386 157.064 10.3029 156.424 10.1548C154.802 8.44364 153.786 6.24713 153.532 3.90261C155.752 4.49939 158.073 4.62256 160.344 4.26413C164.98 3.39932 168.752 2.9102 172.686 4.32083C174.408 4.93754 176.145 5.73856 174.989 7.86514C174.982 7.84387 161.656 9.75071 158.374 10.4029Z" fill="#263238"/>
<path d="M172.77 26.5097C172.77 26.5097 172.983 21.2922 170.296 20.321C168.269 19.6121 171.274 14.9829 168.758 14.4725C167.68 14.1322 167.851 10.5664 167.851 9.71573C167.851 9.71573 172.068 8.04271 174.989 7.8584C175.166 8.78707 175.698 11.013 176.038 13.0051C176.038 12.9909 174.982 18.4069 172.77 26.5097Z" fill="#263238"/>
<path d="M176.613 21.4619C176.208 22.1412 175.673 22.7335 175.038 23.2044C174.402 23.6753 173.68 24.0155 172.912 24.2052C170.85 24.7014 169.879 22.8371 170.502 20.9303C171.062 19.2148 172.813 16.8898 174.862 17.2442C176.91 17.5986 177.598 19.7748 176.613 21.4619Z" fill="#CE7A63"/>
<path d="M158.714 17.96L158.629 22.4045C158.629 22.4045 156.821 22.7235 155.836 21.6957C158.678 20.0228 158.714 17.96 158.714 17.96Z" fill="#BA4D3C"/>
<path d="M164.236 14.6776C164.289 14.6481 164.333 14.605 164.364 14.5526C164.395 14.5003 164.411 14.4406 164.411 14.3798C164.411 14.3191 164.395 14.2594 164.364 14.207C164.333 14.1547 164.289 14.1115 164.236 14.0821C163.75 13.8129 163.208 13.6635 162.653 13.6462C162.098 13.629 161.547 13.7444 161.046 13.9829C161.006 14.005 160.97 14.035 160.942 14.0709C160.913 14.1068 160.892 14.1481 160.879 14.1923C160.867 14.2364 160.863 14.2826 160.869 14.3282C160.874 14.3738 160.889 14.4178 160.911 14.4578C160.957 14.5376 161.033 14.5963 161.121 14.6214C161.21 14.6466 161.305 14.6362 161.386 14.5925C161.785 14.4091 162.221 14.3225 162.66 14.3397C163.098 14.357 163.527 14.4776 163.91 14.6917C163.961 14.7157 164.018 14.7269 164.074 14.7244C164.131 14.7219 164.186 14.7059 164.236 14.6776Z" fill="#263238"/>
<path d="M153.908 15.8761C153.962 15.8945 154.021 15.899 154.078 15.8891C154.135 15.8792 154.188 15.8552 154.234 15.8194C154.567 15.5374 154.963 15.3399 155.389 15.2437C155.815 15.1474 156.257 15.1552 156.679 15.2665C156.766 15.2935 156.859 15.2856 156.94 15.2446C157.021 15.2035 157.082 15.1325 157.112 15.0467C157.141 14.9583 157.134 14.8619 157.093 14.7784C157.052 14.6948 156.98 14.6308 156.892 14.6001C156.358 14.4609 155.798 14.4527 155.26 14.5761C154.722 14.6995 154.221 14.9509 153.801 15.309C153.765 15.3373 153.735 15.3725 153.713 15.4124C153.691 15.4524 153.677 15.4963 153.671 15.5418C153.666 15.5872 153.67 15.6333 153.682 15.6772C153.695 15.7212 153.716 15.7623 153.745 15.7981C153.79 15.8389 153.847 15.866 153.908 15.8761Z" fill="#263238"/>
<path d="M153.114 44.9405C153.228 43.9694 153.752 42.9557 153.929 41.9917C154.433 39.1562 157.375 34.3005 160.309 33.7051C160.231 36.3917 159.005 42.5021 159.005 42.5021C157.757 42.6722 154.631 43.1188 153.114 44.9405Z" fill="#263238"/>
<path d="M173.869 31.4717C173.536 33.3714 166.71 40.4813 164.52 41.736C167.844 41.58 170.12 42.1613 172.43 43.6428C175.514 40.4813 176.308 32.8681 176.365 32.8114C176.485 31.8119 174.826 31.1527 173.869 31.4717Z" fill="#263238"/>
<path d="M189.557 52.661C197.921 49.6978 195.001 48.3509 196.22 47.9114C196.435 47.4227 196.604 46.9148 196.723 46.3943C196.78 46.1178 196.83 45.8343 196.865 45.5507V45.2104V44.8773V44.3314V43.9557V43.7359L196.823 43.4311C196.823 43.3673 196.823 43.3956 196.823 43.4311L196.993 43.9699L197.461 45.3877L198.531 48.5139C199.24 50.6407 200.02 52.817 200.736 55.0075C201.097 56.0992 201.487 57.191 201.834 58.2898L202.387 59.9911C202.635 60.7 202.848 61.4657 203.046 62.2313C203.89 65.4531 204.069 68.8132 203.571 72.1063C203.5 72.56 203.458 72.7727 203.401 73.0775L203.266 74.0062L202.933 75.7288L202.224 79.167C201.742 81.4497 201.239 83.7395 200.714 86.0221C199.651 90.5946 197.269 97.8325 195.83 102.327C195.121 104.454 193.172 105.829 191.024 105.163C189.387 104.645 189.202 100.335 189.082 98.7187C188.742 93.9761 188.678 89.2619 188.72 84.5405C188.72 82.187 188.791 79.8405 188.862 77.4515L188.99 73.907L189.153 70.5113C189.101 69.1487 188.813 67.8055 188.302 66.5414C188.167 66.1799 188.019 65.8325 187.848 65.4568L187.14 63.883C186.658 62.8055 186.218 61.7067 185.757 60.622C184.836 58.4386 183.978 56.2197 183.134 53.9583C182.73 52.8241 182.312 51.6757 181.937 50.4634C181.745 49.8609 181.547 49.2441 181.355 48.5565C181.263 48.2091 181.164 47.8476 181.058 47.401C181.008 47.1812 180.951 46.926 180.887 46.5786C180.852 46.3872 180.817 46.1958 180.767 45.8697L180.731 45.5436C180.731 45.4018 180.731 45.331 180.731 45.0545V44.4306V44.0691L180.767 43.7005C180.799 43.4071 180.849 43.116 180.916 42.8285C181.029 42.2996 181.198 41.784 181.419 41.2902C182.638 40.8365 179.732 39.4825 188.097 36.5122C189.155 36.4167 190.223 36.5308 191.238 36.8479C192.252 37.165 193.195 37.6789 194.011 38.3602C194.827 39.0415 195.501 39.8769 195.995 40.8188C196.488 41.7606 196.791 42.7904 196.886 43.8493C196.982 44.9083 196.868 45.9757 196.551 46.9905C196.234 48.0054 195.72 48.9479 195.038 49.7641C194.357 50.5804 193.522 51.2545 192.58 51.7479C191.638 52.2413 190.609 52.5444 189.55 52.6398L189.557 52.661Z" fill="#CE7A63"/>
<path d="M189.819 100.619L194.121 101.512C198.027 103.986 194.029 109.395 194.029 109.395L192.952 112.33C192.727 112.836 192.331 113.246 191.832 113.488C191.334 113.729 190.766 113.786 190.23 113.648L187.21 113.045C186.582 112.961 186.012 112.634 185.621 112.134C185.23 111.635 185.05 111.003 185.119 110.373L185.636 107.694C185.786 106.915 186.124 106.184 186.622 105.567L189.819 100.619Z" fill="#CE7A63"/>
<path d="M192.704 35.9661C199.268 45.593 201.075 52.2709 201.075 52.2709C201.075 52.2709 192.328 62.309 184.318 59.523C184.318 59.523 179.356 50.7893 179.207 43.2962C179.058 36.3914 188.174 29.3803 192.704 35.9661Z" fill="#15803D"/>
<path opacity="0.1" d="M192.704 35.9661C199.268 45.593 201.075 52.2709 201.075 52.2709C201.075 52.2709 192.328 62.309 184.318 59.523C184.318 59.523 179.356 50.7893 179.207 43.2962C179.058 36.3914 188.174 29.3803 192.704 35.9661Z" fill="#FAFAFA"/>
<path d="M64.7977 39.1133C64.4645 41.949 64.0179 44.8271 63.5288 47.6627C63.2878 49.0806 63.0397 50.4984 62.7632 51.9162C62.4868 53.334 62.2387 54.7518 61.9339 56.1696L60.1901 64.6765C59.9465 65.815 59.8018 66.9725 59.7577 68.136C59.7361 69.2892 59.8168 70.4422 59.9987 71.5812L59.9136 71.1772C60.3247 73.0676 60.7075 74.9462 61.062 76.813C61.4164 78.6987 61.7283 80.5985 62.0473 82.4842L62.4655 85.3198L62.8412 88.1555C63.0539 90.0766 63.2665 91.9977 63.3587 93.9543C63.3829 94.5434 63.2041 95.123 62.8522 95.5961C62.5003 96.0692 61.9966 96.407 61.4254 96.5532C60.8542 96.6993 60.2502 96.6448 59.7143 96.3989C59.1785 96.1529 58.7433 95.7304 58.4817 95.202C57.624 93.451 56.8797 91.6575 56.1425 89.871L55.0863 87.1772L54.0797 84.4691C53.4417 82.6543 52.8037 80.8466 52.2083 79.0177C51.6128 77.1887 51.0387 75.3668 50.4928 73.5307V73.4102L50.4361 73.1196C50.1238 71.4168 49.9624 69.6898 49.9541 67.9587C49.9683 66.2346 50.132 64.515 50.4432 62.8192C50.7197 61.2454 50.982 59.9481 51.2088 58.5657L51.9177 54.3123C52.1445 52.8945 52.4209 51.4767 52.6832 50.0589C52.9455 48.641 53.2149 47.2232 53.5055 45.8054C54.0797 42.9698 54.6893 40.1342 55.4265 37.3482C55.7292 36.1708 56.4679 35.1524 57.4932 34.4993C58.5185 33.8462 59.7536 33.6072 60.9485 33.8307C62.1434 34.0542 63.2086 34.7235 63.9286 35.703C64.6485 36.6825 64.9693 37.8991 64.826 39.1063L64.7977 39.1133Z" fill="#FFB573"/>
<path d="M61.5224 32.3295C61.5224 32.3295 56.688 31.5143 53.888 36.7956C51.8252 40.6734 49.2095 54.9082 49.6844 55.0004C50.1594 55.0925 63.2024 57.836 63.2024 57.836C63.2024 57.836 71.5386 32.2303 61.5224 32.3295Z" fill="#15803D"/>
<path opacity="0.1" d="M61.5224 32.3295C61.5224 32.3295 56.688 31.5143 53.888 36.7956C51.8252 40.6734 49.2095 54.9082 49.6844 55.0004C50.1594 55.0925 63.2024 57.836 63.2024 57.836C63.2024 57.836 71.5386 32.2303 61.5224 32.3295Z" fill="#09090B"/>
<path d="M65.7541 23.6734C62.7627 21.5466 60.0194 18.9166 58.6655 15.5138C57.3115 12.1111 57.6872 7.88602 60.2391 5.27016C60.4447 5.05749 60.7211 4.84482 60.9976 4.94406C61.2741 5.04331 61.3308 5.25598 61.4158 5.47574C63.7409 11.388 62.9824 18.0021 65.7541 23.6734Z" fill="#263238"/>
<path d="M66.0949 19.0801C66.5769 23.3335 66.6478 30.4226 63.465 32.9888C63.465 32.9888 63.2736 37.3131 74.8068 42.9489C79.6271 37.1217 76.6073 34.0663 76.6073 34.0663C71.9714 32.5564 72.503 29.8554 73.5876 26.637L66.0949 19.0801Z" fill="#FFB573"/>
<path d="M77.3516 32.9389C79.1275 33.0282 80.855 33.5489 82.3845 34.456C85.7374 36.4976 87.0346 39.716 87.0346 45.3448C87.0346 52.8521 87.4458 49.506 87.0346 53.5397L86.7369 84.4905L57.9004 82.9522C57.9004 82.9522 57.1207 70.6669 56.9293 63.592C56.6032 51.6824 52.2224 46.082 54.4695 37.1427C55.1288 34.5056 58.6518 32.0244 63.1743 32.0244L77.3516 32.9389Z" fill="#15803D"/>
<path d="M62.0752 32.0249L62.2028 31.153C62.2485 30.8556 62.4077 30.5875 62.647 30.405C62.8863 30.2226 63.187 30.1401 63.4858 30.1747L73.2469 31.316L76.1532 32.9322C76.1532 32.9322 67.6114 34.0026 62.0752 32.0249Z" fill="#15803D"/>
<path opacity="0.2" d="M62.0752 32.0249L62.2028 31.153C62.2485 30.8556 62.4077 30.5875 62.647 30.405C62.8863 30.2226 63.187 30.1401 63.4858 30.1747L73.2469 31.316L76.1532 32.9322C76.1532 32.9322 67.6114 34.0026 62.0752 32.0249Z" fill="#FAFAFA"/>
<path d="M43.3262 212.965L49.4011 215.198L64.8188 181.029L55.2209 177.506L43.3262 212.965Z" fill="#FFB573"/>
<path opacity="0.2" d="M64.8189 181.029L51.8113 209.853L45.1055 207.641L55.2209 177.506L64.8189 181.029Z" fill="#09090B"/>
<path d="M51.903 216.021C52.6828 216.305 53.4838 216.461 53.8453 216.198C53.9414 216.125 54.0122 216.023 54.0478 215.908C54.0833 215.792 54.0819 215.668 54.0438 215.553C53.9969 215.343 53.8697 215.16 53.6894 215.043C52.7607 214.398 50.223 214.866 50.145 214.887C50.1149 214.894 50.0875 214.91 50.0662 214.933C50.0448 214.956 50.0304 214.984 50.0245 215.014C50.0209 215.046 50.0263 215.078 50.0401 215.107C50.0539 215.136 50.0755 215.16 50.1025 215.178C50.6787 215.507 51.2808 215.789 51.903 216.021ZM53.2569 215.163C53.3514 215.198 53.4418 215.243 53.5263 215.298C53.5807 215.332 53.6276 215.376 53.6642 215.428C53.7008 215.481 53.7262 215.54 53.739 215.603C53.7886 215.823 53.739 215.901 53.6681 215.943C53.2569 216.241 51.7045 215.695 50.6129 215.128C51.488 214.966 52.3865 214.978 53.2569 215.163Z" fill="#15803D"/>
<path d="M50.1028 215.184H50.1666C51.0101 215.106 52.9028 214.291 53.002 213.547C53.002 213.376 53.002 213.128 52.5909 212.944C52.4538 212.877 52.3042 212.839 52.1516 212.833C51.999 212.827 51.8469 212.853 51.7048 212.909C50.7195 213.277 50.0248 214.893 49.9965 214.957C49.984 214.981 49.9775 215.008 49.9775 215.035C49.9775 215.062 49.984 215.089 49.9965 215.113C50.0078 215.132 50.0232 215.148 50.0416 215.161C50.06 215.173 50.0809 215.181 50.1028 215.184ZM52.3995 213.206L52.4846 213.242C52.7398 213.362 52.7185 213.476 52.7114 213.511C52.6476 213.951 51.2937 214.652 50.4147 214.844C50.704 214.167 51.2003 213.598 51.8324 213.22C52.0131 213.145 52.2153 213.14 52.3995 213.206Z" fill="#15803D"/>
<path d="M49.7269 214.093L43.0352 211.697C42.9154 211.655 42.7848 211.656 42.6658 211.7C42.5468 211.744 42.4468 211.828 42.3831 211.938L39.42 217.02C39.3485 217.146 39.3056 217.285 39.2941 217.429C39.2827 217.574 39.303 217.718 39.3537 217.854C39.4045 217.989 39.4843 218.111 39.5877 218.212C39.691 218.313 39.8153 218.39 39.9517 218.438C42.376 219.26 45.9061 220.359 48.94 221.443C52.4843 222.712 50.4216 222.195 54.6109 223.676C57.1274 224.577 58.6444 222.259 57.6661 221.642C53.2074 218.87 54.3983 219.168 51.0808 215.099C50.7321 214.644 50.2632 214.295 49.7269 214.093Z" fill="#263238"/>
<path d="M79.4995 82.9521L78.6205 130.569C78.4291 151.432 71.9856 171.282 63.1177 190.167L54.7319 208.046L43.8438 204.444L57.4681 154.821L58.5739 113.159C55.8802 107.119 55.0296 100.724 55.9015 95.7408C56.4119 92.7776 56.9648 89.8144 57.3617 86.837L57.8792 82.9521H79.4995Z" fill="#263238"/>
<path opacity="0.2" d="M79.4995 82.9521L78.6205 130.569C78.4291 151.432 71.9856 171.282 63.1177 190.167L54.7319 208.046L43.8438 204.444L57.4681 154.821L58.5739 113.159C55.8802 107.119 55.0296 100.724 55.9015 95.7408C56.4119 92.7776 56.9648 89.8144 57.3617 86.837L57.8792 82.9521H79.4995Z" fill="#09090B"/>
<path d="M42.6948 204.444L55.5393 209.279C55.6482 209.32 55.7682 209.319 55.8766 209.277C55.985 209.235 56.0744 209.155 56.1277 209.052L58.5307 204.572C58.5682 204.509 58.5907 204.437 58.5963 204.364C58.6019 204.29 58.5906 204.216 58.5632 204.148C58.5359 204.079 58.4931 204.018 58.4383 203.969C58.3835 203.919 58.3182 203.883 58.2472 203.863L43.6234 199.326C43.5571 199.306 43.4873 199.301 43.4187 199.31C43.3501 199.319 43.2843 199.343 43.2258 199.38C43.1673 199.417 43.1174 199.466 43.0796 199.524C43.0418 199.582 43.0169 199.648 43.0067 199.716L42.39 203.906C42.3664 204.017 42.3844 204.133 42.4405 204.233C42.4967 204.332 42.5871 204.407 42.6948 204.444Z" fill="#263238"/>
<path d="M80.2719 219.176H87.2967L90.2314 178.605H79.1377L80.2719 219.176Z" fill="#FFB573"/>
<path opacity="0.2" d="M90.2314 178.605L87.7504 212.917H80.1017L79.1377 178.605H90.2314Z" fill="#09090B"/>
<path d="M89.735 218.495C90.5502 218.495 91.337 218.381 91.5993 218.013C91.667 217.916 91.7033 217.801 91.7033 217.683C91.7033 217.565 91.667 217.45 91.5993 217.353C91.5496 217.265 91.4815 217.188 91.3995 217.128C91.3176 217.068 91.2237 217.027 91.1243 217.006C90.0681 216.715 87.8423 217.984 87.7502 218.034C87.7229 218.049 87.7013 218.072 87.6885 218.1C87.6757 218.128 87.6725 218.16 87.6793 218.19C87.6832 218.221 87.6971 218.25 87.7187 218.273C87.7404 218.296 87.7688 218.312 87.7998 218.317C88.4386 218.432 89.086 218.491 89.735 218.495ZM90.7415 217.261C90.8397 217.258 90.9378 217.27 91.0322 217.297C91.092 217.31 91.1486 217.334 91.1985 217.37C91.2484 217.405 91.2907 217.45 91.3228 217.502C91.4291 217.694 91.3937 217.786 91.3583 217.835C91.0605 218.247 89.4514 218.261 88.2676 218.091C89.0311 217.657 89.8712 217.376 90.7415 217.261Z" fill="#15803D"/>
<path d="M87.7931 218.318H87.8498C88.6225 217.978 90.1394 216.602 90.026 215.879C90.026 215.709 89.8771 215.504 89.466 215.461C89.3165 215.444 89.1652 215.458 89.0213 215.502C88.8774 215.546 88.7441 215.619 88.6295 215.716C87.8214 216.383 87.6513 218.098 87.6442 218.169C87.641 218.19 87.6425 218.211 87.6487 218.232C87.6548 218.252 87.6654 218.27 87.6797 218.286C87.6939 218.302 87.7115 218.314 87.7312 218.322C87.7508 218.33 87.772 218.333 87.7931 218.332V218.318ZM89.3384 215.745H89.4306C89.6999 215.745 89.7212 215.879 89.7283 215.915C89.7921 216.347 88.7642 217.425 87.9774 217.9C88.0498 217.174 88.3444 216.488 88.8209 215.936C88.9712 215.809 89.1628 215.741 89.3597 215.745H89.3384Z" fill="#15803D"/>
<path d="M86.9348 217.432H80.3495C80.2269 217.434 80.1089 217.478 80.0148 217.557C79.9207 217.635 79.8562 217.744 79.8321 217.864L78.6412 223.535C78.6095 223.668 78.608 223.807 78.6367 223.941C78.6654 224.075 78.7236 224.201 78.8071 224.31C78.8907 224.418 78.9974 224.507 79.1195 224.569C79.2416 224.631 79.3761 224.665 79.5131 224.669C81.8878 224.627 85.3186 224.478 88.3029 224.478C91.7976 224.478 94.8103 224.676 98.9359 224.676C101.41 224.676 102.097 222.039 101.062 221.798C96.3414 220.714 92.4923 220.6 88.4164 217.949C87.9848 217.633 87.4691 217.453 86.9348 217.432Z" fill="#263238"/>
<path d="M62.2734 82.9668H57.9139C57.205 100.689 64.0313 109.905 64.4708 110.806L66.3139 114.541C68.164 118.277 75.5291 155.169 75.5291 155.169C74.0263 167.447 76.5002 180.115 77.287 192.457L78.5417 210.79H89.9828L93.6759 165.923C94.4201 159.515 94.4771 153.046 93.8461 146.627C87.0764 84.5051 86.7574 82.9668 86.7574 82.9668H62.2734Z" fill="#263238"/>
<path d="M77.6131 211.711L91.3296 211.342C91.4464 211.338 91.5578 211.292 91.6436 211.212C91.7294 211.133 91.784 211.026 91.7974 210.91L92.322 205.855C92.3295 205.785 92.3214 205.714 92.2983 205.647C92.2751 205.58 92.2375 205.519 92.1881 205.468C92.1387 205.417 92.0787 205.378 92.0124 205.353C91.9461 205.328 91.8751 205.318 91.8045 205.324L76.5427 206.642C76.4741 206.649 76.4079 206.671 76.3484 206.706C76.2889 206.741 76.2376 206.788 76.1979 206.845C76.1583 206.901 76.1312 206.965 76.1185 207.033C76.1059 207.101 76.1079 207.171 76.1245 207.238L77.1382 211.349C77.1629 211.455 77.2238 211.549 77.3105 211.615C77.3972 211.681 77.5042 211.715 77.6131 211.711Z" fill="#263238"/>
<path opacity="0.2" d="M69.1493 22.1211L73.5726 26.6295C73.3038 27.375 73.1045 28.1439 72.9771 28.9262C71.1837 28.5221 68.4759 26.757 68.249 24.7651C68.328 23.8234 68.6372 22.9154 69.1493 22.1211Z" fill="#09090B"/>
<path d="M78.8119 6.51038C78.747 5.50228 78.4674 4.51968 77.9918 3.62845C77.5163 2.73721 76.8557 1.95791 76.0544 1.34277C76.2165 2.16303 76.0835 3.01419 75.6787 3.74581L78.8119 6.51038Z" fill="#263238"/>
<path d="M61.9829 12.9408C63.2447 19.6613 63.6417 22.5252 67.4979 25.5664C73.2964 30.1531 81.2781 27.126 82.0508 20.1646C82.7597 13.8908 80.548 3.91646 73.5445 2.09457C72.0094 1.67557 70.3926 1.65654 68.8481 2.03927C67.3036 2.422 65.8828 3.19377 64.7209 4.28107C63.5591 5.36837 62.6949 6.73501 62.2107 8.25086C61.7264 9.7667 61.6383 11.3813 61.9546 12.9408H61.9829Z" fill="#FFB573"/>
<path d="M73.679 13.3523C73.7569 13.9053 74.1043 14.3164 74.4587 14.2739C74.8131 14.2313 75.0612 13.7422 74.9974 13.1893C74.9336 12.6364 74.5721 12.2323 74.2177 12.2678C73.8633 12.3032 73.6152 12.8278 73.679 13.3523Z" fill="#263238"/>
<path d="M79.9104 12.5864C79.9884 13.1464 80.3357 13.5433 80.6902 13.5079C81.0446 13.4724 81.2927 12.9691 81.2289 12.4233C81.1651 11.8775 80.8036 11.4593 80.4491 11.5089C80.0947 11.5585 79.8466 12.0334 79.9104 12.5864Z" fill="#263238"/>
<path d="M78.209 12.4092C79.2252 13.979 80.4591 15.3967 81.8738 16.6198C81.5423 16.9892 81.1369 17.2847 80.6838 17.4874C80.2308 17.6902 79.7402 17.7955 79.2439 17.7965L78.209 12.4092Z" fill="#ED893E"/>
<path d="M70.9577 11.2252C71.02 11.2559 71.0909 11.265 71.1589 11.2508C71.227 11.2367 71.2884 11.2002 71.3334 11.1472C71.7345 10.7978 72.2034 10.5349 72.7109 10.3751C73.2183 10.2153 73.7532 10.162 74.2822 10.2186C74.366 10.2271 74.4498 10.2029 74.5161 10.151C74.5824 10.0992 74.6261 10.0237 74.638 9.94033C74.6499 9.85699 74.6291 9.77228 74.58 9.70392C74.5308 9.63556 74.4572 9.58885 74.3744 9.57356C73.7356 9.49565 73.0876 9.55804 72.4754 9.75637C71.8633 9.95471 71.3018 10.2842 70.8301 10.7219C70.8001 10.7516 70.7762 10.7869 70.76 10.8258C70.7437 10.8648 70.7354 10.9066 70.7354 10.9488C70.7354 10.9909 70.7437 11.0327 70.76 11.0717C70.7762 11.1106 70.8001 11.1459 70.8301 11.1756C70.8467 11.1922 70.8667 11.2053 70.8887 11.2138C70.9106 11.2223 70.9341 11.2262 70.9577 11.2252Z" fill="#263238"/>
<path d="M81.1224 9.14791C81.1796 9.1368 81.2328 9.11056 81.2764 9.07191C81.3201 9.03326 81.3526 8.98362 81.3705 8.92816C81.3977 8.84541 81.3914 8.7553 81.353 8.67713C81.3146 8.59896 81.2471 8.53894 81.1649 8.50994C80.6736 8.32556 80.1445 8.26468 79.6241 8.33266C79.1038 8.40064 78.6081 8.5954 78.1806 8.89981C78.1138 8.94938 78.0691 9.02305 78.0558 9.10514C78.0426 9.18724 78.0619 9.27126 78.1097 9.3393C78.1638 9.40528 78.2416 9.44743 78.3264 9.45671C78.4112 9.46599 78.4963 9.44165 78.5634 9.38892C78.9055 9.1621 79.2964 9.01946 79.7042 8.97264C80.112 8.92582 80.5251 8.97617 80.9097 9.11956C80.9744 9.15578 81.0505 9.16593 81.1224 9.14791Z" fill="#263238"/>
<path d="M68.1008 7.04297C67.5243 9.42893 67.152 11.8597 66.9879 14.3088C66.1869 14.564 66.6406 14.5073 65.8466 14.7625C66.0022 16.082 66.49 17.3405 67.2644 18.4202C66.507 18.7854 65.6736 18.9652 64.833 18.9448C64.6083 18.189 64.1523 17.5227 63.5293 17.0395C62.9063 16.5564 62.1474 16.2806 61.3596 16.2511C60.3591 13.6122 60.0778 10.7549 60.5444 7.97158C63.0779 7.79677 65.6003 7.4868 68.1008 7.04297Z" fill="#263238"/>
<path d="M76.4506 1.15877C76.9377 2.05571 77.0953 3.09495 76.8959 4.09597C76.6964 5.09698 76.1526 5.99651 75.359 6.63828C75.359 5.92941 75.359 5.22055 75.359 4.51169C74.5528 5.74166 73.5352 6.81921 72.3534 7.69448C72.4314 6.98562 72.5235 6.47524 72.6015 5.80182C71.637 6.9488 70.4252 7.86246 69.0572 8.47422C69.5841 7.73916 69.9424 6.89685 70.1063 6.00739C68.9043 7.43119 67.3603 8.52636 65.6192 9.19018C65.9783 8.71962 66.186 8.15104 66.2146 7.55979C64.7473 7.96384 63.2729 8.34663 61.7913 8.69397C61.3342 8.8646 60.8308 8.8646 60.3736 8.69397C59.6648 8.31119 59.6648 7.27625 59.9129 6.56739C60.3926 5.04681 61.3318 3.7123 62.6013 2.74752C63.8707 1.78274 65.408 1.23512 67.0015 1.18004C68.1088 1.1884 69.2117 1.03801 70.2764 0.733457C71.349 0.344662 72.4701 0.106114 73.6081 0.024595C74.7068 -0.0888228 75.8481 0.173455 76.4506 1.15877Z" fill="#263238"/>
<path d="M60.7923 18.3776C61.0795 18.955 61.4778 19.4701 61.9644 19.8934C62.4509 20.3167 63.0161 20.6399 63.6277 20.8445C65.2652 21.369 66.1654 19.923 65.7543 18.328C65.3857 16.9103 64.1026 14.8971 62.4297 15.0318C62.0603 15.0724 61.707 15.2057 61.4029 15.4194C61.0988 15.6331 60.8536 15.9202 60.6902 16.2541C60.5268 16.588 60.4505 16.9577 60.4684 17.329C60.4862 17.7002 60.5976 18.061 60.7923 18.3776Z" fill="#FFB573"/>
<path d="M109.406 56.9064L113.659 54.0709L115.396 52.5752C115.396 52.5752 111.341 47.7904 110.823 47.4785C110.823 47.4785 107.811 49.2294 106.776 51.9585L106.024 54.5671L109.406 56.9064Z" fill="#FFB573"/>
<path d="M113.935 53.7596L110.604 47.6847L111.794 46.9758C111.901 46.8907 112.025 46.8293 112.157 46.7959C112.289 46.7624 112.427 46.7576 112.561 46.7817C112.695 46.8059 112.823 46.8585 112.935 46.936C113.048 47.0135 113.142 47.1141 113.212 47.231L115.814 49.8538C116.232 50.5627 116.523 51.5055 116.005 52.1009L113.935 53.7596Z" fill="#FFB573"/>
<path opacity="0.1" d="M73.9346 41.5732C73.9346 41.5732 74.2181 62.0606 77.245 62.0394C80.2718 62.0181 85.4607 58.2042 84.6526 53.1284C83.8445 48.0526 73.9346 41.5732 73.9346 41.5732Z" fill="#09090B"/>
<path d="M85.9988 38.7096C86.6085 40.6307 87.1543 42.5731 87.6859 44.5155C88.2176 46.4579 88.7209 48.4074 89.1958 50.3711C89.6707 52.3347 90.1457 54.2913 90.6135 56.2691C91.0814 58.247 91.4925 60.2107 91.9037 62.1885L91.7265 61.7065C91.6488 61.619 91.5481 61.5551 91.4358 61.5221C91.3447 61.4866 91.2434 61.4866 91.1523 61.5221C91.0736 61.5559 91.0052 61.6096 90.9538 61.6781C90.8829 61.7277 90.7482 61.8128 90.7553 61.8411C90.7624 61.8695 90.7978 61.8837 90.89 61.8411L91.2019 61.593C92.7897 60.6289 94.413 59.7144 96.0151 58.7574C97.6171 57.8004 99.2687 56.9284 100.885 56.0069C102.501 55.0853 104.16 54.2133 105.847 53.3555C107.534 52.4978 109.179 51.6329 110.873 50.8248C111.243 50.6501 111.663 50.6108 112.06 50.7139C112.456 50.8169 112.804 51.0558 113.043 51.3888C113.281 51.7218 113.396 52.1279 113.366 52.5365C113.336 52.9451 113.163 53.3302 112.879 53.6249C111.57 54.9719 110.232 56.2881 108.867 57.5735C107.52 58.8708 106.138 60.1256 104.762 61.3945C103.387 62.6635 101.998 63.9041 100.587 65.1092C99.1766 66.3143 97.7872 67.5762 96.3341 68.7601L96.646 68.512C96.1864 68.9502 95.6828 69.3398 95.1432 69.6746C94.5029 70.0667 93.811 70.3673 93.0875 70.5678C91.7213 70.9463 90.2847 70.9953 88.8959 70.7106C87.5071 70.4259 86.2057 69.8158 85.0986 68.9302C83.9678 68.0185 83.0649 66.8559 82.4616 65.5346L82.2915 65.0454C81.5826 63.1668 80.81 61.2882 80.1082 59.3742C79.4064 57.4601 78.6905 55.5886 78.0242 53.7029C77.3578 51.8172 76.6986 49.8961 76.0606 47.982C75.4226 46.068 74.8272 44.1469 74.2743 42.2045C73.8356 40.6552 74.0231 38.9956 74.7964 37.5832C75.5696 36.1709 76.8668 35.1189 78.4083 34.654C79.9499 34.1891 81.6123 34.3485 83.0375 35.0978C84.4626 35.8471 85.5363 37.1264 86.0272 38.6599L85.9988 38.7096Z" fill="#FFB573"/>
<path d="M78.3509 34.4849C78.3509 34.4849 73.4669 35.6759 73.793 40.0569C74.1191 44.438 77.5499 58.3892 78.0461 58.2545C78.5423 58.1198 91.5145 53.7601 91.5145 53.7601C91.5145 53.7601 87.3039 29.9975 78.3509 34.4849Z" fill="#15803D"/>
<path d="M80.5272 19.5332C80.5272 19.5332 78.7763 19.0299 73.793 18.9307C73.9693 19.8557 74.4786 20.6839 75.2245 21.2587C75.9704 21.8335 76.9012 22.1149 77.8406 22.0497C78.495 22.093 79.1404 21.8783 79.6385 21.4517C80.1367 21.0251 80.448 20.4204 80.5059 19.7671L80.5272 19.5332Z" fill="#263238"/>
<path d="M76.7415 20.6893C77.7267 20.6485 78.6943 20.9601 79.4706 21.5683C78.9952 21.8975 78.425 22.0619 77.8473 22.0361C76.8622 22.0757 75.895 21.7642 75.1182 21.1571C75.5876 20.8155 76.1622 20.6499 76.7415 20.6893Z" fill="#ED893E"/>
<path d="M80.3 19.4841C80.2455 19.6808 80.1402 19.8597 79.9946 20.0028C79.849 20.1459 79.6683 20.2482 79.4707 20.2993C77.9949 20.2568 76.5261 20.0789 75.0828 19.7676C74.8462 19.7324 74.6232 19.6351 74.4365 19.4857C74.2497 19.3363 74.1058 19.1401 74.0195 18.917C76.1256 18.9209 78.2273 19.1107 80.3 19.4841Z" fill="#FAFAFA"/>
</svg>
