<svg width="1280" height="176" viewBox="0 0 1280 176" fill="none" xmlns="http://www.w3.org/2000/svg">
<path fill-rule="evenodd" clip-rule="evenodd" d="M0 132L53.3333 139.333C106.667 146.667 213.333 161.333 320 143C426.667 124.667 533.333 73.3333 640 69.6667C746.667 66 853.333 110 960 106.333C1066.67 102.667 1173.33 51.3333 1226.67 25.6667L1280 0V176H1226.67C1173.33 176 1066.67 176 960 176C853.333 176 746.667 176 640 176C533.333 176 426.667 176 320 176C213.333 176 106.667 176 53.3333 176H0V132Z" fill="#1E3A8A"/>
</svg>
