<svg width="20" height="20" viewBox="0 0 20 20" fill="none" xmlns="http://www.w3.org/2000/svg">
<g clip-path="url(#clip0_672_2615)">
<path d="M0.464844 19.5744L1.81128 14.6576C0.980744 13.2185 0.543884 11.5861 0.544495 9.91376C0.546631 4.682 4.80414 0.425568 10.0358 0.425568C12.5745 0.426636 14.9575 1.41479 16.7495 3.20831C18.5413 5.00182 19.5278 7.38585 19.5269 9.92139C19.5246 15.153 15.2665 19.41 10.0358 19.41C10.0355 19.41 10.0359 19.41 10.0358 19.41H10.0317C8.44322 19.4094 6.88255 19.011 5.49628 18.255L0.464844 19.5744ZM5.72929 16.5373L6.01752 16.708C7.22846 17.4267 8.61686 17.8068 10.0327 17.8076H10.0358C14.3836 17.8076 17.9224 14.2694 17.9243 9.92078C17.925 7.8134 17.1053 5.83174 15.6159 4.34112C14.1264 2.85049 12.1459 2.02911 10.0387 2.02819C5.68732 2.02819 2.14865 5.56594 2.14697 9.91437C2.14636 11.4045 2.56324 12.8557 3.35303 14.1114L3.54071 14.4099L2.74359 17.3201L5.72929 16.5373Z" fill="#15803D"/>
<path fill-rule="evenodd" clip-rule="evenodd" d="M7.6636 5.94712C7.48599 5.55222 7.29891 5.54428 7.12985 5.53742C6.9916 5.53147 6.83337 5.53177 6.67544 5.53177C6.51736 5.53177 6.2604 5.59128 6.04312 5.82856C5.82568 6.06583 5.21289 6.63957 5.21289 7.80641C5.21289 8.97341 6.0628 10.1009 6.18136 10.2593C6.29992 10.4175 7.82198 12.8885 10.2324 13.8392C12.2357 14.6293 12.6433 14.4721 13.0782 14.4326C13.513 14.3931 14.4812 13.8588 14.6788 13.3051C14.8766 12.7514 14.8766 12.2768 14.8172 12.1775C14.7579 12.0787 14.5998 12.0194 14.3626 11.9008C14.1255 11.7823 12.9596 11.2084 12.7422 11.1293C12.5247 11.0501 12.3667 11.0108 12.2086 11.2482C12.0503 11.4853 11.5962 12.0194 11.4578 12.1775C11.3194 12.336 11.181 12.3558 10.9439 12.2371C10.7068 12.1183 9.94295 11.868 9.03689 11.0601C8.33193 10.4315 7.85586 9.65517 7.71746 9.41775C7.57922 9.18062 7.71517 9.06344 7.82168 8.93389C8.01348 8.70058 8.33529 8.28111 8.41433 8.12303C8.49337 7.96464 8.45385 7.82625 8.39465 7.70753C8.33529 7.58897 7.87432 6.41618 7.6636 5.94712Z" fill="#15803D"/>
</g>
<defs>
<clipPath id="clip0_672_2615">
<rect width="20" height="20" fill="white"/>
</clipPath>
</defs>
</svg>
