<svg width="20" height="20" viewBox="0 0 20 20" fill="none" xmlns="http://www.w3.org/2000/svg">
<path d="M0.464844 19.5746L1.81128 14.6578C0.980744 13.2187 0.543884 11.5863 0.544495 9.91398C0.546631 4.68221 4.80414 0.425781 10.0358 0.425781C12.5745 0.426849 14.9575 1.41501 16.7495 3.20852C18.5413 5.00203 19.5278 7.38606 19.5269 9.92161C19.5246 15.1532 15.2665 19.4103 10.0358 19.4103C10.0355 19.4103 10.0359 19.4103 10.0358 19.4103H10.0317C8.44322 19.4097 6.88255 19.0112 5.49628 18.2552L0.464844 19.5746ZM5.72929 16.5375L6.01752 16.7082C7.22846 17.4269 8.61686 17.807 10.0327 17.8078H10.0358C14.3836 17.8078 17.9224 14.2696 17.9243 9.921C17.925 7.81361 17.1053 5.83196 15.6159 4.34133C14.1264 2.8507 12.1459 2.02932 10.0387 2.02841C5.68732 2.02841 2.14865 5.56615 2.14697 9.91459C2.14636 11.4048 2.56324 12.8559 3.35303 14.1117L3.54071 14.4101L2.74359 17.3203L5.72929 16.5375Z" fill="#22C55E"/>
<path fill-rule="evenodd" clip-rule="evenodd" d="M7.6636 5.94758C7.48599 5.55268 7.29891 5.54474 7.12985 5.53787C6.9916 5.53192 6.83337 5.53223 6.67544 5.53223C6.51736 5.53223 6.2604 5.59174 6.04312 5.82901C5.82568 6.06629 5.21289 6.64002 5.21289 7.80687C5.21289 8.97387 6.0628 10.1013 6.18136 10.2597C6.29992 10.418 7.82198 12.889 10.2324 13.8396C12.2357 14.6297 12.6433 14.4726 13.0782 14.433C13.513 14.3935 14.4812 13.8593 14.6788 13.3056C14.8766 12.7518 14.8766 12.2773 14.8172 12.1779C14.7579 12.0792 14.5998 12.0198 14.3626 11.9013C14.1255 11.7827 12.9596 11.2088 12.7422 11.1298C12.5247 11.0506 12.3667 11.0112 12.2086 11.2487C12.0503 11.4858 11.5962 12.0198 11.4578 12.1779C11.3194 12.3365 11.181 12.3563 10.9439 12.2376C10.7068 12.1187 9.94295 11.8685 9.03689 11.0605C8.33193 10.432 7.85586 9.65563 7.71746 9.4182C7.57922 9.18108 7.71517 9.06389 7.82168 8.93435C8.01348 8.70104 8.33529 8.28157 8.41433 8.12349C8.49337 7.9651 8.45385 7.8267 8.39465 7.70799C8.33529 7.58943 7.87432 6.41663 7.6636 5.94758Z" fill="#22C55E"/>
</svg>
