<svg width="142" height="36" viewBox="0 0 142 36" fill="none" xmlns="http://www.w3.org/2000/svg">
    <path d="M0.5 4C0.5 2.067 2.067 0.5 4 0.5H138C139.933 0.5 141.5 2.067 141.5 4V32C141.5 33.933 139.933 35.5 138 35.5H4C2.06701 35.5 0.5 33.933 0.5 32V4Z" stroke="#22C55E"/>
    <g clip-path="url(#clip0_420_2249)">
    <path d="M16.4648 27.5744L17.8113 22.6575C16.9807 21.2185 16.5439 19.5861 16.5445 17.9137C16.5466 12.682 20.8041 8.42554 26.0358 8.42554C28.5745 8.42661 30.9575 9.41476 32.7495 11.2083C34.5413 13.0018 35.5278 15.3858 35.5269 17.9214C35.5246 23.153 31.2665 27.41 26.0358 27.41C26.0355 27.41 26.0359 27.41 26.0358 27.41H26.0317C24.4432 27.4094 22.8825 27.011 21.4963 26.2549L16.4648 27.5744ZM21.7293 24.5373L22.0175 24.708C23.2285 25.4267 24.6169 25.8068 26.0327 25.8075H26.0358C30.3836 25.8075 33.9224 22.2693 33.9243 17.9208C33.925 15.8134 33.1053 13.8317 31.6159 12.3411C30.1264 10.8505 28.1459 10.0291 26.0387 10.0282C21.6873 10.0282 18.1487 13.5659 18.147 17.9143C18.1464 19.4045 18.5632 20.8556 19.353 22.1114L19.5407 22.4099L18.7436 25.32L21.7293 24.5373Z" fill="#22C55E"/>
    <path fill-rule="evenodd" clip-rule="evenodd" d="M23.6636 13.9471C23.486 13.5522 23.2989 13.5443 23.1298 13.5374C22.9916 13.5314 22.8334 13.5317 22.6754 13.5317C22.5174 13.5317 22.2604 13.5913 22.0431 13.8285C21.8257 14.0658 21.2129 14.6395 21.2129 15.8064C21.2129 16.9734 22.0628 18.1009 22.1814 18.2592C22.2999 18.4175 23.822 20.8885 26.2324 21.8391C28.2357 22.6292 28.6433 22.4721 29.0782 22.4325C29.513 22.393 30.4812 21.8588 30.6788 21.3051C30.8766 20.7513 30.8766 20.2768 30.8172 20.1774C30.7579 20.0787 30.5998 20.0194 30.3626 19.9008C30.1255 19.7822 28.9596 19.2083 28.7422 19.1293C28.5247 19.0501 28.3667 19.0107 28.2086 19.2482C28.0503 19.4853 27.5962 20.0194 27.4578 20.1774C27.3194 20.336 27.181 20.3558 26.9439 20.2371C26.7068 20.1182 25.943 19.868 25.0369 19.06C24.3319 18.4315 23.8559 17.6551 23.7175 17.4177C23.5792 17.1806 23.7152 17.0634 23.8217 16.9339C24.0135 16.7005 24.3353 16.2811 24.4143 16.123C24.4934 15.9646 24.4538 15.8262 24.3946 15.7075C24.3353 15.5889 23.8743 14.4161 23.6636 13.9471Z" fill="#22C55E"/>
    </g>
    <path d="M47.1122 23L44.2884 12.8182H45.9041L47.8878 20.7031H47.9822L50.0455 12.8182H51.6463L53.7095 20.7081H53.804L55.7827 12.8182H57.4034L54.5746 23H53.0284L50.8857 15.3736H50.8061L48.6634 23H47.1122ZM59.2042 23V12.8182H60.7404V17.2429H65.8164V12.8182H67.3576V23H65.8164V18.5604H60.7404V23H59.2042ZM70.8549 23H69.2242L72.8882 12.8182H74.6631L78.3272 23H76.6965L73.8179 14.6676H73.7384L70.8549 23ZM71.1283 19.0128H76.4181V20.3054H71.1283V19.0128ZM78.4923 14.1406V12.8182H86.3722V14.1406H83.1954V23H81.6641V14.1406H78.4923ZM94.0668 15.4929C94.0138 15.0223 93.795 14.6577 93.4105 14.3991C93.0261 14.1373 92.5422 14.0064 91.9588 14.0064C91.5412 14.0064 91.18 14.0727 90.875 14.2053C90.5701 14.3345 90.3331 14.5135 90.1641 14.7422C89.9984 14.9676 89.9155 15.2244 89.9155 15.5128C89.9155 15.7547 89.9719 15.9635 90.0846 16.1392C90.2006 16.3149 90.3514 16.4624 90.537 16.5817C90.7259 16.6977 90.9281 16.7955 91.1435 16.875C91.3589 16.9512 91.5661 17.0142 91.7649 17.0639L92.7593 17.3224C93.0841 17.402 93.4172 17.5097 93.7586 17.6456C94.0999 17.7815 94.4165 17.9605 94.7081 18.1825C94.9998 18.4046 95.2351 18.6797 95.4141 19.0078C95.5964 19.3359 95.6875 19.7287 95.6875 20.1861C95.6875 20.7628 95.5384 21.2749 95.2401 21.7223C94.9451 22.1697 94.5159 22.5227 93.9524 22.7812C93.3923 23.0398 92.7145 23.169 91.9191 23.169C91.1568 23.169 90.4972 23.0481 89.9404 22.8061C89.3836 22.5642 88.9477 22.2211 88.6328 21.777C88.318 21.3295 88.144 20.7992 88.1108 20.1861H89.652C89.6819 20.554 89.8012 20.8606 90.01 21.1058C90.2221 21.3478 90.4922 21.5284 90.8203 21.6477C91.1518 21.7637 91.5147 21.8217 91.9091 21.8217C92.3433 21.8217 92.7294 21.7538 93.0675 21.6179C93.4089 21.4787 93.6774 21.2865 93.8729 21.0412C94.0685 20.7926 94.1662 20.5026 94.1662 20.1712C94.1662 19.8696 94.0801 19.6226 93.9077 19.4304C93.7387 19.2382 93.5083 19.0791 93.2167 18.9531C92.9283 18.8272 92.6018 18.7161 92.2372 18.62L91.0341 18.2919C90.2188 18.0698 89.5725 17.7434 89.0952 17.3125C88.6212 16.8816 88.3843 16.3116 88.3843 15.6023C88.3843 15.0156 88.5434 14.5036 88.8615 14.0661C89.1797 13.6286 89.6106 13.2888 90.1542 13.0469C90.6977 12.8016 91.3109 12.679 91.9936 12.679C92.683 12.679 93.2912 12.8 93.8182 13.0419C94.3485 13.2839 94.7661 13.617 95.0711 14.0412C95.376 14.4621 95.5351 14.946 95.5483 15.4929H94.0668ZM98.7013 23H97.0707L100.735 12.8182H102.51L106.174 23H104.543L101.664 14.6676H101.585L98.7013 23ZM98.9748 19.0128H104.265V20.3054H98.9748V19.0128ZM108.044 23V12.8182H111.673C112.465 12.8182 113.122 12.9624 113.642 13.2507C114.162 13.5391 114.552 13.9335 114.81 14.4339C115.069 14.9311 115.198 15.4912 115.198 16.1143C115.198 16.7408 115.067 17.3042 114.805 17.8047C114.547 18.3018 114.156 18.6963 113.632 18.9879C113.112 19.2763 112.457 19.4205 111.668 19.4205H109.173V18.1179H111.529C112.03 18.1179 112.436 18.0317 112.747 17.8594C113.059 17.6837 113.287 17.4451 113.433 17.1435C113.579 16.8419 113.652 16.4988 113.652 16.1143C113.652 15.7299 113.579 15.3885 113.433 15.0902C113.287 14.7919 113.057 14.5582 112.742 14.3892C112.431 14.2202 112.02 14.1357 111.509 14.1357H109.58V23H108.044ZM117.399 23V12.8182H121.028C121.82 12.8182 122.477 12.9624 122.997 13.2507C123.517 13.5391 123.907 13.9335 124.165 14.4339C124.424 14.9311 124.553 15.4912 124.553 16.1143C124.553 16.7408 124.422 17.3042 124.16 17.8047C123.902 18.3018 123.511 18.6963 122.987 18.9879C122.467 19.2763 121.812 19.4205 121.023 19.4205H118.528V18.1179H120.884C121.385 18.1179 121.791 18.0317 122.102 17.8594C122.414 17.6837 122.642 17.4451 122.788 17.1435C122.934 16.8419 123.007 16.4988 123.007 16.1143C123.007 15.7299 122.934 15.3885 122.788 15.0902C122.642 14.7919 122.412 14.5582 122.097 14.3892C121.786 14.2202 121.375 14.1357 120.864 14.1357H118.935V23H117.399Z" fill="#22C55E"/>
    <defs>
    <clipPath id="clip0_420_2249">
    <rect width="20" height="20" fill="white" transform="translate(16 8)"/>
    </clipPath>
    </defs>
    </svg>
    